<?xml version="1.0" encoding="utf-8"?>
<!-- Generator: Adobe Illustrator 21.1.0, SVG Export Plug-In . SVG Version: 6.00 Build 0)  -->
<svg version="1.1" id="Layer_1" xmlns="http://www.w3.org/2000/svg" xmlns:xlink="http://www.w3.org/1999/xlink" x="0px" y="0px"
	 viewBox="0 0 100 100" style="enable-background:new 0 0 100 100;" xml:space="preserve">
<style type="text/css">
	.st0{fill:#7ab1cc;}
</style>
<g>
	<path class="st0" d="M35.2,49.4c-8.2,0-16,3.2-21.9,9.1c-5.8,5.8-9.1,13.6-9.1,21.9v4.8c0,1.3,1.1,2.3,2.4,2.3S9,86.5,9,85.2v-4.8
		c0-7,2.7-13.6,7.7-18.5c0.7-0.7,1.4-1.3,2.2-1.9c3.1,3,6.8,5.1,11,6c0.2,0,0.4,0.1,0.5,0.1c1.1,0,2-0.7,2.3-1.8
		c0.3-1.3-0.5-2.5-1.8-2.8c-3-0.7-5.7-2.1-8-4.1c3.8-2,8-3.1,12.3-3.1c1.3,0,2.4-1.1,2.4-2.3S36.5,49.4,35.2,49.4z"/>
	<path class="st0" d="M11.2,8.6h6.9v16.2c0,9.5,7.7,17.2,17.2,17.2c9.5,0,17.2-7.7,17.2-17.2V8.6h6.7c1.3,0,2.4-1.1,2.4-2.3
		s-1.1-2.3-2.4-2.3h-9H20.5h-9.3c-1.3,0-2.4,1.1-2.4,2.3S9.9,8.6,11.2,8.6z M35.4,37.2c-6.9,0-12.5-5.6-12.5-12.5v-2.6h25v2.6
		C47.8,31.6,42.2,37.2,35.4,37.2z M47.8,8.6v8.9h-25V8.6H47.8z"/>
	<path class="st0" d="M67.3,37.9c-16.1,0-29.2,13.1-29.2,29.2s13.1,29.2,29.2,29.2s29.2-13.1,29.2-29.2S83.4,37.9,67.3,37.9z
		 M67.3,91.5c-13.5,0-24.5-11-24.5-24.5s11-24.5,24.5-24.5c13.5,0,24.5,11,24.5,24.5S80.8,91.5,67.3,91.5z"/>
	<path class="st0" d="M77.2,56.8L63.8,72.1l-6.2-7.5c-0.8-1-2.3-1.1-3.3-0.3c-1,0.8-1.1,2.3-0.3,3.3l8,9.7c0.4,0.5,1.1,0.8,1.8,0.9
		c0,0,0,0,0,0c0.7,0,1.3-0.3,1.8-0.8l15.2-17.4c0.9-1,0.8-2.5-0.2-3.3C79.5,55.8,78,55.9,77.2,56.8z"/>
</g>
</svg>
