<?xml version="1.0" encoding="utf-8"?>
<!-- Generator: Adobe Illustrator 21.1.0, SVG Export Plug-In . SVG Version: 6.00 Build 0)  -->
<svg version="1.1" id="Layer_1" xmlns="http://www.w3.org/2000/svg" xmlns:xlink="http://www.w3.org/1999/xlink" x="0px" y="0px"
	 viewBox="0 0 102.7 70.5" style="enable-background:new 0 0 102.7 70.5;" xml:space="preserve">
<style type="text/css">
	.st0{fill:#7ab1cc;}
</style>
<g>
	<path class="st0" d="M101.4,35.1L73.1,20.6c-0.7-0.3-1.4-0.3-2.1,0L41.6,35.1c-1.2,0.6-1.6,2-1.1,3.1c0.4,0.8,1.2,1.3,2.1,1.3
		c0.3,0,0.7-0.1,1-0.2l4.2-2.1v24.9c0,4.7,3.8,8.4,8.4,8.4h30.2c4.7,0,8.4-3.8,8.4-8.4v-25l4.2,2.2c1.2,0.6,2.6,0.1,3.2-1
		C103,37.1,102.6,35.7,101.4,35.1z M90.3,62.1c0,2.1-1.7,3.7-3.7,3.7H56.4c-2.1,0-3.7-1.7-3.7-3.7V34.9l19.4-9.6l18.3,9.4V62.1z"/>
	<path class="st0" d="M42.1,45.5h-26c-2.1,0-3.7-1.7-3.7-3.7V14.4L30.6,5L50,14.5v8.1c0,1.3,1.1,2.4,2.4,2.4s2.4-1.1,2.4-2.4v-5.8
		l4.2,2.1c0.3,0.2,0.7,0.2,1,0.2c0.9,0,1.7-0.5,2.1-1.3c0.6-1.2,0.1-2.6-1.1-3.1L31.7,0.2c-0.7-0.3-1.5-0.3-2.1,0L1.3,14.7
		c-1.2,0.6-1.6,2-1,3.2c0.6,1.2,2,1.6,3.2,1l4.2-2.2v25c0,4.7,3.8,8.4,8.4,8.4h26c1.3,0,2.4-1.1,2.4-2.4S43.4,45.5,42.1,45.5z"/>
</g>
</svg>
