<svg id="Layer_1" data-name="Layer 1" xmlns="http://www.w3.org/2000/svg" viewBox="0 0 32 32"><defs><style>.cls-1{fill:#fff;}.cls-2{fill:#8b8b8b;}</style></defs><title>MYLS_Icons</title><rect class="cls-1" width="32" height="32"/><rect class="cls-1" x="4" y="4" width="24" height="24"/><path class="cls-2" d="M26,26H6V6H26l1.71-1.71A1,1,0,0,0,27,4H5A1,1,0,0,0,4,5V27a1,1,0,0,0,1,1H27a1,1,0,0,0,1-1V10l-2,2Z"/><polygon class="cls-2" points="8 9 8 11 21 11 23 9 8 9"/><polygon class="cls-2" points="24 15 24 14 23 15 24 15"/><polygon class="cls-2" points="8 13 8 15 17 15 19 13 8 13"/><polygon class="cls-2" points="8 17 8 19 13 19 15 17 8 17"/><polygon class="cls-2" points="24 19 24 17 21 17 19 19 24 19"/><polygon class="cls-2" points="8 21 8 23 9 23 11 21 8 21"/><polygon class="cls-2" points="18.44 23 18.44 21 17 21 15 23 18.44 23"/><path class="cls-2" d="M26,7h2a0,0,0,0,1,0,0V8a1,1,0,0,1-1,1h0a1,1,0,0,1-1-1V7A0,0,0,0,1,26,7Z" transform="translate(40.39 32.77) rotate(-135)"/><path class="cls-2" d="M12.3,23l1.56-.43-1.43-1.43L12,22.7A.25.25,0,0,0,12.3,23Z"/><rect class="cls-2" x="18.15" y="7.82" width="2.03" height="16.02" transform="translate(21.52 40.58) rotate(-135)"/><rect class="cls-2" x="24.54" y="8.94" width="2.03" height="1.01" transform="translate(36.93 34.2) rotate(-135)"/></svg>