<?xml version="1.0" encoding="utf-8"?>
<!-- Generator: Adobe Illustrator 21.1.0, SVG Export Plug-In . SVG Version: 6.00 Build 0)  -->
<svg version="1.1" id="Layer_1" xmlns="http://www.w3.org/2000/svg" xmlns:xlink="http://www.w3.org/1999/xlink" x="0px" y="0px"
	 viewBox="0 0 100 100" style="enable-background:new 0 0 100 100;" xml:space="preserve">
<style type="text/css">
	.st0{fill:#7ab1cc;}
</style>
<g>
	<path class="st0" d="M18.6,74.3c-5,0-9.1-4.1-9.1-9.1s4.1-9.1,9.1-9.1s9.1,4.1,9.1,9.1S23.7,74.3,18.6,74.3z M18.6,60.8
		c-2.4,0-4.4,2-4.4,4.4c0,2.4,2,4.4,4.4,4.4s4.4-2,4.4-4.4C23,62.8,21.1,60.8,18.6,60.8z"/>
</g>
<g>
	<path class="st0" d="M30.5,98.8H6.8c-1.3,0-2.4-1.1-2.4-2.4v-6.8c0-3.8,1.5-7.4,4.2-10c2.7-2.7,6.3-4.2,10-4.2
		c3.8,0,7.4,1.5,10,4.2c2.7,2.7,4.2,6.2,4.2,10v6.8C32.8,97.7,31.8,98.8,30.5,98.8z M9.1,94.1h19v-4.4c0-2.5-1-4.9-2.8-6.7
		c-1.8-1.8-4.2-2.8-6.7-2.8s-4.9,1-6.7,2.8c-1.8,1.8-2.8,4.2-2.8,6.7V94.1z"/>
</g>
<g>
	<path class="st0" d="M50.4,74.3c-5,0-9.1-4.1-9.1-9.1s4.1-9.1,9.1-9.1s9.1,4.1,9.1,9.1S55.4,74.3,50.4,74.3z M50.4,60.8
		c-2.4,0-4.4,2-4.4,4.4c0,2.4,2,4.4,4.4,4.4s4.4-2,4.4-4.4C54.8,62.8,52.8,60.8,50.4,60.8z"/>
</g>
<g>
	<path class="st0" d="M62.2,98.8H38.6c-1.3,0-2.4-1.1-2.4-2.4v-6.8c0-3.8,1.5-7.4,4.2-10c2.7-2.7,6.3-4.2,10-4.2
		c3.8,0,7.4,1.5,10,4.2c2.7,2.7,4.2,6.2,4.2,10v6.8C64.6,97.7,63.5,98.8,62.2,98.8z M40.9,94.1h19v-4.4c0-2.5-1-4.9-2.8-6.7
		c-1.8-1.8-4.2-2.8-6.7-2.8s-4.9,1-6.7,2.8c-1.8,1.8-2.8,4.2-2.8,6.7V94.1z"/>
</g>
<g>
	<path class="st0" d="M82.2,74.3c-5,0-9.1-4.1-9.1-9.1s4.1-9.1,9.1-9.1s9.1,4.1,9.1,9.1S87.2,74.3,82.2,74.3z M82.2,60.8
		c-2.4,0-4.4,2-4.4,4.4c0,2.4,2,4.4,4.4,4.4c2.4,0,4.4-2,4.4-4.4C86.6,62.8,84.6,60.8,82.2,60.8z"/>
</g>
<g>
	<path class="st0" d="M94,98.8H70.3c-1.3,0-2.4-1.1-2.4-2.4v-6.8c0-3.8,1.5-7.4,4.2-10c2.7-2.7,6.3-4.2,10-4.2c3.8,0,7.4,1.5,10,4.2
		c2.7,2.7,4.2,6.2,4.2,10v6.8C96.4,97.7,95.3,98.8,94,98.8z M72.7,94.1h19v-4.4c0-2.5-1-4.9-2.8-6.7c-1.8-1.8-4.2-2.8-6.7-2.8
		s-4.9,1-6.7,2.8c-1.8,1.8-2.8,4.2-2.8,6.7V94.1z"/>
</g>
<g>
	<path class="st0" d="M88.1,47H13.5c-4.5,0-8.2-3.7-8.2-8.2V8.7c0-4.5,3.7-8.2,8.2-8.2h74.6c4.5,0,8.2,3.7,8.2,8.2v30.1
		C96.4,43.3,92.7,47,88.1,47z M13.5,5.2c-1.9,0-3.5,1.6-3.5,3.5v30.1c0,1.9,1.6,3.5,3.5,3.5h74.6c1.9,0,3.5-1.6,3.5-3.5V8.7
		c0-1.9-1.6-3.5-3.5-3.5H13.5z"/>
</g>
<g>
	<g>
		<path class="st0" d="M61.1,15.7H21.2c-1.3,0-2.4-1.1-2.4-2.4s1.1-2.4,2.4-2.4h39.9c1.3,0,2.4,1.1,2.4,2.4S62.4,15.7,61.1,15.7z"/>
	</g>
	<g>
		<path class="st0" d="M79.6,26.1H21.2c-1.3,0-2.4-1.1-2.4-2.4s1.1-2.4,2.4-2.4h58.4c1.3,0,2.4,1.1,2.4,2.4S80.9,26.1,79.6,26.1z"/>
	</g>
	<g>
		<path class="st0" d="M79.6,36.5H21.2c-1.3,0-2.4-1.1-2.4-2.4s1.1-2.4,2.4-2.4h58.4c1.3,0,2.4,1.1,2.4,2.4S80.9,36.5,79.6,36.5z"/>
	</g>
</g>
</svg>
