<?xml version="1.0" encoding="utf-8"?>
<!-- Generator: Adobe Illustrator 21.1.0, SVG Export Plug-In . SVG Version: 6.00 Build 0)  -->
<svg version="1.1" id="Layer_1" xmlns="http://www.w3.org/2000/svg" xmlns:xlink="http://www.w3.org/1999/xlink" x="0px" y="0px"
	 viewBox="0 0 100 100" style="enable-background:new 0 0 100 100;" xml:space="preserve">
<style type="text/css">
	.st0{fill:#7ab1cc;}
</style>
<g>
	<path class="st0" d="M87.7,1H13.1C8.6,1,4.9,4.7,4.9,9.3v42.1c0,4.5,3.7,8.2,8.2,8.2h19.6V69L20.4,96c-0.5,1.2,0,2.6,1.2,3.1
		c0.3,0.1,0.6,0.2,1,0.2c0.9,0,1.7-0.5,2.1-1.4l11.9-26h11.5V97c0,1.3,1.1,2.4,2.4,2.4s2.4-1.1,2.4-2.4V71.9h11.5l11.9,26
		c0.4,0.9,1.2,1.4,2.1,1.4c0.3,0,0.7-0.1,1-0.2c1.2-0.5,1.7-1.9,1.2-3.1L68.1,69v-9.5h19.6c4.5,0,8.2-3.7,8.2-8.2V9.3
		C95.9,4.7,92.2,1,87.7,1z M63.4,67.2h-26v-7.6h26V67.2z M91.2,51.4c0,1.9-1.6,3.5-3.5,3.5h-22H35.1h-22c-1.9,0-3.5-1.6-3.5-3.5V9.3
		c0-1.9,1.6-3.5,3.5-3.5h74.6c1.9,0,3.5,1.6,3.5,3.5V51.4z"/>
	<path class="st0" d="M21.2,19.2h39.9c1.3,0,2.4-1.1,2.4-2.4s-1.1-2.4-2.4-2.4H21.2c-1.3,0-2.4,1.1-2.4,2.4S19.9,19.2,21.2,19.2z"/>
	<path class="st0" d="M79.6,28H21.2c-1.3,0-2.4,1.1-2.4,2.4s1.1,2.4,2.4,2.4h58.4c1.3,0,2.4-1.1,2.4-2.4S80.9,28,79.6,28z"/>
	<path class="st0" d="M79.6,41.4H21.2c-1.3,0-2.4,1.1-2.4,2.4s1.1,2.4,2.4,2.4h58.4c1.3,0,2.4-1.1,2.4-2.4S80.9,41.4,79.6,41.4z"/>
</g>
</svg>
