<?xml version="1.0" encoding="utf-8"?>
<!-- Generator: Adobe Illustrator 21.1.0, SVG Export Plug-In . SVG Version: 6.00 Build 0)  -->
<svg version="1.1" id="Layer_1" xmlns="http://www.w3.org/2000/svg" xmlns:xlink="http://www.w3.org/1999/xlink" x="0px" y="0px"
	 viewBox="0 0 100 100" style="enable-background:new 0 0 100 100;" xml:space="preserve">
<style type="text/css">
	.st0{fill:#7ab1cc;}
</style>
<path class="st0" d="M92.1,49.7l-39.3-19V26h16.6c0.9,0,1.7-0.5,2.1-1.3c0.4-0.8,0.3-1.7-0.2-2.4l-3.5-5l3.5-5
	c0.5-0.7,0.6-1.7,0.2-2.4C71,9,70.2,8.6,69.3,8.6H52.8V7c0-1.3-1.1-2.4-2.4-2.4S48.1,5.7,48.1,7v3.9v12.7v7.6c0,0.1,0,0.1,0,0.2
	L8.8,49.7c-1.2,0.5-1.7,1.9-1.1,3.1c0.4,0.9,1.2,1.4,2.1,1.4c0.3,0,0.7-0.1,1-0.2l7.4-3.4v34.4c0,5.8,4.9,10.4,10.9,10.4h11.5h19.6
	h11.5c6,0,10.9-4.7,10.9-10.4V50.3l7.4,3.6c1.2,0.6,2.6,0.1,3.1-1.1C93.7,51.6,93.2,50.2,92.1,49.7z M64.8,13.3l-1.9,2.7
	c-0.6,0.8-0.6,1.9,0,2.7l1.9,2.7h-12v-8H64.8z M42.9,90.6V65.8h14.9v24.8H42.9z M77.9,84.8c0,3.2-2.8,5.7-6.2,5.7h-9.1V63.4
	c0-1.3-1.1-2.4-2.4-2.4H40.6c-1.3,0-2.4,1.1-2.4,2.4v27.1h-9.1c-3.4,0-6.2-2.6-6.2-5.7V48.3l28.3-13.1l26.8,12.9V84.8z"/>
</svg>
