<?xml version="1.0" encoding="utf-8"?>
<!-- Generator: Adobe Illustrator 21.1.0, SVG Export Plug-In . SVG Version: 6.00 Build 0)  -->
<svg version="1.1" id="Layer_1" xmlns="http://www.w3.org/2000/svg" xmlns:xlink="http://www.w3.org/1999/xlink" x="0px" y="0px"
	 viewBox="0 0 75.1 105.4" style="enable-background:new 0 0 75.1 105.4;" xml:space="preserve">
<style type="text/css">
	.st0{fill:#7ab1cc;}
</style>
<g>
	<path class="st0" d="M37.6,58.3c16.1,0,29.2-13.1,29.2-29.2S53.6,0,37.6,0S8.4,13.1,8.4,29.2S21.5,58.3,37.6,58.3z M37.6,4.7
		C51,4.7,62,15.7,62,29.2c0,13.5-11,24.5-24.5,24.5s-24.5-11-24.5-24.5C13.1,15.7,24.1,4.7,37.6,4.7z"/>
	<path class="st0" d="M28.8,40.6c1.9,1.2,3.9,1.9,5.9,2.2c0,0,0,0,0.1,0v1.8c0,1.3,1.1,2.4,2.3,2.4s2.3-1.1,2.3-2.4v-1.7
		c0.3,0,0.6-0.1,0.9-0.2c2.6-0.6,4.7-1.9,5.9-3.8c1.6-2.6,1.4-6-0.4-8.3c-2-2.5-5.1-3.6-7.7-4.4c-0.8-0.3-1.5-0.5-2-0.7
		c-0.1,0-0.2-0.1-0.4-0.2c-1.5-0.6-2.4-1.2-2.4-2.4c0-2,2-2.7,3.8-2.7c1.4,0,3.3,0.4,5.1,1.1c1.2,0.4,2.6-0.2,3-1.4
		c0.4-1.2-0.2-2.6-1.4-3c-1.5-0.5-3-0.9-4.4-1.1v-1.8c0-1.3-1.1-2.4-2.3-2.4s-2.3,1.1-2.3,2.4v1.8c-3.7,0.8-6.2,3.5-6.2,7.2
		c0,4.5,4,6.2,5.3,6.8l0.2,0.1c0.7,0.3,1.6,0.6,2.5,0.9c2,0.7,4.4,1.5,5.5,2.9c0.6,0.8,0.7,2,0.1,2.9c-0.7,1.1-2.1,1.5-2.9,1.7
		c-0.4,0.1-0.8,0.1-1.3,0.2c-0.9,0.1-1.8,0-2.8-0.1c-1.4-0.2-2.7-0.7-4-1.5c-1.1-0.7-2.6-0.4-3.2,0.7S27.7,39.9,28.8,40.6z"/>
	<path class="st0" d="M75.1,67.8c0-7.5-2.2-14.7-6.3-20.9c-0.7-1.1-2.2-1.4-3.3-0.6c-1.1,0.7-1.4,2.2-0.6,3.3
		c3.2,4.8,5.1,10.2,5.5,15.9H58.4c-0.1-2.3-0.3-4.6-0.6-6.9c-0.2-1.3-1.4-2.2-2.7-2c-1.3,0.2-2.2,1.4-2,2.7c0.3,2,0.5,4.1,0.5,6.2
		H39.9v-1.3c0-1.3-1.1-2.3-2.3-2.3s-2.3,1.1-2.3,2.3v1.3H21.4c0.1-2.1,0.3-4.2,0.5-6.2c0.2-1.3-0.7-2.5-2-2.6
		c-1.3-0.2-2.5,0.7-2.6,2c-0.3,2.3-0.5,4.6-0.6,6.9H4.8c0.4-5.7,2.3-11.2,5.5-15.9c0.7-1.1,0.4-2.5-0.6-3.3
		c-1.1-0.7-2.5-0.4-3.3,0.6C2.2,53.1,0,60.4,0,67.8c0,20.5,16.6,37.3,37,37.5c0.2,0,0.4,0,0.5,0c0.2,0,0.4,0,0.5,0
		C58.6,105.1,75.1,88.4,75.1,67.8z M53.7,70.2c-0.6,15.2-6.5,27.9-13.8,30.1V70.2H53.7z M35.2,100.3c-7.4-2.3-13.3-15-13.8-30.1
		h13.8V100.3z M4.8,70.2h11.9c0.4,11.6,3.6,21.7,8.5,28C13.8,93.6,5.7,82.9,4.8,70.2z M50,98.3c4.9-6.3,8.1-16.4,8.5-28.1h11.9
		C69.4,82.9,61.3,93.6,50,98.3z"/>
</g>
</svg>
