<?xml version="1.0" encoding="utf-8"?>
<!-- Generator: Adobe Illustrator 21.1.0, SVG Export Plug-In . SVG Version: 6.00 Build 0)  -->
<svg version="1.1" id="Layer_1" xmlns="http://www.w3.org/2000/svg" xmlns:xlink="http://www.w3.org/1999/xlink" x="0px" y="0px"
	 viewBox="0 0 100 100" style="enable-background:new 0 0 100 100;" xml:space="preserve">
<style type="text/css">
	.st0{fill:#7ab1cc;}
</style>
<g>
	<path class="st0" d="M87.2,9.4H13.6C7.9,9.4,3.2,14,3.2,19.7v60.4c0,5.7,4.6,10.3,10.3,10.3h73.7c5.7,0,10.3-4.6,10.3-10.3V19.7
		C97.6,14,92.9,9.4,87.2,9.4z M13.6,14.1h73.7c3.1,0,5.6,2.5,5.6,5.6v5h-85v-5C7.9,16.6,10.5,14.1,13.6,14.1z M7.9,80.1V29.4h24.8
		v56.4H13.6C10.5,85.8,7.9,83.2,7.9,80.1z M87.2,85.8H37.5V29.4h55.4v50.7C92.9,83.2,90.3,85.8,87.2,85.8z"/>
	<rect x="44.7" y="38.7" class="st0" width="4.7" height="38.3"/>
	<rect x="53.7" y="58.6" class="st0" width="4.7" height="18.4"/>
	<rect x="62.8" y="51.4" class="st0" width="4.7" height="25.6"/>
	<rect x="71.9" y="44.1" class="st0" width="4.7" height="32.9"/>
	<rect x="80.9" y="59.5" class="st0" width="4.7" height="17.5"/>
	<path class="st0" d="M20.3,52.9c4.6,0,8.3-3.7,8.3-8.3s-3.7-8.3-8.3-8.3c-4.6,0-8.3,3.7-8.3,8.3S15.8,52.9,20.3,52.9z M20.3,41.1
		c2,0,3.6,1.6,3.6,3.6s-1.6,3.6-3.6,3.6s-3.6-1.6-3.6-3.6S18.4,41.1,20.3,41.1z"/>
	<path class="st0" d="M20.3,62.3c-4.6,0-8.3,3.7-8.3,8.3c0,4.6,3.7,8.3,8.3,8.3c4.6,0,8.3-3.7,8.3-8.3C28.6,66,24.9,62.3,20.3,62.3z
		 M20.3,74.1c-2,0-3.6-1.6-3.6-3.6s1.6-3.6,3.6-3.6s3.6,1.6,3.6,3.6S22.3,74.1,20.3,74.1z"/>
</g>
</svg>
