<?xml version="1.0" encoding="utf-8"?>
<!-- Generator: Adobe Illustrator 21.1.0, SVG Export Plug-In . SVG Version: 6.00 Build 0)  -->
<svg version="1.1" id="Layer_1" xmlns="http://www.w3.org/2000/svg" xmlns:xlink="http://www.w3.org/1999/xlink" x="0px" y="0px"
	 viewBox="0 0 100 100" style="enable-background:new 0 0 100 100;" xml:space="preserve">
<style type="text/css">
	.st0{fill:#7ab1cc;}
</style>
<g>
	<path class="st0" d="M87.3,9.8h-28c-3.6,0-6.8,1.7-8.9,4.4c-2.1-2.7-5.3-4.4-8.9-4.4h-28c-3.8,0-7,3.1-7,7v55.6
		c0,4.3,3.5,7.9,7.9,7.9h27.1c3.6,0,6.5,2.9,6.5,6.5c0,1.3,1.1,2.4,2.4,2.4s2.4-1.1,2.4-2.4c0-3.6,2.9-6.5,6.5-6.5h27.1
		c4.3,0,7.9-3.5,7.9-7.9V16.8C94.3,12.9,91.2,9.8,87.3,9.8z M41.5,75.5H14.4c-1.7,0-3.1-1.4-3.1-3.1V16.8c0-1.3,1-2.3,2.3-2.3h28
		c3.6,0,6.5,2.9,6.5,6.5v56.5C46.2,76.3,43.9,75.5,41.5,75.5z M89.6,72.3c0,1.7-1.4,3.1-3.1,3.1H59.3c-2.4,0-4.7,0.8-6.5,2.1V21.1
		c0-3.6,2.9-6.5,6.5-6.5h28c1.3,0,2.3,1,2.3,2.3V72.3z"/>
	<path class="st0" d="M78.8,26.9H63.6c-1.3,0-2.4,1.1-2.4,2.4s1.1,2.4,2.4,2.4h15.2c1.3,0,2.4-1.1,2.4-2.4S80.1,26.9,78.8,26.9z"/>
	<path class="st0" d="M78.8,42.7H63.6c-1.3,0-2.4,1.1-2.4,2.4s1.1,2.4,2.4,2.4h15.2c1.3,0,2.4-1.1,2.4-2.4S80.1,42.7,78.8,42.7z"/>
	<path class="st0" d="M78.8,58.5H63.6c-1.3,0-2.4,1.1-2.4,2.4s1.1,2.4,2.4,2.4h15.2c1.3,0,2.4-1.1,2.4-2.4S80.1,58.5,78.8,58.5z"/>
	<path class="st0" d="M37.2,26.9H22c-1.3,0-2.4,1.1-2.4,2.4s1.1,2.4,2.4,2.4h15.2c1.3,0,2.4-1.1,2.4-2.4S38.5,26.9,37.2,26.9z"/>
	<path class="st0" d="M37.2,42.7H22c-1.3,0-2.4,1.1-2.4,2.4s1.1,2.4,2.4,2.4h15.2c1.3,0,2.4-1.1,2.4-2.4S38.5,42.7,37.2,42.7z"/>
	<path class="st0" d="M37.2,58.5H22c-1.3,0-2.4,1.1-2.4,2.4s1.1,2.4,2.4,2.4h15.2c1.3,0,2.4-1.1,2.4-2.4S38.5,58.5,37.2,58.5z"/>
</g>
</svg>
