<?xml version="1.0" encoding="utf-8"?>
<!-- Generator: Adobe Illustrator 21.1.0, SVG Export Plug-In . SVG Version: 6.00 Build 0)  -->
<svg version="1.1" id="Layer_1" xmlns="http://www.w3.org/2000/svg" xmlns:xlink="http://www.w3.org/1999/xlink" x="0px" y="0px"
	 viewBox="0 0 100 100" style="enable-background:new 0 0 100 100;" xml:space="preserve">
<style type="text/css">
	.st0{fill:#7ab1cc;}
</style>
<g>
	<g>
		<path class="st0" d="M12.8,75.8c-3,0-5.4-2.4-5.4-5.4V7.1c0-3,2.4-5.4,5.4-5.4h53.1c3,0,5.4,2.4,5.4,5.4c0,1.3-1.1,2.4-2.4,2.4
			s-2.4-1.1-2.4-2.4c0-0.4-0.3-0.6-0.6-0.6H12.8c-0.4,0-0.6,0.3-0.6,0.6v63.4c0,0.4,0.3,0.6,0.6,0.6c1.3,0,2.4,1.1,2.4,2.4
			S14.1,75.8,12.8,75.8z"/>
	</g>
	<g>
		<path class="st0" d="M23.9,86.9c-3,0-5.4-2.4-5.4-5.4V18.2c0-3,2.4-5.4,5.4-5.4h53.1c3,0,5.4,2.4,5.4,5.4c0,1.3-1.1,2.4-2.4,2.4
			s-2.4-1.1-2.4-2.4c0-0.4-0.3-0.6-0.6-0.6H23.9c-0.4,0-0.6,0.3-0.6,0.6v63.4c0,0.4,0.3,0.6,0.6,0.6c1.3,0,2.4,1.1,2.4,2.4
			S25.2,86.9,23.9,86.9z"/>
	</g>
	<g>
		<path class="st0" d="M88,98H34.9c-3,0-5.4-2.4-5.4-5.4V29.2c0-3,2.4-5.4,5.4-5.4H88c3,0,5.4,2.4,5.4,5.4v63.4
			C93.4,95.6,91,98,88,98z M34.9,28.6c-0.4,0-0.6,0.3-0.6,0.6v63.4c0,0.4,0.3,0.6,0.6,0.6H88c0.4,0,0.6-0.3,0.6-0.6V29.2
			c0-0.4-0.3-0.6-0.6-0.6H34.9z"/>
	</g>
	<g>
		<path class="st0" d="M77.4,45.6H45.6c-1.3,0-2.4-1.1-2.4-2.4s1.1-2.4,2.4-2.4h31.8c1.3,0,2.4,1.1,2.4,2.4S78.7,45.6,77.4,45.6z"/>
	</g>
	<g>
		<path class="st0" d="M77.4,63.3H45.6c-1.3,0-2.4-1.1-2.4-2.4s1.1-2.4,2.4-2.4h31.8c1.3,0,2.4,1.1,2.4,2.4S78.7,63.3,77.4,63.3z"/>
	</g>
	<g>
		<path class="st0" d="M77.4,81H45.6c-1.3,0-2.4-1.1-2.4-2.4s1.1-2.4,2.4-2.4h31.8c1.3,0,2.4,1.1,2.4,2.4S78.7,81,77.4,81z"/>
	</g>
</g>
</svg>
