<?xml version="1.0" encoding="utf-8"?>
<!-- Generator: Adobe Illustrator 21.1.0, SVG Export Plug-In . SVG Version: 6.00 Build 0)  -->
<svg version="1.1" id="Layer_1" xmlns="http://www.w3.org/2000/svg" xmlns:xlink="http://www.w3.org/1999/xlink" x="0px" y="0px"
	 viewBox="0 0 100 100" style="enable-background:new 0 0 100 100;" xml:space="preserve">
<style type="text/css">
	.st0{fill:#7ab1cc;}
</style>
<g>
	<path class="st0" d="M83.5,16.9c-1.3,0-2.3,1.1-2.3,2.3s1.1,2.3,2.3,2.3c1.5,0,2.7,1.2,2.7,2.7v64.4c0,1.5-1.2,2.7-2.7,2.7H30.1
		c-1.5,0-2.7-1.2-2.7-2.7c0-1.3-1.1-2.3-2.3-2.3s-2.3,1.1-2.3,2.3c0,4.1,3.3,7.4,7.4,7.4h53.3c4.1,0,7.4-3.3,7.4-7.4V24.3
		C90.8,20.2,87.5,16.9,83.5,16.9z"/>
	<path class="st0" d="M77.2,75.1V10.7c0-4.1-3.3-7.4-7.4-7.4h-41c-0.1,0-0.3,0-0.4,0c0,0,0,0,0,0c-0.2,0-0.4,0.1-0.6,0.2
		c0,0-0.1,0-0.1,0.1c-0.2,0.1-0.4,0.2-0.5,0.4L9.9,21.3c-0.1,0.1-0.3,0.3-0.4,0.5c0,0-0.1,0.1-0.1,0.1c-0.1,0.2-0.2,0.4-0.2,0.6
		c0,0,0,0,0,0c0,0.1,0,0.3,0,0.4v52.1c0,4.1,3.3,7.4,7.4,7.4h53.3C73.9,82.5,77.2,79.2,77.2,75.1z M26.5,11.3v9.3h-9.3L26.5,11.3z
		 M13.9,75.1V25.3h15c1.3,0,2.3-1.1,2.3-2.3V8h38.7c1.5,0,2.7,1.2,2.7,2.7v64.4c0,1.5-1.2,2.7-2.7,2.7H16.5
		C15.1,77.8,13.9,76.6,13.9,75.1z"/>
	<rect x="38.1" y="21.5" class="st0" width="23.8" height="4.7"/>
	<rect x="24.6" y="40.5" class="st0" width="37.3" height="4.7"/>
	<rect x="24.6" y="59.6" class="st0" width="37.3" height="4.7"/>
</g>
</svg>
