<?xml version="1.0" encoding="utf-8"?>
<!-- Generator: Adobe Illustrator 21.1.0, SVG Export Plug-In . SVG Version: 6.00 Build 0)  -->
<svg version="1.1" id="Layer_1" xmlns="http://www.w3.org/2000/svg" xmlns:xlink="http://www.w3.org/1999/xlink" x="0px" y="0px"
	 viewBox="0 0 65.7 104.2" style="enable-background:new 0 0 65.7 104.2;" xml:space="preserve">
<style type="text/css">
	.st0{fill:#7ab1cc;}
</style>
<g>
	<path class="st0" d="M65.4,44.9c-0.6-1.8-2.3-3-4.2-3H4.4c-1.9,0-3.6,1.2-4.2,3c-0.6,1.8,0,3.8,1.6,5l19.3,13.6
		c1.4,1.1,2.3,2.8,2.3,4.6v33.8c0,0.9,0.5,1.6,1.2,2.1c0.4,0.2,0.8,0.3,1.1,0.3c0.4,0,0.9-0.1,1.2-0.4l14-8.7c0.7-0.4,1.1-1.2,1.1-2
		V68c0-1.8,0.9-3.5,2.3-4.6l19.4-13.6C65.4,48.7,66,46.7,65.4,44.9z M41.7,59.7c-2.6,2-4.2,5.1-4.2,8.4v23.8l-9.3,5.8V68
		c0-3.3-1.6-6.4-4.3-8.4L5.3,46.5h55.1L41.7,59.7z"/>
	<path class="st0" d="M12.6,37.7c1.2-0.6,1.7-2,1.1-3.1c-1.3-2.8-2-5.8-2-8.9c0-11.6,9.4-21,21-21c11.6,0,21,9.4,21,21
		c0,3.1-0.7,6.1-2,8.9c-0.6,1.2,0,2.6,1.1,3.1c0.3,0.2,0.7,0.2,1,0.2c0.9,0,1.7-0.5,2.1-1.4c1.6-3.4,2.4-7.1,2.4-10.9
		C58.6,11.5,47,0,32.8,0C18.6,0,7.1,11.5,7.1,25.7c0,3.8,0.8,7.5,2.4,10.9C10.1,37.8,11.5,38.3,12.6,37.7z"/>
	<path class="st0" d="M32.5,40.7c1.3,0,2.3-1.1,2.3-2.4v-1.1c0.1,0,0.3,0,0.4-0.1c2.3-0.5,4.1-1.7,5.1-3.3c1.4-2.3,1.2-5.3-0.4-7.3
		c-1.7-2.1-4.5-3.1-6.5-3.8c-0.6-0.2-1.2-0.4-1.6-0.6c-0.1,0-0.2-0.1-0.3-0.1c-1.3-0.5-1.7-0.9-1.7-1.6c0-1.7,2.1-1.8,2.7-1.8
		c1.1,0,2.6,0.3,4,0.8c1.2,0.4,2.6-0.2,3-1.4c0.4-1.2-0.2-2.6-1.4-3c-1.1-0.4-2.2-0.7-3.3-0.9v-1.1c0-1.3-1.1-2.4-2.3-2.4
		s-2.3,1.1-2.3,2.4v1.2c-3.1,0.8-5.1,3.1-5.1,6.2c0,2.7,1.6,4.7,4.6,5.9l0.2,0.1c0.6,0.3,1.3,0.5,2.1,0.8c1.6,0.5,3.5,1.2,4.4,2.2
		c0.4,0.5,0.4,1.3,0.1,1.9c-0.3,0.5-1.1,1-2.1,1.2c-0.3,0.1-0.6,0.1-1,0.1c-0.7,0.1-1.5,0-2.2-0.1c-1.1-0.1-2.1-0.6-3.2-1.2
		c-1.1-0.7-2.6-0.4-3.2,0.7c-0.7,1.1-0.4,2.6,0.7,3.2c1.5,0.9,3.1,1.5,4.7,1.8v1.1C30.1,39.7,31.2,40.7,32.5,40.7z"/>
</g>
</svg>
