<?xml version="1.0" encoding="utf-8"?>
<!-- Generator: Adobe Illustrator 21.1.0, SVG Export Plug-In . SVG Version: 6.00 Build 0)  -->
<svg version="1.1" id="Layer_1" xmlns="http://www.w3.org/2000/svg" xmlns:xlink="http://www.w3.org/1999/xlink" x="0px" y="0px"
	 viewBox="0 0 100.7 73.1" style="enable-background:new 0 0 100.7 73.1;" xml:space="preserve">
<style type="text/css">
	.st0{fill:#7ab1cc;}
</style>
<g>
	<path class="st0" d="M32.9,15.3c0,1.3,1.1,2.4,2.4,2.4h3.5v10.3c0,6.4,5.2,11.7,11.7,11.7s11.7-5.2,11.7-11.7V17.6h3.3
		c1.3,0,2.4-1.1,2.4-2.4s-1.1-2.4-2.4-2.4h-5.7H41.1h-5.8C34,12.9,32.9,14,32.9,15.3z M43.5,17.6h14v4.8h-14V17.6z M43.5,27.1h14
		v0.8c0,3.8-3.1,7-7,7c-3.8,0-7-3.1-7-7V27.1z"/>
	<path class="st0" d="M83.3,29.2c-4.6,0-9,1.8-12.3,5.1c-2.4,2.4-4.1,5.5-4.7,8.8c-0.3,1.3,0.6,2.5,1.8,2.8c1.3,0.3,2.5-0.6,2.8-1.8
		c0.2-1.1,0.6-2.2,1.1-3.3c3.1,2.8,7.2,4.4,11.4,4.4c4.1,0,8.1-1.5,11.2-4.2c0.9,1.7,1.3,3.6,1.3,5.6v11.2c0,1.3,1.1,2.4,2.4,2.4
		s2.4-1.1,2.4-2.4V46.6c0-4.6-1.8-9-5.1-12.3C92.3,31,88,29.2,83.3,29.2z M83.5,40.5c-3.2,0-6.2-1.2-8.5-3.4c2.3-2,5.3-3.2,8.3-3.2
		c3.2,0,6.2,1.2,8.5,3.3C89.6,39.3,86.6,40.5,83.5,40.5z"/>
	<path class="st0" d="M68.2,4.7h3.5V15c0,6.4,5.2,11.7,11.7,11.7S95,21.4,95,15V4.7h3.3c1.3,0,2.4-1.1,2.4-2.4S99.6,0,98.4,0h-5.7
		H74h-5.8c-1.3,0-2.4,1.1-2.4,2.4S66.9,4.7,68.2,4.7z M76.4,4.7h14v4.8h-14V4.7z M76.4,14.2h14V15c0,3.8-3.1,7-7,7c-3.8,0-7-3.1-7-7
		V14.2z"/>
	<path class="st0" d="M50.4,42.1c-4.6,0-9,1.8-12.3,5.1c-3.3,3.3-5.1,7.6-5.1,12.3v11.2c0,1.3,1.1,2.4,2.4,2.4s2.4-1.1,2.4-2.4V59.5
		c0-2,0.5-4,1.4-5.7c3.1,2.8,7.1,4.3,11.3,4.3c0,0,0,0,0,0c4.2,0,8.2-1.6,11.3-4.3c0.9,1.7,1.4,3.7,1.4,5.7v11.2
		c0,1.3,1.1,2.4,2.4,2.4s2.4-1.1,2.4-2.4V59.5c0-4.6-1.8-9-5.1-12.3C59.4,43.9,55.1,42.1,50.4,42.1z M50.4,53.4
		c-3.1,0-6.2-1.2-8.4-3.4c2.3-2.1,5.3-3.2,8.4-3.2c3.1,0,6.1,1.1,8.4,3.2C56.6,52.2,53.6,53.4,50.4,53.4z"/>
	<path class="st0" d="M34.4,43.1c-0.7-3.3-2.3-6.4-4.7-8.8c-3.3-3.3-7.7-5.1-12.3-5.1c-4.6,0-9,1.8-12.3,5.1C1.8,37.6,0,42,0,46.6
		v11.2c0,1.3,1.1,2.4,2.4,2.4s2.4-1.1,2.4-2.4V46.6c0-2,0.5-3.9,1.3-5.6c3.1,2.7,7.1,4.2,11.2,4.2c0,0,0,0,0,0
		c4.2,0,8.3-1.6,11.4-4.4c0.5,1,0.9,2.1,1.1,3.3c0.3,1.3,1.5,2.1,2.8,1.8C33.8,45.6,34.6,44.4,34.4,43.1z M17.2,40.5
		c-3.1,0-6.1-1.2-8.4-3.3c2.3-2.1,5.3-3.3,8.5-3.3c3.1,0,6,1.1,8.3,3.2C23.4,39.3,20.4,40.5,17.2,40.5z"/>
	<path class="st0" d="M2.4,4.7h3.3V15c0,6.4,5.2,11.7,11.7,11.7S29,21.4,29,15V4.7h3.5c1.3,0,2.4-1.1,2.4-2.4S33.8,0,32.5,0h-5.8H8
		H2.4C1.1,0,0,1.1,0,2.4S1.1,4.7,2.4,4.7z M10.4,4.7h14v4.8h-14V4.7z M10.4,14.2h14V15c0,3.8-3.1,7-7,7c-3.8,0-7-3.1-7-7V14.2z"/>
</g>
</svg>
