<?xml version="1.0" encoding="utf-8"?>
<!-- Generator: Adobe Illustrator 21.1.0, SVG Export Plug-In . SVG Version: 6.00 Build 0)  -->
<svg version="1.1" id="Layer_1" xmlns="http://www.w3.org/2000/svg" xmlns:xlink="http://www.w3.org/1999/xlink" x="0px" y="0px"
	 viewBox="0 0 100 100" style="enable-background:new 0 0 100 100;" xml:space="preserve">
<style type="text/css">
	.st0{fill:#7ab1cc;}
</style>
<g>
	<path class="st0" d="M28.5,46.2c-2.1-2.2-3.2-5.1-3.2-8.1c0-6.5,5.3-11.9,11.9-11.9c3.3,0,6.3,1.3,8.6,3.7c0.9,0.9,2.4,1,3.3,0.1
		c0.9-0.9,1-2.4,0.1-3.3c-3.2-3.3-7.4-5.1-12-5.1c-9.1,0-16.6,7.4-16.6,16.6c0,4.2,1.6,8.3,4.5,11.4c0.5,0.5,1.1,0.7,1.7,0.7
		c0.6,0,1.2-0.2,1.6-0.6C29.3,48.7,29.4,47.2,28.5,46.2z"/>
	<path class="st0" d="M96.6,58.1C93.3,42.8,80,31.5,64.5,30.5v-3.2c0-1.3-1.1-2.4-2.4-2.4s-2.4,1.1-2.4,2.4v3.2
		c-15.4,1-28.7,12.3-32.1,27.5c-0.2,0.9,0.2,1.9,0.9,2.4c0.8,0.5,1.8,0.6,2.6,0.1c2.4-1.5,5.1-2.3,8-2.3c3.7,0,7.2,1.3,9.9,3.7
		c0.4,0.4,1,0.6,1.6,0.6s1.1-0.2,1.6-0.6c2.1-1.9,4.7-3.1,7.4-3.5v22.5c0,1.3,1.1,2.4,2.4,2.4s2.4-1.1,2.4-2.4V58.3
		c2.8,0.4,5.4,1.6,7.6,3.5c0.9,0.8,2.2,0.8,3.1,0c2.7-2.3,6.2-3.6,9.8-3.6c2.9,0,5.8,0.8,8.2,2.5c0.8,0.5,1.8,0.5,2.6,0
		C96.4,60,96.8,59.1,96.6,58.1z M84.8,53.5c-4.1,0-8,1.3-11.3,3.6c-3.3-2.3-7.2-3.6-11.3-3.6c-4.1,0-8.1,1.3-11.5,3.7
		c-3.3-2.4-7.3-3.7-11.5-3.7c-1.9,0-3.7,0.3-5.5,0.8c4.6-11.3,15.8-19.2,28.4-19.2c12.6,0,23.8,7.8,28.4,19.2
		C88.7,53.7,86.8,53.5,84.8,53.5z"/>
	<path class="st0" d="M37.1,18c1.3,0,2.4-1.1,2.4-2.4V7.5c0-1.3-1.1-2.4-2.4-2.4s-2.4,1.1-2.4,2.4v8.2C34.8,16.9,35.8,18,37.1,18z"
		/>
	<path class="st0" d="M19.6,23.9c0.5,0.5,1.1,0.7,1.7,0.7s1.2-0.2,1.7-0.7c0.9-0.9,0.9-2.4,0-3.3l-5.8-5.8c-0.9-0.9-2.4-0.9-3.3,0
		c-0.9,0.9-0.9,2.4,0,3.3L19.6,23.9z"/>
	<path class="st0" d="M17,38.1c0-1.3-1.1-2.4-2.4-2.4H6.5c-1.3,0-2.4,1.1-2.4,2.4s1.1,2.4,2.4,2.4h8.2C16,40.4,17,39.4,17,38.1z"/>
	<path class="st0" d="M19.5,52.4l-5.7,5.7c-0.9,0.9-0.9,2.4,0,3.3c0.5,0.5,1.1,0.7,1.7,0.7s1.2-0.2,1.7-0.7l5.7-5.7
		c0.9-0.9,0.9-2.4,0-3.3S20.4,51.5,19.5,52.4z"/>
	<path class="st0" d="M53,24.6c0.6,0,1.2-0.2,1.7-0.7l5.8-5.8c0.9-0.9,0.9-2.4,0-3.3s-2.4-0.9-3.3,0l-5.8,5.8
		c-0.9,0.9-0.9,2.4,0,3.3C51.8,24.3,52.4,24.6,53,24.6z"/>
	<path class="st0" d="M90.3,90.4c-2.2,0-3.1-0.6-4.5-1.4c-1.5-0.9-3.4-2-6.9-2c-3.5,0-5.4,1.1-6.9,2c-1.3,0.8-2.3,1.4-4.5,1.4
		c-2.2,0-3.1-0.6-4.5-1.4c-1.5-0.9-3.4-2-6.9-2c-3.5,0-5.4,1.1-6.9,2c-1.3,0.8-2.3,1.4-4.5,1.4c-2.2,0-3.1-0.6-4.5-1.4
		c-1.5-0.9-3.4-2-6.9-2c-1.3,0-2.4,1.1-2.4,2.4s1.1,2.4,2.4,2.4c2.2,0,3.1,0.6,4.5,1.4c1.5,0.9,3.4,2,6.9,2c3.5,0,5.4-1.1,6.9-2
		c1.3-0.8,2.3-1.4,4.5-1.4c2.2,0,3.1,0.6,4.5,1.4c1.5,0.9,3.4,2,6.9,2c3.5,0,5.4-1.1,6.9-2c1.3-0.8,2.3-1.4,4.5-1.4s3.1,0.6,4.5,1.4
		c1.5,0.9,3.4,2,6.9,2c1.3,0,2.4-1.1,2.4-2.4S91.6,90.4,90.3,90.4z"/>
</g>
</svg>
