<?xml version="1.0" encoding="utf-8"?>
<!-- Generator: Adobe Illustrator 21.1.0, SVG Export Plug-In . SVG Version: 6.00 Build 0)  -->
<svg version="1.1" id="Layer_1" xmlns="http://www.w3.org/2000/svg" xmlns:xlink="http://www.w3.org/1999/xlink" x="0px" y="0px"
	 viewBox="0 0 100 100" style="enable-background:new 0 0 100 100;" xml:space="preserve">
<style type="text/css">
	.st0{fill:#7ab1cc;}
</style>
<g>
	<path class="st0" d="M51,55.9c14.2,0,25.7-11.5,25.7-25.7S65.2,4.4,51,4.4S25.3,16,25.3,30.1S36.8,55.9,51,55.9z M51,9.1
		c11.6,0,21,9.4,21,21s-9.4,21-21,21s-21-9.4-21-21S39.4,9.1,51,9.1z"/>
	<path class="st0" d="M97.3,48.7l-0.4-0.6c-0.5-1.7-1.5-3.3-3-4.3l-11-8c-1-0.8-2.5-0.5-3.3,0.5c-0.8,1-0.5,2.5,0.5,3.3l10.9,8
		l-26.6,20l-12.1-8.9c-0.8-0.6-2-0.6-2.8,0l-12.1,8.9L10.4,47.2l10.4-7.6c1-0.8,1.3-2.2,0.5-3.3c-0.8-1-2.2-1.3-3.3-0.5l-11,8
		c-2.1,1.5-3.3,3.9-3.3,6.5V88c0,4.4,3.6,8,8,8h77.4c4.4,0,8-3.6,8-8V50.3c0-0.5-0.1-0.9-0.1-1.3L97.3,48.7z M51,63.4l37.7,27.9
		H13.3L51,63.4z M8.6,88.9c-0.1-0.3-0.1-0.6-0.1-0.9V51.6l25.1,18.9L8.6,88.9z M92.5,88c0,0.1,0,0.1,0,0.2l-24-17.7l24.1-18.1V88z"
		/>
	<path class="st0" d="M43.6,39.9c1.5,0.9,3.1,1.5,4.7,1.8v1.1c0,1.3,1.1,2.4,2.3,2.4s2.3-1.1,2.3-2.4v-1.1c0.1,0,0.3,0,0.4-0.1
		c2.3-0.5,4.1-1.7,5.1-3.3c1.4-2.3,1.2-5.3-0.4-7.3c-1.7-2.1-4.5-3.1-6.5-3.8C51,27,50.4,26.8,50,26.6c-0.1,0-0.2-0.1-0.3-0.1
		c-1.3-0.5-1.7-0.9-1.7-1.6c0-1.7,2.1-1.8,2.7-1.8c1.1,0,2.6,0.3,4,0.8c1.2,0.4,2.6-0.2,3-1.4c0.4-1.2-0.2-2.6-1.4-3
		c-1.1-0.4-2.2-0.7-3.3-0.9v-1.1c0-1.3-1.1-2.4-2.3-2.4s-2.3,1.1-2.3,2.4v1.2c-3.1,0.8-5.1,3.1-5.1,6.2c0,2.7,1.6,4.7,4.6,5.9
		l0.2,0.1c0.6,0.3,1.3,0.5,2.1,0.8c1.6,0.5,3.5,1.2,4.3,2.2c0.4,0.5,0.4,1.3,0.1,1.9c-0.3,0.5-1.1,1-2.1,1.2c-0.3,0.1-0.6,0.1-1,0.1
		c-0.7,0.1-1.5,0-2.2-0.1c-1.1-0.1-2.1-0.6-3.2-1.2c-1.1-0.7-2.5-0.4-3.2,0.7C42.2,37.8,42.5,39.2,43.6,39.9z"/>
</g>
</svg>
