<?xml version="1.0" encoding="utf-8"?>
<!-- Generator: Adobe Illustrator 21.1.0, SVG Export Plug-In . SVG Version: 6.00 Build 0)  -->
<svg version="1.1" id="Layer_1" xmlns="http://www.w3.org/2000/svg" xmlns:xlink="http://www.w3.org/1999/xlink" x="0px" y="0px"
	 viewBox="0 0 87.9 100.5" style="enable-background:new 0 0 87.9 100.5;" xml:space="preserve">
<style type="text/css">
	.st0{fill:#7ab1cc;}
</style>
<g>
	<path class="st0" d="M44,11.9c-17.8,0-32.4,14.5-32.4,32.4c0,17.1,13.3,31.1,30,32.3v0.1h0.8c0.5,0,1,0,1.6,0s1.1,0,1.6,0h0.8v-0.1
		c16.8-1.2,30-15.2,30-32.3C76.3,26.4,61.8,11.9,44,11.9z M71.5,41.9h-9.4c-0.4-9.3-2.8-17.3-6.5-22.8
		C64.4,23.2,70.7,31.8,71.5,41.9z M41.6,17v24.9H30.5C31.1,29.5,35.7,19.2,41.6,17z M41.6,46.6v24.9c-5.9-2.2-10.6-12.5-11.1-24.9
		H41.6z M46.3,71.5V46.6h11.1C56.9,58.9,52.2,69.2,46.3,71.5z M46.3,41.9V17c5.9,2.2,10.6,12.5,11.1,24.9H46.3z M32.4,19.1
		c-3.7,5.4-6.2,13.5-6.5,22.8h-9.4C17.3,31.8,23.6,23.2,32.4,19.1z M16.4,46.6h9.4c0.4,9.3,2.8,17.3,6.5,22.8
		C23.6,65.3,17.3,56.7,16.4,46.6z M55.6,69.3c3.7-5.4,6.2-13.5,6.5-22.8h9.4C70.7,56.7,64.4,65.3,55.6,69.3z"/>
	<path class="st0" d="M44,0C19.7,0,0,19.7,0,44c0,17.8,10.9,33.9,27.2,40.6v13.5c0,0.9,0.5,1.8,1.4,2.1c0.3,0.1,0.6,0.2,1,0.2
		c0.6,0,1.1-0.2,1.5-0.6l13.8-12c23.8-0.5,43.1-20,43.1-44C87.9,19.7,68.2,0,44,0z M44,83.2c-0.6,0-1.1,0.2-1.5,0.6L31.9,93V83
		c0-1-0.6-1.9-1.5-2.2C15,75.1,4.7,60.3,4.7,44C4.7,22.3,22.3,4.7,44,4.7S83.2,22.3,83.2,44C83.2,65.6,65.6,83.2,44,83.2z"/>
</g>
</svg>
