<?xml version="1.0" encoding="utf-8"?>
<!-- Generator: Adobe Illustrator 21.1.0, SVG Export Plug-In . SVG Version: 6.00 Build 0)  -->
<svg version="1.1" id="Layer_1" xmlns="http://www.w3.org/2000/svg" xmlns:xlink="http://www.w3.org/1999/xlink" x="0px" y="0px"
	 viewBox="0 0 106.7 73.7" style="enable-background:new 0 0 106.7 73.7;" xml:space="preserve">
<style type="text/css">
	.st0{fill:#7ab1cc;}
</style>
<g>
	<path class="st0" d="M90.8,40.5c-1.3,0-2.3,1.1-2.3,2.4v20.4c0,3.2-2.6,5.8-5.8,5.8H10.5c-3.2,0-5.8-2.6-5.8-5.8V15.7
		c0-3.2,2.6-5.8,5.8-5.8h45.8c1.3,0,2.3-1.1,2.3-2.4s-1.1-2.4-2.3-2.4H10.5C4.7,5.2,0,9.9,0,15.7v47.5C0,69,4.7,73.7,10.5,73.7h72.2
		c5.8,0,10.5-4.7,10.5-10.5V42.9C93.2,41.6,92.1,40.5,90.8,40.5z"/>
	<path class="st0" d="M17.9,27.3h16.5c1.3,0,2.3-1.1,2.3-2.4s-1.1-2.4-2.3-2.4H17.9c-1.3,0-2.3,1.1-2.3,2.4S16.6,27.3,17.9,27.3z"/>
	<path class="st0" d="M46.7,37.1H17.9c-1.3,0-2.3,1.1-2.3,2.4s1.1,2.4,2.3,2.4h28.8c1.3,0,2.3-1.1,2.3-2.4S48,37.1,46.7,37.1z"/>
	<path class="st0" d="M15.5,54c0,1.3,1.1,2.4,2.3,2.4h53.4c1.3,0,2.3-1.1,2.3-2.4s-1.1-2.4-2.3-2.4H17.9
		C16.6,51.7,15.5,52.7,15.5,54z"/>
	<path class="st0" d="M106.6,3.8c-0.1-1.7-1.2-3.1-2.8-3.6c-1.6-0.5-3.3-0.1-4.4,1.2c-6,6.7-13.8,10.9-21.3,11.5v-2.4
		c0-1.7-1-3.3-2.5-4.2c-1.5-0.8-3.4-0.7-4.8,0.3L49.3,21c-1.3,0.9-2.1,2.3-2.1,3.9s0.8,3,2.1,3.9l21.4,14.4c0.8,0.5,1.7,0.8,2.6,0.8
		c0.8,0,1.5-0.2,2.2-0.6C77,42.6,78,41,78,39.3v-2.7c16.4-1.2,28.7-14,28.7-30C106.7,5.6,106.7,4.7,106.6,3.8z M77.3,31.9
		c-2.3,0.1-4,2-4,4.3l0,3.1L51.9,24.9l21.4-14.4v2.8c0,1.2,0.5,2.3,1.3,3.1c0.9,0.8,2,1.2,3.2,1.2c8.6-0.5,17.3-4.9,24.2-12.1
		c0,0.4,0,0.8,0,1.1C102,20.1,91.4,31,77.3,31.9z"/>
</g>
</svg>
