<?xml version="1.0" encoding="utf-8"?>
<!-- Generator: Adobe Illustrator 21.1.0, SVG Export Plug-In . SVG Version: 6.00 Build 0)  -->
<svg version="1.1" id="Layer_1" xmlns="http://www.w3.org/2000/svg" xmlns:xlink="http://www.w3.org/1999/xlink" x="0px" y="0px"
	 viewBox="0 0 100 100" style="enable-background:new 0 0 100 100;" xml:space="preserve">
<style type="text/css">
	.st0{fill:#7ab1cc;}
</style>
<g>
	<g>
		<path class="st0" d="M50.4,88.6c-1.3,0-2.6-0.3-3.7-0.8L10.6,71.5c-1.5-0.7-2.4-2.1-2.4-3.7c0-1.6,0.9-3,2.4-3.7l4.3-2
			c1.2-0.5,2.6,0,3.1,1.2c0.5,1.2,0,2.6-1.2,3.1l-3,1.3l34.7,15.7c1.2,0.5,2.5,0.5,3.6,0l34.7-15.7l-3-1.3c-1.2-0.5-1.7-1.9-1.2-3.1
			c0.5-1.2,1.9-1.7,3.1-1.2l4.3,2c1.5,0.7,2.4,2.1,2.4,3.7c0,1.6-0.9,3-2.4,3.7L54.1,87.8C53,88.3,51.7,88.6,50.4,88.6z M88.3,68.5
			L88.3,68.5L88.3,68.5z"/>
	</g>
	<g>
		<path class="st0" d="M50.4,71.1c-1.3,0-2.6-0.3-3.7-0.8L10.6,54c-1.5-0.7-2.4-2.1-2.4-3.7c0-1.6,0.9-3,2.4-3.7l4.3-2
			c1.2-0.5,2.6,0,3.1,1.2c0.5,1.2,0,2.6-1.2,3.1l-3,1.3L48.6,66c1.2,0.5,2.5,0.5,3.6,0l34.7-15.7L84,49c-1.2-0.5-1.7-1.9-1.2-3.1
			c0.5-1.2,1.9-1.7,3.1-1.2l4.3,1.9c1.5,0.7,2.4,2.1,2.4,3.7c0,1.6-0.9,3-2.4,3.7L54.1,70.3C53,70.8,51.7,71.1,50.4,71.1z
			 M88.3,50.9L88.3,50.9L88.3,50.9z"/>
	</g>
	<g>
		<path class="st0" d="M50.4,53.5c-1.3,0-2.6-0.3-3.7-0.8L10.6,36.5c-1.5-0.7-2.4-2.1-2.4-3.7s0.9-3,2.4-3.7l36.1-16.3
			c2.4-1.1,5.1-1.1,7.5,0l36.1,16.3c1.5,0.7,2.4,2.1,2.4,3.7s-0.9,3-2.4,3.7L54.1,52.7C53,53.3,51.7,53.5,50.4,53.5z M13.9,32.8
			l34.7,15.7c1.2,0.5,2.5,0.5,3.6,0l34.7-15.7L52.2,17.1c-1.2-0.5-2.5-0.5-3.6,0l0,0L13.9,32.8z M47.6,15L47.6,15L47.6,15z"/>
	</g>
</g>
</svg>
