<?xml version="1.0" encoding="utf-8"?>
<!-- Generator: Adobe Illustrator 21.1.0, SVG Export Plug-In . SVG Version: 6.00 Build 0)  -->
<svg version="1.1" id="Layer_1" xmlns="http://www.w3.org/2000/svg" xmlns:xlink="http://www.w3.org/1999/xlink" x="0px" y="0px"
	 viewBox="0 0 100 100" style="enable-background:new 0 0 100 100;" xml:space="preserve">
<style type="text/css">
	.st0{fill:#7ab1cc;}
</style>
<g>
	<g>
		<path class="st0" d="M78.8,27.6c-5.6,0-10.2-4.6-10.2-10.2S73.2,7.2,78.8,7.2S89,11.8,89,17.4S84.4,27.6,78.8,27.6z M78.8,11.9
			c-3,0-5.5,2.5-5.5,5.5c0,3,2.5,5.5,5.5,5.5s5.5-2.5,5.5-5.5C84.3,14.4,81.8,11.9,78.8,11.9z"/>
	</g>
	<g>
		<path class="st0" d="M81.1,92.2h-4.6c-3.7,0-6.8-3-6.8-6.8V68.2c-2.2-0.2-4-2.1-4-4.3V43c0-3.5,1.4-6.8,3.9-9.3
			c2.5-2.5,5.9-3.8,9.4-3.7c7.1,0.1,12.8,6.1,12.8,13.4v20.5c0,2.3-1.7,4.1-4,4.3v17.2C87.9,89.1,84.9,92.2,81.1,92.2z M70.5,63.5
			c2.2,0.2,4,2.1,4,4.3v17.6c0,1.2,0.9,2.1,2.1,2.1h4.6c1.2,0,2.1-0.9,2.1-2.1V67.8c0-2.3,1.7-4.1,4-4.3V43.4c0-4.7-3.7-8.6-8.2-8.7
			l0,0c-2.3,0-4.4,0.8-6,2.4s-2.5,3.7-2.5,6V63.5z"/>
	</g>
	<g>
		<path class="st0" d="M49.8,38.1c-5.6,0-10.2-4.6-10.2-10.2s4.6-10.2,10.2-10.2S60,22.3,60,27.9S55.4,38.1,49.8,38.1z M49.8,22.4
			c-3,0-5.5,2.5-5.5,5.5c0,3,2.5,5.5,5.5,5.5s5.5-2.5,5.5-5.5C55.3,24.9,52.9,22.4,49.8,22.4z"/>
	</g>
	<g>
		<path class="st0" d="M52.2,92.2h-4.6c-3.7,0-6.8-3-6.8-6.8v-12c-2.2-0.2-4-2.1-4-4.3V53.5c0-3.5,1.4-6.8,3.9-9.3
			c2.5-2.5,5.9-3.8,9.4-3.7l0,0c7.1,0.1,12.8,6.1,12.8,13.4v15.2c0,2.3-1.7,4.1-4,4.3v12C58.9,89.1,55.9,92.2,52.2,92.2z M41.5,68.8
			c2.2,0.2,4,2.1,4,4.3v12.3c0,1.2,0.9,2.1,2.1,2.1h4.6c1.2,0,2.1-0.9,2.1-2.1V73.1c0-2.3,1.7-4.1,4-4.3V53.9c0-4.7-3.7-8.6-8.2-8.7
			c-2.2,0-4.4,0.8-6,2.4c-1.6,1.6-2.5,3.7-2.5,6V68.8z"/>
	</g>
	<g>
		<path class="st0" d="M21.2,48.6C15.6,48.6,11,44,11,38.4s4.6-10.2,10.2-10.2s10.2,4.6,10.2,10.2S26.8,48.6,21.2,48.6z M21.2,32.9
			c-3,0-5.5,2.5-5.5,5.5c0,3,2.5,5.5,5.5,5.5s5.5-2.5,5.5-5.5C26.6,35.4,24.2,32.9,21.2,32.9z"/>
	</g>
	<g>
		<path class="st0" d="M23.5,92.2h-4.6c-3.7,0-6.8-3-6.8-6.8v-6.7c-2.2-0.2-4-2.1-4-4.3V64c0-3.5,1.4-6.8,3.9-9.3
			c2.5-2.5,5.9-3.8,9.4-3.7l0,0c7.1,0.1,12.8,6.1,12.8,13.4v10c0,2.3-1.7,4.1-4,4.3v6.7C30.3,89.1,27.2,92.2,23.5,92.2z M12.8,74
			c2.2,0.2,4,2.1,4,4.3v7.1c0,1.2,0.9,2.1,2.1,2.1h4.6c1.2,0,2.1-0.9,2.1-2.1v-7.1c0-2.3,1.7-4.1,4-4.3v-9.6c0-4.7-3.7-8.6-8.2-8.7
			l0,0c-2.3,0-4.4,0.8-6,2.4c-1.6,1.6-2.5,3.7-2.5,6V74z"/>
	</g>
</g>
</svg>
