<?xml version="1.0" encoding="utf-8"?>
<!-- Generator: Adobe Illustrator 21.1.0, SVG Export Plug-In . SVG Version: 6.00 Build 0)  -->
<svg version="1.1" id="Layer_1" xmlns="http://www.w3.org/2000/svg" xmlns:xlink="http://www.w3.org/1999/xlink" x="0px" y="0px"
	 viewBox="0 0 100 100" style="enable-background:new 0 0 100 100;" xml:space="preserve">
<style type="text/css">
	.st0{fill:#7ab1cc;}
</style>
<g>
	<path class="st0" d="M93,77.5h-4.3V42.6c0-13.2-8.4-24.5-20.1-28.9c0-0.2,0-0.3,0-0.5c0-6-4.9-10.8-10.8-10.8
		c-6,0-10.8,4.9-10.8,10.8c0,0.2,0,0.3,0,0.5c-1.1,0.4-2.2,0.9-3.3,1.4c-1.2,0.6-1.6,2-1,3.2c0.6,1.2,2,1.6,3.2,1
		c3.7-1.9,7.7-2.9,12-2.9c14.4,0,26.2,11.7,26.2,26.2v34.9H31.7v-2.2c0-1.3-1.1-2.3-2.3-2.3S27,74.1,27,75.4v2.2h-4.3
		c-1.3,0-2.3,1.1-2.3,2.3s1.1,2.3,2.3,2.3h63.2c0.2,0,0.3,0.1,0.5,0.1s0.3,0,0.5-0.1H93c1.3,0,2.3-1.1,2.3-2.3S94.3,77.5,93,77.5z
		 M51.8,12.3c0.4-3,3-5.3,6.1-5.3c3.1,0,5.7,2.3,6.1,5.3c-2-0.4-4-0.6-6.1-0.6C55.8,11.7,53.8,11.9,51.8,12.3z"/>
	<path class="st0" d="M69,84.7c-1.2-0.4-2.6,0.3-2.9,1.6c-1.1,3.7-4.4,6.1-8.3,6.1s-7.1-2.5-8.3-6.1c-0.4-1.2-1.7-2-2.9-1.6
		c-1.2,0.4-1.9,1.7-1.6,2.9c1.7,5.7,6.8,9.5,12.8,9.5s11-3.8,12.8-9.5C71,86.4,70.3,85.1,69,84.7z"/>
	<path class="st0" d="M23.6,62.9l1,4.1c0.2,0.9,1,1.6,1.9,1.8c1.2,0.2,2.5,0.3,3.9,0.3c1.3,0,2.6-0.1,3.9-0.3
		c0.9-0.1,1.7-0.9,1.9-1.8l1-4.1c0.7-0.3,1.5-0.6,2.2-0.9l3.6,2.2c0.8,0.5,1.8,0.5,2.6-0.1c2.1-1.5,3.9-3.3,5.5-5.4
		c0.6-0.8,0.6-1.8,0.1-2.6l-2.2-3.6c0.3-0.7,0.6-1.4,0.9-2.2l4.1-1c0.9-0.2,1.6-1,1.8-1.9c0.2-1.2,0.3-2.5,0.3-3.9
		c0-1.3-0.1-2.6-0.3-3.8c-0.1-0.9-0.9-1.7-1.8-1.9l-4.1-1c-0.3-0.7-0.6-1.5-0.9-2.2l2.2-3.6c0.5-0.8,0.5-1.9-0.1-2.6
		c-1.5-2.1-3.4-3.9-5.5-5.4c-0.8-0.6-1.8-0.6-2.6-0.1L39.3,25c-0.7-0.3-1.4-0.6-2.2-0.9l-1-4.1c-0.2-0.9-1-1.6-1.9-1.8
		c-2.5-0.4-5.2-0.4-7.7,0c-0.9,0.1-1.7,0.9-1.9,1.8l-1,4.1c-0.8,0.3-1.5,0.6-2.2,0.9l-3.6-2.2c-0.8-0.5-1.8-0.5-2.6,0.1
		c-2.1,1.5-3.9,3.3-5.5,5.4c-0.6,0.8-0.6,1.8-0.1,2.6l2.2,3.6c-0.3,0.7-0.6,1.4-0.9,2.2l-4.1,1c-0.9,0.2-1.6,1-1.8,1.9
		c-0.2,1.3-0.3,2.5-0.3,3.8c0,1.3,0.1,2.6,0.3,3.9c0.1,0.9,0.9,1.7,1.8,1.9l4.1,1c0.3,0.7,0.6,1.5,0.9,2.2L9.6,56
		c-0.5,0.8-0.5,1.9,0.1,2.6c1.6,2.1,3.4,3.9,5.5,5.4c0.8,0.6,1.8,0.6,2.6,0.1l3.6-2.2C22.1,62.3,22.8,62.6,23.6,62.9z M20,57.3
		l-3.4,2.1c-0.8-0.7-1.6-1.4-2.3-2.2l2.1-3.4c0.5-0.7,0.5-1.7,0-2.4c-0.7-1.2-1.2-2.4-1.5-3.7c-0.2-0.8-0.9-1.5-1.7-1.7l-3.9-0.9
		c0-0.5-0.1-1.1-0.1-1.6c0-0.5,0-1.1,0.1-1.6l3.9-0.9c0.8-0.2,1.5-0.8,1.7-1.7c0.3-1.3,0.9-2.5,1.5-3.7c0.4-0.7,0.4-1.7,0-2.4
		l-2.1-3.4c0.7-0.8,1.4-1.6,2.3-2.2l3.4,2.1c0.7,0.5,1.7,0.5,2.4,0c1.1-0.7,2.4-1.2,3.7-1.5c0.8-0.2,1.5-0.9,1.7-1.7l0.9-3.8
		c1-0.1,2.1-0.1,3.2,0l0.9,3.8c0.2,0.8,0.8,1.5,1.7,1.7c1.3,0.4,2.6,0.9,3.7,1.5c0.8,0.4,1.7,0.4,2.4,0l3.4-2.1
		c0.8,0.7,1.6,1.4,2.3,2.2l-2.1,3.4c-0.5,0.7-0.5,1.7,0,2.4c0.7,1.2,1.2,2.4,1.5,3.7c0.2,0.8,0.9,1.5,1.7,1.7l3.9,0.9
		c0,0.5,0.1,1,0.1,1.6c0,0.5,0,1.1-0.1,1.6L47.3,46c-0.8,0.2-1.5,0.8-1.7,1.7c-0.3,1.3-0.8,2.5-1.5,3.7c-0.4,0.7-0.4,1.7,0,2.4
		l2.1,3.4c-0.7,0.8-1.4,1.6-2.3,2.2l-3.4-2.1c-0.7-0.5-1.7-0.5-2.4,0c-1.2,0.7-2.4,1.2-3.7,1.5c-0.8,0.2-1.5,0.9-1.7,1.7l-0.9,3.8
		c-1,0.1-2.1,0.1-3.2,0l-0.9-3.8c-0.2-0.8-0.8-1.5-1.7-1.7c-1.3-0.4-2.5-0.9-3.7-1.5C21.7,56.8,20.8,56.8,20,57.3z"/>
	<path class="st0" d="M30.3,53.4c5.5,0,10-4.5,10-10c0-5.5-4.5-10-10-10s-10,4.5-10,10C20.4,49,24.8,53.4,30.3,53.4z M30.3,38.2
		c2.9,0,5.3,2.4,5.3,5.3c0,2.9-2.4,5.3-5.3,5.3s-5.3-2.4-5.3-5.3C25.1,40.6,27.4,38.2,30.3,38.2z"/>
</g>
</svg>
