<?xml version="1.0" encoding="utf-8"?>
<!-- Generator: Adobe Illustrator 21.1.0, SVG Export Plug-In . SVG Version: 6.00 Build 0)  -->
<svg version="1.1" id="Layer_1" xmlns="http://www.w3.org/2000/svg" xmlns:xlink="http://www.w3.org/1999/xlink" x="0px" y="0px"
	 viewBox="0 0 100 100" style="enable-background:new 0 0 100 100;" xml:space="preserve">
<style type="text/css">
	.st0{fill:#7ab1cc;}
</style>
<g>
	<path class="st0" d="M60.4,54.8c-0.6-0.2-1.2-0.4-1.6-0.6c-0.1,0-0.2-0.1-0.3-0.1c-1.3-0.5-1.7-0.9-1.7-1.6c0-1.6,2-1.8,2.7-1.8
		c1.1,0,2.6,0.3,4,0.8c1.2,0.4,2.6-0.2,3-1.4c0.4-1.2-0.2-2.6-1.4-3c-1.1-0.4-2.2-0.7-3.3-0.9v-1.1c0-1.3-1.1-2.4-2.3-2.4
		s-2.3,1.1-2.3,2.4v1.1c-3,0.8-5,3.1-5,6.2c0,2.6,1.5,4.6,4.6,5.9l0.2,0.1c0.6,0.3,1.3,0.5,2,0.8c1.5,0.5,3.4,1.2,4.3,2.2
		c0.4,0.5,0.4,1.3,0.1,1.9c-0.3,0.5-1.1,1-2.1,1.2c-0.3,0.1-0.6,0.1-1,0.1c-0.7,0.1-1.4,0-2.2-0.1C57,64.4,56,64,55,63.4
		c-1.1-0.7-2.5-0.4-3.2,0.7c-0.7,1.1-0.4,2.6,0.7,3.2c1.5,0.9,3,1.5,4.6,1.8v1.1c0,1.3,1.1,2.4,2.3,2.4s2.3-1.1,2.3-2.4v-1.1
		c0.1,0,0.3,0,0.4-0.1c2.3-0.5,4.1-1.7,5.1-3.3c1.4-2.3,1.2-5.3-0.4-7.3C65.2,56.4,62.4,55.5,60.4,54.8z"/>
	<path class="st0" d="M59.8,32.3c-14,0-25.4,11.4-25.4,25.4s11.4,25.4,25.4,25.4c14,0,25.4-11.4,25.4-25.4S73.8,32.3,59.8,32.3z
		 M59.8,78.5C48.4,78.5,39,69.1,39,57.7C39,46.3,48.4,37,59.8,37c11.4,0,20.7,9.3,20.7,20.7C80.5,69.1,71.2,78.5,59.8,78.5z"/>
	<path class="st0" d="M33.1,26.2c6,0,10.9-4.9,10.9-10.9S39.1,4.4,33.1,4.4S22.2,9.3,22.2,15.3S27.1,26.2,33.1,26.2z M33.1,9.1
		c3.4,0,6.2,2.8,6.2,6.2c0,3.4-2.8,6.2-6.2,6.2s-6.2-2.8-6.2-6.2C26.9,11.9,29.7,9.1,33.1,9.1z"/>
	<path class="st0" d="M43.8,82.2c-1.3,0-2.3,1.1-2.3,2.4v3.2c0,1.8-1.5,3.3-3.3,3.3H28c-1.8,0-3.3-1.5-3.3-3.3V71c0-2.7-2.2-5-5-5
		c-0.1,0-0.3-0.1-0.3-0.3V46.8c0-7.5,5.9-13.8,13.1-14.1c3-0.1,5.8,0.7,8.2,2.3c1.1,0.7,2.5,0.4,3.3-0.6c0.7-1.1,0.4-2.5-0.6-3.3
		c-3.2-2.2-7.1-3.3-11-3.1c-9.7,0.4-17.6,8.8-17.6,18.8v18.9c0,2.7,2.2,5,5,5c0.1,0,0.3,0.1,0.3,0.3v16.7c0,4.4,3.6,8,8,8h10.2
		c4.4,0,8-3.6,8-8v-3.2C46.1,83.3,45.1,82.2,43.8,82.2z"/>
</g>
</svg>
