<?xml version="1.0" encoding="utf-8"?>
<!-- Generator: Adobe Illustrator 21.1.0, SVG Export Plug-In . SVG Version: 6.00 Build 0)  -->
<svg version="1.1" id="Layer_1" xmlns="http://www.w3.org/2000/svg" xmlns:xlink="http://www.w3.org/1999/xlink" x="0px" y="0px"
	 viewBox="0 0 100 100" style="enable-background:new 0 0 100 100;" xml:space="preserve">
<style type="text/css">
	.st0{fill:#363640;}
</style>
<g>
	<path class="st0" d="M60.1,52.1c14,0,25.4-11.4,25.4-25.4S74.1,1.2,60.1,1.2S34.7,12.6,34.7,26.6S46.1,52.1,60.1,52.1z M60.1,5.9
		c11.4,0,20.7,9.3,20.7,20.7s-9.3,20.7-20.7,20.7s-20.7-9.3-20.7-20.7S48.7,5.9,60.1,5.9z"/>
	<path class="st0" d="M22.7,61.1h-7.9c-3.1,0-5.5,2.5-5.5,5.5v27.5c0,3.1,2.5,5.5,5.5,5.5h7.9c3.1,0,5.5-2.5,5.5-5.5V66.7
		C28.2,63.6,25.8,61.1,22.7,61.1z M23.5,94.2c0,0.5-0.4,0.8-0.8,0.8h-7.9c-0.5,0-0.8-0.4-0.8-0.8V66.7c0-0.5,0.4-0.8,0.8-0.8h7.9
		c0.5,0,0.8,0.4,0.8,0.8V94.2z"/>
	<path class="st0" d="M88.6,65.8c-1.5-1.6-3.5-2.6-5.7-2.8c-2.2-0.1-4.3,0.6-6,2.1l-4.6,4.1c-0.9,0.8-2,1.5-3.1,2.1v-3
		c0-4.2-3.4-7.6-7.6-7.6H46.9c-3.3,0-6.6,1.4-8.8,3.9c-1.5,1.7-3.5,2.8-5.8,3.3c-1.3,0.3-2.1,1.5-1.8,2.8c0.3,1.3,1.5,2.1,2.8,1.8
		c3.2-0.7,6-2.3,8.2-4.7c1.4-1.5,3.4-2.4,5.4-2.4h14.8c1.6,0,2.9,1.3,2.9,2.9v4.5C63.8,73,63.1,73,62.3,73H45.9
		c-1.3,0-2.3,1.1-2.3,2.4s1.1,2.4,2.3,2.4h16.4c4.9,0,9.6-1.8,13.2-5l4.6-4.1c0.7-0.6,1.6-1,2.6-0.9c0.9,0.1,1.8,0.5,2.5,1.2
		c1.3,1.5,1.2,3.7-0.3,5L75,82.7c-3.9,3.5-8.9,5.4-14.2,5.4H33.3c-1.3,0-2.3,1.1-2.3,2.4s1.1,2.4,2.3,2.4h27.5
		c6.4,0,12.5-2.3,17.3-6.6l9.8-8.8C91.3,74.4,91.6,69.2,88.6,65.8z"/>
	<path class="st0" d="M52.8,36.3c1.5,0.9,3,1.5,4.6,1.8v1.1c0,1.3,1.1,2.4,2.3,2.4s2.3-1.1,2.3-2.4v-1.1c0.1,0,0.3,0,0.4-0.1
		c2.3-0.5,4.1-1.7,5.1-3.3c1.4-2.3,1.2-5.3-0.4-7.3c-1.7-2.1-4.4-3-6.4-3.7c-0.6-0.2-1.2-0.4-1.6-0.6c-0.1,0-0.2-0.1-0.3-0.1
		c-1.3-0.5-1.7-0.9-1.7-1.6c0-1.6,2-1.8,2.7-1.8c1.1,0,2.6,0.3,4,0.8c1.2,0.4,2.6-0.2,3-1.4c0.4-1.2-0.2-2.6-1.4-3
		c-1.1-0.4-2.2-0.7-3.3-0.9v-1.1c0-1.3-1.1-2.4-2.3-2.4s-2.3,1.1-2.3,2.4v1.1c-3,0.8-5,3.1-5,6.2c0,2.6,1.5,4.6,4.6,5.9l0.2,0.1
		c0.6,0.3,1.3,0.5,2,0.8c1.5,0.5,3.4,1.2,4.3,2.2c0.4,0.5,0.4,1.3,0.1,1.9c-0.3,0.5-1.1,1-2.1,1.2c-0.3,0.1-0.6,0.1-1,0.1
		c-0.7,0.1-1.4,0-2.2-0.1c-1-0.1-2.1-0.5-3.1-1.2c-1.1-0.7-2.5-0.4-3.2,0.7C51.3,34.2,51.7,35.6,52.8,36.3z"/>
</g>
</svg>
