<?xml version="1.0" encoding="utf-8"?>
<!-- Generator: Adobe Illustrator 21.1.0, SVG Export Plug-In . SVG Version: 6.00 Build 0)  -->
<svg version="1.1" id="Layer_1" xmlns="http://www.w3.org/2000/svg" xmlns:xlink="http://www.w3.org/1999/xlink" x="0px" y="0px"
	 viewBox="0 0 102.7 58.4" style="enable-background:new 0 0 102.7 58.4;" xml:space="preserve">
<style type="text/css">
	.st0{fill:#7ab1cc;}
</style>
<g>
	<path class="st0" d="M97.6,23.6c-1.4-1.4-2.9-2.5-4.6-3.3c2.4-2.1,4-5.2,4-8.7C96.9,5.2,91.7,0,85.3,0c-6.4,0-11.6,5.2-11.6,11.6
		c0,3.5,1.5,6.6,4,8.7c-1.7,0.8-3.2,1.9-4.6,3.3c-2.5,2.5-4.2,5.7-4.8,9.1c-0.2,1.3,0.6,2.5,1.9,2.7c1.3,0.2,2.5-0.6,2.7-1.9
		c0.5-2.5,1.7-4.8,3.5-6.7c1.8-1.8,4.1-3,6.6-3.5v16.2C83,41,84,42,85.3,42s2.3-1.1,2.3-2.3V23.5c2.5,0.5,4.8,1.7,6.6,3.5
		c2.4,2.4,3.7,5.6,3.7,9v7.2c0,1.3,1.1,2.3,2.3,2.3s2.3-1.1,2.3-2.3v-7.2C102.7,31.3,100.9,26.9,97.6,23.6z M78.4,11.6
		c0-3.8,3.1-6.9,6.9-6.9c3.8,0,6.9,3.1,6.9,6.9c0,3.8-3.1,6.9-6.9,6.9c0,0,0,0,0,0c0,0,0,0,0,0C81.5,18.5,78.4,15.4,78.4,11.6z"/>
	<path class="st0" d="M34.5,32.8c-0.6-3.5-2.3-6.6-4.8-9.1c-1.4-1.4-2.9-2.5-4.6-3.3c2.4-2.1,4-5.2,4-8.7C29,5.2,23.8,0,17.4,0
		C11,0,5.7,5.2,5.7,11.6c0,3.5,1.5,6.6,4,8.7c-1.7,0.8-3.3,1.9-4.6,3.3C1.8,26.9,0,31.3,0,35.9v7.2c0,1.3,1.1,2.3,2.3,2.3
		s2.3-1.1,2.3-2.3v-7.2c0-3.4,1.3-6.6,3.7-9c1.8-1.8,4.1-3,6.6-3.5v16.2c0,1.3,1.1,2.3,2.3,2.3s2.3-1.1,2.3-2.3V23.5
		c2.5,0.5,4.8,1.7,6.6,3.5c1.8,1.8,3,4.1,3.5,6.7c0.2,1.3,1.4,2.1,2.7,1.9C33.8,35.3,34.7,34,34.5,32.8z M10.4,11.6
		c0-3.8,3.1-6.9,6.9-6.9c3.8,0,6.9,3.1,6.9,6.9c0,3.8-3.1,6.9-6.9,6.9c0,0,0,0,0,0c0,0,0,0,0,0C13.5,18.5,10.4,15.4,10.4,11.6z"/>
	<path class="st0" d="M59.2,33.3c2.5-2.1,4-5.3,4-8.8c0-6.4-5.2-11.6-11.6-11.6c-6.4,0-11.6,5.2-11.6,11.6c0,3.4,1.5,6.5,3.9,8.7
		c-1.7,0.8-3.3,1.9-4.7,3.3c-3.3,3.3-5.1,7.6-5.1,12.3v7.2c0,1.3,1.1,2.3,2.3,2.3s2.3-1.1,2.3-2.3v-7.2c0-3.4,1.3-6.6,3.7-9
		c1.8-1.8,4.1-3,6.6-3.5v16.2c0,1.3,1.1,2.3,2.3,2.3s2.3-1.1,2.3-2.3V36.4c2.5,0.5,4.8,1.7,6.6,3.5c2.4,2.4,3.7,5.6,3.7,9v7.2
		c0,1.3,1.1,2.3,2.3,2.3s2.3-1.1,2.3-2.3v-7.2c0-4.6-1.8-9-5.1-12.3C62.4,35.2,60.8,34.1,59.2,33.3z M51.6,17.6
		c3.8,0,6.9,3.1,6.9,6.9s-3.1,6.9-6.9,6.9c-3.8,0-6.9-3.1-6.9-6.9S47.8,17.6,51.6,17.6z"/>
</g>
</svg>
