<?xml version="1.0" encoding="utf-8"?>
<!-- Generator: Adobe Illustrator 21.1.0, SVG Export Plug-In . SVG Version: 6.00 Build 0)  -->
<svg version="1.1" id="Layer_1" xmlns="http://www.w3.org/2000/svg" xmlns:xlink="http://www.w3.org/1999/xlink" x="0px" y="0px"
	 viewBox="0 0 100 100" style="enable-background:new 0 0 100 100;" xml:space="preserve">
<style type="text/css">
	.st0{fill:#7ab1cc;}
</style>
<g>
	<path class="st0" d="M93.6,44.9c-0.3-2.5-2.1-4.6-4.6-5.2L85.8,39c-0.5-0.1-0.8-0.4-1-0.9c-0.5-1.5-1.1-3-1.9-4.5
		c-0.2-0.4-0.2-0.9,0.1-1.3l1.7-2.8c1.3-2.2,1.2-5-0.4-7c-2-2.5-4.3-4.7-6.7-6.7c-2-1.6-4.8-1.8-7-0.4l-2.7,1.7
		c-0.4,0.2-0.9,0.3-1.3,0.1c-1.4-0.7-2.9-1.3-4.5-1.9c-0.4-0.2-0.8-0.5-0.9-1l-0.7-3.1c-0.6-2.5-2.7-4.4-5.2-4.6
		c-3.1-0.3-6.4-0.3-9.5,0c-2.5,0.3-4.7,2.1-5.3,4.6l-0.7,3.1c-0.1,0.5-0.4,0.8-0.9,1c-1.6,0.5-3.1,1.1-4.5,1.9
		c-0.4,0.2-0.9,0.2-1.3-0.1l-2.7-1.7c-2.2-1.4-5-1.2-7,0.4c-2.5,2-4.7,4.3-6.7,6.7c-1.6,2-1.8,4.8-0.4,7l1.7,2.8
		c0.2,0.4,0.3,0.9,0.1,1.3c-0.7,1.5-1.3,3-1.9,4.5c-0.2,0.4-0.5,0.8-1,0.9l-3.1,0.7c-2.5,0.6-4.4,2.7-4.6,5.2C7,46.5,7,48.1,7,49.7
		c0,1.6,0.1,3.2,0.3,4.8c0.3,2.5,2.1,4.6,4.6,5.2l3.2,0.7c0.5,0.1,0.8,0.4,1,0.9c0.5,1.5,1.1,3,1.9,4.5c0.2,0.4,0.2,0.9-0.1,1.3
		l-1.7,2.7c-1.4,2.2-1.2,5,0.4,7c2,2.5,4.3,4.7,6.7,6.7c2,1.6,4.8,1.8,7,0.4l2.7-1.7c0.4-0.2,0.9-0.3,1.3-0.1c1.5,0.7,3,1.4,4.5,1.9
		c0.4,0.2,0.8,0.5,0.9,1l0.7,3.1c0.6,2.5,2.7,4.4,5.3,4.6c1.6,0.2,3.2,0.3,4.7,0.3c1.6,0,3.2-0.1,4.8-0.3c2.5-0.3,4.6-2.1,5.2-4.6
		l0.7-3.1c0.1-0.5,0.4-0.8,0.9-1c1.5-0.5,3-1.1,4.5-1.9c0.4-0.2,0.9-0.2,1.3,0.1l2.7,1.7c2.2,1.4,5,1.2,7-0.4c2.5-2,4.7-4.2,6.7-6.7
		c1.6-2,1.8-4.8,0.4-7L83,67.1c-0.3-0.4-0.3-0.9-0.1-1.3c0.7-1.4,1.3-3,1.9-4.5c0.2-0.4,0.5-0.8,1-0.9l3.2-0.7
		c2.5-0.6,4.4-2.7,4.6-5.2c0.2-1.6,0.3-3.2,0.3-4.8C93.9,48.1,93.8,46.5,93.6,44.9z M88.9,54c-0.1,0.6-0.5,1-1.1,1.1l-3.2,0.7
		c-2.1,0.5-3.7,2-4.4,4c0,0,0,0,0,0c-0.4,1.3-1,2.6-1.6,3.9c-0.9,1.9-0.8,4.1,0.3,5.9l1.7,2.7c0.3,0.5,0.3,1.1-0.1,1.6
		c-1.8,2.2-3.8,4.2-6,6c-0.4,0.4-1.1,0.4-1.6,0.1l-2.7-1.7c-1.8-1.1-4-1.2-5.9-0.3c-1.3,0.6-2.6,1.2-3.9,1.6c-2,0.7-3.5,2.3-4,4.3
		l-0.7,3.1c-0.1,0.6-0.6,1-1.1,1.1c-2.8,0.3-5.7,0.3-8.5,0c-0.6-0.1-1.1-0.5-1.2-1.1L44.2,84c-0.5-2-2-3.7-4-4.3
		c-1.3-0.5-2.7-1-3.9-1.6c-0.9-0.4-1.8-0.6-2.7-0.6c-1.1,0-2.2,0.3-3.2,0.9L27.7,80c-0.5,0.3-1.1,0.3-1.6-0.1c-2.2-1.8-4.2-3.8-6-6
		c-0.4-0.4-0.4-1.1-0.1-1.6l1.7-2.7c1.1-1.8,1.2-4,0.3-5.9c-0.6-1.3-1.2-2.6-1.6-3.9c-0.7-2-2.3-3.5-4.3-4l-3.2-0.7
		c-0.6-0.1-1-0.6-1.1-1.1c-0.2-1.4-0.2-2.8-0.2-4.3c0-1.4,0.1-2.9,0.2-4.3c0.1-0.6,0.5-1,1.1-1.1l3.1-0.7c2.1-0.5,3.7-2,4.4-4
		c0.4-1.3,1-2.6,1.6-3.9c0.9-1.9,0.8-4.1-0.3-5.9l-1.7-2.8c-0.3-0.5-0.3-1.1,0.1-1.6c1.8-2.2,3.8-4.2,6-6c0.4-0.4,1.1-0.4,1.6-0.1
		l2.7,1.7c1.8,1.1,4,1.2,5.9,0.3c1.2-0.6,2.5-1.2,3.9-1.6c2-0.7,3.5-2.3,4-4.3l0.7-3.1c0.1-0.6,0.6-1,1.2-1.1c2.8-0.3,5.7-0.3,8.5,0
		c0.6,0.1,1,0.5,1.1,1.1l0.7,3.1c0.5,2.1,2,3.7,4,4.4c1.4,0.5,2.7,1,3.9,1.6c1.9,0.9,4.1,0.8,5.9-0.3l2.7-1.7
		c0.5-0.3,1.1-0.3,1.6,0.1c2.2,1.8,4.2,3.8,6,6c0.4,0.4,0.4,1.1,0.1,1.6L79,29.8c-1.1,1.8-1.2,4-0.3,5.9c0.6,1.3,1.2,2.6,1.6,3.9
		c0.7,2,2.3,3.5,4.4,4l3.1,0.7c0.6,0.1,1,0.6,1.1,1.1c0.2,1.4,0.2,2.8,0.2,4.3C89.1,51.1,89.1,52.6,88.9,54z"/>
	<path class="st0" d="M50.4,22.8c-14.8,0-26.9,12.1-26.9,26.9s12.1,26.9,26.9,26.9s26.9-12.1,26.9-26.9S65.2,22.8,50.4,22.8z
		 M50.4,71.9c-12.3,0-22.2-10-22.2-22.2c0-12.3,10-22.2,22.2-22.2s22.2,10,22.2,22.2C72.6,62,62.7,71.9,50.4,71.9z"/>
	<path class="st0" d="M51,46.8c-0.7-0.2-1.3-0.4-1.7-0.6c-0.1,0-0.2-0.1-0.3-0.1c-1.4-0.6-1.9-1.1-1.9-1.8c0-1.9,2.3-2,3-2
		c1.1,0,2.8,0.3,4.3,0.9c1.2,0.5,2.6-0.2,3-1.4c0.4-1.2-0.2-2.6-1.4-3c-1.2-0.4-2.4-0.8-3.6-1v-1.3c0-1.3-1.1-2.4-2.4-2.4
		s-2.4,1.1-2.4,2.4v1.3c-3.2,0.8-5.3,3.2-5.3,6.5c0,2.8,1.6,4.8,4.8,6.1l0.2,0.1c0.7,0.3,1.4,0.5,2.2,0.8c1.7,0.6,3.7,1.2,4.6,2.4
		c0.5,0.6,0.5,1.5,0.1,2.2c-0.4,0.6-1.2,1.1-2.3,1.3c-0.3,0.1-0.7,0.1-1,0.1c-0.8,0.1-1.6,0-2.3-0.1c-1.1-0.2-2.3-0.6-3.4-1.3
		c-1.1-0.7-2.5-0.4-3.2,0.7c-0.7,1.1-0.4,2.5,0.7,3.2c1.6,1,3.3,1.6,5,1.9V63c0,1.3,1.1,2.4,2.4,2.4s2.4-1.1,2.4-2.4v-1.2
		c0.2,0,0.4-0.1,0.5-0.1c2.4-0.5,4.2-1.7,5.3-3.4c1.5-2.3,1.3-5.5-0.4-7.6C56,48.5,53.3,47.5,51,46.8z"/>
</g>
</svg>
