<svg id="Layer_1" data-name="Layer 1" xmlns="http://www.w3.org/2000/svg" viewBox="0 0 32 32"><defs><style>.cls-1{fill:#fff;}.cls-2{fill:#8b8b8b;}</style></defs><title>MYLS_Icons</title><rect class="cls-1" width="32" height="32"/><polygon class="cls-2" points="20 16 13 12 13 20 20 16"/><path class="cls-2" d="M27,4H5A1,1,0,0,0,4,5V27a1,1,0,0,0,1,1H27a1,1,0,0,0,1-1V5A1,1,0,0,0,27,4ZM13,25.5v-1a.5.5,0,0,1,.5-.5h5a.5.5,0,0,1,.5.5v1a.5.5,0,0,1-.5.5h-5A.5.5,0,0,1,13,25.5Zm-2,0a.5.5,0,0,1-.5.5h-4a.5.5,0,0,1-.5-.5v-1a.5.5,0,0,1,.5-.5h4a.5.5,0,0,1,.5.5Zm15,0a.5.5,0,0,1-.5.5h-4a.5.5,0,0,1-.5-.5v-1a.5.5,0,0,1,.5-.5h4a.5.5,0,0,1,.5.5ZM6,22V10H26V22ZM6.5,6h4a.5.5,0,0,1,.5.5v1a.5.5,0,0,1-.5.5h-4A.5.5,0,0,1,6,7.5v-1A.5.5,0,0,1,6.5,6ZM26,6.5v1a.5.5,0,0,1-.5.5h-4a.5.5,0,0,1-.5-.5v-1a.5.5,0,0,1,.5-.5h4A.5.5,0,0,1,26,6.5Zm-7,0v1a.5.5,0,0,1-.5.5h-5a.5.5,0,0,1-.5-.5v-1a.5.5,0,0,1,.5-.5h5A.5.5,0,0,1,19,6.5Z"/></svg>