<svg id="Layer_1" data-name="Layer 1" xmlns="http://www.w3.org/2000/svg" viewBox="0 0 32 32"><defs><style>.cls-1{fill:#fff;}.cls-2{fill:#8b8b8b;}</style></defs><title>MYLS_Icons</title><rect class="cls-1" x="0.04" width="32" height="32"/><rect class="cls-1" x="4.04" y="4" width="24" height="24"/><path class="cls-2" d="M26,6V26H6.9A.86.86,0,0,1,6,25.15V6.85A.86.86,0,0,1,6.9,6H26m2-2H6.9A2.86,2.86,0,0,0,4,6.85v18.3A2.86,2.86,0,0,0,6.9,28H28V4Z"/><path class="cls-2" d="M26,24v2H7a1,1,0,1,1,0-2H26m2-2H7a3,3,0,0,0,0,6H28V22Z"/><rect class="cls-2" x="10.04" y="9" width="12" height="2"/><rect class="cls-2" x="10.04" y="13" width="12" height="2"/><rect class="cls-2" x="10.04" y="17" width="12" height="2"/></svg>