<svg id="Layer_1" data-name="Layer 1" xmlns="http://www.w3.org/2000/svg" viewBox="0 0 32 32"><defs><style>.cls-1{fill:#fff;}.cls-2{fill:#8b8b8b;}</style></defs><title>MYLS_Icons</title><rect class="cls-1" width="32" height="32"/><rect class="cls-1" x="4" y="4" width="24" height="24"/><path class="cls-2" d="M27.5,4H4.5a.5.5,0,0,0-.5.5v18a.5.5,0,0,0,.5.5H15v3H12v2h8V26H17V23H27.5a.5.5,0,0,0,.5-.5V4.5A.5.5,0,0,0,27.5,4ZM26,20.5a.5.5,0,0,1-.5.5H6.5a.5.5,0,0,1-.5-.5V6.5A.5.5,0,0,1,6.5,6h19a.5.5,0,0,1,.5.5Z"/><rect class="cls-2" x="10" y="10" width="2" height="9"/><rect class="cls-2" x="14" y="14" width="2" height="5"/><rect class="cls-2" x="17" y="16" width="2" height="3"/><rect class="cls-2" x="20" y="8" width="2" height="11"/></svg>