<?xml version="1.0" encoding="utf-8"?>
<!-- Generator: Adobe Illustrator 21.1.0, SVG Export Plug-In . SVG Version: 6.00 Build 0)  -->
<svg version="1.1" id="Layer_1" xmlns="http://www.w3.org/2000/svg" xmlns:xlink="http://www.w3.org/1999/xlink" x="0px" y="0px"
	 viewBox="0 0 106.3 97" style="enable-background:new 0 0 106.3 97;" xml:space="preserve">
<style type="text/css">
	.st0{fill:#7ab1cc;}
</style>
<g>
	<path class="st0" d="M39.7,65.4H9.9c-2.8,0-5.2-2.3-5.2-5.2V9.9C4.7,7,7,4.7,9.9,4.7h59.7c2.8,0,5.2,2.3,5.2,5.2v21.2
		c0,1.3,1.1,2.4,2.3,2.4s2.3-1.1,2.3-2.4V9.9C79.5,4.4,75,0,69.6,0H9.9C4.4,0,0,4.4,0,9.9v50.4c0,5.4,4.4,9.9,9.9,9.9h29.9
		c1.3,0,2.3-1.1,2.3-2.4S41,65.4,39.7,65.4z"/>
	<rect x="14.9" y="15" class="st0" width="4.7" height="42.6"/>
	<rect x="27.2" y="34.5" class="st0" width="4.7" height="23"/>
	<rect x="39.5" y="24.8" class="st0" width="4.7" height="32.8"/>
	<path class="st0" d="M77.1,38.6c-8.6,0-16.3,3.7-21.6,9.6V18.6h-4.7v36.7c-1.8,3.8-2.8,8-2.8,12.5C48,83.9,61,97,77.1,97
		s29.2-13.1,29.2-29.2S93.2,38.6,77.1,38.6z M77.1,92.3c-13.5,0-24.5-11-24.5-24.5c0-13.5,11-24.5,24.5-24.5s24.5,11,24.5,24.5
		C101.6,81.3,90.6,92.3,77.1,92.3z"/>
	<path class="st0" d="M77.7,64.7c-0.8-0.3-1.5-0.5-2-0.7c-0.1,0-0.2-0.1-0.4-0.2c-1.5-0.6-2.4-1.2-2.4-2.4c0-2,2-2.7,3.8-2.7
		c1.4,0,3.3,0.4,5.1,1.1c1.2,0.5,2.6-0.2,3-1.4c0.4-1.2-0.2-2.6-1.4-3c-1.5-0.5-3-0.9-4.4-1.1v-1.8c0-1.3-1.1-2.4-2.3-2.4
		s-2.3,1.1-2.3,2.4v1.8c-3.7,0.8-6.2,3.5-6.2,7.2c0,4.5,4,6.2,5.3,6.8l0.2,0.1c0.7,0.3,1.6,0.6,2.5,0.9c2,0.7,4.4,1.5,5.5,2.9
		c0.6,0.8,0.7,2,0.1,2.9c-0.7,1.1-2.1,1.5-2.9,1.7c-0.4,0.1-0.8,0.1-1.3,0.2c-0.9,0.1-1.8,0-2.8-0.1c-1.4-0.2-2.7-0.7-4.1-1.5
		c-1.1-0.7-2.5-0.4-3.2,0.7c-0.7,1.1-0.4,2.6,0.7,3.2c1.9,1.2,3.9,1.9,5.9,2.2c0,0,0,0,0.1,0v1.8c0,1.3,1.1,2.4,2.3,2.4
		s2.3-1.1,2.3-2.4v-1.7c0.3,0,0.6-0.1,0.9-0.2c2.6-0.6,4.7-1.9,5.9-3.8c1.6-2.6,1.4-6-0.4-8.3C83.4,66.6,80.3,65.6,77.7,64.7z"/>
</g>
</svg>
