<?xml version="1.0" encoding="utf-8"?>
<!-- Generator: Adobe Illustrator 21.1.0, SVG Export Plug-In . SVG Version: 6.00 Build 0)  -->
<svg version="1.1" id="Layer_1" xmlns="http://www.w3.org/2000/svg" xmlns:xlink="http://www.w3.org/1999/xlink" x="0px" y="0px"
	 viewBox="0 0 106.3 97" style="enable-background:new 0 0 106.3 97;" xml:space="preserve">
<style type="text/css">
	.st0{fill:#7ab1cc;}
</style>
<g>
	<path class="st0" d="M77.1,63.5c-1.3,0-2.3,1.1-2.3,2.4v21.2c0,2.8-2.3,5.2-5.2,5.2H9.9c-2.8,0-5.2-2.3-5.2-5.2V36.7
		c0-2.8,2.3-5.2,5.2-5.2h29.9c1.3,0,2.3-1.1,2.3-2.4s-1.1-2.4-2.3-2.4H9.9c-5.4,0-9.9,4.4-9.9,9.9v50.4C0,92.5,4.4,97,9.9,97h59.7
		c5.4,0,9.9-4.4,9.9-9.9V65.9C79.5,64.6,78.4,63.5,77.1,63.5z"/>
	<rect x="14.9" y="41.8" class="st0" width="4.7" height="42.6"/>
	<rect x="26.1" y="61.4" class="st0" width="4.7" height="23"/>
	<rect x="37.4" y="53.8" class="st0" width="4.7" height="30.6"/>
	<rect x="48.6" y="49.8" class="st0" width="4.7" height="34.6"/>
	<rect x="59.9" y="60.8" class="st0" width="4.7" height="23.6"/>
	<path class="st0" d="M77.1,0C61,0,48,13.1,48,29.2S61,58.3,77.1,58.3s29.2-13.1,29.2-29.2S93.2,0,77.1,0z M77.1,53.6
		c-13.5,0-24.5-11-24.5-24.5c0-13.5,11-24.5,24.5-24.5s24.5,11,24.5,24.5C101.6,42.6,90.6,53.6,77.1,53.6z"/>
	<path class="st0" d="M86.9,18.9L73.6,34.2l-6.2-7.5c-0.8-1-2.3-1.1-3.3-0.3c-1,0.8-1.1,2.3-0.3,3.3l8,9.7c0.4,0.5,1.1,0.8,1.8,0.9
		c0,0,0,0,0,0c0.7,0,1.3-0.3,1.8-0.8L90.5,22c0.9-1,0.8-2.5-0.2-3.3C89.3,17.8,87.8,17.9,86.9,18.9z"/>
</g>
</svg>
