<?xml version="1.0" encoding="utf-8"?>
<!-- Generator: Adobe Illustrator 21.1.0, SVG Export Plug-In . SVG Version: 6.00 Build 0)  -->
<svg version="1.1" id="Layer_1" xmlns="http://www.w3.org/2000/svg" xmlns:xlink="http://www.w3.org/1999/xlink" x="0px" y="0px"
	 viewBox="0 0 107 97" style="enable-background:new 0 0 107 97;" xml:space="preserve">
<style type="text/css">
	.st0{fill:#7ab1cc;}
</style>
<g>
	<path class="st0" d="M39.7,65.4H9.9c-2.8,0-5.2-2.3-5.2-5.2V19.1h70.1v11.9c0,1.3,1.1,2.3,2.4,2.3s2.4-1.1,2.4-2.3V9.9
		C79.5,4.4,75,0,69.6,0H9.9C4.4,0,0,4.4,0,9.9v50.4c0,5.4,4.4,9.9,9.9,9.9h29.9c1.3,0,2.4-1.1,2.4-2.3S41,65.4,39.7,65.4z M9.9,4.7
		h59.7c2.8,0,5.2,2.3,5.2,5.2v4.6H4.7V9.9C4.7,7,7,4.7,9.9,4.7z"/>
	<rect x="13.9" y="27.4" class="st0" width="6.8" height="4.7"/>
	<rect x="28.8" y="27.4" class="st0" width="6.8" height="4.7"/>
	<rect x="43.8" y="27.4" class="st0" width="6.8" height="4.7"/>
	<rect x="58.8" y="27.4" class="st0" width="6.8" height="4.7"/>
	<rect x="13.9" y="39.8" class="st0" width="6.8" height="4.7"/>
	<rect x="28.8" y="39.8" class="st0" width="6.8" height="4.7"/>
	<rect x="43.8" y="39.8" class="st0" width="6.8" height="4.7"/>
	<rect x="13.9" y="52.1" class="st0" width="6.8" height="4.7"/>
	<rect x="28.8" y="52.1" class="st0" width="6.8" height="4.7"/>
	<rect x="43.8" y="52.1" class="st0" width="6.8" height="4.7"/>
	<path class="st0" d="M77.8,38.6c-4.4,0-8.5,1-12.3,2.7v-1.6h-6.8v4.7h1.5c-7.1,5.3-11.7,13.8-11.7,23.3C48.6,83.9,61.7,97,77.8,97
		S107,83.9,107,67.8S93.9,38.6,77.8,38.6z M77.8,92.3c-13.5,0-24.5-11-24.5-24.5s11-24.5,24.5-24.5c13.5,0,24.5,11,24.5,24.5
		S91.3,92.3,77.8,92.3z"/>
	<path class="st0" d="M92.7,74.9l-12.6-8.4V54.1c0-1.3-1.1-2.3-2.4-2.3s-2.4,1.1-2.4,2.3v13.7c0,0.8,0.4,1.5,1,2l13.6,9.1
		c0.4,0.3,0.9,0.4,1.3,0.4c0.8,0,1.5-0.4,2-1C94.1,77.1,93.8,75.6,92.7,74.9z"/>
</g>
</svg>
