<?xml version="1.0" encoding="utf-8"?>
<!-- Generator: Adobe Illustrator 21.1.0, SVG Export Plug-In . SVG Version: 6.00 Build 0)  -->
<svg version="1.1" id="Layer_1" xmlns="http://www.w3.org/2000/svg" xmlns:xlink="http://www.w3.org/1999/xlink" x="0px" y="0px"
	 viewBox="0 0 100 100" style="enable-background:new 0 0 100 100;" xml:space="preserve">
<style type="text/css">
	.st0{fill:#7ab1cc;}
</style>
<g>
	<g>
		<g>
			<g>
				<path class="st0" d="M34.8,49.6H6.5c-1.3,0-2.4-1.1-2.4-2.3v-2.4c0-4.4,1.7-8.5,4.8-11.7c3.1-3.1,7.3-4.8,11.7-4.8
					s8.5,1.7,11.7,4.8c3.1,3.1,4.8,7.3,4.8,11.7v2.4C37.2,48.6,36.1,49.6,34.8,49.6z M8.9,44.9l23.6,0c0-3.2-1.2-6.1-3.5-8.3
					c-2.2-2.2-5.2-3.5-8.3-3.5s-6.1,1.2-8.3,3.5C10.1,38.8,8.9,41.8,8.9,44.9L8.9,44.9z"/>
			</g>
		</g>
		<g>
			<path class="st0" d="M20.7,24.8c-5.6,0-10.2-4.6-10.2-10.2C10.4,9,15,4.4,20.7,4.4S30.9,9,30.9,14.6
				C30.9,20.2,26.3,24.8,20.7,24.8z M20.7,9.1c-3,0-5.5,2.5-5.5,5.5c0,3,2.5,5.5,5.5,5.5s5.5-2.5,5.5-5.5
				C26.2,11.6,23.7,9.1,20.7,9.1z"/>
		</g>
		<g>
			<g>
				<path class="st0" d="M94.3,49.4H66c-1.3,0-2.4-1.1-2.4-2.3v-2.4c0-4.4,1.7-8.5,4.8-11.7c3.1-3.1,7.3-4.8,11.7-4.8
					s8.5,1.7,11.7,4.8c3.1,3.1,4.8,7.3,4.8,11.7v2.4C96.6,48.4,95.6,49.4,94.3,49.4z M68.3,44.7l23.6,0c0-3.2-1.2-6.1-3.5-8.3
					c-2.2-2.2-5.2-3.5-8.3-3.5s-6.1,1.2-8.3,3.5C69.6,38.6,68.3,41.5,68.3,44.7L68.3,44.7z"/>
			</g>
		</g>
		<g>
			<path class="st0" d="M80.1,24.6c-5.6,0-10.2-4.6-10.2-10.2c0-5.6,4.6-10.2,10.2-10.2s10.2,4.6,10.2,10.2
				C90.4,20,85.8,24.6,80.1,24.6z M80.1,8.8c-3,0-5.5,2.5-5.5,5.5c0,3,2.5,5.5,5.5,5.5s5.5-2.5,5.5-5.5C85.7,11.3,83.2,8.8,80.1,8.8
				z"/>
		</g>
	</g>
	<g>
		<g>
			<g>
				<path class="st0" d="M64.6,95.7H36.3c-1.3,0-2.4-1.1-2.4-2.3V91c0-4.4,1.7-8.5,4.8-11.7c3.1-3.1,7.3-4.8,11.7-4.8
					s8.5,1.7,11.7,4.8c3.1,3.1,4.8,7.3,4.8,11.7v2.4C66.9,94.7,65.8,95.7,64.6,95.7z M38.6,91l23.6,0c0-3.1-1.2-6.1-3.5-8.3
					c-2.2-2.2-5.2-3.5-8.3-3.5s-6.1,1.2-8.3,3.5C39.8,84.9,38.6,87.8,38.6,91L38.6,91z"/>
			</g>
		</g>
		<g>
			<path class="st0" d="M50.4,70.9c-5.6,0-10.2-4.6-10.2-10.2c0-5.6,4.6-10.2,10.2-10.2S60.6,55,60.6,60.7
				C60.6,66.3,56,70.9,50.4,70.9z M50.4,55.1c-3,0-5.5,2.5-5.5,5.5c0,3,2.5,5.5,5.5,5.5s5.5-2.5,5.5-5.5
				C55.9,57.6,53.4,55.1,50.4,55.1z"/>
		</g>
	</g>
	<g>
		<path class="st0" d="M71,79.4c-0.6,0-1.2-0.2-1.6-0.6c-0.9-0.9-1-2.4-0.1-3.3c4.5-4.8,7-11.1,7-17.7c0-0.3,0-0.5,0-0.8
			c-0.1-1.3,0.9-2.4,2.2-2.5c1.3-0.1,2.4,0.9,2.5,2.2c0,0.3,0,0.7,0,1c0,7.8-3,15.3-8.3,21C72.2,79.2,71.6,79.4,71,79.4z"/>
	</g>
	<g>
		<path class="st0" d="M59.9,33.4c-0.3,0-0.5,0-0.8-0.1c-5.5-2-11.8-2-17.4,0c-1.2,0.4-2.6-0.2-3-1.4c-0.4-1.2,0.2-2.6,1.4-3
			c6.6-2.4,13.9-2.3,20.5,0c1.2,0.4,1.9,1.8,1.4,3C61.8,32.8,60.8,33.4,59.9,33.4z"/>
	</g>
	<g>
		<path class="st0" d="M29.8,79.4c-0.6,0-1.3-0.2-1.7-0.7c-5.4-5.7-8.3-13.2-8.3-21c0-0.3,0-0.7,0-1c0.1-1.3,1.2-2.3,2.5-2.2
			c1.3,0.1,2.3,1.2,2.2,2.5c0,0.3,0,0.5,0,0.8c0,6.6,2.5,12.9,7,17.7c0.9,0.9,0.8,2.4-0.1,3.3C31,79.2,30.4,79.4,29.8,79.4z"/>
	</g>
</g>
</svg>
