<?xml version="1.0" encoding="utf-8"?>
<!-- Generator: Adobe Illustrator 21.1.0, SVG Export Plug-In . SVG Version: 6.00 Build 0)  -->
<svg version="1.1" id="Layer_1" xmlns="http://www.w3.org/2000/svg" xmlns:xlink="http://www.w3.org/1999/xlink" x="0px" y="0px"
	 viewBox="0 0 100 100" style="enable-background:new 0 0 100 100;" xml:space="preserve">
<style type="text/css">
	.st0{fill:#7ab1cc;}
</style>
<path class="st0" d="M50,4.9C25.1,4.9,4.8,25.2,4.8,50.1c0,24.9,20.3,45.2,45.2,45.2s45.2-20.3,45.2-45.2C95.2,25.2,74.9,4.9,50,4.9
	z M30.1,85.5v-8.9c0-5.3,2.1-10.3,5.8-14c3.2-3.2,7.3-5.1,11.7-5.7v22.3c0,1.3,1.1,2.4,2.3,2.4s2.3-1.1,2.3-2.4V56.9
	c4.4,0.5,8.5,2.5,11.7,5.7c3.7,3.7,5.8,8.7,5.8,14v8.9C64,88.8,57.2,90.7,50,90.7S36,88.8,30.1,85.5z M50.2,52
	C44,52,38.9,47,38.9,40.7S44,29.3,50.2,29.3s11.3,5.1,11.3,11.3S56.5,52,50.2,52z M74.6,82.4v-5.8c0-6.6-2.6-12.7-7.2-17.4
	c-2.3-2.3-5.1-4.1-8-5.3c4.2-2.9,6.9-7.7,6.9-13.2c0-8.8-7.2-16-16-16c-8.8,0-16,7.2-16,16c0,5.4,2.7,10.2,6.8,13.1
	c-3.1,1.2-5.9,3.1-8.3,5.5C28,63.9,25.4,70,25.4,76.6v5.8c-9.7-7.4-16-19.1-16-32.2C9.5,27.8,27.6,9.6,50,9.6s40.5,18.2,40.5,40.5
	C90.5,63.3,84.3,75,74.6,82.4z"/>
</svg>
