<?xml version="1.0" encoding="utf-8"?>
<!-- Generator: Adobe Illustrator 21.1.0, SVG Export Plug-In . SVG Version: 6.00 Build 0)  -->
<svg version="1.1" id="Layer_1" xmlns="http://www.w3.org/2000/svg" xmlns:xlink="http://www.w3.org/1999/xlink" x="0px" y="0px"
	 viewBox="0 0 100 100" style="enable-background:new 0 0 100 100;" xml:space="preserve">
<style type="text/css">
	.st0{fill:#7ab1cc;}
</style>
<g>
	<path class="st0" d="M46.5,51.7c0.3,0.1,0.6,0.2,0.9,0.2c0.9,0,1.8-0.5,2.2-1.4c0.5-1.2-0.1-2.6-1.3-3.1c-3.8-1.6-7.8-2.4-11.9-2.4
		c-8.2,0-16,3.2-21.9,9.1c-5.8,5.8-9.1,13.6-9.1,21.9v4.8C5.5,82,6.5,83,7.8,83s2.4-1.1,2.4-2.3v-4.8c0-7,2.7-13.6,7.7-18.5
		c5-5,11.6-7.7,18.5-7.7C39.9,49.7,43.3,50.3,46.5,51.7z"/>
	<path class="st0" d="M36.4,40.8c10,0,18.2-8.2,18.2-18.2c0-2.6-0.6-5.1-1.5-7.3c0-0.1-0.1-0.2-0.1-0.2C50.1,8.8,43.7,4.4,36.4,4.4
		c-5.4,0-10.2,2.4-13.6,6.1c-0.1,0.1-0.2,0.2-0.3,0.3c-2.7,3.2-4.4,7.3-4.4,11.8C18.2,32.6,26.3,40.8,36.4,40.8z M36.4,36.1
		c-7.5,0-13.5-6.1-13.5-13.5c0-2.4,0.6-4.7,1.8-6.7c4,3.9,9.4,6.1,15.1,6.1c3.5,0,6.8-0.8,9.9-2.4c0.2,0.9,0.3,1.9,0.3,2.9
		C49.9,30,43.8,36.1,36.4,36.1z M47.8,15.3c-2.5,1.3-5.2,2-8,2c-4.6,0-8.9-1.8-12.1-5c2.4-2,5.4-3.2,8.8-3.2
		C41.2,9.1,45.4,11.6,47.8,15.3z"/>
	<path class="st0" d="M95.2,59.3c-0.3-1-1.2-1.6-2.2-1.6H72.9l-6.2-19.1c-0.3-1-1.2-1.6-2.2-1.6s-1.9,0.7-2.2,1.6L56,57.6H35.9
		c-1,0-1.9,0.7-2.2,1.6c-0.3,1,0,2,0.9,2.6l16.3,11.8l-6.2,19.1c-0.3,1,0,2,0.9,2.6c0.8,0.6,1.9,0.6,2.8,0l16.3-11.8l16.3,11.8
		c0.4,0.3,0.9,0.4,1.4,0.4s1-0.1,1.4-0.4c0.8-0.6,1.2-1.7,0.9-2.6l-6.2-19.1l16.3-11.8C95.2,61.3,95.5,60.2,95.2,59.3z M74,70.9
		c-0.8,0.6-1.2,1.7-0.9,2.6l4.5,13.9l-11.8-8.6c-0.8-0.6-1.9-0.6-2.8,0l-11.8,8.6l4.5-13.9c0.3-1,0-2-0.9-2.6l-11.8-8.6h14.6
		c1,0,1.9-0.7,2.2-1.6l4.5-13.9l4.5,13.9c0.3,1,1.2,1.6,2.2,1.6h14.6L74,70.9z"/>
</g>
</svg>
