<?xml version="1.0" encoding="utf-8"?>
<!-- Generator: Adobe Illustrator 21.1.0, SVG Export Plug-In . SVG Version: 6.00 Build 0)  -->
<svg version="1.1" id="Layer_1" xmlns="http://www.w3.org/2000/svg" xmlns:xlink="http://www.w3.org/1999/xlink" x="0px" y="0px"
	 viewBox="0 0 100 100" style="enable-background:new 0 0 100 100;" xml:space="preserve">
<style type="text/css">
	.st0{fill:#7ab1cc;}
</style>
<g>
	<path class="st0" d="M25.1,14h8.1v16.2c0,9.5,7.7,17.2,17.2,17.2s17.2-7.7,17.2-17.2V14h7.9c1.3,0,2.4-1.1,2.4-2.3
		s-1.1-2.3-2.4-2.3H65.2H35.6H25.1c-1.3,0-2.4,1.1-2.4,2.3S23.8,14,25.1,14z M50.4,42.7c-6.9,0-12.5-5.6-12.5-12.5v-2.6h25v2.6
		C62.9,37,57.3,42.7,50.4,42.7z M62.9,14v8.9h-25V14H62.9z"/>
	<path class="st0" d="M72.3,60.6c-5.9-5.8-13.6-9-21.9-9s-16,3.2-21.9,9.1c-5.8,5.8-9.1,13.6-9.1,21.9v4.8c0,1.3,1.1,2.3,2.4,2.3
		s2.4-1.1,2.4-2.3v-4.8c0-7,2.7-13.6,7.7-18.5c0.7-0.7,1.4-1.3,2.2-1.9c4.4,4.2,10.2,6.6,16.3,6.6c6.1,0,12-2.4,16.4-6.7
		c0.8,0.6,1.5,1.3,2.2,2c4.9,4.9,7.7,11.5,7.7,18.5v4.8c0,1.3,1.1,2.3,2.4,2.3s2.4-1.1,2.4-2.3v-4.8C81.3,74.2,78.1,66.4,72.3,60.6z
		 M50.4,63.9c-4.5,0-8.9-1.7-12.3-4.6c3.8-2,8-3.1,12.3-3.1c4.4,0,8.5,1.1,12.3,3C59.3,62.2,54.9,63.9,50.4,63.9z"/>
</g>
</svg>
