<?xml version="1.0" encoding="utf-8"?>
<!-- Generator: Adobe Illustrator 21.1.0, SVG Export Plug-In . SVG Version: 6.00 Build 0)  -->
<svg version="1.1" id="Layer_1" xmlns="http://www.w3.org/2000/svg" xmlns:xlink="http://www.w3.org/1999/xlink" x="0px" y="0px"
	 viewBox="0 0 100 100" style="enable-background:new 0 0 100 100;" xml:space="preserve">
<style type="text/css">
	.st0{fill:#7ab1cc;}
</style>
<path class="st0" d="M60.9,52.6H76c1.1,4.2,4.9,7.3,9.4,7.3c5.3,0,9.7-4.3,9.7-9.7s-4.4-9.7-9.7-9.7c-4.5,0-8.3,3.1-9.4,7.3H60.9
	c-0.7-4.5-3.2-8.3-6.9-10.7l12.6-15.5H76c1.1,4.2,4.9,7.3,9.4,7.3c5.3,0,9.7-4.4,9.7-9.7s-4.4-9.7-9.7-9.7c-4.5,0-8.3,3.1-9.4,7.3
	H65.5c-0.7,0-1.4,0.3-1.8,0.9L49.6,35.1c-1.3-0.4-2.7-0.6-4.2-0.6c-7.8,0-14.3,5.8-15.5,13.3h-6.2c-1.1-4.2-4.9-7.3-9.4-7.3
	c-5.3,0-9.7,4.4-9.7,9.7s4.4,9.7,9.7,9.7c4.5,0,8.3-3.1,9.4-7.3H30c1.1,7.5,7.6,13.3,15.5,13.3c1.4,0,2.8-0.2,4.2-0.6l14.1,17.3
	c0.4,0.5,1.1,0.9,1.8,0.9H76c1.1,4.2,4.9,7.3,9.4,7.3c5.3,0,9.7-4.4,9.7-9.7s-4.4-9.7-9.7-9.7c-4.5,0-8.3,3.1-9.4,7.3h-9.4
	L54.1,63.3C57.7,60.9,60.3,57,60.9,52.6z M85.4,14.3c2.8,0,5,2.2,5,5s-2.2,5-5,5s-5-2.2-5-5S82.7,14.3,85.4,14.3z M14.4,55.2
	c-2.8,0-5-2.2-5-5c0-2.8,2.2-5,5-5s5,2.2,5,5C19.4,53,17.2,55.2,14.4,55.2z M85.4,76.2c2.8,0,5,2.2,5,5c0,2.8-2.2,5-5,5s-5-2.2-5-5
	C80.4,78.4,82.7,76.2,85.4,76.2z M85.4,45.2c2.8,0,5,2.2,5,5c0,2.8-2.2,5-5,5s-5-2.2-5-5C80.4,47.5,82.7,45.2,85.4,45.2z M51,59.6
	l-0.4,0.3c-1.5,0.8-3.3,1.3-5.1,1.3c-6,0-11-4.9-11-11s4.9-11,11-11c1.9,0,3.6,0.5,5.1,1.3l0.4,0.3l0.1-0.1c3.2,1.9,5.4,5.4,5.4,9.4
	S54.3,57.7,51,59.6L51,59.6z"/>
</svg>
