<?xml version="1.0" encoding="utf-8"?>
<!-- Generator: Adobe Illustrator 21.1.0, SVG Export Plug-In . SVG Version: 6.00 Build 0)  -->
<svg version="1.1" id="Layer_1" xmlns="http://www.w3.org/2000/svg" xmlns:xlink="http://www.w3.org/1999/xlink" x="0px" y="0px"
	 viewBox="0 0 100 100" style="enable-background:new 0 0 100 100;" xml:space="preserve">
<style type="text/css">
	.st0{fill:#7ab1cc;}
</style>
<g>
	<path class="st0" d="M46.5,51.6c0.2,0.1,0.4,0.1,0.6,0.1c1,0,2-0.7,2.3-1.8c0.3-1.3-0.4-2.5-1.7-2.9c-2.5-0.6-5.1-1-7.7-1
		c-8.2,0-16,3.2-21.9,9.1C12.2,61,9,68.7,9,77v4.8c0,1.3,1.1,2.3,2.3,2.3s2.3-1.1,2.3-2.3V77c0-7,2.7-13.6,7.7-18.5
		c5-5,11.6-7.7,18.5-7.7C42.2,50.8,44.4,51.1,46.5,51.6z"/>
	<path class="st0" d="M39.9,41.9c10,0,18.2-8.2,18.2-18.2c0-2.6-0.6-5.1-1.5-7.3c0-0.1-0.1-0.2-0.1-0.2C53.6,9.9,47.3,5.5,39.9,5.5
		c-5.4,0-10.2,2.4-13.6,6.1c-0.1,0.1-0.2,0.2-0.3,0.3c-2.7,3.2-4.4,7.3-4.4,11.8C21.7,33.7,29.9,41.9,39.9,41.9z M39.9,37.2
		c-7.5,0-13.5-6.1-13.5-13.5c0-2.4,0.6-4.7,1.8-6.7c4,3.9,9.4,6.1,15.1,6.1c3.5,0,6.8-0.8,9.9-2.4c0.2,0.9,0.3,1.9,0.3,2.9
		C53.5,31.1,47.4,37.2,39.9,37.2z M51.3,16.4c-2.5,1.3-5.2,2-8,2c-4.6,0-8.9-1.8-12.1-5c2.4-2,5.4-3.2,8.7-3.2
		C44.7,10.2,48.9,12.7,51.3,16.4z"/>
	<path class="st0" d="M90.9,58.3L90,46.1c-0.2-2.5-2.1-4.4-4.6-4.6l-12.2-0.9c-3.3-0.3-6.5,0.9-8.8,3.2L40.4,67.9
		c-3.4,3.4-3.4,8.8,0,12.2l11,11c1.7,1.7,3.9,2.5,6.1,2.5c2.2,0,4.4-0.8,6.1-2.5L87.7,67C90,64.7,91.2,61.5,90.9,58.3z M84.4,63.7
		L60.3,87.8c-1.5,1.5-4,1.5-5.5,0l-11-11C43,76,42.6,75.1,42.6,74s0.4-2,1.1-2.8l24.1-24.1c1.2-1.2,2.9-1.9,4.6-1.9
		c0.2,0,0.3,0,0.5,0l12.2,0.9c0.1,0,0.2,0.1,0.2,0.2l0.9,12.2C86.4,60.5,85.7,62.4,84.4,63.7z"/>
	<path class="st0" d="M69,51.7c-3,3-3,7.8,0,10.8c1.5,1.5,3.4,2.2,5.4,2.2s3.9-0.7,5.4-2.2c3-3,3-7.8,0-10.8
		C76.8,48.7,72,48.7,69,51.7z M76.5,59.2c-1.1,1.1-3,1.1-4.2,0c-1.1-1.1-1.1-3,0-4.2c0.6-0.6,1.3-0.9,2.1-0.9s1.5,0.3,2.1,0.9
		C77.6,56.2,77.6,58.1,76.5,59.2z"/>
</g>
</svg>
