<?xml version="1.0" encoding="utf-8"?>
<!-- Generator: Adobe Illustrator 21.1.0, SVG Export Plug-In . SVG Version: 6.00 Build 0)  -->
<svg version="1.1" id="Layer_1" xmlns="http://www.w3.org/2000/svg" xmlns:xlink="http://www.w3.org/1999/xlink" x="0px" y="0px"
	 viewBox="0 0 100 100" style="enable-background:new 0 0 100 100;" xml:space="preserve">
<style type="text/css">
	.st0{fill:#7ab1cc;}
</style>
<g>
	<path class="st0" d="M77.8,9.8h-8.2V6.6c0-1.3-1.1-2.3-2.4-2.3H33.6c-1.3,0-2.4,1.1-2.4,2.3v3.1H23c-5,0-9,4-9,9V87c0,5,4,9,9,9
		h54.8c5,0,9-4,9-9V18.7C86.8,13.8,82.8,9.8,77.8,9.8z M35.9,9h29v3.1v3.4h-29v-3.4V9z M82.1,87c0,2.4-1.9,4.3-4.3,4.3H23
		c-2.4,0-4.3-1.9-4.3-4.3V18.7c0-2.4,1.9-4.3,4.3-4.3h8.2v3.4c0,1.3,1.1,2.3,2.4,2.3h33.7c1.3,0,2.4-1.1,2.4-2.3v-3.4h8.2
		c2.4,0,4.3,1.9,4.3,4.3V87z"/>
	<path class="st0" d="M69.1,30.1H54.9c-1.3,0-2.4,1.1-2.4,2.3s1.1,2.3,2.4,2.3h14.2c1.3,0,2.4-1.1,2.4-2.3S70.4,30.1,69.1,30.1z"/>
	<path class="st0" d="M42.7,25.3l-8,9.1l-3.4-4.1c-0.8-1-2.3-1.1-3.3-0.3c-1,0.8-1.1,2.3-0.3,3.3l5.2,6.2c0.4,0.5,1.1,0.8,1.8,0.9
		c0,0,0,0,0,0c0.7,0,1.3-0.3,1.8-0.8l9.8-11.2c0.9-1,0.8-2.5-0.2-3.3C45,24.2,43.6,24.3,42.7,25.3z"/>
	<path class="st0" d="M69.1,51.6H54.9c-1.3,0-2.4,1.1-2.4,2.3s1.1,2.3,2.4,2.3h14.2c1.3,0,2.4-1.1,2.4-2.3S70.4,51.6,69.1,51.6z"/>
	<path class="st0" d="M42.7,46.8l-8,9.1l-3.4-4.1c-0.8-1-2.3-1.1-3.3-0.3c-1,0.8-1.1,2.3-0.3,3.3l5.2,6.2c0.4,0.5,1.1,0.8,1.8,0.9
		c0,0,0,0,0,0c0.7,0,1.3-0.3,1.8-0.8l9.8-11.2c0.9-1,0.8-2.5-0.2-3.3C45,45.7,43.6,45.8,42.7,46.8z"/>
	<path class="st0" d="M69.1,73.1H54.9c-1.3,0-2.4,1.1-2.4,2.3s1.1,2.3,2.4,2.3h14.2c1.3,0,2.4-1.1,2.4-2.3S70.4,73.1,69.1,73.1z"/>
	<path class="st0" d="M42.7,68.3l-8,9.1l-3.4-4.1c-0.8-1-2.3-1.1-3.3-0.3c-1,0.8-1.1,2.3-0.3,3.3l5.2,6.2c0.4,0.5,1.1,0.8,1.8,0.9
		c0,0,0,0,0,0c0.7,0,1.3-0.3,1.8-0.8l9.8-11.2c0.9-1,0.8-2.5-0.2-3.3C45,67.2,43.6,67.3,42.7,68.3z"/>
</g>
</svg>
