<svg height='100px' width='100px'  fill="#7ab1cc" xmlns="http://www.w3.org/2000/svg" viewBox="0 0 64 64" x="0px" y="0px"><g><path d="M28.5,17A1.5,1.5,0,1,0,30,18.5,1.5,1.5,0,0,0,28.5,17Zm9,0A1.5,1.5,0,1,0,39,18.5,1.5,1.5,0,0,0,37.5,17ZM34,22h2a3,3,0,0,1-6,0h2a1,1,0,0,0,2,0ZM60.835,38.014,51.8,39.521a4.515,4.515,0,0,0-1.672.642l-.692-1.748a6.643,6.643,0,0,0-1.148-1.91l.261-2.37a17.35,17.35,0,0,0,.106-1.815,16.327,16.327,0,0,0-1.331-6.444,14.428,14.428,0,0,1-1.14-6.387l.172-3.5c.009-.216.019-.43.019-.634a13.368,13.368,0,1,0-26.719.669l.17,3.45c.01.248.019.494.019.741a14.254,14.254,0,0,1-1.159,5.656,16.324,16.324,0,0,0-1.224,8.265l.26,2.338a6.846,6.846,0,0,0-.791,1.144L15.559,34.2a2.946,2.946,0,1,0-5.369,2.412l.192.384H8.417a5.032,5.032,0,0,1-2.237-.528l-1-.5A2.2,2.2,0,0,0,2,37.941v2.823a2.983,2.983,0,0,0,1.658,2.683l1.628.814A7.038,7.038,0,0,0,8.417,45H9v2.961L8.282,57.3A4.364,4.364,0,0,0,12.634,62c.046,0,.088-.012.133-.013.012,0,.022.006.034.006h.01c.078,0,.156.007.233.007a4.027,4.027,0,0,0,3.783-2.644l4.572-8.5A8.733,8.733,0,0,0,23,54.35V62h2V54a1,1,0,0,0-.232-.641,6.816,6.816,0,0,1,.872-9.59l-1.28-1.538A8.775,8.775,0,0,0,22.975,43.7l0,0,0,0a8.725,8.725,0,0,0-1.266,2.361L17,54.812V42.663l1.421-3.539a4.8,4.8,0,0,1,1.052-1.613A5.065,5.065,0,0,1,23.06,36h3.346l5.716,10.479a1,1,0,0,0,1.756,0L36,42.588V56a1,1,0,0,0,.8.98l4.2.84V62h2V58.22l3.8.76A1,1,0,0,0,47,59h1.892l.192.357A4.052,4.052,0,0,0,52.88,62a3.718,3.718,0,0,0,.659-.055,4.045,4.045,0,0,0,3.125-2.61l2.665-.444a1.989,1.989,0,0,0,1.662-1.869l.2-.042A1,1,0,0,0,62,56V39a1,1,0,0,0-1.165-.986Zm-8.711,3.479L60,40.181v1l-7.279,1.456L50.9,43h-.7A2.534,2.534,0,0,1,52.124,41.493Zm-23.554-5.7A2.4,2.4,0,0,0,30,33.6V30.539a9.992,9.992,0,0,0,6,0V33.6a2.4,2.4,0,0,0,1.43,2.191L36.225,38h-6.45ZM33,29a8.009,8.009,0,0,1-8-8V16.523a14.606,14.606,0,0,0,4.328-4.955A25.894,25.894,0,0,0,41,16.853V21A8.009,8.009,0,0,1,33,29Zm13.533,8.547a4.63,4.63,0,0,1,1.037,1.6l.44,1.111a4.505,4.505,0,0,0-1.8-.738l-7.822-1.3L39.594,36H42.93A4.969,4.969,0,0,1,46.533,37.547ZM47.1,43l-1.82-.364L38,41.18v-1l7.877,1.312A2.534,2.534,0,0,1,47.8,43ZM6.18,42.472l-1.627-.814A1,1,0,0,1,4,40.764V37.941a.2.2,0,0,1,.095-.17A.21.21,0,0,1,4.2,37.74a.191.191,0,0,1,.09.023l1,.5A7.038,7.038,0,0,0,8.417,39H12a1,1,0,0,0,.895-1.447l-.916-1.831a.945.945,0,1,1,1.723-.775L15,38.192V43H8.417A5.032,5.032,0,0,1,6.18,42.472ZM15,45v2H11V45ZM10.276,57.453,10.926,49H15v8.635A2.369,2.369,0,0,1,12.634,60a2.365,2.365,0,0,1-2.358-2.547Zm9.283-22.5-.115-1.032a14.338,14.338,0,0,1,1.075-7.253A16.228,16.228,0,0,0,21.84,20.22c0-.273-.01-.546-.021-.828l-.171-3.461A11.368,11.368,0,1,1,44.37,15.36c0,.174-.009.357-.019.572l-.169,3.458a16.426,16.426,0,0,0,1.3,7.272,14.339,14.339,0,0,1,1.17,5.658,15.369,15.369,0,0,1-.094,1.6l-.114,1.034A6.994,6.994,0,0,0,42.93,34H38.4a.406.406,0,0,1-.4-.4V29.647A10,10,0,0,0,43,21V16a1,1,0,0,0-.859-.99,23.915,23.915,0,0,1-11.933-5.3l-.567-.474a1,1,0,0,0-1.536.321l-.387.775a12.6,12.6,0,0,1-4.273,4.84A1,1,0,0,0,23,16v5a10,10,0,0,0,5,8.647V33.6a.406.406,0,0,1-.4.4H23.06A7.045,7.045,0,0,0,19.559,34.949ZM33,43.912,30.866,40h4.268Zm5-.692,8,1.6V56.78l-8-1.6ZM48,45h2V57H48Zm5.2,14.976a1.973,1.973,0,0,1-2.08-.987c.027,0,.054,0,.081-.009l2.073-.414a1.884,1.884,0,0,0,.993.874A2.083,2.083,0,0,1,53.2,59.976ZM59,56.918l-4,.667V53.868a.3.3,0,0,1,.252-.3l3.4-.566a.32.32,0,0,1,.052,0,.3.3,0,0,1,.3.3v3.616h0l.164.986Zm-.68-5.887-3.4.567A2.293,2.293,0,0,0,53,53.868v2.713l-1,.2V44.82l8-1.6v8.2A2.277,2.277,0,0,0,58.32,51.031Z"></path></g></svg>