<?xml version="1.0" encoding="utf-8"?>
<!-- Generator: Adobe Illustrator 21.1.0, SVG Export Plug-In . SVG Version: 6.00 Build 0)  -->
<svg version="1.1" id="Layer_1" xmlns="http://www.w3.org/2000/svg" xmlns:xlink="http://www.w3.org/1999/xlink" x="0px" y="0px"
	 viewBox="0 0 100 100" style="enable-background:new 0 0 100 100;" xml:space="preserve">
<style type="text/css">
	.st0{fill:#7ab1cc;}
</style>
<g>
	<path class="st0" d="M95.1,44.7c-0.3-2.6-2.2-4.8-4.8-5.4l-3.3-0.8c-0.5-0.1-0.9-0.5-1.1-1c-0.5-1.6-1.2-3.2-1.9-4.7
		c-0.2-0.5-0.2-1,0.1-1.5l1.8-2.9c1.4-2.3,1.2-5.1-0.4-7.2c-2.1-2.6-4.4-5-7-7c-2-1.6-4.9-1.8-7.2-0.4l-2.9,1.8
		c-0.5,0.3-1,0.3-1.5,0.1c-1.5-0.7-3.1-1.4-4.7-1.9c-0.5-0.2-0.9-0.6-1-1.1l-0.8-3.3c-0.6-2.6-2.8-4.5-5.4-4.8
		c-3.3-0.4-6.7-0.4-9.9,0c-2.6,0.3-4.8,2.2-5.4,4.8l-0.8,3.3c-0.1,0.5-0.5,0.9-1,1.1c-1.6,0.5-3.2,1.2-4.7,1.9
		c-0.5,0.2-1,0.2-1.5-0.1l-2.9-1.8c-2.3-1.4-5.1-1.2-7.2,0.4c-2.6,2.1-5,4.4-7,7c-1.6,2-1.8,4.9-0.4,7.2l1.8,2.9
		c0.3,0.5,0.3,1,0.1,1.5c-0.8,1.5-1.4,3.1-1.9,4.7c-0.2,0.5-0.6,0.9-1.1,1l-3.3,0.8c-2.6,0.6-4.5,2.8-4.8,5.4
		c-0.2,1.6-0.3,3.3-0.3,5c0,1.7,0.1,3.3,0.3,5c0.3,2.6,2.2,4.7,4.8,5.4l3.3,0.8c0.5,0.1,0.9,0.5,1.1,1c0.5,1.6,1.2,3.2,1.9,4.7
		c0.2,0.5,0.2,1-0.1,1.5l-1.8,2.9c-1.4,2.3-1.2,5.1,0.4,7.2c2.1,2.6,4.4,5,7,7c2,1.6,4.9,1.8,7.2,0.4l2.9-1.8c0.5-0.3,1-0.3,1.5-0.1
		c1.5,0.8,3.1,1.4,4.7,2c0.5,0.2,0.9,0.6,1,1.1l0.8,3.3c0.6,2.6,2.8,4.5,5.4,4.8c1.6,0.2,3.3,0.3,5,0.3c1.7,0,3.3-0.1,5-0.3
		c2.6-0.3,4.8-2.2,5.4-4.8l0.8-3.3c0.1-0.5,0.5-0.9,1-1.1c1.6-0.5,3.2-1.2,4.7-2c0.5-0.2,1-0.2,1.5,0.1l2.9,1.8
		c2.2,1.4,5.1,1.2,7.2-0.4c2.6-2.1,5-4.4,7-7c1.6-2,1.8-4.9,0.4-7.2l-1.8-2.9c-0.3-0.5-0.3-1-0.1-1.5c0.8-1.5,1.4-3.1,1.9-4.7
		c0,0,0,0,0,0c0.2-0.5,0.6-0.9,1.1-1l3.3-0.8c2.6-0.6,4.5-2.8,4.8-5.4c0.2-1.6,0.3-3.3,0.3-5C95.4,48.1,95.3,46.4,95.1,44.7z
		 M90.5,54.2c-0.1,0.6-0.5,1.1-1.2,1.3L86,56.3c-2.1,0.5-3.8,2-4.5,4.1c-0.5,1.4-1,2.8-1.7,4.1c-1,1.9-0.9,4.2,0.3,6.1l1.8,2.9
		c0.3,0.6,0.3,1.3-0.1,1.8c-1.9,2.3-4,4.5-6.3,6.3c-0.5,0.4-1.2,0.4-1.8,0.1l-2.9-1.8c-1.8-1.1-4.1-1.2-6.1-0.3
		c-1.3,0.7-2.7,1.2-4.1,1.7c-2.1,0.7-3.6,2.4-4.1,4.5L55.8,89c-0.2,0.6-0.7,1.1-1.3,1.2c-2.9,0.3-6,0.3-8.9,0
		c-0.7-0.1-1.2-0.6-1.3-1.2l-0.8-3.3c-0.5-2.1-2-3.8-4.1-4.5c-1.4-0.5-2.8-1-4.1-1.7c-0.9-0.4-1.8-0.7-2.8-0.7
		c-1.1,0-2.3,0.3-3.3,0.9l-2.9,1.8c-0.6,0.3-1.3,0.3-1.8-0.1c-2.3-1.9-4.4-4-6.3-6.3c-0.4-0.5-0.4-1.2-0.1-1.8l1.8-2.9
		c1.1-1.8,1.2-4.1,0.3-6.1c-0.7-1.3-1.2-2.7-1.7-4.1c-0.7-2.1-2.4-3.6-4.5-4.1l-3.3-0.8c-0.6-0.2-1.1-0.7-1.2-1.3
		c-0.2-1.5-0.2-3-0.2-4.5c0-1.5,0.1-3,0.2-4.5c0.1-0.6,0.5-1.1,1.2-1.3l3.3-0.8c2.1-0.5,3.8-2,4.5-4.1c0.5-1.4,1-2.8,1.7-4.1
		c1-1.9,0.9-4.2-0.3-6.1l-1.8-2.9c-0.3-0.6-0.3-1.3,0.1-1.8c1.9-2.3,4-4.4,6.3-6.3c0.5-0.4,1.2-0.4,1.8-0.1l2.9,1.8
		c1.9,1.1,4.1,1.2,6.1,0.3c1.3-0.6,2.7-1.2,4.1-1.7c2.1-0.7,3.6-2.4,4.1-4.5l0.8-3.3c0.2-0.6,0.7-1.1,1.3-1.2c2.9-0.3,6-0.3,8.9,0
		c0.6,0.1,1.1,0.5,1.3,1.2l0.8,3.3c0.5,2.1,2,3.8,4.1,4.5c1.4,0.5,2.8,1,4.1,1.7c1.9,1,4.2,0.9,6.1-0.3l2.9-1.8
		c0.6-0.3,1.3-0.3,1.8,0.1c2.3,1.9,4.4,4,6.3,6.3c0.4,0.5,0.4,1.2,0.1,1.8l-1.8,2.9c-1.1,1.8-1.2,4.1-0.3,6.1
		c0.7,1.3,1.2,2.7,1.7,4.1c0.7,2.1,2.4,3.6,4.5,4.1l3.3,0.8c0.6,0.2,1.1,0.7,1.2,1.3c0.2,1.5,0.2,3,0.2,4.5
		C90.7,51.2,90.6,52.7,90.5,54.2z"/>
	<path class="st0" d="M50,30.4c-6.8,0-12.4,5.6-12.4,12.4c0,6.8,5.6,12.4,12.4,12.4c6.8,0,12.4-5.6,12.4-12.4
		C62.4,36,56.8,30.4,50,30.4z M50,50.5c-4.3,0-7.7-3.5-7.7-7.7c0-4.3,3.5-7.7,7.7-7.7c4.3,0,7.7,3.5,7.7,7.7
		C57.7,47.1,54.3,50.5,50,50.5z"/>
	<path class="st0" d="M50,22.2c-15.2,0-27.5,12.4-27.5,27.5c0,8.3,3.7,15.7,9.5,20.8c0.1,0.1,0.2,0.2,0.3,0.2
		c4.8,4.1,11,6.5,17.7,6.5c6.8,0,12.9-2.5,17.7-6.5c0.1-0.1,0.2-0.2,0.3-0.3c5.8-5.1,9.5-12.5,9.5-20.8C77.5,34.5,65.2,22.2,50,22.2
		z M36.6,68.2c0.6-1,1.4-1.9,2.2-2.8c3-3,6.9-4.6,11.2-4.6c0,0,0,0,0,0s0,0,0,0c4.2,0,8.2,1.6,11.1,4.6c0.9,0.9,1.6,1.8,2.2,2.8
		C59.6,71,55,72.6,50,72.6C45,72.6,40.4,71,36.6,68.2z M66.9,65.1c-0.7-1-1.5-2-2.4-2.9c-3.9-3.9-9-6-14.5-6c0,0,0,0,0,0s0,0,0,0
		c-5.5,0-10.6,2.1-14.5,6c-0.9,0.9-1.7,1.9-2.4,2.9c-3.7-4.1-5.9-9.4-5.9-15.3c0-12.6,10.2-22.8,22.8-22.8s22.8,10.2,22.8,22.8
		C72.8,55.6,70.6,61,66.9,65.1z"/>
</g>
</svg>
