<?xml version="1.0" encoding="utf-8"?>
<!-- Generator: Adobe Illustrator 21.1.0, SVG Export Plug-In . SVG Version: 6.00 Build 0)  -->
<svg version="1.1" id="Layer_1" xmlns="http://www.w3.org/2000/svg" xmlns:xlink="http://www.w3.org/1999/xlink" x="0px" y="0px"
	 viewBox="0 0 100 100" style="enable-background:new 0 0 100 100;" xml:space="preserve">
<style type="text/css">
	.st0{fill:#7ab1cc;}
</style>
<g>
	<path class="st0" d="M82.6,22.3H64.4c-1.3,0-2.4,1.1-2.4,2.3s1.1,2.3,2.4,2.3h18.2c1.3,0,2.4-1.1,2.4-2.3S83.9,22.3,82.6,22.3z"/>
	<path class="st0" d="M82.6,39.2h-9.7c-1.3,0-2.4,1.1-2.4,2.3s1.1,2.3,2.4,2.3h9.7c1.3,0,2.4-1.1,2.4-2.3S83.9,39.2,82.6,39.2z"/>
	<path class="st0" d="M82.6,56.1h-9.7c-1.3,0-2.4,1.1-2.4,2.3s1.1,2.3,2.4,2.3h9.7c1.3,0,2.4-1.1,2.4-2.3S83.9,56.1,82.6,56.1z"/>
	<path class="st0" d="M82.6,73H64.9c-1.3,0-2.4,1.1-2.4,2.3s1.1,2.3,2.4,2.3h17.7c1.3,0,2.4-1.1,2.4-2.3S83.9,73,82.6,73z"/>
	<path class="st0" d="M85.3,4.3H41.9c-4.2,0-8.1,2.1-10.3,5.6c-0.7,1.1-0.4,2.5,0.7,3.3c1.1,0.7,2.5,0.4,3.3-0.7
		c1.4-2.2,3.8-3.5,6.4-3.5h43.4c4.2,0,7.6,3.4,7.6,7.6v66.9c0,4.2-3.4,7.6-7.6,7.6H41.9c-2.3,0-4.5-1-5.9-2.8
		c-0.8-1-2.3-1.2-3.3-0.3c-1,0.8-1.2,2.3-0.3,3.3c2.4,2.9,5.8,4.5,9.6,4.5h43.4c6.8,0,12.3-5.5,12.3-12.3V16.6
		C97.7,9.8,92.1,4.3,85.3,4.3z"/>
	<path class="st0" d="M67.3,50C67.3,32.3,52.9,18,35.2,18S3.1,32.3,3.1,50s14.4,32.1,32.1,32.1S67.3,67.7,67.3,50z M7.9,52.4h5.2
		c1.3,0,2.4-1.1,2.4-2.3s-1.1-2.3-2.4-2.3H7.9c1.1-13.2,11.7-23.8,24.9-24.9v4.7c0,1.3,1.1,2.3,2.4,2.3s2.4-1.1,2.4-2.3v-4.7
		c13.2,1.1,23.8,11.7,24.9,24.9h-4.7c-1.3,0-2.4,1.1-2.4,2.3s1.1,2.3,2.4,2.3h4.7c-1.1,13.2-11.7,23.8-24.9,24.9v-4.7
		c0-1.3-1.1-2.3-2.4-2.3s-2.4,1.1-2.4,2.3v4.7C19.6,76.2,9.1,65.6,7.9,52.4z"/>
	<path class="st0" d="M47.2,65.3c0.5,0.5,1.1,0.7,1.7,0.7s1.2-0.2,1.7-0.7c0.9-0.9,0.9-2.4,0-3.3l-13-13V38.3c0-1.3-1.1-2.3-2.4-2.3
		s-2.4,1.1-2.4,2.3V50c0,0.6,0.2,1.2,0.7,1.7L47.2,65.3z"/>
</g>
</svg>
