<?xml version="1.0" encoding="utf-8"?>
<!-- Generator: Adobe Illustrator 21.1.0, SVG Export Plug-In . SVG Version: 6.00 Build 0)  -->
<svg version="1.1" id="Layer_1" xmlns="http://www.w3.org/2000/svg" xmlns:xlink="http://www.w3.org/1999/xlink" x="0px" y="0px"
	 viewBox="0 0 100 100" style="enable-background:new 0 0 100 100;" xml:space="preserve">
<style type="text/css">
	.st0{fill:#7ab1cc;}
</style>
<g>
	<path class="st0" d="M68.7,38.8c-15.3,0-27.8,12.5-27.8,27.8s12.5,27.8,27.8,27.8S96.5,82,96.5,66.6S84,38.8,68.7,38.8z M71,89.6
		v-3.9c0-1.3-1.1-2.3-2.4-2.3s-2.4,1.1-2.4,2.3v3.9C55.4,88.5,46.8,79.8,45.7,69h3.9c1.3,0,2.4-1.1,2.4-2.3s-1.1-2.3-2.4-2.3h-3.9
		c1.1-10.9,9.8-19.5,20.6-20.7v3.9c0,1.3,1.1,2.3,2.4,2.3s2.4-1.1,2.4-2.3v-3.9c10.9,1.1,19.5,9.8,20.6,20.7h-3.9
		c-1.3,0-2.4,1.1-2.4,2.3s1.1,2.3,2.4,2.3h3.9C90.6,79.8,81.9,88.5,71,89.6z"/>
	<path class="st0" d="M84.6,74.4l-13.6-9v-9.8c0-1.3-1.1-2.3-2.4-2.3s-2.4,1.1-2.4,2.3v11.1c0,0.8,0.4,1.5,1,2L82,78.3
		c0.4,0.3,0.9,0.4,1.3,0.4c0.8,0,1.5-0.4,2-1C86,76.6,85.7,75.1,84.6,74.4z"/>
	<path class="st0" d="M45.5,45.6c1.1,0.6,2.6,0.3,3.2-0.9c0.6-1.1,0.3-2.6-0.9-3.2c-1.4-0.8-2.8-1.4-4.3-2c5.3-3.3,8.9-9.2,8.9-16
		c0-10.4-8.4-18.8-18.8-18.8s-18.8,8.4-18.8,18.8c0,6.6,3.5,12.5,8.7,15.8c-4,1.4-7.6,3.7-10.7,6.8c-5.5,5.5-8.5,12.8-8.5,20.5v12.9
		c0,1.3,1.1,2.3,2.4,2.3S9,80.8,9,79.5V66.7c0-6.5,2.5-12.6,7.1-17.2c4.1-4,9.3-6.5,14.9-7v30.9c0,1.3,1.1,2.3,2.4,2.3
		s2.4-1.1,2.4-2.3V42.5C39.1,42.8,42.5,43.9,45.5,45.6z M19.5,23.5c0-7.8,6.3-14.1,14.1-14.1c7.8,0,14.1,6.3,14.1,14.1
		c0,7.8-6.3,14.1-14.1,14.1C25.9,37.7,19.5,31.3,19.5,23.5z"/>
</g>
</svg>
