<?xml version="1.0" standalone="no"?>
<!DOCTYPE svg PUBLIC "-//W3C//DTD SVG 20010904//EN"
 "http://www.w3.org/TR/2001/REC-SVG-20010904/DTD/svg10.dtd">
<svg version="1.0" xmlns="http://www.w3.org/2000/svg"
 width="500.000000pt" height="500.000000pt" viewBox="0 0 500.000000 500.000000"
 preserveAspectRatio="xMidYMid meet">
<metadata>
Created by potrace 1.11, written by Peter Selinger 2001-2013
</metadata>
<g transform="translate(0.000000,500.000000) scale(0.100000,-0.100000)"
fill="#000000" stroke="none">
<path d="M0 2500 l0 -2500 2500 0 2500 0 0 2500 0 2500 -2500 0 -2500 0 0
-2500z m1882 1262 c216 -58 404 -185 526 -355 l33 -46 -208 -140 -208 -140
-35 42 c-121 144 -237 195 -427 185 -206 -11 -319 -91 -331 -235 -8 -92 53
-176 161 -223 23 -10 137 -39 252 -65 308 -68 408 -104 556 -200 180 -116 265
-278 276 -520 6 -143 -15 -253 -71 -362 -98 -194 -311 -350 -571 -420 -91 -24
-117 -26 -280 -26 -198 -1 -259 10 -406 73 -156 66 -314 189 -421 327 l-42 56
34 29 c19 16 105 82 190 147 l155 118 61 -66 c71 -76 143 -122 257 -165 75
-28 93 -30 212 -30 155 -1 213 17 295 90 60 55 86 125 76 207 -16 137 -124
196 -461 253 -384 66 -598 189 -714 414 -103 198 -107 446 -11 646 91 189 306
346 552 404 122 28 128 28 308 25 128 -2 182 -7 242 -23z m1953 -672 c209 -67
348 -188 416 -364 16 -43 28 -81 25 -83 -3 -3 -94 -33 -204 -68 l-198 -62 -27
49 c-29 52 -94 101 -157 118 -19 5 -65 10 -101 10 -86 0 -160 -36 -204 -99
l-30 -43 -3 -333 c-4 -365 0 -393 50 -451 53 -60 100 -79 198 -79 70 0 93 4
130 24 58 30 107 76 131 124 11 20 23 37 27 37 9 0 406 -131 411 -136 3 -2
-17 -48 -44 -101 -67 -136 -164 -233 -296 -296 -143 -69 -199 -82 -369 -82
-120 1 -159 4 -223 23 -206 59 -373 188 -440 342 -50 113 -52 138 -52 565 0
431 2 454 55 570 72 161 245 291 456 345 112 28 346 23 449 -10z"/>
</g>
</svg>
