<?xml version="1.0" encoding="utf-8"?>
<!-- Generator: Adobe Illustrator 22.1.0, SVG Export Plug-In . SVG Version: 6.00 Build 0)  -->
<svg version="1.2" baseProfile="tiny" id="Layer_1" xmlns="http://www.w3.org/2000/svg" xmlns:xlink="http://www.w3.org/1999/xlink"
	 x="0px" y="0px" viewBox="0 0 200 200" xml:space="preserve">
<g>
	<g>
		<path fill="#8B8B8B" d="M183.1,183.1H16.6V16.6h166.5l14.1-14.1c-1.7-1.7-3.3-2.5-5.8-2.5H8.3C3.3,0,0,3.3,0,8.3v183.1
			c0,5,3.3,8.3,8.3,8.3h183.1c5,0,8.3-3.3,8.3-8.3V49.9l-16.6,16.6V183.1z"/>
		<polygon fill="#8B8B8B" points="33.3,41.6 33.3,58.3 141.5,58.3 158.1,41.6 		"/>
		<polygon fill="#8B8B8B" points="166.5,91.6 166.5,83.2 158.1,91.6 		"/>
		<polygon fill="#8B8B8B" points="33.3,74.9 33.3,91.6 108.2,91.6 124.8,74.9 		"/>
		<polygon fill="#8B8B8B" points="33.3,108.2 33.3,124.8 74.9,124.8 91.6,108.2 		"/>
		<polygon fill="#8B8B8B" points="166.5,124.8 166.5,108.2 141.5,108.2 124.8,124.8 		"/>
		<polygon fill="#8B8B8B" points="33.3,141.5 33.3,158.1 41.6,158.1 58.3,141.5 		"/>
		<polygon fill="#8B8B8B" points="119.8,158.1 119.8,141.5 108.2,141.5 91.6,158.1 		"/>
	</g>
	<g>
		<path fill="#8B8B8B" d="M178.9,33.3l12.5,12.5l5.8-5.8c3.3-3.3,3.3-8.3,0-11.7l0,0c-3.3-3.3-8.3-3.3-11.7,0L178.9,33.3z"/>
		<path fill="#8B8B8B" d="M69.1,158.1l13.3-3.3l-11.7-11.7l-4.2,12.5C66.6,157.3,67.4,158.1,69.1,158.1z"/>
		
			<rect x="59.3" y="90.2" transform="matrix(0.7071 -0.7071 0.7071 0.7071 -32.7819 117.8325)" fill="#8B8B8B" width="133.2" height="16.6"/>
		
			<rect x="175.2" y="37.6" transform="matrix(0.7071 -0.7071 0.7071 0.7071 20.0264 140.2698)" fill="#8B8B8B" width="8.3" height="16.6"/>
	</g>
</g>
</svg>
