<svg id="Layer_1" data-name="Layer 1" xmlns="http://www.w3.org/2000/svg" viewBox="0 0 32 32"><defs><style>.cls-1{fill:#fff;}.cls-2{fill:#c67f7f;}</style></defs><title>MYLS_Icons</title><rect class="cls-1" width="32" height="32"/><rect class="cls-1" x="4" y="4" width="24" height="24"/><path class="cls-2" d="M27,9H22.47L21.41,5.29A1.72,1.72,0,0,0,19.77,4H12.23a1.72,1.72,0,0,0-1.64,1.29L9.53,9H5a1,1,0,0,0,0,2H7V26.5A1.5,1.5,0,0,0,8.5,28h15A1.5,1.5,0,0,0,25,26.5V11h2a1,1,0,0,0,0-2ZM12.47,6h7.06l.86,3H11.61ZM23,26H9V11H23Z"/><path class="cls-2" d="M12,25a1,1,0,0,0,1-1V13a1,1,0,0,0-2,0V24A1,1,0,0,0,12,25Z"/><path class="cls-2" d="M16,25a1,1,0,0,0,1-1V13a1,1,0,0,0-2,0V24A1,1,0,0,0,16,25Z"/><path class="cls-2" d="M20,25a1,1,0,0,0,1-1V13a1,1,0,0,0-2,0V24A1,1,0,0,0,20,25Z"/></svg>