<svg height='100px' width='100px' opacity=".3"  fill="#7ab1cc" xmlns="http://www.w3.org/2000/svg" xmlns:xlink="http://www.w3.org/1999/xlink" version="1.1" x="0px" y="0px" viewBox="0 0 64 64" style="enable-background:new 0 0 64 64;" xml:space="preserve"><rect x="50" y="6" width="6" height="2"></rect><path d="M57,2H7C5.3,2,4,3.3,4,5v54c0,1.7,1.3,3,3,3h50c1.7,0,3-1.3,3-3V5C60,3.3,58.7,2,57,2z M6,5c0-0.6,0.4-1,1-1h39v6H6V5z   M58,59c0,0.6-0.4,1-1,1H7c-0.6,0-1-0.4-1-1V12h52V59z M58,10H48V4h9c0.6,0,1,0.4,1,1V10z"></path><polygon points="33,49 33,33 31,33 31,49 27,49 32,58 37,49 "></polygon><path d="M47.7,25c-0.9-3.1-3.9-5.3-7.2-5c-1.3-3.6-4.6-6-8.5-6c-3.9,0-7.2,2.4-8.5,6c-3.3-0.3-6.3,1.9-7.2,5C11.7,25.4,8,29.3,8,34  c0,5,4,9,9,9h12v-2H17c-3.9,0-7-3.1-7-7s3.1-7,7-7l1,0l0.1-0.8c0.4-2.4,2.5-4.2,4.9-4.2c0.3,0,0.7,0,1,0.1l0.9,0.2l0.2-0.9  C26,18.2,28.8,16,32,16s6,2.2,6.8,5.4l0.2,0.9l0.9-0.2c0.3-0.1,0.7-0.1,1-0.1c2.4,0,4.5,1.8,4.9,4.2l0.1,0.8h0.8l0.1,0  c3.9,0,7,3.1,7,7c0,3.9-3.1,7-7,7H35v2h12c5,0,9-4,9-9C56,29.3,52.3,25.4,47.7,25z"></path></svg>