<svg id="Layer_1" data-name="Layer 1" xmlns="http://www.w3.org/2000/svg" viewBox="0 0 32 32"><defs><style>.cls-1{fill:#fff;}.cls-2{fill:#7ab1cc;}</style></defs><title>MYLS_Icons</title><rect class="cls-1" width="32" height="32"/><rect class="cls-1" x="4" y="4" width="24" height="24"/><path class="cls-2" d="M27.8,13H26.2a.2.2,0,0,0-.2.2V26H6V6H18.8a.2.2,0,0,0,.2-.2V4.2a.2.2,0,0,0-.2-.2H4.5a.5.5,0,0,0-.5.5v23a.5.5,0,0,0,.5.5h23a.5.5,0,0,0,.5-.5V13.2A.2.2,0,0,0,27.8,13Z"/><path class="cls-2" d="M9.93,18,9,22.53a.5.5,0,0,0,.5.5l4.49-1a.54.54,0,0,0,.36-.14L27.85,8.39a.5.5,0,0,0,0-.71L24.32,4.15A.51.51,0,0,0,24,4a.5.5,0,0,0-.35.15L10.07,17.68A.54.54,0,0,0,9.93,18ZM24,6.62,25.38,8,24,9.45,22.55,8ZM11.81,18.77l9.33-9.32,1.41,1.41-9.32,9.33-1.8.38Z"/></svg>