<svg id="Layer_1" data-name="Layer 1" xmlns="http://www.w3.org/2000/svg" viewBox="0 0 32 32"><defs><style>.cls-1{fill:#7ab1cc;}.cls-2{fill:#fff;}</style></defs><title>MYLS_Icons</title><rect class="cls-1" y="-0.04" width="32" height="32"/><polygon class="cls-2" points="15 12 15 10 7 10 7 11 7 12 7 15 7 17 7 23 9 23 9 17 14 17 14 15 9 15 9 12 15 12"/><path class="cls-2" d="M20.89,12A2.12,2.12,0,0,1,23,14.11v4.78A2.12,2.12,0,0,1,20.89,21H19V12h1.89m0-2H17V23h3.89A4.11,4.11,0,0,0,25,18.89V14.11A4.11,4.11,0,0,0,20.89,10Z"/></svg>