<svg height='100px' width='100px'  fill="#999999" xmlns="http://www.w3.org/2000/svg" data-name="Layer 1" viewBox="0 0 128 128" x="0px" y="0px"><title>Miscellaneous 45expandlines</title><path d="M120,0H8A8,8,0,0,0,0,8V120a8,8,0,0,0,8,8H120a8,8,0,0,0,8-8V8A8,8,0,0,0,120,0Zm4,120a4,4,0,0,1-4,4H8a4,4,0,0,1-4-4V17H124Zm0-107H4V8A4,4,0,0,1,8,4H120a4,4,0,0,1,4,4Z"></path><circle cx="109" cy="8.67" r="2"></circle><circle cx="101" cy="8.67" r="2"></circle><path d="M14,47.87a2,2,0,0,0,2-2v-1a2,2,0,0,0-4,0v1A2,2,0,0,0,14,47.87Z"></path><path d="M14,40.83a2,2,0,0,0,2-2v-1a2,2,0,0,0-4,0v1A2,2,0,0,0,14,40.83Z"></path><path d="M14,33.78a2,2,0,0,0,2-2v-.9a2,2,0,1,0-4-.21q0,.16,0,.33v.78A2,2,0,0,0,14,33.78Z"></path><path d="M24.81,73h1a2,2,0,0,0,0-4h-1a2,2,0,0,0,0,4Z"></path><path d="M14,54.92a2,2,0,0,0,2-2v-1a2,2,0,0,0-4,0v1A2,2,0,0,0,14,54.92Z"></path><path d="M14,69a2,2,0,0,0,2-2V66a2,2,0,0,0-4,0v1A2,2,0,0,0,14,69Z"></path><path d="M14,62a2,2,0,0,0,2-2V59a2,2,0,0,0-4,0v1A2,2,0,0,0,14,62Z"></path><path d="M53.21,29h1a2,2,0,0,0,.09-4h-1.1a2,2,0,0,0,0,4Z"></path><path d="M56,31V32a2,2,0,1,0,4,0V31s0,0,0-.07a2,2,0,0,0-4,0S56,31,56,31Z"></path><path d="M58,36a2,2,0,0,0-2,2v1a2,2,0,0,0,4,0V38A2,2,0,0,0,58,36Z"></path><path d="M39.11,29h1a2,2,0,0,0,0-4h-1a2,2,0,0,0,0,4Z"></path><path d="M18.77,69h-.89a2,2,0,1,0-.23,4h1.12a2,2,0,1,0,0-4Z"></path><path d="M25,29h1a2,2,0,1,0,0-4H25a2,2,0,0,0,0,4Z"></path><path d="M31.86,73h1a2,2,0,0,0,0-4h-1a2,2,0,1,0,0,4Z"></path><path d="M32.07,29h1a2,2,0,0,0,0-4h-1a2,2,0,1,0,0,4Z"></path><path d="M46.16,29h1a2,2,0,1,0,0-4h-1a2,2,0,0,0,0,4Z"></path><path d="M18,29h1a2,2,0,1,0,0-4H18a2,2,0,0,0-2,2A2,2,0,0,0,18,29Z"></path><path d="M58,62.15a2,2,0,0,0,2-2v-1a2,2,0,0,0-4,0v1A2,2,0,0,0,58,62.15Z"></path><path d="M53,73H54a2,2,0,0,0,2-2,2,2,0,0,0-2-2H53a2,2,0,0,0,0,4Z"></path><path d="M58,55.11a2,2,0,0,0,2-2v-1a2,2,0,0,0-4,0v1A2,2,0,0,0,58,55.11Z"></path><path d="M57.91,69.2H58a2,2,0,0,0,2-1.91c0-.1,0-.19,0-.29v-.81a2,2,0,0,0-4,0v.92A2,2,0,0,0,57.91,69.2Z"></path><path d="M73.43,72l.28,0L74,72h.43a2,2,0,0,0,0-4H74a6,6,0,0,0-.85.06,2,2,0,0,0,.28,4Z"></path><path d="M108.43,72h1a2,2,0,0,0,0-4h-1a2,2,0,0,0,0,4Z"></path><path d="M94.43,72h1a2,2,0,0,0,0-4h-1a2,2,0,0,0,0,4Z"></path><path d="M101.43,72h1a2,2,0,0,0,0-4h-1a2,2,0,0,0,0,4Z"></path><path d="M112,74v.14a2,2,0,1,0,4,0V74a6,6,0,0,0-.14-1.28,2,2,0,1,0-3.91.85A2,2,0,0,1,112,74Z"></path><path d="M114,83.14a2,2,0,0,0,2-2v-1a2,2,0,0,0-4,0v1A2,2,0,0,0,114,83.14Z"></path><path d="M112,88.14a2,2,0,1,0,4,0v-1a2,2,0,0,0-4,0Z"></path><path d="M114,92.14a2,2,0,0,0-1.83,1.19l1.6.32a6,6,0,0,1,2.22,1v-.48A2,2,0,0,0,114,92.14Z"></path><path d="M80.43,72h1a2,2,0,0,0,0-4h-1a2,2,0,0,0,0,4Z"></path><path d="M72,110v-.71a2,2,0,1,0-4,0V110c0,.14,0,.27,0,.41a2,2,0,0,0,2,1.86h.15A2,2,0,0,0,72,110.14C72,110.09,72,110,72,110Z"></path><path d="M75,112H74a2,2,0,0,0,0,4h1a2,2,0,0,0,0-4Z"></path><path d="M82,112H81a2,2,0,0,0,0,4h1a2,2,0,0,0,0-4Z"></path><path d="M70,77.29a2,2,0,0,0,2-2v-1a2,2,0,0,0-4,0v1A2,2,0,0,0,70,77.29Z"></path><path d="M89,112H88a2,2,0,0,0,0,4h1a2,2,0,0,0,1.66-.89l-1-3A2,2,0,0,0,89,112Z"></path><path d="M70,84.29a2,2,0,0,0,2-2v-1a2,2,0,0,0-4,0v1A2,2,0,0,0,70,84.29Z"></path><path d="M70,98.29a2,2,0,0,0,2-2v-1a2,2,0,0,0-4,0v1A2,2,0,0,0,70,98.29Z"></path><path d="M68,103.29a2,2,0,0,0,4,0v-1a2,2,0,1,0-4,0Z"></path><path d="M113.42,101.36a2,2,0,0,0-.43-3.78L90.39,93a2,2,0,0,0-2.28,2.62l7,20a2,2,0,0,0,3.72.14l2-4.57,8.79,7.29a2,2,0,0,0,2.69-.12l5.13-5.09a2,2,0,0,0-.13-3l-8.38-7ZM113,112l-2.27,2.26-9.44-7.83a2,2,0,0,0-3.11.74l-1,2.33L93,97.65l13.09,2.63-1.8.82a2,2,0,0,0-.45,3.36Z"></path><path d="M38.9,73H40V87a6,6,0,0,0,6,6H82a6,6,0,0,0,6-6V72h.43a2,2,0,0,0,0-4H88V51a6,6,0,0,0-6-6H60a2,2,0,0,0-4,0H46a6,6,0,0,0-6,6V69H38.9a2,2,0,0,0,0,4ZM44,71.44A2,2,0,0,0,45.95,73h1a2,2,0,0,0,0-4h-1A2,2,0,0,0,44,70.56V51a2,2,0,0,1,2-2H82a2,2,0,0,1,2,2V87a2,2,0,0,1-2,2H72v-.71a2,2,0,0,0-4,0V89H46a2,2,0,0,1-2-2Z"></path><path d="M21.8,93.6l10.54,7.89-1-.07a2,2,0,1,0-.3,4l7.77.59H39a2,2,0,0,0,1.91-2.59l-2.1-6.81A2,2,0,0,0,35,97.79l.28.9L24.2,90.4a2,2,0,0,0-2.4,3.2Z"></path></svg>