<svg id="Layer_1" data-name="Layer 1" xmlns="http://www.w3.org/2000/svg" viewBox="0 0 32 32"><defs><style>.cls-1{fill:#fff;}.cls-2{fill:#8d8d8d;}</style></defs><title>MYLS_Icons</title><rect class="cls-1" width="32" height="32"/><rect class="cls-1" x="4" y="4" width="24" height="24"/><path class="cls-2" d="M27.08,4H4.92a.5.5,0,0,0-.42.77L13,18v9.07a.5.5,0,0,0,.5.5.51.51,0,0,0,.28-.09l5-3.33a.5.5,0,0,0,.22-.42V18L27.5,4.77A.5.5,0,0,0,27.08,4ZM17,22.93l-2,1.33V18h2ZM17.91,16H14.09L7.66,6H24.34Z"/></svg>