<svg id="Layer_1" data-name="Layer 1" xmlns="http://www.w3.org/2000/svg" viewBox="0 0 32 32"><defs><style>.cls-1{fill:#fff;opacity:0;}.cls-2{fill:#8d8d8d;}</style></defs><title>MYLS_Icons</title><rect class="cls-1" width="32" height="32"/><rect class="cls-1" x="4" y="4" width="24" height="24"/><path class="cls-2" d="M26,26H6V6h8V4H4.5a.5.5,0,0,0-.5.5v23a.5.5,0,0,0,.5.5h23a.5.5,0,0,0,.5-.5V18H26Z"/><path class="cls-2" d="M27.5,4H18V6h6.59L8.15,22.44a.5.5,0,0,0,0,.71l.7.7a.5.5,0,0,0,.71,0L26,7.41V14h2V4.5A.5.5,0,0,0,27.5,4Z"/></svg>