<?xml version="1.0" encoding="utf-8"?>
<!-- Generator: Adobe Illustrator 23.0.6, SVG Export Plug-In . SVG Version: 6.00 Build 0)  -->
<svg version="1.1" id="Слой_1" xmlns="http://www.w3.org/2000/svg" xmlns:xlink="http://www.w3.org/1999/xlink" x="0px" y="0px"
	 viewBox="0 0 50 50" style="enable-background:new 0 0 50 50;" xml:space="preserve">
<style type="text/css">
	.st0{fill:#FFFFFF;stroke:#FFFFFF;stroke-miterlimit:10;}
	.st1{fill:none;stroke:#000000;stroke-width:0.2;stroke-miterlimit:10;}
</style>
<g>
	<g>
	</g>
	<g>
		<g>
			<g>
				<path d="M29.17,26.73c-0.01,0.84-0.07,1.68-0.1,2.52c-0.02,0.61,0.4,1.26,0.8,1.69c0.09,0.1,0.22-0.04,0.14-0.14
					c-0.24-0.3-0.15-0.9-0.15-1.27c0-0.66,0.07-1.3,0.18-1.95c0.11-0.65,0.23-1.3,0.34-1.95c0.05-0.26,0.07-0.53,0.04-0.8
					c-0.03-0.25-0.13-0.48-0.18-0.73c-0.01-0.07-0.12-0.1-0.17-0.04c-0.36,0.39-0.74,0.64-0.86,1.18
					C29.11,25.73,29.17,26.23,29.17,26.73c0,0.13,0.2,0.13,0.2,0c0-0.45-0.05-0.9,0.02-1.35c0.09-0.55,0.47-0.79,0.82-1.18
					c-0.06-0.01-0.11-0.03-0.17-0.04c0.06,0.31,0.18,0.6,0.18,0.93c0,0.36-0.08,0.71-0.14,1.06c-0.12,0.68-0.25,1.35-0.34,2.03
					c-0.07,0.56-0.09,1.12-0.09,1.69c0,0.34-0.02,0.79,0.21,1.07c0.05-0.05,0.09-0.09,0.14-0.14c-0.22-0.23-0.4-0.5-0.53-0.79
					c-0.18-0.39-0.21-0.72-0.19-1.15c0.03-0.71,0.07-1.42,0.09-2.13C29.37,26.6,29.17,26.6,29.17,26.73z"/>
			</g>
		</g>
		<g>
			<g>
				<g>
					<g>
						<path d="M26.08,17.37c-0.02-0.16-0.02-0.32,0-0.47c0.01-0.05-0.05-0.1-0.1-0.1c-0.06,0-0.09,0.04-0.1,0.1
							c-0.02,0.16-0.01,0.32,0,0.47c0,0.05,0.04,0.1,0.1,0.1C26.03,17.47,26.08,17.42,26.08,17.37c-0.01-0.16-0.02-0.32,0-0.47
							c-0.07,0-0.13,0-0.2,0c-0.02,0.16-0.02,0.32,0,0.47c0.01,0.05,0.04,0.1,0.1,0.1C26.03,17.47,26.09,17.42,26.08,17.37z"/>
					</g>
				</g>
				<g>
					<g>
						<path d="M29.84,24.57c0.93-0.78,3.19-5.27,0.76-5.47c-0.06,0-0.1,0.05-0.1,0.1c0-0.06-0.41,0.18-0.45,0.24
							c-0.21,0.23-0.23,0.8-0.27,1.07c-0.08,0.46-0.13,0.92-0.18,1.38c-0.02,0.17,0.03,0.58-0.07,0.7
							c-0.11,0.16,0.03,0.04-0.25-0.21c-0.06-0.05-0.14-0.03-0.17,0.04c-0.08,0.24-0.82,2.12-0.97,2.01
							c-0.14-0.11-0.15-2.08-0.22-2.4c-0.34-1.68-1.53-3.01-1.84-4.67c-0.02-0.11-0.21-0.09-0.2,0.03c0.06,0.49,0.29,1.01-0.15,0.35
							c-0.34-0.51-0.59-1.11-0.86-1.66c-0.56-1.15-1.31-2.42-0.94-3.75c0.03-0.11-0.12-0.17-0.18-0.08
							c-1.45,2.4-2.92,4.83-4.02,7.42c-1.03,2.42-1.58,5.02-1.88,7.63c-0.09,0.82-0.47,2.21-0.22,3c0.28,0.85,1.24,1.75,1.92,2.27
							c0.84,0.65,1.81,1.02,2.83,1.27c0.53,0.13,1.42,0.49,1.97,0.29c0.27-0.1,0.63-0.75,0.84-0.99c0.37-0.44,0.75-0.87,1.1-1.32
							c0.16-0.21,0.78-1.22,0.58-1.12c-0.19,0.1-0.46,0.8-0.56,0.97c-0.2,0.35-0.57,0.78-0.64,1.18c-0.15,0.83,0.65,1.44-0.02,2.17
							c-0.52,0.56-1.3,0.26-1.76,0.87c-0.41,0.55-0.42,1.46-0.43,2.11c-0.02,1.2-0.06,2.92,0.79,3.89c1.1,1.25,2.94,0.31,3.94-0.58
							c0.76-0.68,1.42-1.56,1.79-2.51c0.57-1.44-0.17-3.2,0.59-4.53c0.05-0.08-0.05-0.19-0.14-0.14c-1.13,0.77-1.21-3.59-1.2-4.2
							c0.02-0.92,0.09-1.84,0.12-2.76C29.38,26.31,29.15,25.24,29.84,24.57c0.09-0.09-0.05-0.23-0.14-0.14
							c-0.46,0.45-0.53,0.94-0.55,1.56c-0.03,1.24-0.08,2.48-0.11,3.73c-0.03,1.65-0.18,3.51,0.97,4.84
							c0.03,0.03,0.08,0.04,0.12,0.02c0.21-0.12,0.24-0.13,0.16-0.19c-0.03-0.02-0.22,1.01-0.21,0.93c-0.08,0.69,0.05,1.39,0,2.09
							c-0.09,1.47-0.95,2.82-2.04,3.78c-1.15,1.02-3.18,1.81-3.99-0.01c-0.39-0.89-0.4-1.95-0.4-2.91c0-0.55,0.01-1.14,0.16-1.67
							c0.25-0.9,0.83-0.83,1.57-1.05c0.51-0.15,0.75-0.37,0.78-0.91c0.05-0.8-0.4-1.37-0.08-2.14c0.26-0.61,0.69-1.19,1.02-1.77
							c0.07-0.11-0.1-0.21-0.17-0.1c-0.54,0.78-1.14,1.52-1.75,2.25c-0.54,0.64-0.77,1.18-1.66,1.04c-1.63-0.25-3.21-0.79-4.42-1.95
							c-0.56-0.53-1.21-1.25-1.29-2.05c-0.07-0.75,0.11-1.61,0.19-2.36c0.19-1.73,0.49-3.46,0.97-5.14c0.46-1.64,1.13-3.2,1.91-4.71
							c0.78-1.53,1.8-2.96,2.54-4.5c0.37-0.77,0.14-0.56,0.19,0.12c0.04,0.5,0.21,0.98,0.39,1.44c0.53,1.33,1.24,2.62,1.96,3.86
							c0.05,0.09,0.19,0.05,0.19-0.05c0-0.25-0.11-0.65-0.13-0.75c0.01,0.04,0.09,0.54,0.18,0.75c0.22,0.5,0.52,0.96,0.77,1.44
							c0.78,1.53,0.98,3.2,0.94,4.9c0,0.1,0.13,0.13,0.19,0.05c0.33-0.49,0.61-0.99,0.84-1.53c0.15-0.34,0.19-0.88,0.58-0.49
							c0.06,0.06,0.17,0.01,0.17-0.07c0.04-0.69-0.02-3.3,0.88-3.32c0.06,0,0.1-0.04,0.1-0.1c0.59,0.15,0.84,0.49,0.76,1.01
							c-0.01,0.26-0.04,0.52-0.1,0.78c-0.04,0.22-0.11,0.43-0.18,0.64c-0.31,0.98-0.66,1.91-1.47,2.6
							C29.6,24.51,29.74,24.65,29.84,24.57z"/>
					</g>
				</g>
			</g>
		</g>
		<g>
			<g>
				<path d="M22.66,29.04c-0.36,0.43-0.83,1.1-1.47,1.08c-0.25-0.01-0.47-0.13-0.69-0.25c-0.22-0.12-0.45-0.21-0.7-0.23
					c0,0.07,0,0.13,0,0.2c0.35,0.02,0.76-0.03,1.01-0.31c0.07-0.08-0.02-0.23-0.12-0.16c0.03-0.02,0.04,0,0-0.01
					c-0.02,0-0.05-0.01-0.07-0.02c-0.07-0.02-0.13-0.04-0.2-0.06c-0.06-0.02-0.12-0.05-0.18-0.08c-0.02-0.01-0.04-0.03-0.06-0.04
					c-0.01-0.01-0.02-0.01-0.02-0.02c-0.01-0.02-0.01,0-0.01,0.05c0.02-0.01,0.04-0.02,0.06-0.02c0.04-0.01,0.08-0.01,0.12-0.01
					c0.06,0,0.11,0,0.17-0.01c0.09-0.02,0.17-0.05,0.24-0.11c0.15-0.12,0.23-0.33,0.4-0.42c0.25-0.14,0.58,0.02,0.83,0.08
					c0.14,0.03,0.27,0.04,0.41,0.04c0.16,0,0.32,0.01,0.47,0.01c0.09,0,0.22,0.02,0.31-0.01c-0.03-0.06-0.06-0.11-0.1-0.17
					C22.93,28.72,22.8,28.88,22.66,29.04c-0.08,0.1,0.06,0.24,0.14,0.14c0.13-0.16,0.27-0.32,0.42-0.46c0.07-0.07,0-0.21-0.1-0.17
					c0.01,0-0.05,0-0.07,0c-0.07,0-0.14,0-0.22,0c-0.15,0-0.3,0-0.45-0.01c-0.16,0-0.3-0.02-0.45-0.06
					c-0.22-0.06-0.46-0.14-0.7-0.09c-0.19,0.04-0.31,0.15-0.43,0.3c-0.05,0.07-0.1,0.14-0.17,0.2c-0.12,0.1-0.25,0.07-0.4,0.09
					c-0.27,0.03-0.36,0.25-0.12,0.4c0.12,0.07,0.25,0.12,0.38,0.15c0.08,0.02,0.22,0.07,0.29,0.02c-0.04-0.05-0.08-0.1-0.12-0.16
					c-0.21,0.24-0.56,0.27-0.87,0.25c-0.13-0.01-0.13,0.19,0,0.2c0.54,0.05,0.95,0.53,1.52,0.47c0.65-0.07,1.09-0.67,1.48-1.13
					C22.89,29.08,22.74,28.94,22.66,29.04z"/>
			</g>
		</g>
		<g>
			<g>
				<path d="M21.98,21.91c0-0.41,0.25-0.83,0.7-0.84c0.34-0.01,0.64,0.17,0.79,0.47c0.23,0.47,0.06,1.23-0.55,1.27
					c-0.24,0.01-0.48-0.06-0.66-0.22C22.07,22.4,21.98,22.16,21.98,21.91c0-0.13-0.2-0.13-0.2,0c0.01,0.26,0.09,0.52,0.25,0.72
					c0.17,0.21,0.43,0.33,0.7,0.36c0.37,0.05,0.72-0.11,0.9-0.44c0.17-0.3,0.18-0.69,0.06-1.01c-0.14-0.38-0.46-0.62-0.86-0.67
					c-0.29-0.03-0.58,0.06-0.77,0.27c-0.19,0.21-0.27,0.49-0.27,0.76C21.78,22.04,21.98,22.04,21.98,21.91z"/>
			</g>
		</g>
		<g>
			<g>
				<path d="M30.14,19.71c0.15-0.07,0.3-0.13,0.44-0.2c0.05,0,0.1-0.04,0.1-0.1c0-0.46,0.47-0.97,0.61-1.41
					c0.12-0.39-0.62-0.27,0.25-0.46c0.08-0.02,0.09-0.11,0.04-0.17c-0.15-0.19-1.83-2.05-1.12-2.28c0.06-0.02,0.09-0.09,0.06-0.15
					c-0.25-0.45-1.7-2.83-0.55-2.69c0.11,0.01,0.13-0.17,0.03-0.2c-0.07-0.02-0.67-0.16-0.67-0.21c-0.02-0.34,0.65,0.14,0.43-0.27
					c-0.1-0.19-0.68-0.24-0.87-0.33c-0.34-0.15-0.68-0.36-0.93-0.64c-0.38-0.43-1-2.31-0.33-2.66c0.11-0.06,0.03-0.2-0.08-0.18
					C26.35,8,26.45,6.5,26.4,5.74c0-0.08-0.11-0.14-0.17-0.07c-0.2,0.24-0.62,0.87-0.92,0.99c-0.34,0.13-0.58-0.14-0.89-0.25
					c-0.06-0.02-0.13,0.04-0.13,0.1c-0.01,1.24-1.7,1.34-2.61,1.48c-0.91,0.13-1.73,0.4-2.58,0.77c-2.35,1.03-4.24,2.69-5.75,4.75
					c-0.07,0.1,0.08,0.19,0.16,0.12c0.22-0.2,0.54-0.31,0.74-0.51c0.27-0.02,0.35-0.09,0.23-0.21c-0.01-0.07-0.03-0.09-0.06-0.06
					c-0.22,0.16-0.4,0.37-0.57,0.59c-0.53,0.69-0.77,1.55-0.99,2.38c-0.67,2.52-1.08,5.05-1.5,7.62c-0.02,0.13,0.14,0.17,0.19,0.05
					c0.34-0.82,0.75-1.61,1.1-2.43c0.01-0.03,0.52-0.95,0.11-0.74c-0.18,0.1-0.23,1.05-0.26,1.3c-0.24,1.7-0.09,3.43,0.15,5.13
					c0.25,1.81,0.57,3.62,1.14,5.36c0.21,0.65,0.45,1.28,0.78,1.89c0.5,0.91,1.27,1.89,0.84,2.98c-0.04,0.11,0.12,0.17,0.18,0.08
					c0.59-0.88,0.99,1.48,0.99,1.64c0,0.12,0.16,0.13,0.2,0.03c0.18-0.5,0.67-0.8,0.92-1.26c0.22-0.42,0.28-0.96,0.31-1.43
					c0.09-1.56-0.22-3.16-0.22-4.73c0-3.19,0.43-6.48,1.39-9.54c0.96-3.08,2.63-6.09,4.38-8.79c0.07-0.11,0.17-0.29,0.09-0.34
					c-0.02-0.01-0.02,0.62-0.02,0.69c0.04,0.49,0.21,0.96,0.39,1.41c0.53,1.33,1.24,2.62,1.96,3.86c0.05,0.09,0.19,0.05,0.19-0.05
					c0-0.55-0.1-1.08-0.09-1.63c0-0.13-0.2-0.13-0.2,0c-0.03,1.12,0.53,2,1.04,2.95c0.84,1.56,1.05,3.27,1,5.02
					c0,0.1,0.13,0.13,0.19,0.05c0.33-0.49,0.61-0.99,0.84-1.53c0.15-0.34,0.19-0.88,0.58-0.49c0.06,0.06,0.17,0.01,0.17-0.07
					C29.77,21.79,29.87,20.71,30.14,19.71c0.03-0.12-0.16-0.18-0.19-0.05c-0.16,0.58-0.24,1.19-0.31,1.79
					c-0.04,0.31-0.05,0.64-0.1,0.95c-0.08,0.46,0.05,0.27-0.27-0.02c-0.06-0.05-0.14-0.03-0.17,0.04c-0.08,0.25-0.8,2.13-0.97,2.06
					c-0.05-0.02-0.08-1.65-0.1-1.81c-0.19-1.34-0.67-2.41-1.3-3.58c-0.2-0.38-0.41-0.76-0.53-1.17c-0.07-0.24-0.2-1.09-0.3-0.41
					c-0.02,0.14,0.17,0.58,0.05,0.6c-0.05,0.01-0.58-1.06-0.61-1.12c-0.7-1.36-1.83-3.09-1.39-4.66c0.03-0.11-0.12-0.17-0.18-0.08
					c-1.44,2.4-2.91,4.82-4.01,7.39c-0.95,2.23-1.49,4.61-1.81,7c-0.36,2.72-0.37,5.39-0.16,8.12c0.06,0.73,0.13,1.54-0.12,2.25
					c-0.1,0.29-0.57,1.18-0.91,1.35c-0.32,0.15,0.08,0.14-0.02,0.04c0.06,0.06-0.01-0.46-0.01-0.45c-0.07-0.52-0.43-1-0.55-1.52
					c-0.01-0.06-0.09-0.09-0.15-0.06c0.03-0.02-0.46,0.33-0.43,0.34c0.15,0.01,0.17-0.02,0.17-0.27c0-0.36-0.08-0.69-0.21-1.02
					c-0.24-0.64-0.65-1.19-0.96-1.8c-0.41-0.81-0.67-1.7-0.91-2.58c-0.94-3.48-1.65-7.57-0.6-11.09c0.04-0.12-0.15-0.17-0.19-0.05
					c-0.36,1.03-0.79,2.29-1.39,3.22c0.54-0.83,0.52-2.6,0.71-3.65c0.37-2.03,0.74-5.39,2.58-6.64c0.11-0.07,0.01-0.23-0.1-0.17
					c-0.27,0.15-0.55,0.29-0.82,0.43c-0.63,0.31-0.05,0.04,0.13-0.13c0.6-0.56,1.08-1.25,1.7-1.81c1.41-1.27,3.25-2.37,5.11-2.82
					c0.87-0.21,1.81-0.19,2.65-0.53c0.27-0.11,0.58-0.25,0.77-0.48c0.36-0.45,0.06-0.96,0.9-0.26c0.05,0.04,0.12,0.04,0.16-0.02
					c0.15-0.22,0.39-0.6,0.63-0.74c0.35-0.19,0.17-0.31,0.32,0.12c0.16,0.44,0.09,1.12,0.16,1.6c0.01,0.04,0.06,0.08,0.1,0.07
					c0.13-0.01,1.03-0.07,0.89-0.25c-0.04-0.05-0.17,0.39-0.16,0.34c-0.09,0.59,0,1.34,0.2,1.9c0.34,0.97,1.69,1.84,2.71,1.48
					c0.12-0.04,0.07-0.24-0.05-0.19c-0.41,0.14-0.81,0.19-1.19,0.41c-0.07,0.04-0.07,0.17,0.02,0.18c0.08,0.01,0.88,0.29,0.87,0.05
					c0,0.04-0.23-0.02-0.26,0.05c-0.02,0.07-0.19,0.18-0.23,0.29c-0.2,0.54,0.38,1.46,0.63,1.91c0.07,0.14,0.39,0.68,0.39,0.64
					c0,0.05-0.26,0.24-0.27,0.34c-0.04,0.29,0.12,0.49,0.26,0.73c0.29,0.5,1.29,1.28,0.48,1.53c-0.08,0.02-0.1,0.14-0.02,0.18
					c0.9,0.51-0.65,1.55-0.82,1.94C29.9,19.77,30.1,19.82,30.14,19.71z"/>
			</g>
		</g>
		<g>
			<g>
				<path d="M22.23,42.42c0.18-1.14,0.07-2.23,0.07-3.37c0-1.09,0.23-2.44,1.15-3.13c0.08-0.06,0.04-0.22-0.08-0.18
					c-0.7,0.2-1.28,0.52-1.73,1.1c-0.52,0.67-0.98,1.38-1.4,2.12c-0.94,1.65-1.72,3.4-2.58,5.09c-0.03,0.07,0.01,0.15,0.09,0.15
					c0.48,0,0.95,0,1.43,0c0.48,0,1.04,0.08,1.51,0c0.28-0.05,0.39-0.38,0.55-0.61c0.29-0.4,0.61-0.77,0.96-1.12
					c0.09-0.09-0.05-0.23-0.14-0.14c-0.28,0.27-0.53,0.55-0.77,0.85c-0.11,0.14-0.21,0.28-0.32,0.43c-0.17,0.24-0.22,0.36-0.53,0.39
					c-0.89,0.07-1.81,0-2.7,0c0.03,0.05,0.06,0.1,0.09,0.15c0.79-1.57,1.53-3.18,2.37-4.73c0.37-0.67,0.76-1.32,1.2-1.94
					c0.27-0.37,0.53-0.77,0.91-1.05c0.33-0.24,0.71-0.38,1.1-0.49c-0.03-0.06-0.05-0.12-0.08-0.18c-0.78,0.59-1.13,1.65-1.22,2.6
					c-0.06,0.62-0.01,1.25,0.02,1.87c0.04,0.73,0.01,1.43-0.1,2.16C22.02,42.49,22.21,42.54,22.23,42.42z"/>
			</g>
		</g>
		<g>
			<g>
				<path d="M30.1,24.47c0.35-0.12,0.59-0.49,0.46-0.85c-0.11-0.32-0.44-0.52-0.78-0.42c-0.22,0.06-0.39,0.24-0.44,0.47
					c-0.05,0.2-0.02,0.43,0.1,0.6C29.59,24.48,29.85,24.56,30.1,24.47c0.12-0.04,0.07-0.23-0.05-0.19
					c-0.02,0.01-0.05,0.01-0.07,0.02c-0.03,0.01-0.03,0.01-0.06,0.01c-0.02,0-0.04,0-0.06,0c-0.01,0-0.03,0-0.01,0
					c-0.01,0-0.02,0-0.03-0.01c-0.02,0-0.04-0.01-0.05-0.02c0.02,0.01-0.01,0-0.01-0.01c-0.01-0.01-0.02-0.01-0.03-0.02
					c-0.01-0.01-0.02-0.01-0.02-0.02c-0.02-0.01,0.01,0.01-0.01,0c-0.02-0.01-0.03-0.03-0.04-0.04c-0.01-0.01-0.01-0.01-0.02-0.02
					c-0.01-0.02,0,0-0.01-0.01c-0.01-0.02-0.02-0.03-0.03-0.05c-0.01-0.02-0.02-0.03-0.03-0.05c-0.01-0.01,0.01,0.01,0,0
					c0,0,0-0.01,0-0.01c0-0.01-0.01-0.02-0.01-0.03c-0.01-0.02-0.01-0.04-0.01-0.06c0-0.01,0-0.02-0.01-0.03c0-0.02,0,0.01,0-0.01
					c0-0.04-0.01-0.08,0-0.13c0-0.01,0-0.02,0-0.03c0-0.02,0,0.02,0,0c0,0,0-0.01,0-0.01c0-0.02,0.01-0.04,0.01-0.06
					c0.01-0.05,0.02-0.06,0.04-0.1c0.03-0.05,0.03-0.06,0.07-0.09c0.04-0.04,0.05-0.04,0.09-0.07c0.07-0.04,0.17-0.07,0.27-0.06
					c0.12,0.01,0.23,0.09,0.3,0.18c0.08,0.11,0.12,0.26,0.08,0.4c-0.05,0.15-0.18,0.28-0.33,0.33c-0.05,0.02-0.08,0.07-0.07,0.12
					C29.99,24.45,30.05,24.49,30.1,24.47z"/>
			</g>
		</g>
	</g>
</g>
<g>
	<g>
		<path d="M35.06,43.99c-0.01,0-0.02,0-0.03,0c0,0.07,0,0.13,0,0.2c1.31,0,2.62,0,3.93,0c0.08,0,0.12-0.08,0.09-0.15
			c-1.32-2.39-2.62-4.8-3.84-7.25c-0.06-0.12-0.23-0.01-0.17,0.1c1.22,2.45,2.52,4.85,3.84,7.25c0.03-0.05,0.06-0.1,0.09-0.15
			c-1.31,0-2.62,0-3.93,0c-0.13,0-0.13,0.2,0,0.2c0.01,0,0.02,0,0.03,0C35.19,44.19,35.19,43.99,35.06,43.99L35.06,43.99z"/>
	</g>
</g>
<g>
	<g>
		<path d="M34.98,42.11c-0.1-0.7-0.22-1.39-0.39-2.08c-0.03-0.11-0.2-0.09-0.2,0.03c-0.01-0.07-0.84-0.44-0.95-0.53
			c-0.52-0.4-0.92-1.02-1.23-1.59c-0.36-0.67-0.59-1.39-0.71-2.14c-0.14-0.91-0.32-2.21,0.58-2.79c0.07-0.05,0.06-0.16-0.02-0.18
			c-0.21-0.06-0.32,0.04-0.48,0.19c-0.35,0.32-0.81,0.71-1.11,1.08c-0.58,0.71-0.45,1.81-0.42,2.66c0.06,2.07-1.07,4.01-2.85,5.09
			c-0.77,0.46-1.91,0.81-2.67,0.14c-0.59-0.52-0.75-1.42-0.82-2.16c-0.07-0.64-0.09-1.29-0.07-1.93c0.01-0.45,0.05-0.91,0.18-1.34
			c0.19-0.64,0.45-0.71,1.04-0.86c0.04-0.01,0.07-0.05,0.07-0.1c-0.01-0.57-0.41-0.34-0.78-0.18c-0.74,0.31-1.27,0.62-1.62,1.39
			c-0.48,1.05-0.5,2.1-0.44,3.24c0.04,0.75,0.05,1.47-0.06,2.21c-0.09,0.62-0.2,1.23-0.24,1.85c0,0.05,0.05,0.1,0.1,0.1
			c4.39,0,8.78,0,13.17,0c0.05,0,0.1-0.05,0.1-0.1C35.12,43.42,35.07,42.76,34.98,42.11c-0.02-0.13-0.21-0.07-0.19,0.05
			c0.04,0.31,0.08,0.61,0.1,0.92c0.01,0.13,0.12,0.64,0.05,0.75c-0.2,0.32-1.09,0.16-1.44,0.16c-1.03,0-2.06,0-3.1,0
			c-2.06,0-4.13,0-6.19,0c-0.52,0-1.03,0-1.55,0c-0.24,0-0.5,0.08-0.66-0.13c-0.11-0.14,0.08-0.7,0.11-0.89
			c0.13-0.88,0.23-1.71,0.19-2.6c-0.07-1.62-0.2-3.84,1.55-4.63c0.24-0.11,0.53-0.29,0.79-0.32c0.27-0.03-0.24,0.15-0.21,0.14
			c-0.11,0.04-0.21,0.02-0.32,0.09c-0.36,0.22-0.5,0.77-0.57,1.14c-0.21,1.02-0.15,2.15-0.03,3.18c0.11,0.87,0.34,1.94,1.19,2.39
			c0.99,0.52,2.22-0.03,3.02-0.63c1.14-0.84,2.13-2.15,2.43-3.55c0.19-0.85,0.01-1.71,0.06-2.56c0.04-0.75,0.23-1.26,0.79-1.76
			c0.15-0.13,0.79-0.89,0.98-0.84c-0.01-0.06-0.02-0.12-0.02-0.18c-0.86,0.55-0.83,1.63-0.73,2.53c0.12,1.12,0.45,2.2,1.07,3.15
			c0.4,0.61,0.85,1.12,1.49,1.48c0.11,0.06,0.82,0.5,0.79,0.07c-0.07,0.01-0.13,0.02-0.2,0.03c0.18,0.69,0.29,1.38,0.39,2.08
			C34.81,42.29,35,42.23,34.98,42.11z"/>
	</g>
</g>
<path class="st0" d="M32.64,32.89"/>
<path class="st0" d="M32.03,32.91"/>
<path class="st1" d="M31.93,32.91c0.23-0.07,0.55-0.16,0.73,0.02"/>
<path class="st1" d="M32.63,32.9c1.27,1.09,1.3,1.39,1.67,2.25c0.09,0.2,0.17,0.41,0.32,0.56c0.17,0.17,0.27,0.39,0.35,0.62
	c0.04,0.12,0.05,0.24,0.11,0.35c0.02,0.05,0.05,0.09,0.05,0.15"/>
<path class="st1" d="M18.88,22.44c0.15,0.58,0.38,1.13,0.68,1.65c0.28,0.48,0.64,0.94,0.69,1.5c0.01,0.07,0.01,0.15-0.04,0.22
	c-0.06,0.09-0.19,0.11-0.3,0.12c-0.65,0.1-1.23,0.62-1.87,0.51"/>
</svg>
