<svg height='100px' width='100px'  fill="#999" xmlns="http://www.w3.org/2000/svg" data-name="Layer 2" viewBox="0 0 50 50" x="0px" y="0px"><title>Artboard 37</title><path d="M44,2.8574H6a3.0033,3.0033,0,0,0-3,3v38a3.0033,3.0033,0,0,0,3,3H44a3.0033,3.0033,0,0,0,3-3v-38A3.0033,3.0033,0,0,0,44,2.8574Zm-38,42a1.0009,1.0009,0,0,1-1-1V32.4614l8.7354-8.7353a1.0034,1.0034,0,0,1,1.415,0L36.2822,44.8574Zm39-1a1.0009,1.0009,0,0,1-1,1H39.11L23.6749,29.4223,36.1621,16.9355a1.0016,1.0016,0,0,1,1.415,0L45,24.3584ZM45,21.53l-6.0088-6.01a3.0054,3.0054,0,0,0-4.2432.0005L22.2608,28.0082,16.5645,22.312a3.0037,3.0037,0,0,0-4.2432,0L5,29.6333V5.8574a1.001,1.001,0,0,1,1-1H44a1.001,1.001,0,0,1,1,1Z"></path><path d="M14.5,7.4224a5.1089,5.1089,0,1,0,5.1084,5.1089A5.1148,5.1148,0,0,0,14.5,7.4224Zm0,8.2177a3.1089,3.1089,0,1,1,3.1084-3.1088A3.1121,3.1121,0,0,1,14.5,15.64Z"></path></svg>