<svg id="Layer_1" data-name="Layer 1" xmlns="http://www.w3.org/2000/svg" viewBox="0 0 32 32"><defs><style>.cls-1{fill:#fff;}.cls-2{fill:#9ec18e;}</style></defs><title>MYLS_Icons</title><rect class="cls-1" width="32" height="32"/><rect class="cls-1" x="4" y="4" width="24" height="24"/><path class="cls-2" d="M27.5,15H17V4.5a.5.5,0,0,0-.5-.5h-1a.5.5,0,0,0-.5.5V15H4.5a.5.5,0,0,0-.5.5v1a.5.5,0,0,0,.5.5H15V27.5a.5.5,0,0,0,.5.5h1a.5.5,0,0,0,.5-.5V17H27.5a.5.5,0,0,0,.5-.5v-1A.5.5,0,0,0,27.5,15Z"/></svg>