<svg id="Layer_1" data-name="Layer 1" xmlns="http://www.w3.org/2000/svg" viewBox="0 0 32 32">
    <defs>
        <style>
            .cls-1 {
                opacity: 0;
            }
            
            .cls-3 {
                fill: #8b8b8b;
            }

        </style>
    </defs>
    <title>MYLS_Icons</title>
    <g class="cls-1">
        <rect class="cls-2" width="32" height="32" />
        <rect class="cls-2" x="4" y="4" width="24" height="24" />
    </g>
    <path class="cls-3" d="M7.5,19.5A3.5,3.5,0,1,1,11,16,3.5,3.5,0,0,1,7.5,19.5Zm0-5A1.5,1.5,0,1,0,9,16,1.5,1.5,0,0,0,7.5,14.5Z" />
    <path class="cls-3" d="M16,19.5A3.5,3.5,0,1,1,19.5,16,3.5,3.5,0,0,1,16,19.5Zm0-5A1.5,1.5,0,1,0,17.5,16,1.5,1.5,0,0,0,16,14.5Z" />
    <path class="cls-3" d="M24.5,19.5A3.5,3.5,0,1,1,28,16,3.5,3.5,0,0,1,24.5,19.5Zm0-5A1.5,1.5,0,1,0,26,16,1.5,1.5,0,0,0,24.5,14.5Z" />
</svg>
