<?xml version="1.0" encoding="utf-8"?>
<!-- Generator: Adobe Illustrator 22.1.0, SVG Export Plug-In . SVG Version: 6.00 Build 0)  -->
<svg version="1.2" baseProfile="tiny" id="Layer_1" xmlns="http://www.w3.org/2000/svg" xmlns:xlink="http://www.w3.org/1999/xlink"
	 x="0px" y="0px" viewBox="0 0 200 200" xml:space="preserve">
<g>
	<polygon fill="#8B8B8B" points="133.3,100 75,66.7 75,133.3 	"/>
	<path fill="#8B8B8B" d="M191.7,0H8.3C3.3,0,0,3.3,0,8.3v183.3c0,5,3.3,8.3,8.3,8.3h183.3c5,0,8.3-3.3,8.3-8.3V8.3
		C200,3.3,196.7,0,191.7,0z M75,179.2v-8.3c0-2.5,1.7-4.2,4.2-4.2h41.7c2.5,0,4.2,1.7,4.2,4.2v8.3c0,2.5-1.7,4.2-4.2,4.2H79.2
		C76.7,183.3,75,181.7,75,179.2z M58.3,179.2c0,2.5-1.7,4.2-4.2,4.2H20.8c-2.5,0-4.2-1.7-4.2-4.2v-8.3c0-2.5,1.7-4.2,4.2-4.2h33.3
		c2.5,0,4.2,1.7,4.2,4.2V179.2z M183.3,179.2c0,2.5-1.7,4.2-4.2,4.2h-33.3c-2.5,0-4.2-1.7-4.2-4.2v-8.3c0-2.5,1.7-4.2,4.2-4.2h33.3
		c2.5,0,4.2,1.7,4.2,4.2V179.2z M16.7,150V50h166.7v100H16.7z M20.8,16.7h33.3c2.5,0,4.2,1.7,4.2,4.2v8.3c0,2.5-1.7,4.2-4.2,4.2
		H20.8c-2.5,0-4.2-1.7-4.2-4.2v-8.3C16.7,18.3,18.3,16.7,20.8,16.7z M183.3,20.8v8.3c0,2.5-1.7,4.2-4.2,4.2h-33.3
		c-2.5,0-4.2-1.7-4.2-4.2v-8.3c0-2.5,1.7-4.2,4.2-4.2h33.3C181.7,16.7,183.3,18.3,183.3,20.8z M125,20.8v8.3c0,2.5-1.7,4.2-4.2,4.2
		H79.2c-2.5,0-4.2-1.7-4.2-4.2v-8.3c0-2.5,1.7-4.2,4.2-4.2h41.7C123.3,16.7,125,18.3,125,20.8z"/>
</g>
</svg>
