<svg id="Layer_1" data-name="Layer 1" xmlns="http://www.w3.org/2000/svg" viewBox="0 0 32 32"><defs><style>.cls-1{fill:#fff;opacity:0;}.cls-2{fill:#8d8d8d;}</style></defs><title>MYLS_Icons</title><rect class="cls-1" width="32" height="32"/><rect class="cls-1" x="4" y="4" width="24" height="24"/><path class="cls-2" d="M27.5,4H4.5a.5.5,0,0,0-.5.5v23a.5.5,0,0,0,.5.5h23a.5.5,0,0,0,.5-.5V4.5A.5.5,0,0,0,27.5,4ZM26,19v7H6V6H26V19Z"/><rect class="cls-2" x="8" y="8" width="16" height="2"/><rect class="cls-2" x="8" y="12" width="16" height="2"/><rect class="cls-2" x="8" y="17" width="7" height="2"/><rect class="cls-2" x="8" y="21" width="7" height="2"/><circle class="cls-2" cx="21" cy="20" r="3"/></svg>