<svg id="Layer_1" data-name="Layer 1" xmlns="http://www.w3.org/2000/svg" viewBox="0 0 32 32"><defs><style>.cls-1{fill:#fff;}.cls-2{fill:#8d8d8d;}</style></defs><title>MYLS_Icons</title><rect class="cls-1" width="32" height="32"/><rect class="cls-1" x="4" y="4" width="24" height="24"/><path class="cls-2" d="M19.52,6.31a7.81,7.81,0,0,1,.84.35,5,5,0,0,0,1.49,3.49,5,5,0,0,0,3.49,1.48,8.93,8.93,0,0,1,.35.85,5.07,5.07,0,0,0,0,7,8.93,8.93,0,0,1-.35.85,5,5,0,0,0-3.49,1.48,5,5,0,0,0-1.49,3.49,7.81,7.81,0,0,1-.84.35,5.07,5.07,0,0,0-7,0,7.81,7.81,0,0,1-.84-.35,5,5,0,0,0-1.49-3.49,5,5,0,0,0-3.49-1.48,8.93,8.93,0,0,1-.35-.85,5.07,5.07,0,0,0,0-7,8.93,8.93,0,0,1,.35-.85,5,5,0,0,0,3.49-1.48,5,5,0,0,0,1.49-3.49,7.81,7.81,0,0,1,.84-.35,5.07,5.07,0,0,0,7,0M16,21a5,5,0,1,0-5-5,5,5,0,0,0,5,5M18.76,4a3.06,3.06,0,0,1-5.33.33.51.51,0,0,0-.56-.24A12.45,12.45,0,0,0,9.79,5.37a.52.52,0,0,0-.22.57,3.08,3.08,0,0,1-.83,2.8,3,3,0,0,1-2.16.89,3.14,3.14,0,0,1-1-.16,12,12,0,0,0-1.48,3.4.51.51,0,0,0,.24.56,3.06,3.06,0,0,1,0,5.14.51.51,0,0,0-.24.56,12,12,0,0,0,1.48,3.4,3.14,3.14,0,0,1,1-.16,3,3,0,0,1,2.16.89,3.08,3.08,0,0,1,.83,2.8.52.52,0,0,0,.22.57,12.45,12.45,0,0,0,3.08,1.28.51.51,0,0,0,.56-.24,3.06,3.06,0,0,1,5.14,0,.51.51,0,0,0,.56.24,12.45,12.45,0,0,0,3.08-1.28.52.52,0,0,0,.22-.57,3.08,3.08,0,0,1,.83-2.8,3,3,0,0,1,2.16-.89,3.14,3.14,0,0,1,1,.16,12,12,0,0,0,1.48-3.4.51.51,0,0,0-.24-.56,3.06,3.06,0,0,1,0-5.14.51.51,0,0,0,.24-.56,12,12,0,0,0-1.48-3.4,3.14,3.14,0,0,1-1,.16,3,3,0,0,1-2.16-.89,3.08,3.08,0,0,1-.83-2.8.52.52,0,0,0-.22-.57A12.2,12.2,0,0,0,18.76,4ZM16,19a3,3,0,1,1,3-3,3,3,0,0,1-3,3Z"/></svg>