<?xml version="1.0" encoding="utf-8"?>
<!-- Generator: Adobe Illustrator 22.1.0, SVG Export Plug-In . SVG Version: 6.00 Build 0)  -->
<svg version="1.1" id="Layer_1" xmlns="http://www.w3.org/2000/svg" xmlns:xlink="http://www.w3.org/1999/xlink" x="0px" y="0px"
	 viewBox="0 0 32 32" style="enable-background:new 0 0 32 32;" xml:space="preserve">
<style type="text/css">
	.st0{fill:#565656;}
	.st1{fill:#FFFFFF;}
	.st2{fill:#8D8D8D;}
	.st3{fill:#9EC18E;}
	.st4{fill:#7AB1CC;}
	.st5{fill:#C67F7F;}
	.st6{fill:#8B8B8B;}
	.st7{opacity:0;fill:#FFFFFF;}
	.st8{opacity:0;fill:#939598;}
	.st9{fill:#71D78E;}
	.st10{opacity:0.53;}
	.st11{fill:#414042;}
	.st12{fill:#F1F2F2;}
	.st13{opacity:0;}
	.st14{fill:#939598;}
	.st15{fill:#88D19B;}
	.st16{fill:#FFF200;}
	.st17{fill:#C9B9D5;}
	.st18{fill:#CECECE;}
	.st19{fill:#231F20;}
</style>
<path class="st0" d="M20.9,12.6l-3.8-3.7c0,0,0,0,0,0l-0.7-0.7C16.3,8.1,16.1,8,16,8c-0.1,0-0.3,0-0.4,0.1l-0.7,0.7c0,0,0,0,0,0
	l-3.8,3.7c-0.2,0.2-0.2,0.5,0,0.7l0.7,0.7c0.2,0.2,0.5,0.2,0.7,0l2.4-2.4v11.9c0,0.3,0.2,0.5,0.5,0.5h1c0.3,0,0.5-0.2,0.5-0.5V11.6
	l2.4,2.4c0.2,0.2,0.5,0.2,0.7,0l0.7-0.7C21.1,13.1,21.1,12.8,20.9,12.6z"/>
<g>
	<path class="st18" d="M31,1v30H1V1H31 M31,0H1C0.4,0,0,0.4,0,1v30c0,0.6,0.4,1,1,1h30c0.6,0,1-0.4,1-1V1C32,0.4,31.6,0,31,0L31,0z"
		/>
</g>
</svg>
