<?xml version="1.0" encoding="utf-8"?>
<!-- Generator: Adobe Illustrator 22.1.0, SVG Export Plug-In . SVG Version: 6.00 Build 0)  -->
<svg version="1.1" id="Layer_1" xmlns="http://www.w3.org/2000/svg" xmlns:xlink="http://www.w3.org/1999/xlink" x="0px" y="0px"
	 viewBox="0 0 32 32" style="enable-background:new 0 0 32 32;" xml:space="preserve">
<style type="text/css">
	.st0{fill:#565656;}
	.st1{fill:#FFFFFF;}
	.st2{fill:#8D8D8D;}
	.st3{fill:#9EC18E;}
	.st4{fill:#7AB1CC;}
	.st5{fill:#C67F7F;}
	.st6{fill:#8B8B8B;}
	.st7{opacity:0;fill:#FFFFFF;}
	.st8{opacity:0;fill:#939598;}
	.st9{fill:#71D78E;}
	.st10{opacity:0.53;}
	.st11{fill:#414042;}
	.st12{fill:#F1F2F2;}
	.st13{opacity:0;}
	.st14{fill:#939598;}
	.st15{fill:#88D19B;}
	.st16{fill:#FFF200;}
	.st17{fill:#C9B9D5;}
	.st18{fill:#CECECE;}
	.st19{fill:#231F20;}
</style>
<rect y="0" class="st7" width="32" height="32"/>
<rect x="4" y="4" class="st7" width="24" height="24"/>
<g>
	<path class="st2" d="M26,26H6V6h8V4H4.5C4.2,4,4,4.2,4,4.5v23C4,27.8,4.2,28,4.5,28h23c0.3,0,0.5-0.2,0.5-0.5V18h-2V26z"/>
	<path class="st2" d="M27.5,4H18v2h6.6L8.1,22.4C8,22.6,8,23,8.1,23.1l0.7,0.7C9,24,9.4,24,9.6,23.9L26,7.4V14h2V4.5
		C28,4.2,27.8,4,27.5,4z"/>
</g>
</svg>
