<svg id="Layer_1" data-name="Layer 1" xmlns="http://www.w3.org/2000/svg" viewBox="0 0 32 32"><defs><style>.cls-1{fill:#fff;}.cls-2{fill:#8d8d8d;}</style></defs><title>MYLS_Icons</title><rect class="cls-1" width="32" height="32"/><rect class="cls-1" x="4" y="4" width="24" height="24"/><path class="cls-2" d="M16,8a5,5,0,1,0,5,5A5,5,0,0,0,16,8Zm0,8a3,3,0,1,1,3-3A3,3,0,0,1,16,16Z"/><path class="cls-2" d="M16,4A12,12,0,1,0,28,16,12,12,0,0,0,16,4ZM9.78,23.82a7,7,0,0,1,12.44,0,10,10,0,0,1-12.44,0Zm13.93-1.46a9,9,0,0,0-15.42,0,10,10,0,1,1,15.42,0Z"/></svg>