<?xml version="1.0" standalone="no"?>
<!DOCTYPE svg PUBLIC "-//W3C//DTD SVG 1.1//EN" "http://www.w3.org/Graphics/SVG/1.1/DTD/svg11.dtd" >
<svg xmlns="http://www.w3.org/2000/svg" xmlns:xlink="http://www.w3.org/1999/xlink" version="1.1">
<metadata>
Created by FontForge 20170731 at Thu May 22 13:38:33 2014
 By Aleksey,,,
Copyright (c) 2014 by Eduardo Manso. All rights reserved.
</metadata>
<defs>
<font id="Shentox" horiz-adv-x="526" >
  <font-face 
    font-family="Shentox"
    font-weight="400"
    font-stretch="normal"
    units-per-em="1000"
    panose-1="0 0 0 0 0 0 0 0 0 0"
    ascent="782"
    descent="-218"
    x-height="501"
    cap-height="697"
    bbox="-160 -201 1378 936"
    underline-thickness="61"
    underline-position="-380"
    unicode-range="U+000D-FF19"
  />
<missing-glyph horiz-adv-x="837" 
d="M82 183v331q0 91 48 139t139 48h298q91 0 139 -48t48 -139v-331q0 -91 -48 -139t-139 -48h-298q-91 0 -139 48t-48 139zM567 659h-298q-68 0 -104.5 -36t-36.5 -104v-341q0 -68 36.5 -104t104.5 -36h298q69 0 105 36t36 104v341q0 68 -36 104t-105 36zM306 492l115 -102
l111 104q20 18 20 41v37h64v-44q0 -38 -39 -72l-115 -103l128 -112q30 -30 30 -67v-51h-65v43q0 24 -20 42l-120 107l-114 -109q-20 -18 -20 -41v-42h-64v44q0 42 39 77l118 106l-122 110q-31 28 -31 66v46h65v-38q0 -25 20 -42z" />
    <glyph glyph-name="fi" unicode="fi" horiz-adv-x="552" 
d="M326 498v-59h-152v-439h-67v439h-83v59h83v65q0 134 134 134h86v-59h-87q-66 0 -66 -68v-72h152zM480 0h-67v501h67v-501zM482 595h-71v102h71v-102z" />
    <glyph glyph-name="fl" unicode="fl" horiz-adv-x="554" 
d="M326 498v-59h-152v-439h-67v439h-83v59h83v65q0 134 134 134h86v-59h-87q-66 0 -66 -68v-72h152zM415 0v697h67v-697h-67z" />
    <glyph glyph-name=".notdef" horiz-adv-x="837" 
d="M82 183v331q0 91 48 139t139 48h298q91 0 139 -48t48 -139v-331q0 -91 -48 -139t-139 -48h-298q-91 0 -139 48t-48 139zM567 659h-298q-68 0 -104.5 -36t-36.5 -104v-341q0 -68 36.5 -104t104.5 -36h298q69 0 105 36t36 104v341q0 68 -36 104t-105 36zM306 492l115 -102
l111 104q20 18 20 41v37h64v-44q0 -38 -39 -72l-115 -103l128 -112q30 -30 30 -67v-51h-65v43q0 24 -20 42l-120 107l-114 -109q-20 -18 -20 -41v-42h-64v44q0 42 39 77l118 106l-122 110q-31 28 -31 66v46h65v-38q0 -25 20 -42z" />
    <glyph glyph-name=".null" horiz-adv-x="0" 
 />
    <glyph glyph-name="nonmarkingreturn" horiz-adv-x="333" 
 />
    <glyph glyph-name="NULL" horiz-adv-x="500" 
 />
    <glyph glyph-name="NULL" horiz-adv-x="500" 
 />
    <glyph glyph-name="CR" unicode="&#xd;" horiz-adv-x="500" 
 />
    <glyph glyph-name="space" unicode=" " horiz-adv-x="239" 
 />
    <glyph glyph-name="exclam" unicode="!" horiz-adv-x="257" 
d="M166 0h-73v97h73v-97zM166 364l-10 -201h-53l-11 201v333h74v-333z" />
    <glyph glyph-name="quotedbl" unicode="&#x22;" horiz-adv-x="319" 
d="M129 607l-11 -186h-41l-11 186v90h63v-90zM253 607l-10 -186h-42l-10 186v90h62v-90z" />
    <glyph glyph-name="numbersign" unicode="#" horiz-adv-x="613" 
d="M173 427h-96v52h107l47 218h57l-46 -218h184l46 218h58l-46 -218h92v-52h-103l-34 -158h97v-53h-108l-45 -216h-58l45 216h-184l-45 -216h-58l46 216h-92v53h103zM415 427h-184l-34 -158h184z" />
    <glyph glyph-name="dollar" unicode="$" horiz-adv-x="555" 
d="M347 -4h-38v-106h-62v106h-43q-69 0 -106 32.5t-37 93.5v72h69v-76q0 -62 77 -62h139q76 0 76 62v129q0 45 -42 56l-226 60q-87 23 -87 117v95q0 61 37 93.5t107 32.5h36v106h62v-106h34q69 0 106 -32.5t37 -93.5v-78h-70v82q0 62 -76 62h-127q-77 0 -77 -62v-93
q0 -27 9.5 -40.5t33.5 -20.5l222 -59q91 -24 91 -110v-134q0 -61 -37 -93.5t-108 -32.5z" />
    <glyph glyph-name="percent" unicode="%" horiz-adv-x="752" 
d="M452 80v210q0 39 22 60.5t61 21.5h83q83 0 83 -82v-210q0 -82 -83 -82h-83q-39 0 -61 21.5t-22 60.5zM510 289v-209q0 -34 33 -34h67q34 0 34 34v209q0 34 -34 34h-67q-33 0 -33 -34zM50 408v210q0 39 22 60.5t61 21.5h83q83 0 83 -82v-210q0 -82 -83 -82h-83
q-39 0 -61 21.5t-22 60.5zM108 617v-209q0 -34 33 -34h67q34 0 34 34v209q0 34 -34 34h-67q-33 0 -33 -34zM618 701l-426 -705h-57l426 705h57z" />
    <glyph glyph-name="ampersand" unicode="&#x26;" horiz-adv-x="659" 
d="M456 68l-3 3l-1 -2q-43 -73 -128 -73h-125q-70 0 -106.5 33.5t-36.5 97.5v108q0 53 24.5 82.5t73.5 49.5l33 13l-6 8q-50 56 -50 121v61q0 64 36.5 97.5t104.5 33.5h79q68 0 104 -33.5t36 -97.5v-67h-66v66q0 74 -75 74h-77q-75 0 -75 -74v-58q0 -41 33 -81l217 -253
l57 93q21 34 21 75v38h65v-46q0 -44 -23 -79l-79 -129l7 -8q29 -33 48.5 -46t43.5 -13h37v-62h-45q-64 0 -124 68zM197 54h129q46 0 79 54l7 11l-186 216l-42 -16q-34 -13 -48 -29.5t-14 -50.5v-111q0 -74 75 -74z" />
    <glyph glyph-name="quotesingle" unicode="'" horiz-adv-x="196" 
d="M131 607l-11 -186h-43l-11 186v90h65v-90z" />
    <glyph glyph-name="parenleft" unicode="(" horiz-adv-x="295" 
d="M217 -128h44v-62h-47q-66 0 -101 37t-35 106v674q0 69 35 106t101 37h46v-62h-43q-69 0 -69 -74v-688q0 -74 69 -74z" />
    <glyph glyph-name="parenright" unicode=")" horiz-adv-x="295" 
d="M81 -190h-46v62h44q68 0 68 74v688q0 74 -68 74h-44v62h46q66 0 101 -36.5t35 -106.5v-674q0 -70 -35 -106.5t-101 -36.5z" />
    <glyph glyph-name="asterisk" unicode="*" horiz-adv-x="460" 
d="M331 535l-23 -11l-43 -20l42 -19q16 -5 59 -29l44 -25l-24 -41l-44 24l-55 34l-40 26l4 -47q0 -11 1 -26q2 -30 2 -39v-50h-49v50q0 24 1 39q0 6 0.5 12.5t1 9.5t0.5 4l3 47l-39 -26l-54 -34l-44 -24l-24 41l44 25q52 25 58 29l42 19l-42 20q-16 5 -59 29l-43 24l23 41
l44 -24l55 -34l39 -27l-3 49q0 1 -0.5 4t-1 9.5t-0.5 12.5q-1 15 -1 39v50h49v-50q0 -9 -2 -39q-1 -15 -1 -26l-4 -49l40 27q13 8 27.5 17t20.5 13t7 4l44 24l24 -41l-44 -24q-19 -10 -35 -18z" />
    <glyph glyph-name="plus" unicode="+" horiz-adv-x="491" 
d="M429 375v-53h-157v-157h-54v157h-156v53h156v157h54v-157h157z" />
    <glyph glyph-name="comma" unicode="," horiz-adv-x="214" 
d="M77 97h74v-24l-62 -166h-45z" />
    <glyph glyph-name="hyphen" unicode="-" horiz-adv-x="396" 
d="M68 257v59h260v-59h-260z" />
    <glyph glyph-name="period" unicode="." horiz-adv-x="210" 
d="M142 0h-74v97h74v-97z" />
    <glyph glyph-name="slash" unicode="/" horiz-adv-x="446" 
d="M423 770l-336 -843h-64l334 843h66z" />
    <glyph glyph-name="zero" unicode="0" horiz-adv-x="575" 
d="M74 139v419q0 69 37 106t106 37h141q69 0 106 -37t37 -106v-419q0 -69 -37 -106t-106 -37h-141q-69 0 -106 37t-37 106zM219 58h137q75 0 75 77v427q0 77 -75 77h-137q-75 0 -75 -77v-427q0 -77 75 -77z" />
    <glyph glyph-name="one" unicode="1" horiz-adv-x="468" 
d="M446 61v-61h-401v61h167v575h-167v61h237v-636h164z" />
    <glyph glyph-name="two" unicode="2" horiz-adv-x="546" 
d="M491 62v-62h-427v172q0 53 20.5 85.5t71.5 52.5l212 82q23 10 34 25t11 44v104q0 74 -75 74h-127q-75 0 -75 -74v-89h-68v82q0 69 36.5 106t105.5 37h130q69 0 106 -37t37 -106v-95q0 -95 -85 -126l-216 -84q-30 -12 -39 -27t-9 -50v-114h357z" />
    <glyph glyph-name="three" unicode="3" horiz-adv-x="555" 
d="M343 -4h-143q-68 0 -105 33.5t-37 96.5v65h69v-68q0 -66 75 -66h139q75 0 75 72v137q0 65 -69 65h-140v60h126q69 0 69 66v112q0 71 -75 71h-124q-74 0 -74 -65v-69h-69v66q0 62 36 95.5t105 33.5h128q69 0 106 -34.5t37 -100.5v-96q0 -78 -59 -104q73 -19 73 -108v-126
q0 -66 -37 -101t-106 -35z" />
    <glyph glyph-name="four" unicode="4" horiz-adv-x="556" 
d="M513 249v-58h-75v-191h-71v191h-340v58l347 450h64v-450h75zM97 249h270v350z" />
    <glyph glyph-name="five" unicode="5" horiz-adv-x="545" 
d="M346 -4h-143q-68 0 -104.5 33.5t-36.5 96.5v63h68v-67q0 -66 75 -66h138q75 0 75 72v150q0 71 -75 71h-268v348h393v-62h-324v-226h202q69 0 105.5 -34.5t36.5 -100.5v-142q0 -66 -36.5 -101t-105.5 -35z" />
    <glyph glyph-name="six" unicode="6" horiz-adv-x="565" 
d="M502 265v-126q0 -70 -36.5 -106.5t-106.5 -36.5h-141q-69 0 -106 36.5t-37 106.5v419q0 70 37 106.5t106 36.5h137q68 0 104.5 -34.5t36.5 -98.5v-57h-68v60q0 68 -75 68h-133q-75 0 -75 -74v-167h220q67 0 102 -34t35 -99zM220 58h137q75 0 75 74v136q0 68 -69 68h-218
v-204q0 -74 75 -74z" />
    <glyph glyph-name="seven" unicode="7" horiz-adv-x="493" 
d="M471 643l-279 -643h-71l277 635h-374v62h447v-54z" />
    <glyph glyph-name="eight" unicode="8" horiz-adv-x="572" 
d="M358 -4h-144q-69 0 -106 36t-37 103v111q0 93 74 119q-64 28 -64 117v80q0 67 36.5 103t105.5 36h126q69 0 106 -36t37 -103v-80q0 -88 -65 -117q74 -26 74 -119v-111q0 -67 -37 -103t-106 -36zM348 641h-123q-75 0 -75 -75v-100q0 -74 75 -74h123q75 0 75 74v100
q0 75 -75 75zM357 333h-141q-75 0 -75 -75v-127q0 -75 75 -75h141q75 0 75 75v127q0 36 -19.5 55.5t-55.5 19.5z" />
    <glyph glyph-name="nine" unicode="9" horiz-adv-x="564" 
d="M346 -4h-137q-68 0 -104.5 34.5t-36.5 98.5v57h68v-60q0 -68 75 -68h133q75 0 75 74v180h-220q-67 0 -102 34.5t-35 99.5v112q0 70 37 106.5t106 36.5h141q143 0 143 -143v-419q0 -70 -37 -106.5t-106 -36.5zM201 374h218v191q0 74 -75 74h-137q-75 0 -75 -74v-122
q0 -69 69 -69z" />
    <glyph glyph-name="colon" unicode=":" horiz-adv-x="213" 
d="M143 0h-73v97h73v-97zM143 404h-73v97h73v-97z" />
    <glyph glyph-name="semicolon" unicode=";" horiz-adv-x="243" 
d="M166 404h-74v97h74v-97zM91 97h75v-24l-62 -166h-45z" />
    <glyph glyph-name="less" unicode="&#x3c;" horiz-adv-x="491" 
d="M415 211v-61l-367 175v51l367 175v-62l-299 -139z" />
    <glyph glyph-name="equal" unicode="=" horiz-adv-x="491" 
d="M62 237v53h367v-53h-367zM62 414v52h367v-52h-367z" />
    <glyph glyph-name="greater" unicode="&#x3e;" horiz-adv-x="491" 
d="M443 376v-51l-367 -175v61l299 139l-299 139v62z" />
    <glyph glyph-name="question" unicode="?" horiz-adv-x="528" 
d="M269 347l119 80q2 2 8.5 7t10.5 9t7.5 13t3.5 21v88q0 74 -75 74h-165q-75 0 -75 -74v-73h-68v70q0 67 37 103t106 36h166q70 0 106.5 -34.5t36.5 -101.5v-83q0 -28 -12 -50q-10 -20 -20.5 -30.5t-31.5 -24.5l-106 -72q-20 -13 -27 -23t-7 -30v-89h-64v93q0 33 11.5 52.5
t38.5 38.5zM288 0h-73v97h73v-97z" />
    <glyph glyph-name="at" unicode="@" horiz-adv-x="840" 
d="M610 -90h-365q-84 0 -129.5 46t-45.5 129v441q0 84 45.5 129.5t129.5 45.5h359q83 0 128.5 -45.5t45.5 -129.5v-303q0 -63 -31 -96.5t-90 -33.5h-38q-86 0 -107 60l-65 -39q-35 -21 -72 -21h-42q-55 0 -83.5 32t-16.5 85l41 192q12 55 38.5 79t81.5 24h54q38 0 66 -21
l47 -34l14 51h52l-63 -297q-6 -27 10.5 -44t47.5 -17h30q64 0 64 70v320q0 114 -115 114h-354q-114 0 -114 -114v-454q0 -115 114 -115h363v-54zM346 142h37q25 0 55 18l69 42l3 14l40 188l-51 36q-22 16 -52 16h-53q-51 0 -63 -57l-42 -192q-14 -65 57 -65z" />
    <glyph glyph-name="A" unicode="A" horiz-adv-x="574" 
d="M116 152v-152h-67v160q0 33 11 60l191 479h73l190 -479q11 -24 11 -60v-160h-68v152q0 3 -2 25h-338q-1 -5 -1 -25zM436 237l-149 393l-150 -393h299z" />
    <glyph glyph-name="B" unicode="B" horiz-adv-x="613" 
d="M404 0h-317v697h302q70 0 106.5 -35t36.5 -102v-92q0 -77 -62 -104q77 -20 77 -106v-121q0 -137 -143 -137zM388 636h-231v-244h237q69 0 69 62v113q0 69 -75 69zM408 332h-251v-271h245q75 0 75 71v137q0 63 -69 63z" />
    <glyph glyph-name="C" unicode="C" horiz-adv-x="579" 
d="M455 132v96h70v-89q0 -70 -37 -106.5t-106 -36.5h-163q-70 0 -106.5 36.5t-36.5 106.5v419q0 70 36.5 106.5t106.5 36.5h163q69 0 106 -36.5t37 -106.5v-63h-70v70q0 74 -74 74h-160q-75 0 -75 -74v-433q0 -74 75 -74h160q74 0 74 74z" />
    <glyph glyph-name="D" unicode="D" horiz-adv-x="622" 
d="M392 0h-305v697h305q76 0 115.5 -40t39.5 -116v-385q0 -76 -39.5 -116t-115.5 -40zM157 635v-573h236q84 0 84 84v405q0 84 -84 84h-236z" />
    <glyph glyph-name="E" unicode="E" horiz-adv-x="559" 
d="M516 0h-429v697h421v-61h-351v-245h327v-59h-327v-271h359v-61z" />
    <glyph glyph-name="F" unicode="F" horiz-adv-x="546" 
d="M494 368v-61h-337v-307h-70v697h431v-61h-361v-268h337z" />
    <glyph glyph-name="G" unicode="G" horiz-adv-x="591" 
d="M525 339v-200q0 -70 -37 -106.5t-106 -36.5h-163q-70 0 -106.5 36.5t-36.5 106.5v419q0 70 36.5 106.5t106.5 36.5h163q69 0 106 -36.5t37 -106.5v-63h-70v70q0 74 -74 74h-160q-75 0 -75 -74v-433q0 -74 75 -74h160q74 0 74 74v149h-128v58h198z" />
    <glyph glyph-name="H" unicode="H" horiz-adv-x="634" 
d="M547 0h-70v331h-320v-331h-70v697h70v-305h320v305h70v-697z" />
    <glyph glyph-name="I" unicode="I" horiz-adv-x="243" 
d="M157 0h-70v697h70v-697z" />
    <glyph glyph-name="J" unicode="J" horiz-adv-x="528" 
d="M375 133v564h70v-558q0 -70 -36.5 -106.5t-105.5 -36.5h-127q-69 0 -106 36.5t-37 106.5v82h70v-88q0 -75 75 -75h122q75 0 75 75z" />
    <glyph glyph-name="K" unicode="K" horiz-adv-x="605" 
d="M465 170l-140 162h-168v-332h-70v697h70v-306h173l133 128q15 15 15 48v130h67v-145q0 -33 -23 -61l-135 -130l143 -165q17 -20 17 -51v-145h-70v129q0 27 -12 41z" />
    <glyph glyph-name="L" unicode="L" horiz-adv-x="499" 
d="M487 0h-400v697h70v-636h330v-61z" />
    <glyph glyph-name="M" unicode="M" horiz-adv-x="725" 
d="M387 237h-46l-190 338v-575h-64v697h67l211 -380l206 380h67v-697h-64v576z" />
    <glyph glyph-name="N" unicode="N" horiz-adv-x="634" 
d="M547 0h-64l-332 570v-570h-64v697h66l329 -570v570h65v-697z" />
    <glyph glyph-name="O" unicode="O" horiz-adv-x="612" 
d="M394 -4h-175q-70 0 -106.5 36.5t-36.5 106.5v419q0 70 36.5 106.5t106.5 36.5h175q69 0 105.5 -36.5t36.5 -106.5v-419q0 -70 -36.5 -106.5t-105.5 -36.5zM146 565v-430q0 -77 75 -77h170q75 0 75 74v433q0 74 -75 74h-170q-75 0 -75 -74z" />
    <glyph glyph-name="P" unicode="P" horiz-adv-x="569" 
d="M379 259h-222v-259h-70v697h292q69 0 105.5 -36.5t36.5 -106.5v-152q0 -69 -36.5 -106t-105.5 -37zM377 635h-220v-313h220q74 0 74 75v164q0 74 -74 74z" />
    <glyph glyph-name="Q" unicode="Q" horiz-adv-x="612" 
d="M394 -4h-27l78 -151h-74l-79 151h-73q-70 0 -106.5 36.5t-36.5 106.5v419q0 70 36.5 106.5t106.5 36.5h175q69 0 105.5 -36.5t36.5 -106.5v-419q0 -70 -36.5 -106.5t-105.5 -36.5zM146 565v-430q0 -77 75 -77h170q75 0 75 74v433q0 74 -75 74h-170q-75 0 -75 -74z" />
    <glyph glyph-name="R" unicode="R" horiz-adv-x="582" 
d="M522 0h-75l-101 285h-189v-285h-70v697h292q69 0 105.5 -36.5t36.5 -106.5v-126q0 -120 -104 -140zM377 636h-220v-290h220q74 0 74 75v140q0 75 -74 75z" />
    <glyph glyph-name="S" unicode="S" horiz-adv-x="578" 
d="M65 481v94q0 61 37 93.5t107 32.5h158q69 0 106 -32.5t37 -93.5v-78h-69v82q0 62 -77 62h-153q-77 0 -77 -62v-93q0 -28 9.5 -41.5t33.5 -19.5l249 -66q90 -24 90 -110v-127q0 -61 -37 -93.5t-107 -32.5h-170q-69 0 -106 32.5t-37 93.5v72h69v-76q0 -62 77 -62h165
q76 0 76 62v122q0 44 -42 56l-252 68q-87 22 -87 117z" />
    <glyph glyph-name="T" unicode="T" horiz-adv-x="499" 
d="M475 697v-61h-190v-636h-71v636h-190v61h451z" />
    <glyph glyph-name="U" unicode="U" horiz-adv-x="626" 
d="M473 133v564h70v-558q0 -70 -36.5 -106.5t-105.5 -36.5h-175q-70 0 -106.5 36.5t-36.5 106.5v558h70v-564q0 -75 75 -75h170q75 0 75 75z" />
    <glyph glyph-name="V" unicode="V" horiz-adv-x="571" 
d="M322 0h-73l-189 477q-11 24 -11 60v160h71v-152q0 -34 7 -51l160 -418l158 418q8 22 8 51v152h69v-160q0 -33 -12 -60z" />
    <glyph glyph-name="W" unicode="W" horiz-adv-x="785" 
d="M665 545v152h68v-160q0 -32 -10 -61l-141 -476h-69l-121 404l-119 -404h-69l-142 476q-10 29 -10 61v160h68v-152q0 -24 8 -51l112 -402l112 402q9 28 9 51v152h64v-152q0 -24 8 -51l112 -402l113 402q7 21 7 51z" />
    <glyph glyph-name="X" unicode="X" horiz-adv-x="571" 
d="M120 115v-115h-67v130q0 40 25 65l161 163l-160 160q-23 28 -23 61v118h70v-102q0 -31 21 -54l142 -143l139 142q19 19 19 54v103h68v-118q0 -41 -26 -65l-156 -159l163 -164q23 -28 23 -61v-130h-70v115q0 32 -21 53l-146 146l-143 -145q-19 -20 -19 -54z" />
    <glyph glyph-name="Y" unicode="Y" horiz-adv-x="548" 
d="M310 248v-248h-71v247l-180 263q-16 22 -16 65v122h70v-115q0 -33 14 -55l150 -218l147 214q15 23 15 55v119h68v-122q0 -37 -17 -65z" />
    <glyph glyph-name="Z" unicode="Z" horiz-adv-x="524" 
d="M492 61v-61h-462v60l373 576h-357v61h436v-61l-373 -575h383z" />
    <glyph glyph-name="bracketleft" unicode="[" horiz-adv-x="279" 
d="M164 -129h68v-61h-138v960h136v-61h-66v-838z" />
    <glyph glyph-name="backslash" unicode="\" horiz-adv-x="446" 
d="M88 770l335 -843h-65l-335 843h65z" />
    <glyph glyph-name="bracketright" unicode="]" horiz-adv-x="279" 
d="M185 -190h-138v61h68v838h-66v61h136v-960z" />
    <glyph glyph-name="asciicircum" unicode="^" horiz-adv-x="485" 
d="M447 317h-62l-142 312l-143 -312h-62l179 382h51z" />
    <glyph glyph-name="underscore" unicode="_" horiz-adv-x="477" 
d="M54 -157v55h369v-55h-369z" />
    <glyph glyph-name="grave" unicode="`" horiz-adv-x="249" 
d="M136 565l-68 117v15h66l48 -132h-46z" />
    <glyph glyph-name="a" unicode="a" horiz-adv-x="500" 
d="M367 54l-51 -33q-37 -25 -79 -25h-65q-57 0 -87.5 27.5t-30.5 78.5v70q0 95 119 109l191 21v83q0 64 -67 64h-102q-67 0 -67 -64v-33h-66v26q0 62 34.5 94.5t97.5 32.5h110q61 0 93.5 -32t32.5 -91v-382h-59zM178 52h65q29 0 56 18l65 42v135l-183 -22
q-33 -4 -47.5 -16.5t-14.5 -39.5v-64q0 -28 13.5 -40.5t45.5 -12.5z" />
    <glyph glyph-name="b" unicode="b" horiz-adv-x="525" 
d="M339 -4h-75q-44 0 -75 22l-53 36l-4 -54h-61v697h67v-247l51 33q35 22 75 22h75q59 0 90.5 -32t31.5 -91v-263q0 -59 -31.5 -91t-90.5 -32zM264 55h65q65 0 65 64v263q0 64 -65 64h-65q-31 0 -58 -18l-68 -44v-267l68 -44q27 -18 58 -18z" />
    <glyph glyph-name="c" unicode="c" horiz-adv-x="490" 
d="M306 -4h-111q-64 0 -98.5 34t-34.5 100v241q0 65 34.5 99.5t98.5 34.5h111q63 0 97.5 -34.5t34.5 -99.5v-33h-66v40q0 68 -67 68h-108q-68 0 -68 -68v-255q0 -68 68 -68h108q67 0 67 68v55h66v-48q0 -66 -34 -100t-98 -34z" />
    <glyph glyph-name="d" unicode="d" horiz-adv-x="525" 
d="M389 54l-52 -36q-32 -22 -76 -22h-74q-59 0 -91 32t-32 91v263q0 59 32 91t91 32h74q44 0 76 -22l50 -33v247h67v-697h-60zM196 55h66q30 0 58 18l67 44v267l-67 44q-28 18 -58 18h-66q-65 0 -65 -64v-263q0 -64 65 -64z" />
    <glyph glyph-name="e" unicode="e" horiz-adv-x="502" 
d="M444 156v-29q0 -64 -34.5 -97.5t-98.5 -33.5h-116q-64 0 -98.5 34t-34.5 100v241q0 65 34.5 99.5t98.5 34.5h116q64 0 98.5 -34.5t34.5 -99.5v-135h-315v-117q0 -68 67 -68h115q67 0 67 68v37h66zM129 382v-91h250v91q0 68 -68 68h-115q-67 0 -67 -68z" />
    <glyph glyph-name="f" unicode="f" horiz-adv-x="342" 
d="M326 498v-59h-152v-439h-67v439h-83v59h83v65q0 134 134 134h86v-59h-87q-66 0 -66 -68v-72h152z" />
    <glyph glyph-name="g" unicode="g" horiz-adv-x="525" 
d="M320 -194h-115q-63 0 -97.5 32.5t-34.5 93.5v18h66v-25q0 -64 67 -64h114q68 0 68 64v151l-51 -34q-32 -22 -76 -22h-74q-59 0 -91 32t-32 91v239q0 59 32 91t91 32h74q45 0 76 -22l53 -36l5 54h59v-565q0 -130 -134 -130zM195 79h67q30 0 58 18l68 44v243l-68 44
q-28 18 -58 18h-67q-65 0 -65 -64v-239q0 -64 65 -64z" />
    <glyph glyph-name="h" unicode="h" horiz-adv-x="531" 
d="M206 428l-68 -44v-384h-67v697h67v-247l51 33q35 22 75 22h75q59 0 90.5 -31.5t31.5 -91.5v-382h-67v382q0 64 -64 64h-66q-31 0 -58 -18z" />
    <glyph glyph-name="i" unicode="i" horiz-adv-x="210" 
d="M138 0h-67v501h67v-501zM140 595h-71v102h71v-102z" />
    <glyph glyph-name="j" unicode="j" horiz-adv-x="210" 
d="M5 -190h-57v59h57q66 0 66 68v564h67v-557q0 -65 -34.5 -99.5t-98.5 -34.5zM140 595h-71v102h71v-102z" />
    <glyph glyph-name="k" unicode="k" horiz-adv-x="510" 
d="M378 117l-133 122h-107v-239h-67v697h67v-400h105l133 106q20 15 20 41v57h61v-68q0 -37 -39 -69l-117 -94l131 -120q31 -28 31 -67v-83h-65v75q0 25 -20 42z" />
    <glyph glyph-name="l" unicode="l" horiz-adv-x="212" 
d="M73 0v697h67v-697h-67z" />
    <glyph glyph-name="m" unicode="m" horiz-adv-x="837" 
d="M206 428l-68 -44v-384h-67v501h61l4 -54l53 36q31 22 75 22h66q84 0 112 -63l61 41q32 22 76 22h66q59 0 90.5 -31.5t31.5 -91.5v-382h-67v382q0 64 -64 64h-58q-30 0 -58 -18l-67 -44v-384h-67v382q0 64 -64 64h-58q-31 0 -58 -18z" />
    <glyph glyph-name="n" unicode="n" horiz-adv-x="531" 
d="M330 446h-66q-29 0 -58 -18l-68 -44v-384h-67v501h61l3 -54l54 36q32 22 75 22h75q59 0 90.5 -31.5t31.5 -91.5v-382h-67v382q0 64 -64 64z" />
    <glyph glyph-name="o" unicode="o" horiz-adv-x="514" 
d="M318 -4h-123q-64 0 -98.5 34t-34.5 100v241q0 65 34.5 99.5t98.5 34.5h123q65 0 99 -34.5t34 -99.5v-241q0 -134 -133 -134zM197 54h120q32 0 49.5 18t17.5 49v259q0 67 -67 67h-120q-68 0 -68 -67v-259q0 -67 68 -67z" />
    <glyph glyph-name="p" unicode="p" horiz-adv-x="525" 
d="M189 18l-51 33v-241h-67v691h61l4 -54l53 36q31 22 75 22h75q59 0 90.5 -32t31.5 -91v-263q0 -59 -31.5 -91t-90.5 -32h-75q-40 0 -75 22zM264 55h65q65 0 65 64v263q0 64 -65 64h-65q-31 0 -58 -18l-68 -44v-267l68 -44q27 -18 58 -18z" />
    <glyph glyph-name="q" unicode="q" horiz-adv-x="525" 
d="M453 501v-691h-67v241l-49 -33q-35 -22 -76 -22h-74q-59 0 -91 32t-32 91v263q0 59 32 91t91 32h74q41 0 76 -22l52 -35l4 53h60zM196 55h66q30 0 58 18l66 44v267l-66 44q-28 18 -58 18h-66q-65 0 -65 -64v-263q0 -64 65 -64z" />
    <glyph glyph-name="r" unicode="r" horiz-adv-x="353" 
d="M138 364v-364h-67v501h61l5 -67l64 49q28 22 76 22h67v-59h-65q-34 0 -58 -18z" />
    <glyph glyph-name="s" unicode="s" horiz-adv-x="490" 
d="M53 114v43h66v-50q0 -57 67 -57h116q68 0 68 55v57q0 33 -34 42l-201 49q-76 18 -76 90v48q0 55 34 84.5t99 29.5h106q64 0 98 -30.5t34 -87.5v-32h-66v39q0 56 -67 56h-105q-67 0 -67 -54v-49q0 -17 7.5 -25t26.5 -14l200 -49q76 -18 76 -88v-61q0 -114 -134 -114h-116
q-64 0 -98 30.5t-34 87.5z" />
    <glyph glyph-name="t" unicode="t" horiz-adv-x="347" 
d="M240 59h86v-59h-89q-63 0 -96.5 34t-33.5 97v308h-84v59h84v142h67v-142h151v-59h-151v-314q0 -66 66 -66z" />
    <glyph glyph-name="u" unicode="u" 
d="M390 54l-53 -36q-32 -22 -76 -22h-69q-59 0 -91 31.5t-32 91.5v382h67v-382q0 -64 65 -64h61q31 0 58 18l67 44v384h67v-501h-60z" />
    <glyph glyph-name="v" unicode="v" horiz-adv-x="485" 
d="M276 0h-68l-149 324q-13 25 -13 56v121h67v-114q0 -25 9 -47l121 -274l121 274q10 19 10 47v114h65v-121q0 -31 -13 -56z" />
    <glyph glyph-name="w" unicode="w" horiz-adv-x="713" 
d="M251 0h-68l-123 324q-13 33 -13 56v121h65v-114q0 -18 10 -47l97 -267l97 267q9 27 9 47v114h64v-114q0 -18 10 -47l97 -267l97 267q9 27 9 47v114h64v-121q0 -23 -13 -56l-123 -324h-68l-105 276z" />
    <glyph glyph-name="x" unicode="x" horiz-adv-x="498" 
d="M110 68v-68h-63v71q0 38 39 76l118 108l-122 108q-31 28 -31 67v71h63v-63q0 -24 20 -42l117 -104l111 105q20 20 20 41v63h64v-69q0 -38 -39 -72l-115 -104l127 -113q31 -28 31 -66v-77h-64v69q0 25 -20 42l-121 108l-115 -109q-20 -20 -20 -42z" />
    <glyph glyph-name="y" unicode="y" horiz-adv-x="485" 
d="M139 -190h-64v58h53q38 0 54 39l34 82l-158 335q-13 25 -13 56v121h67v-114q0 -29 9 -47l128 -273l115 273q9 22 9 47v114h65v-121q0 -24 -12 -56l-181 -425q-20 -48 -44.5 -68.5t-61.5 -20.5z" />
    <glyph glyph-name="z" unicode="z" horiz-adv-x="455" 
d="M411 449l-292 -392h298v-57h-379v51l292 393h-284v57h365v-52z" />
    <glyph glyph-name="braceleft" unicode="{" horiz-adv-x="327" 
d="M181 193v-247q0 -74 69 -74h42v-62h-49q-64 0 -98 36.5t-34 106.5v250q0 54 -50 54h-24v60h24q50 0 50 57v253q0 70 34 106.5t98 36.5h49v-62h-42q-69 0 -69 -74v-248q0 -78 -60 -96q60 -20 60 -97z" />
    <glyph glyph-name="bar" unicode="|" horiz-adv-x="250" 
d="M156 -190h-62v960h62v-960z" />
    <glyph glyph-name="braceright" unicode="}" horiz-adv-x="327" 
d="M146 -54v247q0 77 60 97q-60 18 -60 96v248q0 74 -69 74h-42v62h49q64 0 98 -36.5t34 -106.5v-253q0 -57 50 -57h24v-60h-24q-50 0 -50 -54v-250q0 -70 -34 -106.5t-98 -36.5h-49v62h42q69 0 69 74z" />
    <glyph glyph-name="asciitilde" unicode="~" horiz-adv-x="491" 
d="M350 355h55q13 0 26 13l50 52l41 -37l-55 -61q-22 -25 -54 -25h-62q-11 0 -56 17l-85 35q-42 17 -58 17h-43q-25 0 -48 -23l-49 -52l-40 37l53 60q18 20 34 28t42 8h50q31 0 73 -19l85 -36q33 -14 41 -14z" />
    <glyph glyph-name="uni00A0" unicode="&#xa0;" horiz-adv-x="239" 
 />
    <glyph glyph-name="exclamdown" unicode="&#xa1;" horiz-adv-x="246" 
d="M160 404h-73v97h73v-97zM86 137l11 201h53l10 -201v-333h-74v333z" />
    <glyph glyph-name="cent" unicode="&#xa2;" horiz-adv-x="490" 
d="M305 94h-25v-98h-62v98h-23q-64 0 -98.5 34t-34.5 99v243q0 65 34.5 99t98.5 34h23v98h62v-98h25q63 0 97 -34t34 -99v-34h-65v41q0 67 -68 67h-106q-68 0 -68 -67v-257q0 -67 68 -67h106q68 0 68 67v55h65v-48q0 -65 -34 -99t-97 -34z" />
    <glyph glyph-name="sterling" unicode="&#xa3;" horiz-adv-x="589" 
d="M541 61v-61h-491v61h76v254h-76v52h76v199q0 66 36.5 100.5t106.5 34.5h118q69 0 106 -34.5t37 -100.5v-68h-70v67q0 74 -75 74h-114q-75 0 -75 -74v-198h167v-52h-167v-254h345z" />
    <glyph glyph-name="currency" unicode="&#xa4;" horiz-adv-x="624" 
d="M570 126l-39 -39l-107 107q-26 -14 -66 -14h-93q-42 0 -67 13l-105 -106l-40 39l103 103q-20 29 -20 80v76q0 48 19 79l-102 102l40 39l105 -105q27 13 67 13h93q36 0 66 -14l107 106l39 -39l-103 -104q20 -32 20 -77v-76q0 -46 -20 -78zM261 230h100q32 0 49.5 18
t17.5 49v100q0 66 -67 66h-100q-66 0 -66 -66v-100q0 -67 66 -67z" />
    <glyph glyph-name="yen" unicode="&#xa5;" horiz-adv-x="569" 
d="M318 142v-142h-67v142h-187v45h187v60l-10 15h-177v44h149l-133 205q-16 25 -16 65v121h66v-115q0 -33 14 -55l143 -220l140 216q15 23 15 56v118h64v-121q0 -42 -17 -65l-134 -205h151v-44h-180l-8 -13v-62h188v-45h-188z" />
    <glyph glyph-name="brokenbar" unicode="&#xa6;" horiz-adv-x="202" 
d="M128 770v-383h-54v383h54zM74 -190v384h54v-384h-54z" />
    <glyph glyph-name="section" unicode="&#xa7;" horiz-adv-x="577" 
d="M175 258l203 -76v-68l-232 87q-80 29 -80 114v256q0 63 37.5 96.5t107.5 33.5h157q69 0 106 -33.5t37 -96.5v-71h-69v79q0 62 -77 62h-153q-77 0 -77 -62v-261q0 -44 40 -60zM402 255l-202 77v68l232 -88q39 -14 59 -40t20 -74v-262q0 -63 -37 -96.5t-107 -33.5h-158
q-69 0 -106 33.5t-37 96.5v71h69v-79q0 -62 77 -62h153q77 0 77 62v267q0 44 -40 60z" />
    <glyph glyph-name="dieresis" unicode="&#xa8;" horiz-adv-x="296" 
d="M120 593h-55v79h55v-79zM230 593h-55v79h55v-79z" />
    <glyph glyph-name="copyright" unicode="&#xa9;" horiz-adv-x="805" 
d="M68 183v331q0 91 48 139t139 48h295q91 0 139 -48t48 -139v-331q0 -91 -48 -139t-139 -48h-295q-91 0 -139 48t-48 139zM549 655h-294q-136 0 -136 -136v-341q0 -136 136 -136h294q137 0 137 136v341q0 136 -137 136zM450 128h-94q-123 0 -123 123v196q0 59 31.5 90.5
t91.5 31.5h94q58 0 89 -30.5t31 -88.5v-34h-69v36q0 55 -55 55h-87q-55 0 -55 -55v-207q0 -54 55 -54h87q55 0 55 54v49h69v-46q0 -58 -31 -89t-89 -31z" />
    <glyph glyph-name="ordfeminine" unicode="&#xaa;" horiz-adv-x="456" 
d="M331 299l-46 -29q-35 -23 -70 -23h-55q-51 0 -78.5 24.5t-27.5 69.5v64q0 85 109 97l165 18v73q0 57 -60 57h-85q-61 0 -61 -57v-24h-59v19q0 55 30.5 84t87.5 29h93q56 0 86.5 -28.5t30.5 -80.5v-342h-57zM169 297h51q28 0 50 15l58 39v118l-158 -17q-28 -3 -41 -14.5
t-13 -35.5v-59q0 -25 12 -35.5t41 -10.5z" />
    <glyph glyph-name="guillemotleft" unicode="&#xab;" horiz-adv-x="502" 
d="M112 244l139 -137h-74l-106 102q-26 26 -26 53v29q0 26 26 52l106 103h74l-139 -138q-13 -13 -13 -23v-18q0 -10 13 -23zM304 244l139 -137h-74l-106 102q-25 24 -25 53v29q0 27 25 52l106 103h75l-140 -138q-13 -13 -13 -23v-18q0 -10 13 -23z" />
    <glyph glyph-name="logicalnot" unicode="&#xac;" horiz-adv-x="491" 
d="M420 167h-53v157h-314v52h367v-209z" />
    <glyph glyph-name="uni00AD" unicode="&#xad;" horiz-adv-x="396" 
d="M68 257v59h260v-59h-260z" />
    <glyph glyph-name="registered" unicode="&#xae;" horiz-adv-x="579" 
d="M68 356v229q0 55 30.5 85.5t84.5 30.5h213q54 0 84.5 -30.5t30.5 -85.5v-229q0 -55 -30.5 -85t-84.5 -30h-213q-54 0 -84.5 30t-30.5 85zM390 660h-201q-77 0 -77 -77v-226q0 -76 77 -76h201q76 0 76 76v226q0 77 -76 77zM321 561h-81v-88h81q28 0 28 28v31q0 29 -28 29z
M240 433v-92h-50v261h132q78 0 78 -69v-33q0 -46 -39 -60l39 -99h-56l-33 92h-71z" />
    <glyph glyph-name="overscore" unicode="&#xaf;" horiz-adv-x="365" 
d="M309 598h-252v48h252v-48z" />
    <glyph glyph-name="degree" unicode="&#xb0;" horiz-adv-x="442" 
d="M276 379h-111q-51 0 -78.5 27.5t-27.5 78.5v110q0 51 27.5 78.5t78.5 27.5h111q52 0 79.5 -27.5t27.5 -78.5v-110q0 -51 -27.5 -78.5t-79.5 -27.5zM172 429h98q26 0 40 15t14 40v112q0 55 -54 55h-98q-55 0 -55 -55v-112q0 -55 55 -55z" />
    <glyph glyph-name="plusminus" unicode="&#xb1;" horiz-adv-x="491" 
d="M429 448v-53h-157v-137h-54v137h-156v53h156v137h54v-137h157zM62 120v53h367v-53h-367z" />
    <glyph glyph-name="twosuperior" unicode="&#xb2;" horiz-adv-x="337" 
d="M294 528v-49h-247v94q0 31 11.5 49.5t41.5 29.5l111 40q22 7 22 32v44q0 34 -35 34h-61q-34 0 -34 -34v-39h-54v43q0 38 21 58.5t60 20.5h76q82 0 82 -82v-46q0 -55 -49 -73l-114 -42q-15 -6 -19 -13t-4 -23v-44h192z" />
    <glyph glyph-name="threesuperior" unicode="&#xb3;" horiz-adv-x="340" 
d="M210 477h-86q-81 0 -81 75v31h56v-28q0 -30 33 -30h69q34 0 34 32v62q0 29 -31 29h-76v43h68q32 0 32 30v49q0 32 -34 32h-61q-34 0 -34 -29v-28h-54v26q0 38 21 59t59 21h78q81 0 81 -80v-41q0 -44 -34 -57q41 -11 41 -58v-62q0 -76 -81 -76z" />
    <glyph glyph-name="acute" unicode="&#xb4;" horiz-adv-x="249" 
d="M116 697h66v-15l-68 -117h-46z" />
    <glyph glyph-name="mu" unicode="&#xb5;" horiz-adv-x="567" 
d="M158 -190h-67v691h67v-382q0 -64 64 -64h62q31 0 58 18l67 44v384h67v-501h-60l-4 54l-54 -36q-35 -22 -75 -22h-69q-38 0 -60 15q4 -52 4 -92v-109z" />
    <glyph glyph-name="paragraph" unicode="&#xb6;" horiz-adv-x="570" 
d="M307 -190h-63v462h-62q-69 0 -106 36.5t-37 105.5v140q0 70 37 106.5t106 36.5h292v-887h-62v825h-228q-74 0 -74 -74v-153q0 -74 74 -74h123v-524z" />
    <glyph glyph-name="middot" unicode="&#xb7;" horiz-adv-x="213" 
d="M143 246h-74v97h74v-97z" />
    <glyph glyph-name="cedilla" unicode="&#xb8;" horiz-adv-x="360" 
d="M166 39l23 -15l-33 -75h48q68 0 68 -57v-25q0 -56 -67 -56h-117v40h111q27 0 27 23v11q0 24 -28 24h-78q-18 0 -18 15v7q0 4 5 16l42 92h17z" />
    <glyph glyph-name="onesuperior" unicode="&#xb9;" horiz-adv-x="301" 
d="M39 479v49h92v271h-92v49h149v-320h89v-49h-238z" />
    <glyph glyph-name="ordmasculine" unicode="&#xba;" horiz-adv-x="466" 
d="M286 247h-111q-118 0 -118 120v214q0 58 30 89t88 31h111q58 0 88.5 -31t30.5 -89v-214q0 -120 -119 -120zM179 300h103q27 0 43 16.5t16 43.5v228q0 60 -59 60h-103q-29 0 -44.5 -16t-15.5 -44v-228q0 -28 15.5 -44t44.5 -16z" />
    <glyph glyph-name="guillemotright" unicode="&#xbb;" horiz-adv-x="502" 
d="M239 209l-106 -102h-74l139 137q13 13 13 23v18q0 10 -13 23l-140 138h75l106 -103q25 -25 25 -52v-29q0 -29 -25 -53zM431 209l-106 -102h-74l139 137q13 13 13 23v18q0 10 -13 23l-139 138h74l106 -103q26 -26 26 -52v-29q0 -27 -26 -53z" />
    <glyph glyph-name="onequarter" unicode="&#xbc;" horiz-adv-x="723" 
d="M684 135v-44h-42v-91h-53v91h-181v44l184 235h50v-235h42zM462 135h127v161zM46 328v49h92v271h-92v49h149v-320h89v-49h-238zM642 701l-426 -705h-57l426 705h57z" />
    <glyph glyph-name="onehalf" unicode="&#xbd;" horiz-adv-x="767" 
d="M722 49v-49h-247v94q0 31 11.5 49.5t41.5 29.5l111 40q22 7 22 32v44q0 34 -35 34h-61q-34 0 -34 -34v-39h-54v43q0 38 21 58.5t60 20.5h76q82 0 82 -82v-46q0 -57 -49 -73l-114 -42q-15 -6 -19 -13t-4 -23v-44h192zM46 328v49h92v271h-92v49h149v-320h89v-49h-238z
M632 701l-426 -705h-57l426 705h57z" />
    <glyph glyph-name="threequarters" unicode="&#xbe;" horiz-adv-x="712" 
d="M214 326h-86q-81 0 -81 75v31h56v-28q0 -30 33 -30h69q34 0 34 32v62q0 29 -31 29h-76v43h68q32 0 32 30v49q0 32 -34 32h-61q-34 0 -34 -29v-28h-54v26q0 38 21 59t59 21h78q81 0 81 -80v-41q0 -44 -34 -57q41 -11 41 -58v-62q0 -76 -81 -76zM673 135v-44h-42v-91h-53
v91h-181v44l184 235h50v-235h42zM451 135h127v161zM630 701l-426 -705h-57l426 705h57z" />
    <glyph glyph-name="questiondown" unicode="&#xbf;" horiz-adv-x="523" 
d="M256 154l-119 -80q-2 -2 -8.5 -7t-10.5 -9t-7.5 -13t-3.5 -21v-88q0 -74 75 -74h165q75 0 75 74v73h68v-70q0 -67 -37 -103t-106 -36h-166q-70 0 -106.5 34.5t-36.5 101.5v83q0 25 11 49q8 15 16 25t15 15.5t22 15.5l106 72q20 13 27 23t7 30v89h64v-93
q0 -33 -11.5 -52.5t-38.5 -38.5zM237 501h73v-97h-73v97z" />
    <glyph glyph-name="Agrave" unicode="&#xc0;" horiz-adv-x="574" 
d="M116 152v-152h-67v160q0 33 11 60l191 479h73l190 -479q11 -24 11 -60v-160h-68v152q0 3 -2 25h-338q-1 -5 -1 -25zM436 237l-149 393l-150 -393h299zM262 745l-68 117v15h66l48 -132h-46z" />
    <glyph glyph-name="Aacute" unicode="&#xc1;" horiz-adv-x="574" 
d="M116 152v-152h-67v160q0 33 11 60l191 479h73l190 -479q11 -24 11 -60v-160h-68v152q0 3 -2 25h-338q-1 -5 -1 -25zM436 237l-149 393l-150 -393h299zM313 877h66v-15l-67 -117h-47z" />
    <glyph glyph-name="Acircumflex" unicode="&#xc2;" horiz-adv-x="574" 
d="M116 152v-152h-67v160q0 33 11 60l191 479h73l190 -479q11 -24 11 -60v-160h-68v152q0 3 -2 25h-338q-1 -5 -1 -25zM436 237l-149 393l-150 -393h299zM400 745h-48l-65 88l-65 -88h-47l85 132h54z" />
    <glyph glyph-name="Atilde" unicode="&#xc3;" horiz-adv-x="574" 
d="M116 152v-152h-67v160q0 33 11 60l191 479h73l190 -479q11 -24 11 -60v-160h-68v152q0 3 -2 25h-338q-1 -5 -1 -25zM436 237l-149 393l-150 -393h299zM360 799h14q27 0 27 25v39h43v-47q0 -62 -65 -62h-23q-28 0 -53 16l-52 34q-19 13 -37 13h-14q-28 0 -28 -25v-38h-43
v46q0 63 65 63h26q26 0 51 -16l52 -34q22 -14 37 -14z" />
    <glyph glyph-name="Adieresis" unicode="&#xc4;" horiz-adv-x="574" 
d="M116 152v-152h-67v160q0 33 11 60l191 479h73l190 -479q11 -24 11 -60v-160h-68v152q0 3 -2 25h-338q-1 -5 -1 -25zM436 237l-149 393l-150 -393h299zM260 771h-56v79h56v-79zM370 771h-56v79h56v-79z" />
    <glyph glyph-name="Aring" unicode="&#xc5;" horiz-adv-x="574" 
d="M116 152v-152h-67v160q0 33 11 60l191 479h73l190 -479q11 -24 11 -60v-160h-68v152q0 3 -2 25h-338q-1 -5 -1 -25zM436 237l-149 393l-150 -393h299zM267 936h35q83 0 83 -78v-29q0 -80 -83 -80h-35q-83 0 -83 80v29q0 78 83 78zM302 897h-36q-40 0 -40 -40v-29
q0 -39 40 -39h36q40 0 40 39v29q0 40 -40 40z" />
    <glyph glyph-name="AE" unicode="&#xc6;" horiz-adv-x="891" 
d="M102 152v-152h-66v160q0 47 22 76l337 461h445v-61h-350v-245h326v-59h-326v-271h358v-61h-429v177h-316q-1 -5 -1 -25zM419 237v394l-284 -394h284z" />
    <glyph glyph-name="Ccedilla" unicode="&#xc7;" horiz-adv-x="579" 
d="M455 132v96h70v-89q0 -70 -37 -106.5t-106 -36.5h-70l-20 -47h48q68 0 68 -57v-25q0 -56 -67 -56h-117v40h111q27 0 27 23v11q0 24 -28 24h-78q-18 0 -18 15v7q0 4 5 16l22 49h-46q-70 0 -106.5 36.5t-36.5 106.5v419q0 70 36.5 106.5t106.5 36.5h163q69 0 106 -36.5
t37 -106.5v-63h-70v70q0 74 -74 74h-160q-75 0 -75 -74v-433q0 -74 75 -74h160q74 0 74 74z" />
    <glyph glyph-name="Egrave" unicode="&#xc8;" horiz-adv-x="559" 
d="M516 0h-429v697h421v-61h-351v-245h327v-59h-327v-271h359v-61zM280 745l-68 117v15h66l48 -132h-46z" />
    <glyph glyph-name="Eacute" unicode="&#xc9;" horiz-adv-x="559" 
d="M516 0h-429v697h421v-61h-351v-245h327v-59h-327v-271h359v-61zM313 877h66v-15l-67 -117h-47z" />
    <glyph glyph-name="Ecircumflex" unicode="&#xca;" horiz-adv-x="559" 
d="M516 0h-429v697h421v-61h-351v-245h327v-59h-327v-271h359v-61zM414 745h-48l-65 88l-65 -88h-47l85 132h54z" />
    <glyph glyph-name="Edieresis" unicode="&#xcb;" horiz-adv-x="559" 
d="M516 0h-429v697h421v-61h-351v-245h327v-59h-327v-271h359v-61zM271 771h-56v79h56v-79zM381 771h-56v79h56v-79z" />
    <glyph glyph-name="Igrave" unicode="&#xcc;" horiz-adv-x="243" 
d="M99 745l-68 117v15h66l48 -132h-46zM157 0h-70v697h70v-697z" />
    <glyph glyph-name="Iacute" unicode="&#xcd;" horiz-adv-x="243" 
d="M144 877h66v-15l-67 -117h-47zM157 0h-70v697h70v-697z" />
    <glyph glyph-name="Icircumflex" unicode="&#xce;" horiz-adv-x="243" 
d="M235 745h-48l-65 88l-65 -88h-47l85 132h54zM157 0h-70v697h70v-697z" />
    <glyph glyph-name="Idieresis" unicode="&#xcf;" horiz-adv-x="243" 
d="M96 771h-56v79h56v-79zM206 771h-56v79h56v-79zM157 0h-70v697h70v-697z" />
    <glyph glyph-name="Eth" unicode="&#xd0;" horiz-adv-x="624" 
d="M394 0h-305v334h-68v58h68v305h305q76 0 115.5 -40t39.5 -116v-385q0 -76 -39.5 -116t-115.5 -40zM159 334v-272h236q84 0 84 84v405q0 84 -84 84h-236v-243h133v-58h-133z" />
    <glyph glyph-name="Ntilde" unicode="&#xd1;" horiz-adv-x="634" 
d="M390 799h14q27 0 27 25v39h43v-47q0 -62 -65 -62h-23q-28 0 -53 16l-52 34q-19 13 -37 13h-14q-28 0 -28 -25v-38h-43v46q0 63 65 63h26q26 0 51 -16l52 -34q22 -14 37 -14zM547 0h-64l-332 570v-570h-64v697h66l329 -570v570h65v-697z" />
    <glyph glyph-name="Ograve" unicode="&#xd2;" horiz-adv-x="612" 
d="M394 -4h-175q-70 0 -106.5 36.5t-36.5 106.5v419q0 70 36.5 106.5t106.5 36.5h175q69 0 105.5 -36.5t36.5 -106.5v-419q0 -70 -36.5 -106.5t-105.5 -36.5zM146 565v-430q0 -77 75 -77h170q75 0 75 74v433q0 74 -75 74h-170q-75 0 -75 -74zM284 745l-68 117v15h66l48 -132
h-46z" />
    <glyph glyph-name="Oacute" unicode="&#xd3;" horiz-adv-x="612" 
d="M394 -4h-175q-70 0 -106.5 36.5t-36.5 106.5v419q0 70 36.5 106.5t106.5 36.5h175q69 0 105.5 -36.5t36.5 -106.5v-419q0 -70 -36.5 -106.5t-105.5 -36.5zM146 565v-430q0 -77 75 -77h170q75 0 75 74v433q0 74 -75 74h-170q-75 0 -75 -74zM326 877h66v-15l-67 -117h-47z
" />
    <glyph glyph-name="Ocircumflex" unicode="&#xd4;" horiz-adv-x="612" 
d="M394 -4h-175q-70 0 -106.5 36.5t-36.5 106.5v419q0 70 36.5 106.5t106.5 36.5h175q69 0 105.5 -36.5t36.5 -106.5v-419q0 -70 -36.5 -106.5t-105.5 -36.5zM146 565v-430q0 -77 75 -77h170q75 0 75 74v433q0 74 -75 74h-170q-75 0 -75 -74zM420 745h-48l-65 88l-65 -88
h-47l85 132h54z" />
    <glyph glyph-name="Otilde" unicode="&#xd5;" horiz-adv-x="612" 
d="M380 799h14q27 0 27 25v39h43v-47q0 -62 -65 -62h-23q-28 0 -53 16l-52 34q-19 13 -37 13h-14q-28 0 -28 -25v-38h-43v46q0 63 65 63h26q26 0 51 -16l52 -34q22 -14 37 -14zM394 -4h-175q-70 0 -106.5 36.5t-36.5 106.5v419q0 70 36.5 106.5t106.5 36.5h175
q69 0 105.5 -36.5t36.5 -106.5v-419q0 -70 -36.5 -106.5t-105.5 -36.5zM146 565v-430q0 -77 75 -77h170q75 0 75 74v433q0 74 -75 74h-170q-75 0 -75 -74z" />
    <glyph glyph-name="Odieresis" unicode="&#xd6;" horiz-adv-x="612" 
d="M394 -4h-175q-70 0 -106.5 36.5t-36.5 106.5v419q0 70 36.5 106.5t106.5 36.5h175q69 0 105.5 -36.5t36.5 -106.5v-419q0 -70 -36.5 -106.5t-105.5 -36.5zM146 565v-430q0 -77 75 -77h170q75 0 75 74v433q0 74 -75 74h-170q-75 0 -75 -74zM280 771h-56v79h56v-79z
M390 771h-56v79h56v-79z" />
    <glyph glyph-name="multiply" unicode="&#xd7;" horiz-adv-x="491" 
d="M400 232l-36 -38l-117 118l-120 -119l-37 37l119 120l-119 118l37 38l119 -120l118 118l37 -38l-118 -117z" />
    <glyph glyph-name="Oslash" unicode="&#xd8;" horiz-adv-x="606" 
d="M146 9l-18 -33h-59l35 63q-30 36 -30 100v419q0 70 36.5 106.5t106.5 36.5h173q40 0 70 -13l18 33h60l-36 -64q30 -36 30 -99v-419q0 -70 -36.5 -106.5t-105.5 -36.5h-173q-44 0 -71 13zM467 132v433q0 13 -3 23l-289 -525q18 -9 43 -9h172q77 0 77 78zM140 565v-431
q0 -3 2 -25l288 526q-19 8 -40 8h-172q-78 0 -78 -78z" />
    <glyph glyph-name="Ugrave" unicode="&#xd9;" horiz-adv-x="626" 
d="M473 133v564h70v-558q0 -70 -36.5 -106.5t-105.5 -36.5h-175q-70 0 -106.5 36.5t-36.5 106.5v558h70v-564q0 -75 75 -75h170q75 0 75 75zM292 745l-68 117v15h66l48 -132h-46z" />
    <glyph glyph-name="Uacute" unicode="&#xda;" horiz-adv-x="626" 
d="M473 133v564h70v-558q0 -70 -36.5 -106.5t-105.5 -36.5h-175q-70 0 -106.5 36.5t-36.5 106.5v558h70v-564q0 -75 75 -75h170q75 0 75 75zM331 877h66v-15l-67 -117h-47z" />
    <glyph glyph-name="Ucircumflex" unicode="&#xdb;" horiz-adv-x="626" 
d="M473 133v564h70v-558q0 -70 -36.5 -106.5t-105.5 -36.5h-175q-70 0 -106.5 36.5t-36.5 106.5v558h70v-564q0 -75 75 -75h170q75 0 75 75zM425 745h-48l-65 88l-65 -88h-47l85 132h54z" />
    <glyph glyph-name="Udieresis" unicode="&#xdc;" horiz-adv-x="626" 
d="M473 133v564h70v-558q0 -70 -36.5 -106.5t-105.5 -36.5h-175q-70 0 -106.5 36.5t-36.5 106.5v558h70v-564q0 -75 75 -75h170q75 0 75 75zM286 771h-56v79h56v-79zM396 771h-56v79h56v-79z" />
    <glyph glyph-name="Yacute" unicode="&#xdd;" horiz-adv-x="548" 
d="M310 248v-248h-71v247l-180 263q-16 22 -16 65v122h70v-115q0 -33 14 -55l150 -218l147 214q15 23 15 55v119h68v-122q0 -37 -17 -65zM297 877h66v-15l-67 -117h-47z" />
    <glyph glyph-name="Thorn" unicode="&#xde;" horiz-adv-x="575" 
d="M379 113h-222v-113h-70v697h70v-158h222q69 0 105.5 -36.5t36.5 -106.5v-140q0 -69 -36.5 -106t-105.5 -37zM377 477h-220v-301h220q74 0 74 75v151q0 75 -74 75z" />
    <glyph glyph-name="germandbls" unicode="&#xdf;" horiz-adv-x="567" 
d="M170 570v-570h-67v439h-78v59h78v65q0 65 34 99.5t100 34.5h113q142 0 142 -132v-99q0 -83 -64 -105q79 -16 79 -108v-116q0 -66 -36.5 -101.5t-106.5 -35.5h-101v59h102q75 0 75 69v138q0 63 -69 63h-97v59h83q68 0 68 62v119q0 69 -74 69h-114q-67 0 -67 -68z" />
    <glyph glyph-name="agrave" unicode="&#xe0;" horiz-adv-x="500" 
d="M367 54l-51 -33q-37 -25 -79 -25h-65q-57 0 -87.5 27.5t-30.5 78.5v70q0 95 119 109l191 21v83q0 64 -67 64h-102q-67 0 -67 -64v-33h-66v26q0 62 34.5 94.5t97.5 32.5h110q61 0 93.5 -32t32.5 -91v-382h-59zM178 52h65q29 0 56 18l65 42v135l-183 -22
q-33 -4 -47.5 -16.5t-14.5 -39.5v-64q0 -28 13.5 -40.5t45.5 -12.5zM223 565l-68 117v15h66l48 -132h-46z" />
    <glyph glyph-name="aacute" unicode="&#xe1;" horiz-adv-x="500" 
d="M367 54l-51 -33q-37 -25 -79 -25h-65q-57 0 -87.5 27.5t-30.5 78.5v70q0 95 119 109l191 21v83q0 64 -67 64h-102q-67 0 -67 -64v-33h-66v26q0 62 34.5 94.5t97.5 32.5h110q61 0 93.5 -32t32.5 -91v-382h-59zM178 52h65q29 0 56 18l65 42v135l-183 -22
q-33 -4 -47.5 -16.5t-14.5 -39.5v-64q0 -28 13.5 -40.5t45.5 -12.5zM263 697h66v-15l-68 -117h-46z" />
    <glyph glyph-name="acircumflex" unicode="&#xe2;" horiz-adv-x="500" 
d="M367 54l-51 -33q-37 -25 -79 -25h-65q-57 0 -87.5 27.5t-30.5 78.5v70q0 95 119 109l191 21v83q0 64 -67 64h-102q-67 0 -67 -64v-33h-66v26q0 62 34.5 94.5t97.5 32.5h110q61 0 93.5 -32t32.5 -91v-382h-59zM178 52h65q29 0 56 18l65 42v135l-183 -22
q-33 -4 -47.5 -16.5t-14.5 -39.5v-64q0 -28 13.5 -40.5t45.5 -12.5zM354 565h-48l-65 88l-65 -88h-47l86 132h53z" />
    <glyph glyph-name="atilde" unicode="&#xe3;" horiz-adv-x="500" 
d="M367 54l-51 -33q-37 -25 -79 -25h-65q-57 0 -87.5 27.5t-30.5 78.5v70q0 95 119 109l191 21v83q0 64 -67 64h-102q-67 0 -67 -64v-33h-66v26q0 62 34.5 94.5t97.5 32.5h110q61 0 93.5 -32t32.5 -91v-382h-59zM178 52h65q29 0 56 18l65 42v135l-183 -22
q-33 -4 -47.5 -16.5t-14.5 -39.5v-64q0 -28 13.5 -40.5t45.5 -12.5zM315 633h14q28 0 28 24v40h42v-47q0 -63 -64 -63h-24q-26 0 -52 17l-53 33q-19 13 -37 13h-14q-27 0 -27 -25v-38h-44v46q0 64 65 64h26q22 0 51 -17l52 -34q22 -13 37 -13z" />
    <glyph glyph-name="adieresis" unicode="&#xe4;" horiz-adv-x="500" 
d="M367 54l-51 -33q-37 -25 -79 -25h-65q-57 0 -87.5 27.5t-30.5 78.5v70q0 95 119 109l191 21v83q0 64 -67 64h-102q-67 0 -67 -64v-33h-66v26q0 62 34.5 94.5t97.5 32.5h110q61 0 93.5 -32t32.5 -91v-382h-59zM178 52h65q29 0 56 18l65 42v135l-183 -22
q-33 -4 -47.5 -16.5t-14.5 -39.5v-64q0 -28 13.5 -40.5t45.5 -12.5zM215 593h-55v79h55v-79zM325 593h-55v79h55v-79z" />
    <glyph glyph-name="aring" unicode="&#xe5;" horiz-adv-x="500" 
d="M367 54l-51 -33q-37 -25 -79 -25h-65q-57 0 -87.5 27.5t-30.5 78.5v70q0 95 119 109l191 21v83q0 64 -67 64h-102q-67 0 -67 -64v-33h-66v26q0 62 34.5 94.5t97.5 32.5h110q61 0 93.5 -32t32.5 -91v-382h-59zM178 52h65q29 0 56 18l65 42v135l-183 -22
q-33 -4 -47.5 -16.5t-14.5 -39.5v-64q0 -28 13.5 -40.5t45.5 -12.5zM227 741h35q83 0 83 -78v-29q0 -80 -83 -80h-35q-83 0 -83 80v29q0 78 83 78zM262 702h-36q-40 0 -40 -40v-29q0 -39 40 -39h36q40 0 40 39v29q0 40 -40 40z" />
    <glyph glyph-name="ae" unicode="&#xe6;" horiz-adv-x="804" 
d="M613 -4h-116q-92 0 -120 64l-61 -39q-37 -25 -79 -25h-65q-57 0 -87.5 27.5t-30.5 78.5v65q0 95 123 108l187 21v90q0 64 -67 64h-102q-67 0 -67 -64v-36h-66v28q0 62 34.5 94.5t97.5 32.5h110q65 0 91 -42q33 42 102 42h116q64 0 98 -34.5t34 -99.5v-130h-315v-123
q0 -68 68 -68h114q68 0 68 68v38h65v-29q0 -64 -34 -97.5t-98 -33.5zM178 51h65q29 0 56 18l66 42q-1 4 -1 19v110l-183 -19q-33 -3 -47.5 -16t-14.5 -40v-61q0 -28 13.5 -40.5t45.5 -12.5zM430 383v-87h251v87q0 67 -68 67h-115q-68 0 -68 -67z" />
    <glyph glyph-name="ccedilla" unicode="&#xe7;" horiz-adv-x="490" 
d="M210 -4h-15q-64 0 -98.5 34t-34.5 100v241q0 65 34.5 99.5t98.5 34.5h111q63 0 97.5 -34.5t34.5 -99.5v-33h-66v40q0 68 -67 68h-108q-68 0 -68 -68v-255q0 -68 68 -68h108q67 0 67 68v55h66v-48q0 -66 -34 -100t-98 -34h-49l-20 -47h48q68 0 68 -57v-25q0 -56 -67 -56
h-117v40h111q27 0 27 23v11q0 24 -28 24h-78q-18 0 -18 15v7q0 4 5 16z" />
    <glyph glyph-name="egrave" unicode="&#xe8;" horiz-adv-x="502" 
d="M444 156v-29q0 -64 -34.5 -97.5t-98.5 -33.5h-116q-64 0 -98.5 34t-34.5 100v241q0 65 34.5 99.5t98.5 34.5h116q64 0 98.5 -34.5t34.5 -99.5v-135h-315v-117q0 -68 67 -68h115q67 0 67 68v37h66zM129 382v-91h250v91q0 68 -68 68h-115q-67 0 -67 -68zM234 565l-68 117
v15h66l48 -132h-46z" />
    <glyph glyph-name="eacute" unicode="&#xe9;" horiz-adv-x="502" 
d="M444 156v-29q0 -64 -34.5 -97.5t-98.5 -33.5h-116q-64 0 -98.5 34t-34.5 100v241q0 65 34.5 99.5t98.5 34.5h116q64 0 98.5 -34.5t34.5 -99.5v-135h-315v-117q0 -68 67 -68h115q67 0 67 68v37h66zM129 382v-91h250v91q0 68 -68 68h-115q-67 0 -67 -68zM274 697h66v-15
l-68 -117h-46z" />
    <glyph glyph-name="ecircumflex" unicode="&#xea;" horiz-adv-x="502" 
d="M444 156v-29q0 -64 -34.5 -97.5t-98.5 -33.5h-116q-64 0 -98.5 34t-34.5 100v241q0 65 34.5 99.5t98.5 34.5h116q64 0 98.5 -34.5t34.5 -99.5v-135h-315v-117q0 -68 67 -68h115q67 0 67 68v37h66zM129 382v-91h250v91q0 68 -68 68h-115q-67 0 -67 -68zM366 565h-48
l-65 88l-65 -88h-47l86 132h53z" />
    <glyph glyph-name="edieresis" unicode="&#xeb;" horiz-adv-x="502" 
d="M444 156v-29q0 -64 -34.5 -97.5t-98.5 -33.5h-116q-64 0 -98.5 34t-34.5 100v241q0 65 34.5 99.5t98.5 34.5h116q64 0 98.5 -34.5t34.5 -99.5v-135h-315v-117q0 -68 67 -68h115q67 0 67 68v37h66zM129 382v-91h250v91q0 68 -68 68h-115q-67 0 -67 -68zM226 593h-55v79h55
v-79zM336 593h-55v79h55v-79z" />
    <glyph glyph-name="igrave" unicode="&#xec;" horiz-adv-x="211" 
d="M85 565l-68 117v15h66l48 -132h-46zM139 0h-67v501h67v-501z" />
    <glyph glyph-name="iacute" unicode="&#xed;" horiz-adv-x="211" 
d="M129 697h66v-15l-68 -117h-46zM138 0h-67v501h67v-501z" />
    <glyph glyph-name="icircumflex" unicode="&#xee;" horiz-adv-x="211" 
d="M220 565h-48l-65 88l-65 -88h-47l86 132h53zM139 0h-67v501h67v-501z" />
    <glyph glyph-name="idieresis" unicode="&#xef;" horiz-adv-x="211" 
d="M79 593h-55v79h55v-79zM189 593h-55v79h55v-79zM139 0h-67v501h67v-501z" />
    <glyph glyph-name="eth" unicode="&#xf0;" horiz-adv-x="522" 
d="M320 -4h-124q-133 0 -133 134v251q0 61 32 92.5t92 31.5h71q46 0 78 -22l50 -33v21q0 33 -7.5 52.5t-29.5 46.5l-22 28l-90 -30v41l65 22l-51 66h75l38 -46l89 29v-41l-64 -21l18 -23q27 -35 36.5 -63.5t9.5 -76.5v-325q0 -134 -133 -134zM198 54h120q33 0 50.5 18
t17.5 49v263l-67 44q-27 18 -58 18h-66q-65 0 -65 -65v-260q0 -67 68 -67z" />
    <glyph glyph-name="ntilde" unicode="&#xf1;" horiz-adv-x="531" 
d="M330 446h-66q-29 0 -58 -18l-68 -44v-384h-67v501h61l3 -54l54 36q32 22 75 22h75q59 0 90.5 -31.5t31.5 -91.5v-382h-67v382q0 64 -64 64zM338 633h14q28 0 28 24v40h42v-47q0 -63 -64 -63h-24q-26 0 -52 17l-53 33q-19 13 -37 13h-14q-27 0 -27 -25v-38h-44v46
q0 64 65 64h26q22 0 51 -17l52 -34q22 -13 37 -13z" />
    <glyph glyph-name="ograve" unicode="&#xf2;" horiz-adv-x="514" 
d="M318 -4h-123q-64 0 -98.5 34t-34.5 100v241q0 65 34.5 99.5t98.5 34.5h123q65 0 99 -34.5t34 -99.5v-241q0 -134 -133 -134zM197 54h120q32 0 49.5 18t17.5 49v259q0 67 -67 67h-120q-68 0 -68 -67v-259q0 -67 68 -67zM237 565l-68 117v15h66l48 -132h-46z" />
    <glyph glyph-name="oacute" unicode="&#xf3;" horiz-adv-x="514" 
d="M318 -4h-123q-64 0 -98.5 34t-34.5 100v241q0 65 34.5 99.5t98.5 34.5h123q65 0 99 -34.5t34 -99.5v-241q0 -134 -133 -134zM197 54h120q32 0 49.5 18t17.5 49v259q0 67 -67 67h-120q-68 0 -68 -67v-259q0 -67 68 -67zM280 697h66v-15l-68 -117h-46z" />
    <glyph glyph-name="ocircumflex" unicode="&#xf4;" horiz-adv-x="514" 
d="M318 -4h-123q-64 0 -98.5 34t-34.5 100v241q0 65 34.5 99.5t98.5 34.5h123q65 0 99 -34.5t34 -99.5v-241q0 -134 -133 -134zM197 54h120q32 0 49.5 18t17.5 49v259q0 67 -67 67h-120q-68 0 -68 -67v-259q0 -67 68 -67zM370 565h-48l-65 88l-65 -88h-47l86 132h53z" />
    <glyph glyph-name="otilde" unicode="&#xf5;" horiz-adv-x="514" 
d="M318 -4h-123q-64 0 -98.5 34t-34.5 100v241q0 65 34.5 99.5t98.5 34.5h123q65 0 99 -34.5t34 -99.5v-241q0 -134 -133 -134zM197 54h120q32 0 49.5 18t17.5 49v259q0 67 -67 67h-120q-68 0 -68 -67v-259q0 -67 68 -67zM331 633h14q28 0 28 24v40h42v-47q0 -63 -64 -63
h-24q-26 0 -52 17l-53 33q-19 13 -37 13h-14q-27 0 -27 -25v-38h-44v46q0 64 65 64h26q22 0 51 -17l52 -34q22 -13 37 -13z" />
    <glyph glyph-name="odieresis" unicode="&#xf6;" horiz-adv-x="514" 
d="M318 -4h-123q-64 0 -98.5 34t-34.5 100v241q0 65 34.5 99.5t98.5 34.5h123q65 0 99 -34.5t34 -99.5v-241q0 -134 -133 -134zM197 54h120q32 0 49.5 18t17.5 49v259q0 67 -67 67h-120q-68 0 -68 -67v-259q0 -67 68 -67zM230 593h-55v79h55v-79zM340 593h-55v79h55v-79z
" />
    <glyph glyph-name="divide" unicode="&#xf7;" horiz-adv-x="491" 
d="M62 320v57h367v-57h-367zM276 132h-61v84h61v-84zM276 481h-61v84h61v-84z" />
    <glyph glyph-name="oslash" unicode="&#xf8;" horiz-adv-x="510" 
d="M129 8l-20 -32h-52l35 57q-31 34 -31 97v241q0 65 34.5 99.5t98.5 34.5h121q37 0 65 -12l20 32h53l-36 -58q31 -35 31 -96v-241q0 -134 -133 -134h-121q-38 0 -65 12zM194 50h122q33 0 51 18.5t18 51.5v261q0 18 -4 29l-222 -354q15 -6 35 -6zM125 381v-261q0 -18 4 -29
l220 353q-13 6 -33 6h-122q-69 0 -69 -69z" />
    <glyph glyph-name="ugrave" unicode="&#xf9;" 
d="M390 54l-53 -36q-32 -22 -76 -22h-69q-59 0 -91 31.5t-32 91.5v382h67v-382q0 -64 65 -64h61q31 0 58 18l67 44v384h67v-501h-60zM245 565l-68 117v15h66l48 -132h-46z" />
    <glyph glyph-name="uacute" unicode="&#xfa;" 
d="M390 54l-53 -36q-32 -22 -76 -22h-69q-59 0 -91 31.5t-32 91.5v382h67v-382q0 -64 65 -64h61q31 0 58 18l67 44v384h67v-501h-60zM285 697h66v-15l-68 -117h-46z" />
    <glyph glyph-name="ucircumflex" unicode="&#xfb;" 
d="M390 54l-53 -36q-32 -22 -76 -22h-69q-59 0 -91 31.5t-32 91.5v382h67v-382q0 -64 65 -64h61q31 0 58 18l67 44v384h67v-501h-60zM377 565h-48l-65 88l-65 -88h-47l86 132h53z" />
    <glyph glyph-name="udieresis" unicode="&#xfc;" 
d="M390 54l-53 -36q-32 -22 -76 -22h-69q-59 0 -91 31.5t-32 91.5v382h67v-382q0 -64 65 -64h61q31 0 58 18l67 44v384h67v-501h-60zM237 593h-55v79h55v-79zM347 593h-55v79h55v-79z" />
    <glyph glyph-name="yacute" unicode="&#xfd;" horiz-adv-x="485" 
d="M139 -190h-64v58h53q38 0 54 39l34 82l-158 335q-13 25 -13 56v121h67v-114q0 -29 9 -47l128 -273l115 273q9 22 9 47v114h65v-121q0 -24 -12 -56l-181 -425q-20 -48 -44.5 -68.5t-61.5 -20.5zM265 697h66v-15l-68 -117h-46z" />
    <glyph glyph-name="thorn" unicode="&#xfe;" horiz-adv-x="525" 
d="M189 18l-51 33v-247h-67v893h67v-247l51 33q35 22 75 22h75q59 0 90.5 -32t31.5 -91v-263q0 -59 -31.5 -91t-90.5 -32h-75q-40 0 -75 22zM264 55h65q65 0 65 64v263q0 64 -65 64h-65q-31 0 -58 -18l-68 -44v-267l68 -44q27 -18 58 -18z" />
    <glyph glyph-name="ydieresis" unicode="&#xff;" horiz-adv-x="485" 
d="M139 -190h-64v58h53q38 0 54 39l34 82l-158 335q-13 25 -13 56v121h67v-114q0 -29 9 -47l128 -273l115 273q9 22 9 47v114h65v-121q0 -24 -12 -56l-181 -425q-20 -48 -44.5 -68.5t-61.5 -20.5zM212 593h-55v79h55v-79zM322 593h-55v79h55v-79z" />
    <glyph glyph-name="Amacron" unicode="&#x100;" horiz-adv-x="574" 
d="M116 152v-152h-67v160q0 33 11 60l191 479h73l190 -479q11 -24 11 -60v-160h-68v152q0 3 -2 25h-338q-1 -5 -1 -25zM436 237l-149 393l-150 -393h299zM413 774h-252v48h252v-48z" />
    <glyph glyph-name="amacron" unicode="&#x101;" horiz-adv-x="500" 
d="M367 54l-51 -33q-37 -25 -79 -25h-65q-57 0 -87.5 27.5t-30.5 78.5v70q0 95 119 109l191 21v83q0 64 -67 64h-102q-67 0 -67 -64v-33h-66v26q0 62 34.5 94.5t97.5 32.5h110q61 0 93.5 -32t32.5 -91v-382h-59zM178 52h65q29 0 56 18l65 42v135l-183 -22
q-33 -4 -47.5 -16.5t-14.5 -39.5v-64q0 -28 13.5 -40.5t45.5 -12.5zM370 598h-252v48h252v-48z" />
    <glyph glyph-name="Abreve" unicode="&#x102;" horiz-adv-x="574" 
d="M116 152v-152h-67v160q0 33 11 60l191 479h73l190 -479q11 -24 11 -60v-160h-68v152q0 3 -2 25h-338q-1 -5 -1 -25zM436 237l-149 393l-150 -393h299zM365 831v59h47v-60q0 -87 -97 -87h-56q-97 0 -97 87v60h47v-59q0 -47 53 -47h51q52 0 52 47z" />
    <glyph glyph-name="abreve" unicode="&#x103;" horiz-adv-x="500" 
d="M367 54l-51 -33q-37 -25 -79 -25h-65q-57 0 -87.5 27.5t-30.5 78.5v70q0 95 119 109l191 21v83q0 64 -67 64h-102q-67 0 -67 -64v-33h-66v26q0 62 34.5 94.5t97.5 32.5h110q61 0 93.5 -32t32.5 -91v-382h-59zM178 52h65q29 0 56 18l65 42v135l-183 -22
q-33 -4 -47.5 -16.5t-14.5 -39.5v-64q0 -28 13.5 -40.5t45.5 -12.5zM322 651v59h47v-60q0 -87 -97 -87h-56q-97 0 -97 87v60h47v-59q0 -47 52 -47h51q53 0 53 47z" />
    <glyph glyph-name="Aogonek" unicode="&#x104;" horiz-adv-x="574" 
d="M116 152v-152h-67v160q0 33 11 60l191 479h73l190 -479q11 -24 11 -60v-160h-9l-94 -61q-28 -19 -28 -41v-14q0 -27 36 -27h95v-47h-105q-80 0 -80 65v16q0 40 47 72l70 44v145q0 3 -2 25h-338q-1 -5 -1 -25zM436 237l-149 393l-150 -393h299z" />
    <glyph glyph-name="aogonek" unicode="&#x105;" horiz-adv-x="501" 
d="M368 54l-51 -33q-37 -25 -79 -25h-65q-57 0 -87.5 27.5t-30.5 78.5v70q0 95 119 109l191 21v83q0 64 -67 64h-102q-67 0 -67 -64v-33h-66v26q0 62 34.5 94.5t97.5 32.5h110q61 0 93.5 -32t32.5 -91v-382h-9l-94 -61q-28 -19 -28 -41v-14q0 -27 36 -27h95v-47h-105
q-80 0 -80 65v16q0 40 47 72l78 49zM179 52h65q29 0 56 18l65 42v135l-183 -22q-33 -4 -47.5 -16.5t-14.5 -39.5v-64q0 -28 13.5 -40.5t45.5 -12.5z" />
    <glyph glyph-name="Cacute" unicode="&#x106;" horiz-adv-x="579" 
d="M455 132v96h70v-89q0 -70 -37 -106.5t-106 -36.5h-163q-70 0 -106.5 36.5t-36.5 106.5v419q0 70 36.5 106.5t106.5 36.5h163q69 0 106 -36.5t37 -106.5v-63h-70v70q0 74 -74 74h-160q-75 0 -75 -74v-433q0 -74 75 -74h160q74 0 74 74zM322 877h66v-15l-67 -117h-47z" />
    <glyph glyph-name="cacute" unicode="&#x107;" horiz-adv-x="490" 
d="M306 -4h-111q-64 0 -98.5 34t-34.5 100v241q0 65 34.5 99.5t98.5 34.5h111q63 0 97.5 -34.5t34.5 -99.5v-33h-66v40q0 68 -67 68h-108q-68 0 -68 -68v-255q0 -68 68 -68h108q67 0 67 68v55h66v-48q0 -66 -34 -100t-98 -34zM273 697h66v-15l-68 -117h-46z" />
    <glyph glyph-name="Ccircumflex" unicode="&#x108;" horiz-adv-x="579" 
d="M455 132v96h70v-89q0 -70 -37 -106.5t-106 -36.5h-163q-70 0 -106.5 36.5t-36.5 106.5v419q0 70 36.5 106.5t106.5 36.5h163q69 0 106 -36.5t37 -106.5v-63h-70v70q0 74 -74 74h-160q-75 0 -75 -74v-433q0 -74 75 -74h160q74 0 74 74zM413 745h-48l-65 88l-65 -88h-47
l85 132h54z" />
    <glyph glyph-name="ccircumflex" unicode="&#x109;" horiz-adv-x="490" 
d="M306 -4h-111q-64 0 -98.5 34t-34.5 100v241q0 65 34.5 99.5t98.5 34.5h111q63 0 97.5 -34.5t34.5 -99.5v-33h-66v40q0 68 -67 68h-108q-68 0 -68 -68v-255q0 -68 68 -68h108q67 0 67 68v55h66v-48q0 -66 -34 -100t-98 -34zM362 565h-48l-65 88l-65 -88h-47l86 132h53z
" />
    <glyph glyph-name="Cdotaccent" unicode="&#x10a;" horiz-adv-x="579" 
d="M455 132v96h70v-89q0 -70 -37 -106.5t-106 -36.5h-163q-70 0 -106.5 36.5t-36.5 106.5v419q0 70 36.5 106.5t106.5 36.5h163q69 0 106 -36.5t37 -106.5v-63h-70v70q0 74 -74 74h-160q-75 0 -75 -74v-433q0 -74 75 -74h160q74 0 74 74zM334 787h-67v90h67v-90z" />
    <glyph glyph-name="cdotaccent" unicode="&#x10b;" horiz-adv-x="490" 
d="M306 -4h-111q-64 0 -98.5 34t-34.5 100v241q0 65 34.5 99.5t98.5 34.5h111q63 0 97.5 -34.5t34.5 -99.5v-33h-66v40q0 68 -67 68h-108q-68 0 -68 -68v-255q0 -68 68 -68h108q67 0 67 68v55h66v-48q0 -66 -34 -100t-98 -34zM282 595h-67v91h67v-91z" />
    <glyph glyph-name="Ccaron" unicode="&#x10c;" horiz-adv-x="579" 
d="M455 132v96h70v-89q0 -70 -37 -106.5t-106 -36.5h-163q-70 0 -106.5 36.5t-36.5 106.5v419q0 70 36.5 106.5t106.5 36.5h163q69 0 106 -36.5t37 -106.5v-63h-70v70q0 74 -74 74h-160q-75 0 -75 -74v-433q0 -74 75 -74h160q74 0 74 74zM325 760h-53l-86 132h47l65 -88
l65 88h48z" />
    <glyph glyph-name="ccaron" unicode="&#x10d;" horiz-adv-x="490" 
d="M306 -4h-111q-64 0 -98.5 34t-34.5 100v241q0 65 34.5 99.5t98.5 34.5h111q63 0 97.5 -34.5t34.5 -99.5v-33h-66v40q0 68 -67 68h-108q-68 0 -68 -68v-255q0 -68 68 -68h108q67 0 67 68v55h66v-48q0 -66 -34 -100t-98 -34zM276 565h-53l-86 132h47l65 -88l65 88h48z" />
    <glyph glyph-name="Dcaron" unicode="&#x10e;" horiz-adv-x="622" 
d="M392 0h-305v697h305q76 0 115.5 -40t39.5 -116v-385q0 -76 -39.5 -116t-115.5 -40zM157 635v-573h236q84 0 84 84v405q0 84 -84 84h-236zM333 760h-53l-86 132h47l65 -88l65 88h48z" />
    <glyph glyph-name="dcaron" unicode="&#x10f;" 
d="M389 54l-52 -36q-32 -22 -76 -22h-74q-59 0 -91 32t-32 91v263q0 59 32 91t91 32h74q44 0 76 -22l50 -33v247h67v-697h-60zM196 55h66q30 0 58 18l67 44v267l-67 44q-28 18 -58 18h-66q-65 0 -65 -64v-263q0 -64 65 -64zM531 697h63v-22l-50 -122h-39z" />
    <glyph glyph-name="Dcroat" unicode="&#x110;" horiz-adv-x="624" 
d="M394 0h-305v334h-68v58h68v305h305q76 0 115.5 -40t39.5 -116v-385q0 -76 -39.5 -116t-115.5 -40zM159 334v-272h236q84 0 84 84v405q0 84 -84 84h-236v-243h133v-58h-133z" />
    <glyph glyph-name="dslash" unicode="&#x111;" 
d="M387 574h-104v44h104v79h67v-79h70v-44h-70v-574h-60l-5 54l-52 -36q-32 -22 -76 -22h-74q-59 0 -91 32t-32 91v263q0 59 32 91t91 32h74q44 0 76 -22l50 -33v124zM196 55h66q30 0 58 18l67 44v267l-67 44q-28 18 -58 18h-66q-65 0 -65 -64v-263q0 -64 65 -64z" />
    <glyph glyph-name="Emacron" unicode="&#x112;" horiz-adv-x="559" 
d="M516 0h-429v697h421v-61h-351v-245h327v-59h-327v-271h359v-61zM427 774h-252v48h252v-48z" />
    <glyph glyph-name="emacron" unicode="&#x113;" horiz-adv-x="502" 
d="M444 156v-29q0 -64 -34.5 -97.5t-98.5 -33.5h-116q-64 0 -98.5 34t-34.5 100v241q0 65 34.5 99.5t98.5 34.5h116q64 0 98.5 -34.5t34.5 -99.5v-135h-315v-117q0 -68 67 -68h115q67 0 67 68v37h66zM129 382v-91h250v91q0 68 -68 68h-115q-67 0 -67 -68zM378 598h-252v48
h252v-48z" />
    <glyph glyph-name="Ebreve" unicode="&#x114;" horiz-adv-x="559" 
d="M516 0h-429v697h421v-61h-351v-245h327v-59h-327v-271h359v-61zM378 831v59h47v-60q0 -87 -97 -87h-56q-97 0 -97 87v60h47v-59q0 -47 53 -47h51q52 0 52 47z" />
    <glyph glyph-name="ebreve" unicode="&#x115;" horiz-adv-x="502" 
d="M444 156v-29q0 -64 -34.5 -97.5t-98.5 -33.5h-116q-64 0 -98.5 34t-34.5 100v241q0 65 34.5 99.5t98.5 34.5h116q64 0 98.5 -34.5t34.5 -99.5v-135h-315v-117q0 -68 67 -68h115q67 0 67 68v37h66zM129 382v-91h250v91q0 68 -68 68h-115q-67 0 -67 -68zM331 651v59h47v-60
q0 -87 -97 -87h-56q-97 0 -97 87v60h47v-59q0 -47 52 -47h51q53 0 53 47z" />
    <glyph glyph-name="Edotaccent" unicode="&#x116;" horiz-adv-x="559" 
d="M516 0h-429v697h421v-61h-351v-245h327v-59h-327v-271h359v-61zM336 787h-67v90h67v-90z" />
    <glyph glyph-name="edotaccent" unicode="&#x117;" horiz-adv-x="502" 
d="M444 156v-29q0 -64 -34.5 -97.5t-98.5 -33.5h-116q-64 0 -98.5 34t-34.5 100v241q0 65 34.5 99.5t98.5 34.5h116q64 0 98.5 -34.5t34.5 -99.5v-135h-315v-117q0 -68 67 -68h115q67 0 67 68v37h66zM129 382v-91h250v91q0 68 -68 68h-115q-67 0 -67 -68zM286 595h-67v91h67
v-91z" />
    <glyph glyph-name="Eogonek" unicode="&#x118;" horiz-adv-x="559" 
d="M400 0h-313v697h421v-61h-351v-245h327v-59h-327v-271h359v-61h-45l-94 -61q-28 -19 -28 -41v-14q0 -27 36 -27h95v-47h-105q-80 0 -80 65v16q0 40 47 72z" />
    <glyph glyph-name="eogonek" unicode="&#x119;" horiz-adv-x="503" 
d="M415 -143v-47h-105q-80 0 -80 65v16q0 17 10 33.5t16 21.5t21 17l37 34q-1 -1 -8 -1h-110q-133 0 -133 134v241q0 65 34 99.5t99 34.5h116q64 0 98 -34.5t34 -99.5v-135h-315v-117q0 -68 68 -68h114q68 0 68 68v37h65v-29q0 -65 -36 -100l-96 -88l-20 -17q-8 -11 -8 -24
v-14q0 -27 36 -27h95zM129 382v-91h251v91q0 68 -68 68h-115q-68 0 -68 -68z" />
    <glyph glyph-name="Ecaron" unicode="&#x11a;" horiz-adv-x="559" 
d="M516 0h-429v697h421v-61h-351v-245h327v-59h-327v-271h359v-61zM327 760h-53l-86 132h47l65 -88l65 88h48z" />
    <glyph glyph-name="ecaron" unicode="&#x11b;" horiz-adv-x="502" 
d="M444 156v-29q0 -64 -34.5 -97.5t-98.5 -33.5h-116q-64 0 -98.5 34t-34.5 100v241q0 65 34.5 99.5t98.5 34.5h116q64 0 98.5 -34.5t34.5 -99.5v-135h-315v-117q0 -68 67 -68h115q67 0 67 68v37h66zM129 382v-91h250v91q0 68 -68 68h-115q-67 0 -67 -68zM279 565h-53
l-86 132h47l65 -88l65 88h48z" />
    <glyph glyph-name="Gcircumflex" unicode="&#x11c;" horiz-adv-x="591" 
d="M525 339v-200q0 -70 -37 -106.5t-106 -36.5h-163q-70 0 -106.5 36.5t-36.5 106.5v419q0 70 36.5 106.5t106.5 36.5h163q69 0 106 -36.5t37 -106.5v-63h-70v70q0 74 -74 74h-160q-75 0 -75 -74v-433q0 -74 75 -74h160q74 0 74 74v149h-128v58h198zM412 745h-48l-65 88
l-65 -88h-47l85 132h54z" />
    <glyph glyph-name="gcircumflex" unicode="&#x11d;" horiz-adv-x="525" 
d="M320 -194h-115q-63 0 -97.5 32.5t-34.5 93.5v18h66v-25q0 -64 67 -64h114q68 0 68 64v151l-51 -34q-32 -22 -76 -22h-74q-59 0 -91 32t-32 91v239q0 59 32 91t91 32h74q45 0 76 -22l53 -36l5 54h59v-565q0 -130 -134 -130zM195 79h67q30 0 58 18l68 44v243l-68 44
q-28 18 -58 18h-67q-65 0 -65 -64v-239q0 -64 65 -64zM373 565h-48l-65 88l-65 -88h-47l86 132h53z" />
    <glyph glyph-name="Gbreve" unicode="&#x11e;" horiz-adv-x="591" 
d="M525 339v-200q0 -70 -37 -106.5t-106 -36.5h-163q-70 0 -106.5 36.5t-36.5 106.5v419q0 70 36.5 106.5t106.5 36.5h163q69 0 106 -36.5t37 -106.5v-63h-70v70q0 74 -74 74h-160q-75 0 -75 -74v-433q0 -74 75 -74h160q74 0 74 74v149h-128v58h198zM378 831v59h47v-60
q0 -87 -97 -87h-56q-97 0 -97 87v60h47v-59q0 -47 53 -47h51q52 0 52 47z" />
    <glyph glyph-name="gbreve" unicode="&#x11f;" horiz-adv-x="525" 
d="M320 -194h-115q-63 0 -97.5 32.5t-34.5 93.5v18h66v-25q0 -64 67 -64h114q68 0 68 64v151l-51 -34q-32 -22 -76 -22h-74q-59 0 -91 32t-32 91v239q0 59 32 91t91 32h74q45 0 76 -22l53 -36l5 54h59v-565q0 -130 -134 -130zM195 79h67q30 0 58 18l68 44v243l-68 44
q-28 18 -58 18h-67q-65 0 -65 -64v-239q0 -64 65 -64zM338 651v59h47v-60q0 -87 -97 -87h-56q-97 0 -97 87v60h47v-59q0 -47 52 -47h51q53 0 53 47z" />
    <glyph glyph-name="Gdotaccent" unicode="&#x120;" horiz-adv-x="591" 
d="M525 339v-200q0 -70 -37 -106.5t-106 -36.5h-163q-70 0 -106.5 36.5t-36.5 106.5v419q0 70 36.5 106.5t106.5 36.5h163q69 0 106 -36.5t37 -106.5v-63h-70v70q0 74 -74 74h-160q-75 0 -75 -74v-433q0 -74 75 -74h160q74 0 74 74v149h-128v58h198zM333 787h-67v90h67v-90z
" />
    <glyph glyph-name="gdotaccent" unicode="&#x121;" horiz-adv-x="525" 
d="M320 -194h-115q-63 0 -97.5 32.5t-34.5 93.5v18h66v-25q0 -64 67 -64h114q68 0 68 64v151l-51 -34q-32 -22 -76 -22h-74q-59 0 -91 32t-32 91v239q0 59 32 91t91 32h74q45 0 76 -22l53 -36l5 54h59v-565q0 -130 -134 -130zM195 79h67q30 0 58 18l68 44v243l-68 44
q-28 18 -58 18h-67q-65 0 -65 -64v-239q0 -64 65 -64zM294 595h-67v91h67v-91z" />
    <glyph glyph-name="uni0122" unicode="&#x122;" horiz-adv-x="591" 
d="M525 339v-200q0 -70 -37 -106.5t-106 -36.5h-163q-70 0 -106.5 36.5t-36.5 106.5v419q0 70 36.5 106.5t106.5 36.5h163q69 0 106 -36.5t37 -106.5v-63h-70v70q0 74 -74 74h-160q-75 0 -75 -74v-433q0 -74 75 -74h160q74 0 74 74v149h-128v58h198zM267 -37h71v-23
l-57 -141h-42z" />
    <glyph glyph-name="uni0123" unicode="&#x123;" horiz-adv-x="525" 
d="M278 571h-71v23l57 141h42zM320 -194h-115q-63 0 -97.5 32.5t-34.5 93.5v18h66v-25q0 -64 67 -64h114q68 0 68 64v151l-51 -34q-32 -22 -76 -22h-74q-59 0 -91 32t-32 91v239q0 59 32 91t91 32h74q45 0 76 -22l53 -36l5 54h59v-565q0 -130 -134 -130zM195 79h67
q30 0 58 18l68 44v243l-68 44q-28 18 -58 18h-67q-65 0 -65 -64v-239q0 -64 65 -64z" />
    <glyph glyph-name="Hcircumflex" unicode="&#x124;" horiz-adv-x="634" 
d="M547 0h-70v331h-320v-331h-70v697h70v-305h320v305h70v-697zM431 745h-48l-65 88l-65 -88h-47l85 132h54z" />
    <glyph glyph-name="hcircumflex" unicode="&#x125;" horiz-adv-x="531" 
d="M206 428l-68 -44v-384h-67v697h67v-247l51 33q35 22 75 22h75q59 0 90.5 -31.5t31.5 -91.5v-382h-67v382q0 64 -64 64h-66q-31 0 -58 -18zM219 732h-48l-65 88l-65 -88h-47l86 132h53z" />
    <glyph glyph-name="Hbar" unicode="&#x126;" horiz-adv-x="644" 
d="M92 559h-56v44h56v94h70v-94h320v94h70v-94h57v-44h-57v-559h-70v331h-320v-331h-70v559zM162 559v-167h320v167h-320z" />
    <glyph glyph-name="hbar" unicode="&#x127;" horiz-adv-x="531" 
d="M72 569h-68v44h68v84h67v-84h117v-44h-117v-119l51 33q35 22 75 22h75q59 0 90.5 -31.5t31.5 -91.5v-382h-67v382q0 64 -64 64h-66q-31 0 -58 -18l-68 -44v-384h-67v569z" />
    <glyph glyph-name="Itilde" unicode="&#x128;" horiz-adv-x="243" 
d="M157 0h-70v697h70v-697zM195 799h14q27 0 27 25v39h43v-47q0 -62 -65 -62h-23q-28 0 -53 16l-52 34q-19 13 -37 13h-14q-28 0 -28 -25v-38h-43v46q0 63 65 63h26q26 0 51 -16l52 -34q22 -14 37 -14z" />
    <glyph glyph-name="itilde" unicode="&#x129;" horiz-adv-x="211" 
d="M180 633h14q28 0 28 24v40h42v-47q0 -63 -64 -63h-24q-26 0 -52 17l-53 33q-19 13 -37 13h-14q-27 0 -27 -25v-38h-44v46q0 64 65 64h26q22 0 51 -17l52 -34q22 -13 37 -13zM139 0h-67v501h67v-501z" />
    <glyph glyph-name="Imacron" unicode="&#x12a;" horiz-adv-x="243" 
d="M157 0h-70v697h70v-697zM249 793h-252v48h252v-48z" />
    <glyph glyph-name="imacron" unicode="&#x12b;" horiz-adv-x="211" 
d="M139 0h-67v501h67v-501zM233 598h-252v48h252v-48z" />
    <glyph glyph-name="Iogonek" unicode="&#x12e;" horiz-adv-x="243" 
d="M157 697v-697h-9l-94 -61q-28 -19 -28 -41v-14q0 -27 36 -27h95v-47h-105q-80 0 -80 65v16q0 40 47 72l68 43v691h70z" />
    <glyph glyph-name="iogonek" unicode="&#x12f;" horiz-adv-x="211" 
d="M139 501v-501h-14l-94 -61q-28 -19 -28 -41v-14q0 -27 36 -27h95v-47h-105q-80 0 -80 65v16q0 40 47 72l76 48v490h67zM141 595h-71v102h71v-102z" />
    <glyph glyph-name="Idot" unicode="&#x130;" horiz-adv-x="243" 
d="M155 787h-67v90h67v-90zM157 0h-70v697h70v-697z" />
    <glyph glyph-name="dotlessi" unicode="&#x131;" horiz-adv-x="210" 
d="M138 0h-67v501h67v-501z" />
    <glyph glyph-name="IJ" unicode="&#x132;" horiz-adv-x="772" 
d="M618 133v564h70v-558q0 -70 -36.5 -106.5t-105.5 -36.5h-127q-69 0 -106 36.5t-37 106.5v82h70v-88q0 -75 75 -75h122q75 0 75 75zM157 0h-70v697h70v-697z" />
    <glyph glyph-name="ij" unicode="&#x133;" horiz-adv-x="420" 
d="M215 -190h-57v59h57q66 0 66 68v564h67v-557q0 -65 -34.5 -99.5t-98.5 -34.5zM350 595h-71v102h71v-102zM138 0h-67v501h67v-501zM140 595h-71v102h71v-102z" />
    <glyph glyph-name="Jcircumflex" unicode="&#x134;" horiz-adv-x="528" 
d="M375 133v564h70v-558q0 -70 -36.5 -106.5t-105.5 -36.5h-127q-69 0 -106 36.5t-37 106.5v82h70v-88q0 -75 75 -75h122q75 0 75 75zM521 745h-48l-65 88l-65 -88h-47l85 132h54z" />
    <glyph glyph-name="jcircumflex" unicode="&#x135;" horiz-adv-x="211" 
d="M6 -190h-57v59h57q66 0 66 68v564h67v-557q0 -65 -34.5 -99.5t-98.5 -34.5zM220 565h-48l-65 88l-65 -88h-47l86 132h53z" />
    <glyph glyph-name="uni0136" unicode="&#x136;" horiz-adv-x="605" 
d="M465 170l-140 162h-168v-332h-70v697h70v-306h173l133 128q15 15 15 48v130h67v-145q0 -33 -23 -61l-135 -130l143 -165q17 -20 17 -51v-145h-70v129q0 27 -12 41zM278 -37h71v-23l-57 -141h-42z" />
    <glyph glyph-name="uni0137" unicode="&#x137;" horiz-adv-x="510" 
d="M378 117l-133 122h-107v-239h-67v697h67v-400h105l133 106q20 15 20 41v57h61v-68q0 -37 -39 -69l-117 -94l131 -120q31 -28 31 -67v-83h-65v75q0 25 -20 42zM226 -37h71v-23l-57 -141h-42z" />
    <glyph glyph-name="kgreenlandic" unicode="&#x138;" horiz-adv-x="510" 
d="M378 117l-130 121h-110v-238h-67v501h67v-205h108l130 107q20 15 20 41v57h61v-68q0 -36 -39 -69l-116 -94l130 -120q31 -28 31 -67v-83h-65v75q0 22 -20 42z" />
    <glyph glyph-name="Lacute" unicode="&#x139;" horiz-adv-x="499" 
d="M487 0h-400v697h70v-636h330v-61zM144 877h66v-15l-67 -117h-47z" />
    <glyph glyph-name="lacute" unicode="&#x13a;" horiz-adv-x="212" 
d="M130 877h66v-15l-67 -117h-47zM73 0v697h67v-697h-67z" />
    <glyph glyph-name="uni013B" unicode="&#x13b;" horiz-adv-x="499" 
d="M487 0h-400v697h70v-636h330v-61zM253 -37h71v-23l-57 -141h-42z" />
    <glyph glyph-name="uni013C" unicode="&#x13c;" horiz-adv-x="212" 
d="M71 -37h71v-23l-57 -141h-42zM73 0v697h67v-697h-67z" />
    <glyph glyph-name="Lcaron" unicode="&#x13d;" horiz-adv-x="499" 
d="M487 0h-400v697h70v-636h330v-61zM252 697h63v-22l-50 -122h-39z" />
    <glyph glyph-name="lcaron" unicode="&#x13e;" horiz-adv-x="213" 
d="M216 697h63v-22l-50 -122h-39zM73 0v697h67v-697h-67z" />
    <glyph glyph-name="Ldot" unicode="&#x13f;" horiz-adv-x="500" 
d="M487 0h-400v697h70v-636h330v-61zM409 314h-74v97h74v-97z" />
    <glyph glyph-name="ldot" unicode="&#x140;" horiz-adv-x="350" 
d="M321 314h-74v97h74v-97zM73 0v697h67v-697h-67z" />
    <glyph glyph-name="Lslash" unicode="&#x141;" horiz-adv-x="505" 
d="M493 0h-400v326l-87 -40v59l87 40v312h70v-280l185 86v-59l-185 -86v-297h330v-61z" />
    <glyph glyph-name="lslash" unicode="&#x142;" horiz-adv-x="273" 
d="M108 426v271h67v-237l88 45v-59l-88 -45v-401h-67v367l-86 -44v59z" />
    <glyph glyph-name="Nacute" unicode="&#x143;" horiz-adv-x="634" 
d="M547 0h-64l-332 570v-570h-64v697h66l329 -570v570h65v-697zM340 877h66v-15l-67 -117h-47z" />
    <glyph glyph-name="nacute" unicode="&#x144;" horiz-adv-x="531" 
d="M330 446h-66q-29 0 -58 -18l-68 -44v-384h-67v501h61l3 -54l54 36q32 22 75 22h75q59 0 90.5 -31.5t31.5 -91.5v-382h-67v382q0 64 -64 64zM289 697h66v-15l-68 -117h-46z" />
    <glyph glyph-name="uni0145" unicode="&#x145;" horiz-adv-x="634" 
d="M547 0h-64l-332 570v-570h-64v697h66l329 -570v570h65v-697zM284 -37h71v-23l-57 -141h-42z" />
    <glyph glyph-name="uni0146" unicode="&#x146;" horiz-adv-x="531" 
d="M330 446h-66q-29 0 -58 -18l-68 -44v-384h-67v501h61l3 -54l54 36q32 22 75 22h75q59 0 90.5 -31.5t31.5 -91.5v-382h-67v382q0 64 -64 64zM233 -37h71v-23l-57 -141h-42z" />
    <glyph glyph-name="Ncaron" unicode="&#x147;" horiz-adv-x="634" 
d="M547 0h-64l-332 570v-570h-64v697h66l329 -570v570h65v-697zM343 760h-53l-86 132h47l65 -88l65 88h48z" />
    <glyph glyph-name="ncaron" unicode="&#x148;" horiz-adv-x="531" 
d="M330 446h-66q-29 0 -58 -18l-68 -44v-384h-67v501h61l3 -54l54 36q32 22 75 22h75q59 0 90.5 -31.5t31.5 -91.5v-382h-67v382q0 64 -64 64zM293 565h-53l-86 132h47l65 -88l65 88h48z" />
    <glyph glyph-name="napostrophe" unicode="&#x149;" horiz-adv-x="531" 
d="M330 446h-66q-29 0 -58 -18l-68 -44v-384h-67v501h61l3 -54l54 36q32 22 75 22h75q59 0 90.5 -31.5t31.5 -91.5v-382h-67v382q0 64 -64 64zM16 673h71v-23l-57 -141h-42z" />
    <glyph glyph-name="Omacron" unicode="&#x14c;" horiz-adv-x="612" 
d="M394 -4h-175q-70 0 -106.5 36.5t-36.5 106.5v419q0 70 36.5 106.5t106.5 36.5h175q69 0 105.5 -36.5t36.5 -106.5v-419q0 -70 -36.5 -106.5t-105.5 -36.5zM146 565v-430q0 -77 75 -77h170q75 0 75 74v433q0 74 -75 74h-170q-75 0 -75 -74zM433 774h-252v48h252v-48z" />
    <glyph glyph-name="omacron" unicode="&#x14d;" horiz-adv-x="514" 
d="M318 -4h-123q-64 0 -98.5 34t-34.5 100v241q0 65 34.5 99.5t98.5 34.5h123q65 0 99 -34.5t34 -99.5v-241q0 -134 -133 -134zM197 54h120q32 0 49.5 18t17.5 49v259q0 67 -67 67h-120q-68 0 -68 -67v-259q0 -67 68 -67zM384 598h-252v48h252v-48z" />
    <glyph glyph-name="Obreve" unicode="&#x14e;" horiz-adv-x="612" 
d="M394 -4h-175q-70 0 -106.5 36.5t-36.5 106.5v419q0 70 36.5 106.5t106.5 36.5h175q69 0 105.5 -36.5t36.5 -106.5v-419q0 -70 -36.5 -106.5t-105.5 -36.5zM146 565v-430q0 -77 75 -77h170q75 0 75 74v433q0 74 -75 74h-170q-75 0 -75 -74zM384 831v59h47v-60
q0 -87 -97 -87h-56q-97 0 -97 87v60h47v-59q0 -47 53 -47h51q52 0 52 47z" />
    <glyph glyph-name="obreve" unicode="&#x14f;" horiz-adv-x="514" 
d="M318 -4h-123q-64 0 -98.5 34t-34.5 100v241q0 65 34.5 99.5t98.5 34.5h123q65 0 99 -34.5t34 -99.5v-241q0 -134 -133 -134zM197 54h120q32 0 49.5 18t17.5 49v259q0 67 -67 67h-120q-68 0 -68 -67v-259q0 -67 68 -67zM335 651v59h47v-60q0 -87 -97 -87h-56q-97 0 -97 87
v60h47v-59q0 -47 52 -47h51q53 0 53 47z" />
    <glyph glyph-name="Ohungarumlaut" unicode="&#x150;" horiz-adv-x="612" 
d="M394 -4h-175q-70 0 -106.5 36.5t-36.5 106.5v419q0 70 36.5 106.5t106.5 36.5h175q69 0 105.5 -36.5t36.5 -106.5v-419q0 -70 -36.5 -106.5t-105.5 -36.5zM146 565v-430q0 -77 75 -77h170q75 0 75 74v433q0 74 -75 74h-170q-75 0 -75 -74zM279 892h60v-15l-64 -117h-40z
M401 892h60v-15l-97 -117h-40z" />
    <glyph glyph-name="ohungarumlaut" unicode="&#x151;" horiz-adv-x="514" 
d="M318 -4h-123q-64 0 -98.5 34t-34.5 100v241q0 65 34.5 99.5t98.5 34.5h123q65 0 99 -34.5t34 -99.5v-241q0 -134 -133 -134zM197 54h120q32 0 49.5 18t17.5 49v259q0 67 -67 67h-120q-68 0 -68 -67v-259q0 -67 68 -67zM227 697h60v-15l-64 -117h-40zM349 697h60v-15
l-97 -117h-40z" />
    <glyph glyph-name="OE" unicode="&#x152;" horiz-adv-x="939" 
d="M896 0h-430v10q-33 -14 -72 -14h-175q-70 0 -106.5 36.5t-36.5 106.5v419q0 70 36.5 106.5t106.5 36.5h175q42 0 72 -15v11h420v-61h-350v-245h328v-59h-328v-271h360v-61zM146 565v-430q0 -77 75 -77h170q75 0 75 74v440q-4 67 -75 67h-170q-75 0 -75 -74z" />
    <glyph glyph-name="oe" unicode="&#x153;" horiz-adv-x="825" 
d="M766 156v-29q0 -64 -34 -97.5t-98 -33.5h-116q-72 0 -101 48q-30 -48 -100 -48h-122q-64 0 -98.5 34t-34.5 100v241q0 65 34.5 99.5t98.5 34.5h122q69 0 100 -49q28 49 101 49h116q64 0 98 -34.5t34 -99.5v-134h-315v-118q0 -68 68 -68h114q68 0 68 68v37h65zM197 54h120
q32 0 49.5 18t17.5 49v259q0 67 -67 67h-120q-68 0 -68 -67v-259q0 -67 68 -67zM451 382v-90h251v90q0 68 -68 68h-115q-68 0 -68 -68z" />
    <glyph glyph-name="Racute" unicode="&#x154;" horiz-adv-x="582" 
d="M522 0h-75l-101 285h-189v-285h-70v697h292q69 0 105.5 -36.5t36.5 -106.5v-126q0 -120 -104 -140zM377 636h-220v-290h220q74 0 74 75v140q0 75 -74 75zM318 877h66v-15l-67 -117h-47z" />
    <glyph glyph-name="racute" unicode="&#x155;" horiz-adv-x="353" 
d="M138 364v-364h-67v501h61l5 -67l64 49q28 22 76 22h67v-59h-65q-34 0 -58 -18zM223 697h66v-15l-68 -117h-46z" />
    <glyph glyph-name="uni0156" unicode="&#x156;" horiz-adv-x="582" 
d="M522 0h-75l-101 285h-189v-285h-70v697h292q69 0 105.5 -36.5t36.5 -106.5v-126q0 -120 -104 -140zM377 636h-220v-290h220q74 0 74 75v140q0 75 -74 75zM266 -37h71v-23l-57 -141h-42z" />
    <glyph glyph-name="uni0157" unicode="&#x157;" horiz-adv-x="353" 
d="M138 364v-364h-67v501h61l5 -67l64 49q28 22 76 22h67v-59h-65q-34 0 -58 -18zM70 -37h71v-23l-57 -141h-42z" />
    <glyph glyph-name="Rcaron" unicode="&#x158;" horiz-adv-x="582" 
d="M522 0h-75l-101 285h-189v-285h-70v697h292q69 0 105.5 -36.5t36.5 -106.5v-126q0 -120 -104 -140zM377 636h-220v-290h220q74 0 74 75v140q0 75 -74 75zM310 760h-53l-86 132h47l65 -88l65 88h48z" />
    <glyph glyph-name="rcaron" unicode="&#x159;" horiz-adv-x="353" 
d="M138 364v-364h-67v501h61l5 -67l64 49q28 22 76 22h67v-59h-65q-34 0 -58 -18zM226 565h-53l-86 132h47l65 -88l65 88h48z" />
    <glyph glyph-name="Sacute" unicode="&#x15a;" horiz-adv-x="578" 
d="M65 481v94q0 61 37 93.5t107 32.5h158q69 0 106 -32.5t37 -93.5v-78h-69v82q0 62 -77 62h-153q-77 0 -77 -62v-93q0 -28 9.5 -41.5t33.5 -19.5l249 -66q90 -24 90 -110v-127q0 -61 -37 -93.5t-107 -32.5h-170q-69 0 -106 32.5t-37 93.5v72h69v-76q0 -62 77 -62h165
q76 0 76 62v122q0 44 -42 56l-252 68q-87 22 -87 117zM307 877h66v-15l-67 -117h-47z" />
    <glyph glyph-name="sacute" unicode="&#x15b;" horiz-adv-x="490" 
d="M53 114v43h66v-50q0 -57 67 -57h116q68 0 68 55v57q0 33 -34 42l-201 49q-76 18 -76 90v48q0 55 34 84.5t99 29.5h106q64 0 98 -30.5t34 -87.5v-32h-66v39q0 56 -67 56h-105q-67 0 -67 -54v-49q0 -17 7.5 -25t26.5 -14l200 -49q76 -18 76 -88v-61q0 -114 -134 -114h-116
q-64 0 -98 30.5t-34 87.5zM263 697h66v-15l-68 -117h-46z" />
    <glyph glyph-name="Scircumflex" unicode="&#x15c;" horiz-adv-x="578" 
d="M65 481v94q0 61 37 93.5t107 32.5h158q69 0 106 -32.5t37 -93.5v-78h-69v82q0 62 -77 62h-153q-77 0 -77 -62v-93q0 -28 9.5 -41.5t33.5 -19.5l249 -66q90 -24 90 -110v-127q0 -61 -37 -93.5t-107 -32.5h-170q-69 0 -106 32.5t-37 93.5v72h69v-76q0 -62 77 -62h165
q76 0 76 62v122q0 44 -42 56l-252 68q-87 22 -87 117zM401 745h-48l-65 88l-65 -88h-47l85 132h54z" />
    <glyph glyph-name="scircumflex" unicode="&#x15d;" horiz-adv-x="490" 
d="M53 114v43h66v-50q0 -57 67 -57h116q68 0 68 55v57q0 33 -34 42l-201 49q-76 18 -76 90v48q0 55 34 84.5t99 29.5h106q64 0 98 -30.5t34 -87.5v-32h-66v39q0 56 -67 56h-105q-67 0 -67 -54v-49q0 -17 7.5 -25t26.5 -14l200 -49q76 -18 76 -88v-61q0 -114 -134 -114h-116
q-64 0 -98 30.5t-34 87.5zM356 565h-48l-65 88l-65 -88h-47l86 132h53z" />
    <glyph glyph-name="Scedilla" unicode="&#x15e;" horiz-adv-x="578" 
d="M65 481v94q0 61 37 93.5t107 32.5h158q69 0 106 -32.5t37 -93.5v-78h-69v82q0 62 -77 62h-153q-77 0 -77 -62v-93q0 -28 9.5 -41.5t33.5 -19.5l249 -66q90 -24 90 -110v-127q0 -61 -37 -93.5t-107 -32.5h-70l-20 -47h48q68 0 68 -57v-25q0 -56 -67 -56h-117v40h111
q27 0 27 23v11q0 24 -28 24h-78q-18 0 -18 15v7q0 4 5 16l22 49h-53q-69 0 -106 32.5t-37 93.5v72h69v-76q0 -62 77 -62h165q76 0 76 62v122q0 44 -42 56l-252 68q-87 22 -87 117z" />
    <glyph glyph-name="scedilla" unicode="&#x15f;" horiz-adv-x="490" 
d="M53 114v43h66v-50q0 -57 67 -57h116q68 0 68 55v57q0 33 -34 42l-201 49q-76 18 -76 90v48q0 55 34 84.5t99 29.5h106q64 0 98 -30.5t34 -87.5v-32h-66v39q0 56 -67 56h-105q-67 0 -67 -54v-49q0 -17 7.5 -25t26.5 -14l200 -49q76 -18 76 -88v-61q0 -114 -134 -114h-50
l-20 -47h48q68 0 68 -57v-25q0 -56 -67 -56h-117v40h111q27 0 27 23v11q0 24 -28 24h-78q-18 0 -18 15v7q0 4 5 16l22 49h-19q-64 0 -98 30.5t-34 87.5z" />
    <glyph glyph-name="Scaron" unicode="&#x160;" horiz-adv-x="578" 
d="M65 481v94q0 61 37 93.5t107 32.5h158q69 0 106 -32.5t37 -93.5v-78h-69v82q0 62 -77 62h-153q-77 0 -77 -62v-93q0 -28 9.5 -41.5t33.5 -19.5l249 -66q90 -24 90 -110v-127q0 -61 -37 -93.5t-107 -32.5h-170q-69 0 -106 32.5t-37 93.5v72h69v-76q0 -62 77 -62h165
q76 0 76 62v122q0 44 -42 56l-252 68q-87 22 -87 117zM313 760h-53l-86 132h47l65 -88l65 88h48z" />
    <glyph glyph-name="scaron" unicode="&#x161;" horiz-adv-x="490" 
d="M53 114v43h66v-50q0 -57 67 -57h116q68 0 68 55v57q0 33 -34 42l-201 49q-76 18 -76 90v48q0 55 34 84.5t99 29.5h106q64 0 98 -30.5t34 -87.5v-32h-66v39q0 56 -67 56h-105q-67 0 -67 -54v-49q0 -17 7.5 -25t26.5 -14l200 -49q76 -18 76 -88v-61q0 -114 -134 -114h-116
q-64 0 -98 30.5t-34 87.5zM269 565h-53l-86 132h47l65 -88l65 88h48z" />
    <glyph glyph-name="uni0162" unicode="&#x162;" horiz-adv-x="499" 
d="M475 697v-61h-190v-636h-17l-22 -51h48q68 0 68 -57v-25q0 -56 -67 -56h-117v40h111q27 0 27 23v11q0 24 -28 24h-78q-18 0 -18 15v7q0 4 5 16l24 53h-7v636h-190v61h451z" />
    <glyph glyph-name="uni0163" unicode="&#x163;" horiz-adv-x="347" 
d="M240 59h86v-59h-89q-15 0 -19 1l-23 -52h48q68 0 68 -57v-25q0 -56 -67 -56h-117v40h111q27 0 27 23v11q0 24 -28 24h-78q-18 0 -18 15v7q0 4 5 16l29 64q-68 27 -68 120v308h-84v59h84v142h67v-142h151v-59h-151v-314q0 -66 66 -66z" />
    <glyph glyph-name="Tcaron" unicode="&#x164;" horiz-adv-x="499" 
d="M475 697v-61h-190v-636h-71v636h-190v61h451zM276 760h-53l-86 132h47l65 -88l65 88h48z" />
    <glyph glyph-name="tcaron" unicode="&#x165;" horiz-adv-x="347" 
d="M240 59h86v-59h-89q-63 0 -96.5 34t-33.5 97v308h-84v59h84v142h67v-142h151v-59h-151v-314q0 -66 66 -66zM288 697h63v-22l-50 -122h-39z" />
    <glyph glyph-name="Tbar" unicode="&#x166;" horiz-adv-x="521" 
d="M486 697v-61h-190v-244h161v-50h-161v-342h-71v342h-159v50h159v244h-190v61h451z" />
    <glyph glyph-name="tbar" unicode="&#x167;" horiz-adv-x="352" 
d="M110 283h-78v47h78v109h-84v59h84v142h67v-142h151v-59h-151v-109h145v-47h-145v-158q0 -66 66 -66h86v-59h-89q-63 0 -96.5 34t-33.5 97v152z" />
    <glyph glyph-name="Utilde" unicode="&#x168;" horiz-adv-x="626" 
d="M386 799h14q27 0 27 25v39h43v-47q0 -62 -65 -62h-23q-28 0 -53 16l-52 34q-19 13 -37 13h-14q-28 0 -28 -25v-38h-43v46q0 63 65 63h26q26 0 51 -16l52 -34q22 -14 37 -14zM473 133v564h70v-558q0 -70 -36.5 -106.5t-105.5 -36.5h-175q-70 0 -106.5 36.5t-36.5 106.5
v558h70v-564q0 -75 75 -75h170q75 0 75 75z" />
    <glyph glyph-name="utilde" unicode="&#x169;" 
d="M390 54l-53 -36q-32 -22 -76 -22h-69q-59 0 -91 31.5t-32 91.5v382h67v-382q0 -64 65 -64h61q31 0 58 18l67 44v384h67v-501h-60zM338 633h14q28 0 28 24v40h42v-47q0 -63 -64 -63h-24q-26 0 -52 17l-53 33q-19 13 -37 13h-14q-27 0 -27 -25v-38h-44v46q0 64 65 64h26
q22 0 51 -17l52 -34q22 -13 37 -13z" />
    <glyph glyph-name="Umacron" unicode="&#x16a;" horiz-adv-x="626" 
d="M473 133v564h70v-558q0 -70 -36.5 -106.5t-105.5 -36.5h-175q-70 0 -106.5 36.5t-36.5 106.5v558h70v-564q0 -75 75 -75h170q75 0 75 75zM439 774h-252v48h252v-48z" />
    <glyph glyph-name="umacron" unicode="&#x16b;" 
d="M390 54l-53 -36q-32 -22 -76 -22h-69q-59 0 -91 31.5t-32 91.5v382h67v-382q0 -64 65 -64h61q31 0 58 18l67 44v384h67v-501h-60zM390 598h-252v48h252v-48z" />
    <glyph glyph-name="Ubreve" unicode="&#x16c;" horiz-adv-x="626" 
d="M473 133v564h70v-558q0 -70 -36.5 -106.5t-105.5 -36.5h-175q-70 0 -106.5 36.5t-36.5 106.5v558h70v-564q0 -75 75 -75h170q75 0 75 75zM391 831v59h47v-60q0 -87 -97 -87h-56q-97 0 -97 87v60h47v-59q0 -47 53 -47h51q52 0 52 47z" />
    <glyph glyph-name="ubreve" unicode="&#x16d;" 
d="M390 54l-53 -36q-32 -22 -76 -22h-69q-59 0 -91 31.5t-32 91.5v382h67v-382q0 -64 65 -64h61q31 0 58 18l67 44v384h67v-501h-60zM342 651v59h47v-60q0 -87 -97 -87h-56q-97 0 -97 87v60h47v-59q0 -47 52 -47h51q53 0 53 47z" />
    <glyph glyph-name="Uring" unicode="&#x16e;" horiz-adv-x="626" 
d="M293 936h35q83 0 83 -78v-29q0 -80 -83 -80h-35q-83 0 -83 80v29q0 78 83 78zM328 897h-36q-40 0 -40 -40v-29q0 -39 40 -39h36q40 0 40 39v29q0 40 -40 40zM473 133v564h70v-558q0 -70 -36.5 -106.5t-105.5 -36.5h-175q-70 0 -106.5 36.5t-36.5 106.5v558h70v-564
q0 -75 75 -75h170q75 0 75 75z" />
    <glyph glyph-name="uring" unicode="&#x16f;" 
d="M390 54l-53 -36q-32 -22 -76 -22h-69q-59 0 -91 31.5t-32 91.5v382h67v-382q0 -64 65 -64h61q31 0 58 18l67 44v384h67v-501h-60zM245 741h35q83 0 83 -78v-29q0 -80 -83 -80h-35q-83 0 -83 80v29q0 78 83 78zM280 702h-36q-40 0 -40 -40v-29q0 -39 40 -39h36q40 0 40 39
v29q0 40 -40 40z" />
    <glyph glyph-name="Uhungarumlaut" unicode="&#x170;" horiz-adv-x="626" 
d="M473 133v564h70v-558q0 -70 -36.5 -106.5t-105.5 -36.5h-175q-70 0 -106.5 36.5t-36.5 106.5v558h70v-564q0 -75 75 -75h170q75 0 75 75zM293 892h60v-15l-64 -117h-40zM415 892h60v-15l-97 -117h-40z" />
    <glyph glyph-name="uhungarumlaut" unicode="&#x171;" 
d="M390 54l-53 -36q-32 -22 -76 -22h-69q-59 0 -91 31.5t-32 91.5v382h67v-382q0 -64 65 -64h61q31 0 58 18l67 44v384h67v-501h-60zM238 697h60v-15l-64 -117h-40zM360 697h60v-15l-97 -117h-40z" />
    <glyph glyph-name="Uogonek" unicode="&#x172;" horiz-adv-x="627" 
d="M509 -143v-47h-105q-80 0 -80 65v16q0 22 17 46q8 8 9 10l20 16l40 34q-2 -1 -12 -1h-172q-69 0 -105.5 36.5t-36.5 106.5v558h70v-564q0 -75 75 -75h170q75 0 75 75v564h70v-558q0 -73 -47 -117l-92 -83q-2 -2 -9 -8t-9.5 -9.5t-5.5 -10t-3 -13.5v-14q0 -27 35 -27h96z
" />
    <glyph glyph-name="uogonek" unicode="&#x173;" 
d="M390 54l-53 -36q-32 -22 -76 -22h-69q-59 0 -91 31.5t-32 91.5v382h67v-382q0 -64 65 -64h61q31 0 58 18l67 44v384h67v-501h-9l-94 -61q-28 -19 -28 -41v-14q0 -27 36 -27h95v-47h-105q-80 0 -80 65v16q0 40 47 72l77 48z" />
    <glyph glyph-name="Wcircumflex" unicode="&#x174;" horiz-adv-x="785" 
d="M665 545v152h68v-160q0 -32 -10 -61l-141 -476h-69l-121 404l-119 -404h-69l-142 476q-10 29 -10 61v160h68v-152q0 -24 8 -51l112 -402l112 402q9 28 9 51v152h64v-152q0 -24 8 -51l112 -402l113 402q7 21 7 51zM505 745h-48l-65 88l-65 -88h-47l85 132h54z" />
    <glyph glyph-name="wcircumflex" unicode="&#x175;" horiz-adv-x="713" 
d="M251 0h-68l-123 324q-13 33 -13 56v121h65v-114q0 -18 10 -47l97 -267l97 267q9 27 9 47v114h64v-114q0 -18 10 -47l97 -267l97 267q9 27 9 47v114h64v-121q0 -23 -13 -56l-123 -324h-68l-105 276zM469 565h-48l-65 88l-65 -88h-47l86 132h53z" />
    <glyph glyph-name="Ycircumflex" unicode="&#x176;" horiz-adv-x="548" 
d="M310 248v-248h-71v247l-180 263q-16 22 -16 65v122h70v-115q0 -33 14 -55l150 -218l147 214q15 23 15 55v119h68v-122q0 -37 -17 -65zM387 745h-48l-65 88l-65 -88h-47l85 132h54z" />
    <glyph glyph-name="ycircumflex" unicode="&#x177;" horiz-adv-x="485" 
d="M139 -190h-64v58h53q38 0 54 39l34 82l-158 335q-13 25 -13 56v121h67v-114q0 -29 9 -47l128 -273l115 273q9 22 9 47v114h65v-121q0 -24 -12 -56l-181 -425q-20 -48 -44.5 -68.5t-61.5 -20.5zM352 565h-48l-65 88l-65 -88h-47l86 132h53z" />
    <glyph glyph-name="Ydieresis" unicode="&#x178;" horiz-adv-x="548" 
d="M310 248v-248h-71v247l-180 263q-16 22 -16 65v122h70v-115q0 -33 14 -55l150 -218l147 214q15 23 15 55v119h68v-122q0 -37 -17 -65zM247 771h-56v79h56v-79zM357 771h-56v79h56v-79z" />
    <glyph glyph-name="Zacute" unicode="&#x179;" horiz-adv-x="524" 
d="M492 61v-61h-462v60l373 576h-357v61h436v-61l-373 -575h383zM283 877h66v-15l-67 -117h-47z" />
    <glyph glyph-name="zacute" unicode="&#x17a;" horiz-adv-x="455" 
d="M411 449l-292 -392h298v-57h-379v51l292 393h-284v57h365v-52zM252 697h66v-15l-68 -117h-46z" />
    <glyph glyph-name="Zdotaccent" unicode="&#x17b;" horiz-adv-x="524" 
d="M492 61v-61h-462v60l373 576h-357v61h436v-61l-373 -575h383zM295 787h-67v90h67v-90z" />
    <glyph glyph-name="zdotaccent" unicode="&#x17c;" horiz-adv-x="455" 
d="M411 449l-292 -392h298v-57h-379v51l292 393h-284v57h365v-52zM260 595h-67v91h67v-91z" />
    <glyph glyph-name="Zcaron" unicode="&#x17d;" horiz-adv-x="524" 
d="M492 61v-61h-462v60l373 576h-357v61h436v-61l-373 -575h383zM288 760h-53l-86 132h47l65 -88l65 88h48z" />
    <glyph glyph-name="zcaron" unicode="&#x17e;" horiz-adv-x="455" 
d="M411 449l-292 -392h298v-57h-379v51l292 393h-284v57h365v-52zM254 565h-53l-86 132h47l65 -88l65 88h48z" />
    <glyph glyph-name="longs" unicode="&#x17f;" horiz-adv-x="265" 
d="M173 570v-570h-67v439h-81v59h81v65q0 134 134 134h80v-59h-81q-66 0 -66 -68z" />
    <glyph glyph-name="florin" unicode="&#x192;" horiz-adv-x="447" 
d="M227 337l-79 -393q-13 -69 -51.5 -101.5t-107.5 -32.5h-60l11 59h59q67 0 81 68l80 400h-106l10 58h106l34 168q14 70 52.5 102t108.5 32h69l-10 -59h-70q-66 0 -80 -68l-36 -175h144l-10 -58h-145z" />
    <glyph glyph-name="uni0218" unicode="&#x218;" horiz-adv-x="578" 
d="M65 481v94q0 61 37 93.5t107 32.5h158q69 0 106 -32.5t37 -93.5v-78h-69v82q0 62 -77 62h-153q-77 0 -77 -62v-93q0 -28 9.5 -41.5t33.5 -19.5l249 -66q90 -24 90 -110v-127q0 -61 -37 -93.5t-107 -32.5h-170q-69 0 -106 32.5t-37 93.5v72h69v-76q0 -62 77 -62h165
q76 0 76 62v122q0 44 -42 56l-252 68q-87 22 -87 117zM255 -37h71v-23l-57 -141h-42z" />
    <glyph glyph-name="uni0219" unicode="&#x219;" horiz-adv-x="490" 
d="M53 114v43h66v-50q0 -57 67 -57h116q68 0 68 55v57q0 33 -34 42l-201 49q-76 18 -76 90v48q0 55 34 84.5t99 29.5h106q64 0 98 -30.5t34 -87.5v-32h-66v39q0 56 -67 56h-105q-67 0 -67 -54v-49q0 -17 7.5 -25t26.5 -14l200 -49q76 -18 76 -88v-61q0 -114 -134 -114h-116
q-64 0 -98 30.5t-34 87.5zM209 -37h71v-23l-57 -141h-42z" />
    <glyph glyph-name="uni021A" unicode="&#x21a;" horiz-adv-x="499" 
d="M475 697v-61h-190v-636h-71v636h-190v61h451zM214 -37h71v-23l-57 -141h-42z" />
    <glyph glyph-name="uni021B" unicode="&#x21b;" horiz-adv-x="347" 
d="M240 59h86v-59h-89q-63 0 -96.5 34t-33.5 97v308h-84v59h84v142h67v-142h151v-59h-151v-314q0 -66 66 -66zM166 -37h71v-23l-57 -141h-42z" />
    <glyph glyph-name="uni0237" unicode="&#x237;" horiz-adv-x="210" 
d="M5 -190h-57v59h57q66 0 66 68v564h67v-557q0 -65 -34.5 -99.5t-98.5 -34.5z" />
    <glyph glyph-name="circumflex" unicode="&#x2c6;" horiz-adv-x="367" 
d="M296 565h-48l-65 88l-65 -88h-47l86 132h53z" />
    <glyph glyph-name="caron" unicode="&#x2c7;" horiz-adv-x="367" 
d="M210 565h-53l-86 132h47l65 -88l65 88h48z" />
    <glyph glyph-name="uni02C9" unicode="&#x2c9;" horiz-adv-x="351" 
d="M301 598h-252v48h252v-48z" />
    <glyph glyph-name="breve" unicode="&#x2d8;" horiz-adv-x="358" 
d="M256 651v59h47v-60q0 -87 -97 -87h-56q-97 0 -97 87v60h47v-59q0 -47 52 -47h51q53 0 53 47z" />
    <glyph glyph-name="dotaccent" unicode="&#x2d9;" horiz-adv-x="254" 
d="M161 595h-67v91h67v-91z" />
    <glyph glyph-name="ring" unicode="&#x2da;" horiz-adv-x="339" 
d="M152 741h35q83 0 83 -78v-29q0 -80 -83 -80h-35q-83 0 -83 80v29q0 78 83 78zM187 702h-36q-40 0 -40 -40v-29q0 -39 40 -39h36q40 0 40 39v29q0 40 -40 40z" />
    <glyph glyph-name="ogonek" unicode="&#x2db;" horiz-adv-x="302" 
d="M102 -37l100 63h17l15 -24l-97 -63q-28 -19 -28 -41v-14q0 -27 36 -27h95v-47h-105q-80 0 -80 65v16q0 40 47 72z" />
    <glyph glyph-name="tilde" unicode="&#x2dc;" horiz-adv-x="429" 
d="M288 633h14q28 0 28 24v40h42v-47q0 -63 -64 -63h-24q-26 0 -52 17l-53 33q-19 13 -37 13h-14q-27 0 -27 -25v-38h-44v46q0 64 65 64h26q22 0 51 -17l52 -34q22 -13 37 -13z" />
    <glyph glyph-name="hungarumlaut" unicode="&#x2dd;" horiz-adv-x="361" 
d="M112 697h60v-15l-64 -117h-40zM234 697h60v-15l-97 -117h-40z" />
    <glyph glyph-name="uni0394" unicode="&#x394;" horiz-adv-x="591" 
d="M558 0h-525l225 697h76zM469 60l-175 548l-174 -548h349z" />
    <glyph glyph-name="uni03A9" unicode="&#x3a9;" horiz-adv-x="629" 
d="M254 57v-57h-197v53h86q-58 40 -58 142v363q0 70 36.5 106.5t106.5 36.5h175q69 0 105.5 -36.5t36.5 -106.5v-366q0 -100 -58 -139h80v-53h-197v57q58 3 81.5 30.5t23.5 89.5v388q0 74 -75 74h-170q-75 0 -75 -74v-386q0 -62 22.5 -90.5t76.5 -31.5z" />
    <glyph glyph-name="uni03BC" unicode="&#x3bc;" horiz-adv-x="529" 
d="M138 -190h-67v691h67v-382q0 -64 65 -64h62q31 0 58 18l67 44v384h67v-501h-60l-4 54l-53 -36q-31 -22 -76 -22h-70q-36 0 -59 15q3 -43 3 -92v-109z" />
    <glyph glyph-name="pi" unicode="&#x3c0;" horiz-adv-x="583" 
d="M486 0h-67v442h-255v-442h-67v442h-69v59h528v-59h-70v-442z" />
    <glyph glyph-name="Wgrave" unicode="&#x1e80;" horiz-adv-x="785" 
d="M665 545v152h68v-160q0 -32 -10 -61l-141 -476h-69l-121 404l-119 -404h-69l-142 476q-10 29 -10 61v160h68v-152q0 -24 8 -51l112 -402l112 402q9 28 9 51v152h64v-152q0 -24 8 -51l112 -402l113 402q7 21 7 51zM368 745l-68 117v15h66l48 -132h-46z" />
    <glyph glyph-name="wgrave" unicode="&#x1e81;" horiz-adv-x="713" 
d="M251 0h-68l-123 324q-13 33 -13 56v121h65v-114q0 -18 10 -47l97 -267l97 267q9 27 9 47v114h64v-114q0 -18 10 -47l97 -267l97 267q9 27 9 47v114h64v-121q0 -23 -13 -56l-123 -324h-68l-105 276zM335 565l-68 117v15h66l48 -132h-46z" />
    <glyph glyph-name="Wacute" unicode="&#x1e82;" horiz-adv-x="785" 
d="M665 545v152h68v-160q0 -32 -10 -61l-141 -476h-69l-121 404l-119 -404h-69l-142 476q-10 29 -10 61v160h68v-152q0 -24 8 -51l112 -402l112 402q9 28 9 51v152h64v-152q0 -24 8 -51l112 -402l113 402q7 21 7 51zM416 877h66v-15l-67 -117h-47z" />
    <glyph glyph-name="wacute" unicode="&#x1e83;" horiz-adv-x="713" 
d="M251 0h-68l-123 324q-13 33 -13 56v121h65v-114q0 -18 10 -47l97 -267l97 267q9 27 9 47v114h64v-114q0 -18 10 -47l97 -267l97 267q9 27 9 47v114h64v-121q0 -23 -13 -56l-123 -324h-68l-105 276zM381 697h66v-15l-68 -117h-46z" />
    <glyph glyph-name="Wdieresis" unicode="&#x1e84;" horiz-adv-x="785" 
d="M665 545v152h68v-160q0 -32 -10 -61l-141 -476h-69l-121 404l-119 -404h-69l-142 476q-10 29 -10 61v160h68v-152q0 -24 8 -51l112 -402l112 402q9 28 9 51v152h64v-152q0 -24 8 -51l112 -402l113 402q7 21 7 51zM364 771h-56v79h56v-79zM474 771h-56v79h56v-79z" />
    <glyph glyph-name="wdieresis" unicode="&#x1e85;" horiz-adv-x="713" 
d="M251 0h-68l-123 324q-13 33 -13 56v121h65v-114q0 -18 10 -47l97 -267l97 267q9 27 9 47v114h64v-114q0 -18 10 -47l97 -267l97 267q9 27 9 47v114h64v-121q0 -23 -13 -56l-123 -324h-68l-105 276zM328 593h-55v79h55v-79zM438 593h-55v79h55v-79z" />
    <glyph glyph-name="endash" unicode="&#x2013;" horiz-adv-x="480" 
d="M69 259v57h343v-57h-343z" />
    <glyph glyph-name="emdash" unicode="&#x2014;" horiz-adv-x="833" 
d="M69 260v56h696v-56h-696z" />
    <glyph glyph-name="quoteleft" unicode="&#x2018;" horiz-adv-x="207" 
d="M123 517h-70v23l58 157h43z" />
    <glyph glyph-name="quoteright" unicode="&#x2019;" horiz-adv-x="203" 
d="M87 697h70v-23l-58 -157h-43z" />
    <glyph glyph-name="quotesinglbase" unicode="&#x201a;" horiz-adv-x="210" 
d="M76 100h70v-23l-58 -157h-43z" />
    <glyph glyph-name="quotedblleft" unicode="&#x201c;" horiz-adv-x="337" 
d="M123 516h-70v23l59 157h42zM254 517h-70v23l59 157h42z" />
    <glyph glyph-name="quotedblright" unicode="&#x201d;" horiz-adv-x="335" 
d="M88 697h70v-23l-59 -157h-43zM219 697h70v-23l-59 -157h-43z" />
    <glyph glyph-name="quotedblbase" unicode="&#x201e;" horiz-adv-x="340" 
d="M76 100h70v-23l-59 -157h-43zM206 100h70v-23l-59 -157h-43z" />
    <glyph glyph-name="dagger" unicode="&#x2020;" horiz-adv-x="427" 
d="M250 385v-82l-11 -303h-51l-11 303v82l7 89h-154v53h154l-7 109v61h73v-61l-7 -109h154v-53h-154z" />
    <glyph glyph-name="daggerdbl" unicode="&#x2021;" horiz-adv-x="473" 
d="M266 170l7 -109v-61h-74v61l8 109h-154v53h154l-8 114v37l8 100h-154v53h154l-8 109v61h74v-61l-7 -109h154v-53h-155l8 -100v-37l-8 -114h155v-53h-154z" />
    <glyph glyph-name="bullet" unicode="&#x2022;" horiz-adv-x="294" 
d="M202 174h-110v144h110v-144z" />
    <glyph glyph-name="ellipsis" unicode="&#x2026;" horiz-adv-x="601" 
d="M142 0h-74v97h74v-97zM533 0h-74v97h74v-97zM337 0h-73v97h73v-97z" />
    <glyph glyph-name="perthousand" unicode="&#x2030;" horiz-adv-x="1074" 
d="M452 80v210q0 39 22 60.5t61 21.5h83q83 0 83 -82v-210q0 -82 -83 -82h-83q-39 0 -61 21.5t-22 60.5zM510 289v-209q0 -34 33 -34h67q34 0 34 34v209q0 34 -34 34h-67q-33 0 -33 -34zM50 408v210q0 39 22 60.5t61 21.5h83q83 0 83 -82v-210q0 -82 -83 -82h-83
q-39 0 -61 21.5t-22 60.5zM108 617v-209q0 -34 33 -34h67q34 0 34 34v209q0 34 -34 34h-67q-33 0 -33 -34zM777 80v210q0 39 22 60.5t61 21.5h83q83 0 83 -82v-210q0 -82 -83 -82h-83q-39 0 -61 21.5t-22 60.5zM835 289v-209q0 -34 33 -34h67q34 0 34 34v209q0 34 -34 34
h-67q-33 0 -33 -34zM618 701l-426 -705h-57l426 705h57z" />
    <glyph glyph-name="guilsinglleft" unicode="&#x2039;" horiz-adv-x="310" 
d="M112 244l139 -137h-74l-106 102q-26 26 -26 53v29q0 26 26 52l106 103h74l-139 -138q-13 -13 -13 -23v-18q0 -10 13 -23z" />
    <glyph glyph-name="guilsinglright" unicode="&#x203a;" horiz-adv-x="310" 
d="M239 209l-106 -102h-74l139 137q13 13 13 23v18q0 10 -13 23l-140 138h75l106 -103q25 -25 25 -52v-29q0 -29 -25 -53z" />
    <glyph glyph-name="fraction" unicode="&#x2044;" horiz-adv-x="164" 
d="M323 701l-426 -705h-57l426 705h57z" />
    <glyph glyph-name="zero.superior" unicode="&#x2070;" horiz-adv-x="353" 
d="M52 559v210q0 39 22 60.5t61 21.5h83q83 0 83 -82v-210q0 -82 -83 -82h-83q-39 0 -61 21.5t-22 60.5zM110 768v-209q0 -34 33 -34h67q34 0 34 34v209q0 34 -34 34h-67q-33 0 -33 -34z" />
    <glyph glyph-name="four.superior" unicode="&#x2074;" horiz-adv-x="338" 
d="M302 614v-44h-42v-91h-53v91h-181v44l184 235h50v-235h42zM80 614h127v161z" />
    <glyph glyph-name="five.superior" unicode="&#x2075;" horiz-adv-x="329" 
d="M205 477h-80q-39 0 -60.5 20.5t-21.5 59.5v24h56v-26q0 -30 34 -30h63q35 0 35 32v65q0 33 -35 33h-142v193h221v-48h-168v-99h98q39 0 60 -20.5t21 -58.5v-63q0 -82 -81 -82z" />
    <glyph glyph-name="six.superior" unicode="&#x2076;" horiz-adv-x="341" 
d="M295 618v-59q0 -82 -82 -82h-79q-82 0 -82 82v209q0 40 21.5 61.5t60.5 21.5h78q39 0 60.5 -20.5t21.5 -58.5v-26h-56v26q0 30 -34 30h-61q-34 0 -34 -33v-78h111q36 0 55.5 -19t19.5 -54zM143 525h62q35 0 35 33v54q0 33 -32 33h-99v-87q0 -33 34 -33z" />
    <glyph glyph-name="seven.superior" unicode="&#x2077;" horiz-adv-x="303" 
d="M279 805l-144 -326h-58l144 320h-195v49h253v-43z" />
    <glyph glyph-name="eight.superior" unicode="&#x2078;" horiz-adv-x="345" 
d="M219 477h-91q-78 0 -78 77v59q0 48 41 60q-33 13 -33 58v42q0 78 78 78h75q78 0 78 -78v-42q0 -43 -35 -58q41 -14 41 -60v-59q0 -77 -76 -77zM110 770v-42q0 -36 36 -36h55q34 0 34 36v42q0 35 -34 35h-55q-36 0 -36 -35zM207 648h-69q-34 0 -34 -36v-55q0 -35 34 -35
h69q35 0 35 35v55q0 36 -35 36z" />
    <glyph glyph-name="nine.superior" unicode="&#x2079;" horiz-adv-x="341" 
d="M207 477h-77q-82 0 -82 79v25h55v-25q0 -31 33 -31h62q34 0 34 34v83h-111q-76 0 -76 73v54q0 82 82 82h80q82 0 82 -82v-209q0 -83 -82 -83zM132 688h100v81q0 35 -34 35h-62q-35 0 -35 -35v-48q0 -33 31 -33z" />
    <glyph glyph-name="parenleft.superior" unicode="&#x207d;" horiz-adv-x="205" 
d="M55 520v288q0 37 21.5 58t59.5 21h31v-48h-27q-28 0 -28 -32v-287q0 -31 28 -31h27v-49h-31q-38 0 -59.5 21t-21.5 59z" />
    <glyph glyph-name="parenright.superior" unicode="&#x207e;" horiz-adv-x="205" 
d="M150 808v-288q0 -38 -21.5 -59t-60.5 -21h-30v49h27q28 0 28 31v287q0 32 -28 32h-27v48h30q39 0 60.5 -20.5t21.5 -58.5z" />
    <glyph glyph-name="zero.inferior" unicode="&#x2080;" horiz-adv-x="352" 
d="M51 -70v210q0 39 22 60.5t61 21.5h83q83 0 83 -82v-210q0 -82 -83 -82h-83q-39 0 -61 21.5t-22 60.5zM109 139v-209q0 -34 33 -34h67q34 0 34 34v209q0 34 -34 34h-67q-33 0 -33 -34z" />
    <glyph glyph-name="one.inferior" unicode="&#x2081;" horiz-adv-x="301" 
d="M39 -150v49h92v271h-92v49h149v-320h89v-49h-238z" />
    <glyph glyph-name="two.inferior" unicode="&#x2082;" horiz-adv-x="337" 
d="M294 -101v-49h-247v94q0 31 11.5 49.5t41.5 29.5l111 40q22 7 22 32v44q0 34 -35 34h-61q-34 0 -34 -34v-39h-54v43q0 38 21 58.5t60 20.5h76q82 0 82 -82v-46q0 -57 -49 -73l-114 -42q-15 -6 -19 -13t-4 -23v-44h192z" />
    <glyph glyph-name="three.inferior" unicode="&#x2083;" horiz-adv-x="341" 
d="M211 -152h-86q-81 0 -81 75v31h56v-28q0 -30 33 -30h69q34 0 34 32v62q0 29 -31 29h-76v43h68q32 0 32 30v49q0 32 -34 32h-61q-34 0 -34 -29v-28h-54v26q0 38 21 59t59 21h78q81 0 81 -80v-41q0 -44 -34 -57q41 -11 41 -58v-62q0 -76 -81 -76z" />
    <glyph glyph-name="four.inferior" unicode="&#x2084;" horiz-adv-x="338" 
d="M302 -15v-44h-42v-91h-53v91h-181v44l184 235h50v-235h42zM80 -15h127v161z" />
    <glyph glyph-name="five.inferior" unicode="&#x2085;" horiz-adv-x="330" 
d="M206 -152h-80q-39 0 -60.5 20.5t-21.5 59.5v24h56v-26q0 -30 34 -30h63q35 0 35 32v65q0 33 -35 33h-142v193h221v-48h-168v-99h98q39 0 60 -20.5t21 -58.5v-63q0 -82 -81 -82z" />
    <glyph glyph-name="six.inferior" unicode="&#x2086;" horiz-adv-x="341" 
d="M295 -11v-59q0 -82 -82 -82h-79q-82 0 -82 82v209q0 40 21.5 61.5t60.5 21.5h78q39 0 60.5 -20.5t21.5 -58.5v-26h-56v26q0 30 -34 30h-61q-34 0 -34 -33v-78h111q36 0 55.5 -19t19.5 -54zM143 -104h62q35 0 35 33v54q0 33 -32 33h-99v-87q0 -33 34 -33z" />
    <glyph glyph-name="seven.inferior" unicode="&#x2087;" horiz-adv-x="302" 
d="M279 176l-144 -326h-58l144 320h-195v49h253v-43z" />
    <glyph glyph-name="eight.inferior" unicode="&#x2088;" horiz-adv-x="345" 
d="M218 -152h-91q-78 0 -78 77v59q0 48 41 60q-33 14 -33 58v42q0 78 78 78h75q78 0 78 -78v-42q0 -43 -35 -58q41 -14 41 -60v-59q0 -77 -76 -77zM109 141v-42q0 -36 36 -36h55q34 0 34 36v42q0 35 -34 35h-55q-36 0 -36 -35zM206 19h-69q-34 0 -34 -36v-55q0 -35 34 -35
h69q35 0 35 35v55q0 36 -35 36z" />
    <glyph glyph-name="nine.inferior" unicode="&#x2089;" horiz-adv-x="341" 
d="M207 -152h-77q-82 0 -82 79v25h55v-25q0 -31 33 -31h62q34 0 34 34v83h-111q-76 0 -76 73v54q0 82 82 82h80q82 0 82 -82v-209q0 -83 -82 -83zM132 59h100v81q0 35 -34 35h-62q-35 0 -35 -35v-48q0 -33 31 -33z" />
    <glyph glyph-name="parenleft.inferior" unicode="&#x208d;" horiz-adv-x="205" 
d="M55 -109v288q0 37 21.5 58t59.5 21h31v-48h-27q-28 0 -28 -32v-287q0 -31 28 -31h27v-49h-31q-38 0 -59.5 21t-21.5 59z" />
    <glyph glyph-name="parenright.inferior" unicode="&#x208e;" horiz-adv-x="205" 
d="M150 179v-288q0 -38 -21.5 -59t-60.5 -21h-30v49h27q28 0 28 31v287q0 32 -28 32h-27v48h30q39 0 60.5 -20.5t21.5 -58.5z" />
    <glyph glyph-name="franc" unicode="&#x20a3;" horiz-adv-x="582" 
d="M412 307v-46h-217v-261h-71v261h-72v46h72v73h-72v46h72v271h431v-61h-360v-210h217v-46h-217v-73h217z" />
    <glyph glyph-name="lira" unicode="&#x20a4;" horiz-adv-x="595" 
d="M547 61v-61h-490v61h76v194h-76v45h76v74h-76v44h76v148q0 66 36.5 100.5t105.5 34.5h119q69 0 105.5 -34.5t36.5 -100.5v-68h-68v67q0 75 -75 75h-115q-76 0 -76 -75v-147h164v-44h-164v-74h164v-45h-164v-194h345z" />
    <glyph glyph-name="peseta" unicode="&#x20a7;" horiz-adv-x="1369" 
d="M799 59h84v-59h-84q-64 0 -98.5 34.5t-34.5 99.5v305h-81v59h81v142h67v-142h149v-59h-149v-314q0 -66 66 -66zM388 259h-222v-259h-70v697h292q69 0 106 -36.5t37 -106.5v-152q0 -69 -37 -106t-106 -37zM932 114v43h66v-50q0 -57 67 -57h116q68 0 68 55v57q0 34 -34 41
l-202 49q-75 20 -75 90v49q0 55 34 84.5t99 29.5h105q64 0 98.5 -30.5t34.5 -87.5v-32h-66v39q0 56 -67 56h-105q-67 0 -67 -54v-49q0 -32 34 -39l199 -49q77 -18 77 -88v-61q0 -114 -134 -114h-116q-64 0 -98 30.5t-34 87.5zM386 635h-220v-313h220q75 0 75 75v164
q0 74 -75 74z" />
    <glyph glyph-name="Euro" unicode="&#x20ac;" horiz-adv-x="609" 
d="M547 228v-89q0 -70 -36.5 -106.5t-105.5 -36.5h-140q-69 0 -106 36.5t-37 106.5v129h-77v45h77v74h-77v45h77v126q0 70 37 106.5t106 36.5h140q69 0 105.5 -36.5t36.5 -106.5v-63h-69v70q0 74 -75 74h-136q-75 0 -75 -74v-133h181v-45h-181v-74h181v-45h-181v-136
q0 -74 75 -74h136q75 0 75 74v96h69z" />
    <glyph glyph-name="uni2113" unicode="&#x2113;" horiz-adv-x="471" 
d="M118 131v91l-66 -50l-30 49l96 72v274q0 64 34 97t98 33h57q134 0 134 -124v-36q0 -34 -20 -68t-50 -56l-186 -141v-148q0 -67 68 -67h178v-59h-179q-64 0 -99 34.5t-35 98.5zM185 574v-230l136 103q56 44 56 82v50q0 63 -68 63h-56q-32 0 -50 -18.5t-18 -49.5z" />
    <glyph glyph-name="trademark" unicode="&#x2122;" horiz-adv-x="839" 
d="M326 697v-47h-122v-403h-53v403h-121v47h296zM602 399h-43l-110 201v-353h-51v450h51l132 -242l130 242h51v-450h-51v354z" />
    <glyph glyph-name="Omega" unicode="&#x2126;" horiz-adv-x="635" 
d="M257 57v-57h-197v53h86q-58 40 -58 142v363q0 70 36.5 106.5t106.5 36.5h175q69 0 105.5 -36.5t36.5 -106.5v-366q0 -100 -58 -139h80v-53h-197v57q58 3 81.5 30.5t23.5 89.5v388q0 74 -75 74h-170q-75 0 -75 -74v-386q0 -62 22.5 -90.5t76.5 -31.5z" />
    <glyph glyph-name="estimated" unicode="&#x212e;" horiz-adv-x="765" 
d="M616 125h48q-46 -63 -118 -99.5t-155 -36.5q-139 0 -239 98q-99 99 -99 240t99 240q99 100 240 100q140 0 239 -99q98 -97 100 -240h-563v-203q90 -101 223 -101q135 0 225 101zM168 527v-165h449v164q-91 105 -225 105q-132 0 -224 -104z" />
    <glyph glyph-name="uni2153" unicode="&#x2153;" horiz-adv-x="767" 
d="M638 -2h-86q-81 0 -81 75v31h56v-28q0 -30 33 -30h69q34 0 34 32v62q0 29 -31 29h-76v43h68q32 0 32 30v49q0 32 -34 32h-61q-34 0 -34 -29v-28h-54v26q0 38 21 59t59 21h78q81 0 81 -80v-41q0 -44 -34 -57q41 -11 41 -58v-62q0 -76 -81 -76zM46 328v49h92v271h-92v49
h149v-320h89v-49h-238zM632 701l-426 -705h-57l426 705h57z" />
    <glyph glyph-name="uni2154" unicode="&#x2154;" horiz-adv-x="771" 
d="M643 -2h-86q-81 0 -81 75v31h56v-28q0 -30 33 -30h69q34 0 34 32v62q0 29 -31 29h-76v43h68q32 0 32 30v49q0 32 -34 32h-61q-34 0 -34 -29v-28h-54v26q0 38 21 59t59 21h78q81 0 81 -80v-41q0 -44 -34 -57q41 -11 41 -58v-62q0 -76 -81 -76zM298 377v-49h-247v94
q0 31 11.5 49.5t41.5 29.5l111 40q22 7 22 32v44q0 34 -35 34h-61q-34 0 -34 -34v-39h-54v43q0 38 21 58.5t60 20.5h76q82 0 82 -82v-46q0 -57 -49 -73l-114 -42q-15 -6 -19 -13t-4 -23v-44h192zM637 701l-426 -705h-57l426 705h57z" />
    <glyph glyph-name="uni2155" unicode="&#x2155;" horiz-adv-x="769" 
d="M640 -2h-80q-39 0 -60.5 20.5t-21.5 59.5v24h56v-26q0 -30 34 -30h63q35 0 35 32v65q0 33 -35 33h-142v193h221v-48h-168v-99h98q39 0 60 -20.5t21 -58.5v-63q0 -82 -81 -82zM46 328v49h92v271h-92v49h149v-320h89v-49h-238zM632 701l-426 -705h-57l426 705h57z" />
    <glyph glyph-name="uni2156" unicode="&#x2156;" horiz-adv-x="773" 
d="M298 377v-49h-247v94q0 31 11.5 49.5t41.5 29.5l111 40q22 7 22 32v44q0 34 -35 34h-61q-34 0 -34 -34v-39h-54v43q0 38 21 58.5t60 20.5h76q82 0 82 -82v-46q0 -57 -49 -73l-114 -42q-15 -6 -19 -13t-4 -23v-44h192zM644 -2h-80q-39 0 -60.5 20.5t-21.5 59.5v24h56v-26
q0 -30 34 -30h63q35 0 35 32v65q0 33 -35 33h-142v193h221v-48h-168v-99h98q39 0 60 -20.5t21 -58.5v-63q0 -82 -81 -82zM637 701l-426 -705h-57l426 705h57z" />
    <glyph glyph-name="uni2157" unicode="&#x2157;" horiz-adv-x="766" 
d="M214 326h-86q-81 0 -81 75v31h56v-28q0 -30 33 -30h69q34 0 34 32v62q0 29 -31 29h-76v43h68q32 0 32 30v49q0 32 -34 32h-61q-34 0 -34 -29v-28h-54v26q0 38 21 59t59 21h78q81 0 81 -80v-41q0 -44 -34 -57q41 -11 41 -58v-62q0 -76 -81 -76zM637 -2h-80
q-39 0 -60.5 20.5t-21.5 59.5v24h56v-26q0 -30 34 -30h63q35 0 35 32v65q0 33 -35 33h-142v193h221v-48h-168v-99h98q39 0 60 -20.5t21 -58.5v-63q0 -82 -81 -82zM629 701l-426 -705h-57l426 705h57z" />
    <glyph glyph-name="uni2158" unicode="&#x2158;" horiz-adv-x="755" 
d="M305 463v-44h-42v-91h-53v91h-181v44l184 235h50v-235h42zM83 463h127v161zM625 -2h-80q-39 0 -60.5 20.5t-21.5 59.5v24h56v-26q0 -30 34 -30h63q35 0 35 32v65q0 33 -35 33h-142v193h221v-48h-168v-99h98q39 0 60 -20.5t21 -58.5v-63q0 -82 -81 -82zM617 701l-426 -705
h-57l426 705h57z" />
    <glyph glyph-name="uni2159" unicode="&#x2159;" horiz-adv-x="764" 
d="M715 139v-59q0 -82 -82 -82h-79q-82 0 -82 82v209q0 40 21.5 61.5t60.5 21.5h78q39 0 60.5 -20.5t21.5 -58.5v-26h-56v26q0 30 -34 30h-61q-34 0 -34 -33v-78h111q36 0 55.5 -19t19.5 -54zM563 46h62q35 0 35 33v54q0 33 -32 33h-99v-87q0 -33 34 -33zM46 328v49h92v271
h-92v49h149v-320h89v-49h-238zM632 701l-426 -705h-57l426 705h57z" />
    <glyph glyph-name="uni215A" unicode="&#x215a;" horiz-adv-x="748" 
d="M698 139v-59q0 -82 -82 -82h-79q-82 0 -82 82v209q0 40 21.5 61.5t60.5 21.5h78q39 0 60.5 -20.5t21.5 -58.5v-26h-56v26q0 30 -34 30h-61q-34 0 -34 -33v-78h111q36 0 55.5 -19t19.5 -54zM546 46h62q35 0 35 33v54q0 33 -32 33h-99v-87q0 -33 34 -33zM208 326h-80
q-39 0 -60.5 20.5t-21.5 59.5v24h56v-26q0 -30 34 -30h63q35 0 35 32v65q0 33 -35 33h-142v193h221v-48h-168v-99h98q39 0 60 -20.5t21 -58.5v-63q0 -82 -81 -82zM615 701l-426 -705h-57l426 705h57z" />
    <glyph glyph-name="uni215B" unicode="&#x215b;" horiz-adv-x="765" 
d="M642 -2h-91q-78 0 -78 77v59q0 48 41 60q-33 14 -33 58v42q0 78 78 78h75q78 0 78 -78v-42q0 -43 -35 -58q41 -14 41 -60v-59q0 -77 -76 -77zM533 291v-42q0 -36 36 -36h55q34 0 34 36v42q0 35 -34 35h-55q-36 0 -36 -35zM630 169h-69q-34 0 -34 -36v-55q0 -35 34 -35h69
q35 0 35 35v55q0 36 -35 36zM46 328v49h92v271h-92v49h149v-320h89v-49h-238zM632 701l-426 -705h-57l426 705h57z" />
    <glyph glyph-name="uni215C" unicode="&#x215c;" horiz-adv-x="762" 
d="M214 326h-86q-81 0 -81 75v31h56v-28q0 -30 33 -30h69q34 0 34 32v62q0 29 -31 29h-76v43h68q32 0 32 30v49q0 32 -34 32h-61q-34 0 -34 -29v-28h-54v26q0 38 21 59t59 21h78q81 0 81 -80v-41q0 -44 -34 -57q41 -11 41 -58v-62q0 -76 -81 -76zM639 -2h-91q-78 0 -78 77
v59q0 48 41 60q-33 14 -33 58v42q0 78 78 78h75q78 0 78 -78v-42q0 -43 -35 -58q41 -14 41 -60v-59q0 -77 -76 -77zM530 291v-42q0 -36 36 -36h55q34 0 34 36v42q0 35 -34 35h-55q-36 0 -36 -35zM627 169h-69q-34 0 -34 -36v-55q0 -35 34 -35h69q35 0 35 35v55q0 36 -35 36z
M629 701l-426 -705h-57l426 705h57z" />
    <glyph glyph-name="uni215D" unicode="&#x215d;" horiz-adv-x="748" 
d="M625 -2h-91q-78 0 -78 77v59q0 48 41 60q-33 14 -33 58v42q0 78 78 78h75q78 0 78 -78v-42q0 -43 -35 -58q41 -14 41 -60v-59q0 -77 -76 -77zM516 291v-42q0 -36 36 -36h55q34 0 34 36v42q0 35 -34 35h-55q-36 0 -36 -35zM613 169h-69q-34 0 -34 -36v-55q0 -35 34 -35h69
q35 0 35 35v55q0 36 -35 36zM208 326h-80q-39 0 -60.5 20.5t-21.5 59.5v24h56v-26q0 -30 34 -30h63q35 0 35 32v65q0 33 -35 33h-142v193h221v-48h-168v-99h98q39 0 60 -20.5t21 -58.5v-63q0 -82 -81 -82zM615 701l-426 -705h-57l426 705h57z" />
    <glyph glyph-name="uni215E" unicode="&#x215e;" horiz-adv-x="705" 
d="M582 -2h-91q-78 0 -78 77v59q0 48 41 60q-33 14 -33 58v42q0 78 78 78h75q78 0 78 -78v-42q0 -43 -35 -58q41 -14 41 -60v-59q0 -77 -76 -77zM473 291v-42q0 -36 36 -36h55q34 0 34 36v42q0 35 -34 35h-55q-36 0 -36 -35zM570 169h-69q-34 0 -34 -36v-55q0 -35 34 -35h69
q35 0 35 35v55q0 36 -35 36zM284 654l-144 -326h-58l144 320h-195v49h253v-43zM572 701l-426 -705h-57l426 705h57z" />
    <glyph glyph-name="uni215F" unicode="&#x215f;" horiz-adv-x="636" 
d="M44 328v49h92v271h-92v49h149v-320h89v-49h-238zM631 701l-426 -705h-57l426 705h57z" />
    <glyph glyph-name="partialdiff" unicode="&#x2202;" horiz-adv-x="523" 
d="M321 -4h-124q-133 0 -133 134v212q0 61 32 92.5t92 31.5h71q46 0 78 -22l50 -33v161q0 67 -68 67h-212v58h213q64 0 99 -34.5t35 -99.5v-433q0 -134 -133 -134zM199 54h120q33 0 50.5 18t17.5 49v224l-67 44q-27 18 -58 18h-66q-65 0 -65 -65v-221q0 -67 68 -67z" />
    <glyph glyph-name="increment" unicode="&#x2206;" horiz-adv-x="576" 
d="M551 0h-525l225 697h75zM461 60l-174 548l-175 -548h349z" />
    <glyph glyph-name="product" unicode="&#x220f;" horiz-adv-x="640" 
d="M544 0h-70v635h-308v-635h-70v697h448v-697z" />
    <glyph glyph-name="summation" unicode="&#x2211;" horiz-adv-x="545" 
d="M496 697v-62h-358l155 -279l-172 -294h380v-62h-460v61l173 296l-160 279v61h442z" />
    <glyph glyph-name="minus" unicode="&#x2212;" horiz-adv-x="491" 
d="M62 322v53h367v-53h-367z" />
    <glyph glyph-name="uni2215" unicode="&#x2215;" horiz-adv-x="493" 
d="M488 701l-426 -705h-57l426 705h57z" />
    <glyph glyph-name="uni2219" unicode="&#x2219;" horiz-adv-x="249" 
d="M180 174h-110v144h110v-144z" />
    <glyph glyph-name="radical" unicode="&#x221a;" horiz-adv-x="603" 
d="M111 445h-87v56h139l163 -481l202 677h60l-233 -770h-64z" />
    <glyph glyph-name="infinity" unicode="&#x221e;" horiz-adv-x="863" 
d="M273 181h-76q-67 0 -102.5 33t-35.5 95v79q0 62 35.5 94.5t102.5 32.5h76q80 0 129 -76l29 -45l30 45q51 76 125 76h80q67 0 102 -32.5t35 -95.5v-78q0 -62 -35 -95t-102 -33h-80q-73 0 -126 77l-29 43l-28 -43q-51 -77 -130 -77zM742 306v85q0 71 -76 71h-85
q-44 0 -80 -57l-37 -57l37 -56q36 -57 80 -57h85q76 0 76 71zM121 391v-85q0 -71 76 -71h84q20 0 36 10q12 7 19.5 15t10 11t14.5 20l39 57l-39 58q-35 56 -80 56h-84q-76 0 -76 -71z" />
    <glyph glyph-name="integral" unicode="&#x222b;" horiz-adv-x="374" 
d="M87 -70h-68v59h67q68 0 68 68v576q0 65 34.5 99.5t98.5 34.5h68v-59h-67q-67 0 -67 -68v-576q0 -65 -34.5 -99.5t-99.5 -34.5z" />
    <glyph glyph-name="approxequal" unicode="&#x2248;" horiz-adv-x="552" 
d="M360 420h42q11 0 20 10l39 45l32 -33l-42 -53q-18 -22 -42 -22h-48q-9 0 -44 15l-66 31q-27 13 -45 13h-32q-22 0 -37 -18l-37 -46l-33 34l42 51q15 18 26.5 25t31.5 7h39q24 0 57 -16l65 -31q26 -12 32 -12zM355 267h41q10 0 21 11l39 44l32 -33l-42 -53
q-18 -22 -43 -22h-47q-12 0 -44 15l-66 31q-31 14 -45 14h-32q-22 0 -37 -19l-38 -46l-32 35l42 51q13 18 25.5 25t32.5 7h39q20 0 56 -17l66 -31q25 -12 32 -12z" />
    <glyph glyph-name="notequal" unicode="&#x2260;" horiz-adv-x="491" 
d="M62 412v52h207l55 133h44l-54 -133h115v-52h-136l-51 -124h187v-53h-208l-55 -135h-45l55 135h-114v53h135l51 124h-186z" />
    <glyph glyph-name="lessequal" unicode="&#x2264;" horiz-adv-x="491" 
d="M425 287v-60l-367 149v50l367 149v-61l-295 -113zM58 127v53h367v-53h-367z" />
    <glyph glyph-name="greaterequal" unicode="&#x2265;" horiz-adv-x="491" 
d="M433 426v-50l-367 -149v60l295 114l-295 113v61zM66 127v53h367v-53h-367z" />
    <glyph glyph-name="lozenge" unicode="&#x25ca;" horiz-adv-x="539" 
d="M242 707h55l216 -359l-216 -358h-55l-216 358zM439 348l-170 282l-169 -282l169 -281z" />
    <glyph glyph-name="cent.denominator" unicode="&#xf629;" horiz-adv-x="304" 
d="M189 49h-10v-51h-49v51h-9q-36 0 -56 20t-20 57v118q0 37 20 57t56 20h9v51h49v-51h10q35 0 55 -20t20 -57v-20h-53v21q0 30 -29 30h-54q-29 0 -29 -30v-120q0 -30 29 -30h54q29 0 29 30v25h53v-24q0 -37 -19.5 -57t-55.5 -20z" />
    <glyph glyph-name="dollar.denominator" unicode="&#xf62a;" horiz-adv-x="325" 
d="M201 -2h-15v-56h-49v56h-15q-40 0 -61.5 20t-21.5 57v31h55v-32q0 -28 35 -28h64q36 0 36 28v43q0 21 -19 28l-119 42q-49 16 -49 67v41q0 37 21.5 57t61.5 20h12v56h49v-56h12q40 0 61.5 -20t21.5 -57v-34h-56v34q0 28 -35 28h-58q-35 0 -35 -28v-31q0 -22 22 -31
l118 -40q47 -17 47 -65v-53q0 -37 -21.5 -57t-61.5 -20z" />
    <glyph glyph-name="hyphen.denominator" unicode="&#xf62b;" horiz-adv-x="252" 
d="M53 129v46h146v-46h-146z" />
    <glyph glyph-name="parenleft.denominator" unicode="&#xf62c;" horiz-adv-x="204" 
d="M54 41v288q0 37 21.5 58t59.5 21h31v-48h-27q-28 0 -28 -32v-287q0 -31 28 -31h27v-49h-31q-38 0 -59.5 21t-21.5 59z" />
    <glyph glyph-name="parenright.denominator" unicode="&#xf62d;" horiz-adv-x="204" 
d="M150 329v-288q0 -38 -21.5 -59t-60.5 -21h-30v49h27q28 0 28 31v287q0 32 -28 32h-27v48h30q39 0 60.5 -20.5t21.5 -58.5z" />
    <glyph glyph-name="cent.numerator" unicode="&#xf62e;" horiz-adv-x="304" 
d="M189 377h-10v-51h-49v51h-9q-36 0 -56 20t-20 57v118q0 37 20 57t56 20h9v51h49v-51h10q35 0 55 -20t20 -57v-20h-53v21q0 30 -29 30h-54q-29 0 -29 -30v-120q0 -30 29 -30h54q29 0 29 30v25h53v-24q0 -37 -19.5 -57t-55.5 -20z" />
    <glyph glyph-name="dollar.numerator" unicode="&#xf62f;" horiz-adv-x="325" 
d="M201 326h-15v-56h-49v56h-15q-40 0 -61.5 20t-21.5 57v31h55v-32q0 -28 35 -28h64q36 0 36 28v43q0 21 -19 28l-119 42q-49 16 -49 67v41q0 37 21.5 57t61.5 20h12v56h49v-56h12q40 0 61.5 -20t21.5 -57v-34h-56v34q0 28 -35 28h-58q-35 0 -35 -28v-31q0 -22 22 -31
l118 -40q47 -17 47 -65v-53q0 -37 -21.5 -57t-61.5 -20z" />
    <glyph glyph-name="hyphen.numerator" unicode="&#xf630;" horiz-adv-x="252" 
d="M53 457v46h146v-46h-146z" />
    <glyph glyph-name="parenleft.numerator" unicode="&#xf631;" horiz-adv-x="204" 
d="M54 369v288q0 37 21.5 58t59.5 21h31v-48h-27q-28 0 -28 -32v-287q0 -31 28 -31h27v-49h-31q-38 0 -59.5 21t-21.5 59z" />
    <glyph glyph-name="parenright.numerator" unicode="&#xf632;" horiz-adv-x="204" 
d="M150 657v-288q0 -38 -21.5 -59t-60.5 -21h-30v49h27q28 0 28 31v287q0 32 -28 32h-27v48h30q39 0 60.5 -20.5t21.5 -58.5z" />
    <glyph glyph-name="zero.denominator" unicode="&#xf655;" horiz-adv-x="353" 
d="M52 80v210q0 39 22 60.5t61 21.5h83q83 0 83 -82v-210q0 -82 -83 -82h-83q-39 0 -61 21.5t-22 60.5zM110 289v-209q0 -34 33 -34h67q34 0 34 34v209q0 34 -34 34h-67q-33 0 -33 -34z" />
    <glyph glyph-name="one.denominator" unicode="&#xf656;" horiz-adv-x="301" 
d="M39 0v49h92v271h-92v49h149v-320h89v-49h-238z" />
    <glyph glyph-name="two.denominator" unicode="&#xf657;" horiz-adv-x="337" 
d="M294 49v-49h-247v94q0 31 11.5 49.5t41.5 29.5l111 40q22 7 22 32v44q0 34 -35 34h-61q-34 0 -34 -34v-39h-54v43q0 38 21 58.5t60 20.5h76q82 0 82 -82v-46q0 -57 -49 -73l-114 -42q-15 -6 -19 -13t-4 -23v-44h192z" />
    <glyph glyph-name="three.denominator" unicode="&#xf658;" horiz-adv-x="340" 
d="M210 -2h-86q-81 0 -81 75v31h56v-28q0 -30 33 -30h69q34 0 34 32v62q0 29 -31 29h-76v43h68q32 0 32 30v49q0 32 -34 32h-61q-34 0 -34 -29v-28h-54v26q0 38 21 59t59 21h78q81 0 81 -80v-41q0 -44 -34 -57q41 -11 41 -58v-62q0 -76 -81 -76z" />
    <glyph glyph-name="four.denominator" unicode="&#xf659;" horiz-adv-x="338" 
d="M302 135v-44h-42v-91h-53v91h-181v44l184 235h50v-235h42zM80 135h127v161z" />
    <glyph glyph-name="five.denominator" unicode="&#xf65a;" horiz-adv-x="329" 
d="M205 -2h-80q-39 0 -60.5 20.5t-21.5 59.5v24h56v-26q0 -30 34 -30h63q35 0 35 32v65q0 33 -35 33h-142v193h221v-48h-168v-99h98q39 0 60 -20.5t21 -58.5v-63q0 -82 -81 -82z" />
    <glyph glyph-name="six.denominator" unicode="&#xf65b;" horiz-adv-x="341" 
d="M295 139v-59q0 -82 -82 -82h-79q-82 0 -82 82v209q0 40 21.5 61.5t60.5 21.5h78q39 0 60.5 -20.5t21.5 -58.5v-26h-56v26q0 30 -34 30h-61q-34 0 -34 -33v-78h111q36 0 55.5 -19t19.5 -54zM143 46h62q35 0 35 33v54q0 33 -32 33h-99v-87q0 -33 34 -33z" />
    <glyph glyph-name="seven.denominator" unicode="&#xf65c;" horiz-adv-x="302" 
d="M279 326l-144 -326h-58l144 320h-195v49h253v-43z" />
    <glyph glyph-name="eight.denominator" unicode="&#xf65d;" horiz-adv-x="345" 
d="M219 -2h-91q-78 0 -78 77v59q0 48 41 60q-33 14 -33 58v42q0 78 78 78h75q78 0 78 -78v-42q0 -43 -35 -58q41 -14 41 -60v-59q0 -77 -76 -77zM110 291v-42q0 -36 36 -36h55q34 0 34 36v42q0 35 -34 35h-55q-36 0 -36 -35zM207 169h-69q-34 0 -34 -36v-55q0 -35 34 -35h69
q35 0 35 35v55q0 36 -35 36z" />
    <glyph glyph-name="nine.denominator" unicode="&#xf65e;" horiz-adv-x="340" 
d="M207 -2h-77q-82 0 -82 79v25h55v-25q0 -31 33 -31h62q34 0 34 34v83h-111q-76 0 -76 73v54q0 82 82 82h80q82 0 82 -82v-209q0 -83 -82 -83zM132 209h100v81q0 35 -34 35h-62q-35 0 -35 -35v-48q0 -33 31 -33z" />
    <glyph glyph-name="comma.denominator" unicode="&#xf65f;" horiz-adv-x="165" 
d="M58 67h59v-19l-44 -103h-34z" />
    <glyph glyph-name="period.denominator" unicode="&#xf660;" horiz-adv-x="160" 
d="M109 0h-58v67h58v-67z" />
    <glyph glyph-name="zero.numerator" unicode="&#xf661;" horiz-adv-x="353" 
d="M52 408v210q0 39 22 60.5t61 21.5h83q83 0 83 -82v-210q0 -82 -83 -82h-83q-39 0 -61 21.5t-22 60.5zM110 617v-209q0 -34 33 -34h67q34 0 34 34v209q0 34 -34 34h-67q-33 0 -33 -34z" />
    <glyph glyph-name="one.numerator" unicode="&#xf662;" horiz-adv-x="301" 
d="M39 328v49h92v271h-92v49h149v-320h89v-49h-238z" />
    <glyph glyph-name="two.numerator" unicode="&#xf663;" horiz-adv-x="337" 
d="M294 377v-49h-247v94q0 31 11.5 49.5t41.5 29.5l111 40q22 7 22 32v44q0 34 -35 34h-61q-34 0 -34 -34v-39h-54v43q0 38 21 58.5t60 20.5h76q82 0 82 -82v-46q0 -57 -49 -73l-114 -42q-15 -6 -19 -13t-4 -23v-44h192z" />
    <glyph glyph-name="three.numerator" unicode="&#xf664;" horiz-adv-x="340" 
d="M210 326h-86q-81 0 -81 75v31h56v-28q0 -30 33 -30h69q34 0 34 32v62q0 29 -31 29h-76v43h68q32 0 32 30v49q0 32 -34 32h-61q-34 0 -34 -29v-28h-54v26q0 38 21 59t59 21h78q81 0 81 -80v-41q0 -44 -34 -57q41 -11 41 -58v-62q0 -76 -81 -76z" />
    <glyph glyph-name="four.numerator" unicode="&#xf665;" horiz-adv-x="338" 
d="M302 463v-44h-42v-91h-53v91h-181v44l184 235h50v-235h42zM80 463h127v161z" />
    <glyph glyph-name="five.numerator" unicode="&#xf666;" horiz-adv-x="329" 
d="M205 326h-80q-39 0 -60.5 20.5t-21.5 59.5v24h56v-26q0 -30 34 -30h63q35 0 35 32v65q0 33 -35 33h-142v193h221v-48h-168v-99h98q39 0 60 -20.5t21 -58.5v-63q0 -82 -81 -82z" />
    <glyph glyph-name="six.numerator" unicode="&#xf667;" horiz-adv-x="341" 
d="M295 467v-59q0 -82 -82 -82h-79q-82 0 -82 82v209q0 40 21.5 61.5t60.5 21.5h78q39 0 60.5 -20.5t21.5 -58.5v-26h-56v26q0 30 -34 30h-61q-34 0 -34 -33v-78h111q36 0 55.5 -19t19.5 -54zM143 374h62q35 0 35 33v54q0 33 -32 33h-99v-87q0 -33 34 -33z" />
    <glyph glyph-name="seven.numerator" unicode="&#xf668;" horiz-adv-x="302" 
d="M279 654l-144 -326h-58l144 320h-195v49h253v-43z" />
    <glyph glyph-name="eight.numerator" unicode="&#xf669;" horiz-adv-x="345" 
d="M219 326h-91q-78 0 -78 77v59q0 48 41 60q-33 14 -33 58v42q0 78 78 78h75q78 0 78 -78v-42q0 -43 -35 -58q41 -14 41 -60v-59q0 -77 -76 -77zM110 619v-42q0 -36 36 -36h55q34 0 34 36v42q0 35 -34 35h-55q-36 0 -36 -35zM207 497h-69q-34 0 -34 -36v-55q0 -35 34 -35
h69q35 0 35 35v55q0 36 -35 36z" />
    <glyph glyph-name="nine.numerator" unicode="&#xf66a;" horiz-adv-x="340" 
d="M207 326h-77q-82 0 -82 79v25h55v-25q0 -31 33 -31h62q34 0 34 34v83h-111q-76 0 -76 73v54q0 82 82 82h80q82 0 82 -82v-209q0 -83 -82 -83zM132 537h100v81q0 35 -34 35h-62q-35 0 -35 -35v-48q0 -33 31 -33z" />
    <glyph glyph-name="comma.numerator" unicode="&#xf66b;" horiz-adv-x="165" 
d="M58 395h59v-19l-44 -103h-34z" />
    <glyph glyph-name="period.numerator" unicode="&#xf66c;" horiz-adv-x="160" 
d="M109 328h-58v67h58v-67z" />
    <glyph glyph-name="commaaccent" unicode="&#xf6c3;" horiz-adv-x="220" 
d="M87 97h71v-23l-57 -141h-42z" />
    <glyph glyph-name="uniF8FF" unicode="&#xf8ff;" horiz-adv-x="1435" 
d="M348 488h38q11 0 11 -11v-6q28 21 58 21q34 0 51 -26q29 26 64 26q26 0 41.5 -15t15.5 -39v-132q0 -11 -12 -11h-38q-13 0 -13 11v116q0 9 -2.5 12.5t-11.5 3.5q-18 0 -38 -15v-117q0 -11 -11 -11h-38q-12 0 -12 11v116q0 16 -15 16q-20 0 -37 -15v-117q0 -11 -10 -11
h-41q-11 0 -11 11v171q0 11 11 11zM1015 488h36q12 0 12 -11l1 -7q26 22 60 22q57 0 57 -60v-80q0 -62 -57 -62q-32 0 -58 21v-83q0 -11 -11 -11h-40q-11 0 -11 11v249q0 11 11 11zM304 431v-43q0 -11 -12 -11h-93v-23q0 -18 23 -18q25 0 25 18v1q0 11 11 11h32q12 0 12 -11
v-3q0 -62 -80 -62q-85 0 -85 62v79q0 61 85 61q82 0 82 -61zM1378 431v-43q0 -11 -11 -11h-94v-23q0 -18 23 -18q24 0 24 18v1q0 11 12 11h32q11 0 11 -11v-3q0 -62 -79 -62q-84 0 -84 62v79q0 61 84 61q82 0 82 -61zM858 477l22 -70q7 -25 7 -37q3 3 10 35l24 72
q3 11 12 11h37q14 0 11 -11l-84 -249q-5 -11 -14 -11h-28q-14 0 -11 11l16 59l-65 190q-5 11 11 11h40q9 0 12 -11zM739 523v-36h31q11 0 11 -10v-27q0 -11 -11 -11h-31v-77q0 -18 24 -18h10q12 0 12 -11v-27q0 -11 -12 -11h-19q-43 0 -60.5 14t-17.5 46v84h-17
q-11 0 -11 11v25q0 8 11 11l16 1h1v36q0 12 12 12h39q12 0 12 -12zM480 147v-49q0 -4 -4 -4h-114v-48q0 -33 50 -33q48 0 48 33v8q0 4 6 4h9q5 0 5 -4v-9q0 -48 -69 -48t-69 48v102q0 48 70 48q68 0 68 -48zM162 188v-17q33 24 67 24q54 0 54 -46v-144q0 -5 -4 -5h-11
q-4 0 -4 5v140q0 31 -39 31t-62 -23v-148q0 -5 -4 -5h-11q-5 0 -5 5v183q0 4 5 4h9q5 0 5 -4zM564 232v-41h47q4 0 4 -4v-8q0 -5 -4 -5h-47v-124q0 -33 50 -33h6q5 0 5 -5v-7q0 -5 -5 -5h-9q-36 0 -51 11.5t-15 36.5v126h-25q-4 0 -4 5v7q0 4 4 5h25v41q0 5 4 5h11q4 0 4 -5
zM362 146v-36h98v36q0 32 -48 32q-50 0 -50 -32zM1120 361v62q0 15 -17 15q-13 0 -37 -15v-63q25 -16 37 -16q17 0 17 17zM199 428v-11h48v11q0 18 -25 18q-23 0 -23 -18zM1273 428v-11h47v11q0 18 -24 18q-23 0 -23 -18zM78 35v-30q0 -5 -5 -5h-11q-4 0 -4 5v30q0 5 4 5h11
q5 0 5 -5z" />
    <glyph glyph-name="f_f" unicode="&#xfb00;" horiz-adv-x="684" 
d="M326 498v-59h-152v-439h-67v439h-83v59h83v65q0 134 134 134h86v-59h-87q-66 0 -66 -68v-72h152zM668 498v-59h-152v-439h-67v439h-83v59h83v65q0 134 134 134h86v-59h-87q-66 0 -66 -68v-72h152z" />
    <glyph glyph-name="f_f_i" unicode="&#xfb03;" horiz-adv-x="893" 
d="M822 0h-67v501h67v-501zM824 595h-71v102h71v-102zM326 498v-59h-152v-439h-67v439h-83v59h83v65q0 134 134 134h86v-59h-87q-66 0 -66 -68v-72h152zM668 498v-59h-152v-439h-67v439h-83v59h83v65q0 134 134 134h86v-59h-87q-66 0 -66 -68v-72h152z" />
    <glyph glyph-name="f_f_l" unicode="&#xfb04;" horiz-adv-x="896" 
d="M757 0v697h67v-697h-67zM326 498v-59h-152v-439h-67v439h-83v59h83v65q0 134 134 134h86v-59h-87q-66 0 -66 -68v-72h152zM668 498v-59h-152v-439h-67v439h-83v59h83v65q0 134 134 134h86v-59h-87q-66 0 -66 -68v-72h152z" />
    <glyph glyph-name="longs_t" unicode="&#xfb05;" horiz-adv-x="612" 
d="M505 59h86v-59h-89q-63 0 -96.5 34t-33.5 97v308h-84v59h84v142h67v-142h151v-59h-151v-314q0 -66 66 -66zM173 570v-570h-67v439h-81v59h81v65q0 134 134 134h80v-59h-81q-66 0 -66 -68z" />
    <glyph glyph-name="zero.tab" unicode="&#xff10;" horiz-adv-x="586" 
d="M80 139v419q0 69 37 106t106 37h141q68 0 105.5 -37t37.5 -106v-419q0 -69 -37.5 -106t-105.5 -37h-141q-69 0 -106 37t-37 106zM225 58h137q74 0 74 77v427q0 77 -74 77h-137q-75 0 -75 -77v-427q0 -77 75 -77z" />
    <glyph glyph-name="one.tab" unicode="&#xff11;" horiz-adv-x="586" 
d="M517 61v-61h-425v61h179v575h-179v61h249v-636h176z" />
    <glyph glyph-name="two.tab" unicode="&#xff12;" horiz-adv-x="586" 
d="M511 62v-62h-427v172q0 54 20 86t71 52l213 82q23 10 33.5 25t10.5 44v104q0 74 -74 74h-127q-75 0 -75 -74v-89h-68v82q0 69 36.5 106t105.5 37h130q69 0 106 -37t37 -106v-95q0 -93 -85 -126l-216 -84q-30 -12 -39 -27t-9 -50v-114h357z" />
    <glyph glyph-name="three.tab" unicode="&#xff13;" horiz-adv-x="586" 
d="M359 -4h-144q-68 0 -104.5 33.5t-36.5 96.5v65h69v-68q0 -66 74 -66h139q75 0 75 72v137q0 65 -69 65h-139v60h125q69 0 69 66v112q0 71 -75 71h-123q-75 0 -75 -65v-69h-68v66q0 63 36 96t105 33h128q69 0 105.5 -34.5t36.5 -100.5v-96q0 -79 -58 -104q72 -21 72 -108
v-126q0 -66 -36.5 -101t-105.5 -35z" />
    <glyph glyph-name="four.tab" unicode="&#xff14;" horiz-adv-x="586" 
d="M528 249v-58h-75v-191h-71v191h-340v58l347 450h64v-450h75zM112 249h270v350z" />
    <glyph glyph-name="five.tab" unicode="&#xff15;" horiz-adv-x="586" 
d="M366 -4h-143q-68 0 -104.5 33.5t-36.5 96.5v63h68v-67q0 -66 75 -66h138q75 0 75 72v150q0 71 -75 71h-268v348h393v-62h-324v-226h202q69 0 105.5 -34.5t36.5 -100.5v-142q0 -66 -36.5 -101t-105.5 -35z" />
    <glyph glyph-name="six.tab" unicode="&#xff16;" horiz-adv-x="586" 
d="M512 265v-126q0 -70 -36.5 -106.5t-105.5 -36.5h-142q-69 0 -105.5 36.5t-36.5 106.5v419q0 70 36.5 106.5t105.5 36.5h138q68 0 104.5 -34.5t36.5 -98.5v-57h-69v60q0 68 -75 68h-132q-75 0 -75 -74v-167h220q136 0 136 -133zM231 58h136q75 0 75 74v136q0 68 -69 68
h-217v-204q0 -74 75 -74z" />
    <glyph glyph-name="seven.tab" unicode="&#xff17;" horiz-adv-x="586" 
d="M517 643l-278 -643h-71l276 635h-374v62h447v-54z" />
    <glyph glyph-name="eight.tab" unicode="&#xff18;" horiz-adv-x="586" 
d="M365 -4h-144q-69 0 -106 36t-37 103v111q0 93 74 119q-64 28 -64 117v80q0 67 36.5 103t105.5 36h126q69 0 106 -36t37 -103v-80q0 -88 -65 -117q74 -26 74 -119v-111q0 -67 -37 -103t-106 -36zM355 641h-123q-75 0 -75 -75v-100q0 -74 75 -74h123q75 0 75 74v100
q0 75 -75 75zM364 333h-141q-75 0 -75 -75v-127q0 -75 75 -75h141q75 0 75 75v127q0 36 -19.5 55.5t-55.5 19.5z" />
    <glyph glyph-name="nine.tab" unicode="&#xff19;" horiz-adv-x="586" 
d="M357 -4h-137q-68 0 -104.5 34.5t-36.5 98.5v57h69v-60q0 -68 74 -68h133q75 0 75 74v180h-220q-66 0 -101 34.5t-35 99.5v112q0 70 36.5 106.5t105.5 36.5h141q143 0 143 -143v-419q0 -70 -36.5 -106.5t-106.5 -36.5zM213 374h217v191q0 74 -75 74h-136q-75 0 -75 -74
v-122q0 -69 69 -69z" />
    <glyph glyph-name="_1" horiz-adv-x="0" 
 />
    <glyph glyph-name="CR.001" horiz-adv-x="333" 
 />
    <glyph glyph-name="grave.case" horiz-adv-x="236" 
d="M128 745l-68 117v15h66l48 -132h-46z" />
    <glyph glyph-name="dieresis.case" horiz-adv-x="264" 
d="M105 771h-56v79h56v-79zM215 771h-56v79h56v-79z" />
    <glyph glyph-name="macron.case" horiz-adv-x="324" 
d="M288 774h-252v48h252v-48z" />
    <glyph glyph-name="acute.case" horiz-adv-x="236" 
d="M108 877h66v-15l-67 -117h-47z" />
    <glyph glyph-name="circumflex.case" horiz-adv-x="277" 
d="M251 745h-48l-65 88l-65 -88h-47l85 132h54z" />
    <glyph glyph-name="caron.case" horiz-adv-x="277" 
d="M165 745h-54l-85 132h47l65 -88l65 88h48z" />
    <glyph glyph-name="breve.case" horiz-adv-x="337" 
d="M247 831v59h47v-60q0 -87 -97 -87h-56q-97 0 -97 87v60h47v-59q0 -47 53 -47h51q52 0 52 47z" />
    <glyph glyph-name="dotaccent.case" horiz-adv-x="221" 
d="M144 787h-67v90h67v-90z" />
    <glyph glyph-name="ring.case" horiz-adv-x="287" 
d="M126 927h35q83 0 83 -78v-30q0 -79 -83 -79h-35q-83 0 -83 79v30q0 78 83 78zM162 888h-36q-40 0 -40 -40v-29q0 -40 40 -40h36q40 0 40 40v29q0 40 -40 40z" />
    <glyph glyph-name="tilde.case" horiz-adv-x="373" 
d="M260 799h14q27 0 27 25v39h43v-47q0 -62 -65 -62h-23q-28 0 -53 16l-52 34q-19 13 -37 13h-14q-28 0 -28 -25v-38h-43v46q0 63 65 63h26q26 0 51 -16l52 -34q22 -14 37 -14z" />
    <glyph glyph-name="hungarumlaut.case" horiz-adv-x="296" 
d="M79 877h58v-15l-64 -117h-38zM202 877h58v-15l-96 -117h-38z" />
    <glyph glyph-name="caron.salt" horiz-adv-x="282" 
d="M120 697h63v-22l-50 -122h-39z" />
    <glyph glyph-name="commaaccent.salt" horiz-adv-x="290" 
d="M125 97h71v-23l-54 -121h-42z" />
    </font>
</defs>
</svg>
