<?xml version="1.0" standalone="no"?>
<!DOCTYPE svg PUBLIC "-//W3C//DTD SVG 20010904//EN"
 "http://www.w3.org/TR/2001/REC-SVG-20010904/DTD/svg10.dtd">
<svg version="1.0" xmlns="http://www.w3.org/2000/svg"
 width="490.000000pt" height="476.000000pt" viewBox="0 0 490.000000 476.000000"
 preserveAspectRatio="xMidYMid meet">
<metadata>
Created by potrace 1.15, written by Peter Selinger 2001-2017
</metadata>
<g transform="translate(0.000000,476.000000) scale(0.100000,-0.100000)"
fill="#000000" stroke="none">
<path d="M2865 4414 c-11 -8 -42 -21 -70 -30 -63 -19 -355 -63 -355 -54 0 10
-147 38 -270 51 -115 12 -257 6 -363 -16 -105 -22 -377 -161 -362 -185 13 -20
50 -9 124 39 42 26 90 56 108 65 32 16 103 22 103 9 -1 -5 -22 -21 -48 -37
-26 -17 -51 -36 -55 -43 -4 -7 -17 -13 -27 -13 -11 0 -20 -7 -20 -15 0 -8 -11
-17 -25 -21 -14 -3 -25 -12 -25 -18 0 -7 -11 -18 -25 -24 -14 -6 -25 -16 -25
-22 0 -6 -11 -15 -25 -20 -14 -5 -25 -16 -25 -23 0 -8 -12 -19 -26 -25 -14 -7
-22 -17 -19 -23 4 -5 -7 -15 -24 -22 -22 -8 -29 -16 -26 -28 4 -11 -2 -19 -17
-24 -67 -22 299 -32 567 -15 83 5 213 15 291 21 l140 12 85 -28 c184 -61 455
-175 678 -286 l235 -117 42 -93 c38 -86 40 -95 24 -101 -38 -14 -411 -87 -550
-108 -80 -11 -179 -27 -220 -35 -109 -20 -640 -64 -781 -65 -26 0 -26 0 -33
-107 -4 -59 -9 -110 -12 -113 -9 -8 -425 -1 -559 10 -173 15 -183 17 -178 44
4 19 -4 26 -64 51 -37 15 -82 36 -100 47 -31 18 -32 18 -37 0 -4 -11 -16 -28
-27 -38 -20 -18 -22 -18 -33 -1 -12 15 -18 10 -58 -51 -44 -65 -78 -125 -78
-136 0 -7 56 -36 68 -36 5 0 22 45 37 100 28 101 49 136 35 58 -4 -24 -11 -73
-15 -110 -7 -68 -7 -68 22 -79 15 -6 42 -13 59 -16 l30 -5 -27 108 c-43 166
-37 232 10 114 24 -60 111 -214 134 -237 32 -32 394 -55 812 -52 l330 3 215
-106 c225 -111 443 -233 650 -363 68 -42 133 -80 144 -85 17 -6 18 -9 6 -14
-35 -13 -288 -57 -440 -76 -256 -33 -253 -21 -34 -127 105 -50 202 -95 216
-98 22 -6 40 6 129 83 57 49 142 126 189 170 l85 81 -55 1 c-71 1 -140 15
-120 23 8 4 47 8 85 9 l70 3 -52 36 c-29 20 -50 39 -47 42 4 4 41 -18 84 -48
l76 -54 80 20 c62 16 85 27 108 52 26 30 27 30 12 4 l-17 -28 28 7 c52 12 248
86 308 117 l60 30 -31 26 c-17 14 -65 56 -105 92 -97 87 -247 203 -383 297
l-110 76 164 41 c214 54 280 73 280 85 0 20 -80 231 -127 335 -28 61 -71 146
-96 190 l-46 80 81 27 c45 15 83 27 84 25 1 -1 25 -38 52 -83 67 -108 135
-245 192 -385 41 -103 49 -116 64 -107 22 13 77 -38 172 -158 76 -98 99 -135
124 -205 l19 -54 1 55 c0 67 -16 199 -36 299 -31 152 -138 456 -156 445 -4 -3
-6 1 -3 8 6 15 -98 193 -163 281 -41 55 -62 70 -62 45 0 -17 -51 -68 -68 -68
-8 0 -31 13 -51 28 -117 90 -254 177 -439 277 l-133 72 84 26 c88 28 152 64
152 86 0 16 -149 104 -214 127 -25 8 -62 23 -81 34 -36 18 -226 80 -245 80 -5
0 -19 -7 -30 -16z m25 -34 c0 -5 11 -10 25 -10 14 0 25 -5 25 -11 0 -6 9 -8
20 -4 11 4 20 2 20 -4 0 -6 -4 -11 -10 -11 -5 0 -7 -6 -4 -14 4 -10 -21 -19
-96 -35 -55 -11 -110 -21 -120 -21 -30 0 -25 -11 28 -63 l48 -47 124 25 c68
14 141 30 163 36 35 9 43 8 78 -15 21 -15 39 -30 39 -35 0 -10 -85 -34 -227
-63 l-112 -23 -38 36 -38 36 -111 -16 -111 -15 -32 -73 c-18 -40 -38 -76 -45
-81 -6 -5 -34 -12 -63 -15 -51 -6 -52 -5 -58 23 -5 23 0 39 23 72 16 24 37 58
46 77 20 38 22 35 -63 96 l-53 38 7 -34 c3 -19 9 -42 11 -52 3 -9 -1 -19 -8
-22 -14 -4 -292 -24 -295 -21 -4 3 57 160 65 168 4 3 63 10 132 13 l126 7 72
-44 71 -45 68 9 c37 4 79 11 91 14 l24 5 -29 21 c-15 12 -30 23 -32 25 -10 7
9 14 65 23 146 26 163 31 157 46 -3 8 0 14 6 14 6 0 11 -4 11 -10z"/>
<path d="M1333 4117 c-28 -23 -75 -59 -102 -80 -28 -21 -51 -43 -51 -48 0 -4
11 -16 25 -25 25 -16 26 -16 78 32 28 27 73 67 100 88 45 37 47 40 31 57 -10
11 -20 19 -23 18 -3 0 -29 -19 -58 -42z"/>
<path d="M1010 3628 c-10 -17 -36 -71 -57 -120 -22 -51 -43 -86 -50 -84 -14 6
-33 -98 -33 -187 0 -36 -4 -69 -10 -72 -5 -3 -11 -5 -11 -3 -1 2 -5 61 -8 131
l-6 128 -42 -96 c-24 -53 -43 -101 -43 -108 0 -7 18 -32 40 -56 l41 -44 29 34
c28 32 31 33 44 16 12 -16 15 -16 23 -4 4 8 46 58 92 111 78 89 87 96 122 96
76 0 72 -8 -52 -102 -217 -164 -222 -175 -87 -169 103 4 138 13 138 37 0 13 8
15 53 10 28 -3 187 -8 353 -12 l301 -7 7 104 c4 56 9 106 11 110 3 3 73 10
157 14 84 4 182 10 218 14 l65 6 -130 49 c-154 57 -407 141 -453 151 l-32 7
-58 -119 -57 -119 -95 3 c-52 2 -118 6 -147 9 l-52 5 10 29 c6 16 34 77 64
137 29 59 51 110 49 112 -10 11 -119 20 -242 20 l-132 1 -20 -32z"/>
<path d="M704 3089 c-6 -10 -54 -212 -51 -215 2 -2 23 22 47 52 24 30 61 70
81 89 20 18 40 42 43 53 6 18 2 20 -55 24 -33 1 -63 0 -65 -3z"/>
<path d="M4300 2575 c-2 -41 -4 -50 -7 -27 -8 59 -23 22 -24 -56 0 -42 -4
-102 -8 -132 -7 -50 -13 -59 -65 -106 -32 -28 -79 -64 -106 -80 -47 -28 -48
-31 -55 -88 -3 -32 -5 -60 -3 -62 8 -7 113 71 160 117 27 27 48 44 48 39 0
-22 -21 -61 -30 -55 -5 3 -18 -12 -30 -34 -23 -47 -25 -55 -7 -45 7 4 9 3 4
-2 -5 -5 -12 -9 -17 -9 -4 0 -35 -40 -68 -90 -63 -94 -106 -145 -135 -161 -16
-9 -15 -15 11 -73 l29 -63 40 64 c22 34 52 83 66 107 23 40 26 42 29 20 4 -22
6 -20 21 15 9 21 17 51 17 66 0 15 11 48 25 74 14 26 34 86 46 134 11 48 24
102 30 119 15 49 27 132 19 135 -4 2 -1 32 7 68 7 36 12 92 10 125 l-3 60 -4
-60z"/>
<path d="M4240 2525 c-7 -9 -42 -37 -77 -63 l-64 -47 72 -32 c40 -18 74 -31
77 -29 6 7 16 186 10 186 -3 0 -11 -7 -18 -15z"/>
<path d="M683 2313 c3 -27 9 -64 12 -83 l7 -35 -36 37 c-21 23 -36 48 -36 62
0 14 -4 28 -10 31 -26 16 13 -181 50 -252 24 -48 86 -110 77 -78 -13 45 -26
111 -26 130 0 11 11 -23 23 -75 12 -52 21 -97 19 -99 -2 -3 -17 8 -33 24 -17
16 -30 23 -30 17 0 -28 29 -79 62 -108 19 -17 38 -39 42 -50 4 -12 -8 -4 -33
21 -23 21 -41 35 -41 31 0 -4 18 -45 40 -91 38 -77 108 -160 141 -167 7 -2 21
-11 32 -21 42 -41 239 -115 398 -151 291 -65 839 -94 1142 -60 l57 7 0 36 c1
35 5 39 113 114 134 92 227 164 227 175 0 4 -17 14 -37 21 -21 8 -109 47 -195
89 l-157 75 -3 41 -3 41 -40 -2 c-22 -2 -114 -7 -205 -13 l-164 -10 -206 81
c-482 191 -910 309 -1118 309 l-75 0 6 -47z m332 -142 c50 -11 198 -56 330
-100 268 -89 268 -89 -40 -51 -82 11 -151 17 -153 15 -2 -2 2 -34 10 -72 l13
-68 52 -9 c43 -8 53 -14 58 -34 8 -33 5 -34 -46 -23 -24 5 -45 8 -48 6 -6 -7
21 -125 30 -130 31 -20 503 -75 635 -75 36 0 54 -4 54 -12 0 -7 3 -23 6 -35 6
-23 5 -23 -87 -23 -217 0 -685 77 -727 119 -9 10 -46 28 -82 41 -36 12 -86 33
-111 46 -26 13 -49 21 -52 18 -2 -3 -7 4 -10 16 -6 25 -9 25 50 -5 74 -38 181
-76 188 -66 3 5 20 4 40 -2 19 -6 38 -8 41 -4 4 3 0 32 -8 64 -14 57 -14 58
-63 74 -41 13 -51 20 -53 41 -3 25 -2 25 37 15 22 -6 42 -9 44 -6 3 2 0 34 -6
71 -9 61 -12 67 -38 72 -22 4 -27 9 -22 23 5 15 3 16 -8 6 -22 -22 -33 -14
-13 8 19 22 19 22 -3 10 -31 -16 -33 -14 -33 17 0 21 -7 30 -29 39 l-29 10 15
-34 c16 -39 11 -52 -11 -34 -9 8 -16 8 -20 2 -5 -7 -88 18 -114 34 -1 1 -7 17
-12 35 l-9 33 67 -7 c37 -3 108 -15 157 -25z m638 -252 l217 -13 0 -40 0 -39
-154 6 c-154 6 -415 34 -428 46 -3 3 -9 22 -13 42 l-7 35 84 -12 c46 -7 181
-18 301 -25z m572 -125 l8 -77 82 7 c93 8 95 7 95 -69 l0 -42 -75 -5 c-42 -3
-78 -7 -81 -10 -2 -3 0 -32 5 -64 5 -33 8 -60 7 -61 -1 -1 -28 -4 -61 -5 -65
-3 -62 -6 -79 95 l-7 37 -79 0 c-88 0 -81 -7 -95 83 l-6 37 81 0 81 0 -6 58
c-4 31 -9 65 -11 75 -5 15 3 17 64 17 l70 0 7 -76z m-725 -5 c52 -6 160 -13
240 -17 l145 -7 6 -37 6 -38 -81 0 c-116 0 -473 36 -495 49 -6 4 -14 22 -17
41 l-7 33 54 -6 c30 -4 97 -12 149 -18z m-191 -219 c139 -28 323 -51 531 -68
l95 -7 3 -32 c3 -31 2 -32 -25 -28 -15 2 -77 7 -136 10 -197 10 -462 52 -580
91 -34 11 -51 23 -58 41 -12 33 -12 36 8 29 9 -4 82 -20 162 -36z"/>
<path d="M3775 2146 c-74 -33 -142 -140 -152 -239 -15 -142 91 -194 191 -94
65 65 90 127 91 220 0 74 -2 80 -28 103 -32 27 -58 30 -102 10z"/>
<path d="M3285 1957 c-55 -51 -129 -117 -163 -147 l-63 -55 162 -68 c89 -37
164 -65 167 -62 9 9 15 425 6 425 -5 -1 -54 -42 -109 -93z"/>
<path d="M2924 1652 c-27 -22 -103 -77 -169 -123 -66 -46 -132 -92 -145 -102
-25 -17 -23 -18 64 -12 56 4 87 3 85 -4 -6 -16 -153 -141 -166 -141 -7 0 -22
9 -33 20 -17 17 -20 18 -20 3 0 -9 7 -24 16 -34 15 -16 12 -20 -35 -55 -28
-21 -51 -41 -51 -44 0 -3 21 -17 48 -32 42 -24 105 -68 75 -53 -7 3 -81 6
-165 6 -164 0 -317 -18 -438 -50 -41 -11 -79 -21 -85 -21 -5 0 -3 -5 5 -10 22
-14 -6 -13 -125 6 -106 18 -128 30 -123 73 3 22 -5 28 -77 58 -197 80 -405
136 -393 104 4 -11 119 -107 183 -153 77 -55 216 -129 229 -121 6 3 8 2 3 -2
-4 -5 22 -25 57 -44 55 -31 63 -39 54 -54 -26 -47 24 -118 116 -164 70 -35
221 -78 336 -94 136 -19 448 -17 585 4 222 34 393 109 425 186 15 37 6 81 -17
81 -9 0 30 23 87 50 120 59 213 118 330 209 90 71 283 251 276 258 -2 3 -30
-16 -60 -41 -80 -65 -272 -157 -442 -212 -79 -26 -147 -45 -150 -41 -14 14 10
27 51 27 42 0 45 2 53 33 7 29 12 32 52 37 l44 5 -59 53 c-33 29 -110 88 -172
130 -62 42 -112 80 -112 85 -1 4 7 7 16 7 21 0 234 50 251 59 7 4 -63 37 -164
77 -98 38 -180 70 -184 72 -4 1 -29 -15 -56 -36z"/>
</g>
</svg>
