<?xml version="1.0" encoding="utf-8"?>
<!-- Generator: Adobe Illustrator 21.1.0, SVG Export Plug-In . SVG Version: 6.00 Build 0)  -->
<svg version="1.1" id="Layer_1" xmlns="http://www.w3.org/2000/svg" xmlns:xlink="http://www.w3.org/1999/xlink" x="0px" y="0px"
	 viewBox="0 0 100 100" style="enable-background:new 0 0 100 100;" xml:space="preserve">
<style type="text/css">
	.st0{fill:#7BB0CB;}
</style>
<g>
	<path class="st0" d="M93.1,65.1c-1.2-1.5-3.3-2.4-5.7-2.4c-1.2,0-3.2,0.2-5.2,1.3l-2.8,1.5c-7.4,4.1-16.7,9.1-21.3,10.7
		c-0.7,0.2-2.5-0.3-3.8-1.6c-1-0.9-1.2-1.7-1.1-2c0.1-0.2,0.7-0.9,2.9-1.3c3-0.6,4.8-0.9,6.3-1.1c1-0.2,1.9-0.3,2.8-0.5
		c7-1.4,7.1-5.8,6.8-7.6c-0.9-4.9-7-4.9-10.7-4.9H42.9c-4.8,0-14.1,5.1-19.5,8.3c-0.9-2.7-3.5-4.7-6.5-4.7h-4.3
		c-3.8,0-6.9,3.1-6.9,6.8v21.8c0,3.8,3.1,6.9,6.9,6.9h4.3c2.9,0,5.3-1.7,6.3-4.2l5.6,0c3.6,1.8,16,8,21.1,8c0,0,0.1,0,0.1,0
		c6.7-0.1,36.4-20.7,41.5-26.1C95.7,69.2,93.8,66,93.1,65.1z M16.9,91.5h-4.3c-1.2,0-2.2-1-2.2-2.2V67.6c0-1.2,1-2.2,2.2-2.2h4.3
		c1.2,0,2.2,1,2.2,2.2v1.8v19.9C19.1,90.5,18.1,91.5,16.9,91.5z M88.1,70.6C82.2,77,54.1,95.1,50,95.2h0c-3.3,0-13.5-4.6-19.5-7.7
		c-0.3-0.2-0.7-0.3-1.1-0.3c0,0,0,0,0,0l-5.6,0V70.7c7.1-4.5,15.8-8.9,19.1-8.9h18.4c4.8,0,5.9,0.6,6,1c0.1,0.5,0.2,1.6-3.1,2.2
		c-0.9,0.2-1.7,0.3-2.6,0.5c-1.4,0.2-3.4,0.5-6.5,1.2c-4.5,0.9-6,3.1-6.5,4.7c-0.6,2.2,0.3,4.6,2.4,6.7c1.9,1.8,4.5,3,6.7,3
		c0.7,0,1.3-0.1,1.9-0.3c4.9-1.7,14.4-6.9,22-11l2.8-1.5c1.2-0.6,2.3-0.8,2.9-0.8c1.1,0,1.8,0.3,2,0.6
		C89.6,68.2,89.4,69.1,88.1,70.6z"/>
	<path class="st0" d="M55.8,52.9c14.2,0,25.8-11.6,25.8-25.8c0-14.2-11.6-25.8-25.8-25.8S30,12.8,30,27C30,41.3,41.6,52.9,55.8,52.9
		z M55.8,5.9C67.5,5.9,77,15.4,77,27s-9.5,21.1-21.1,21.1S34.7,38.7,34.7,27S44.2,5.9,55.8,5.9z"/>
	<path class="st0" d="M47,38.6c1.9,1.4,3.4,1.7,6,2c0,0,0,0,0,0v2c0,1.3,1.1,2.4,2.3,2.4s2.3-1.1,2.3-2.4v-2c0.3,0,0.6-0.1,0.9-0.2
		c2.6-0.6,4.7-1.9,5.9-3.8c1.6-2.5,1.4-5.8-0.4-8.2c-1.3-1.8-3.3-2.7-5-3.4l-0.3-0.1c-1.3-0.6-2.6-1.1-4.3-1.6c-2.2-0.8-3-1.4-3-2.6
		c0-2,2-2.7,3.8-2.7c1.6,0,3.8,0.5,5.8,1.3c1.2,0.5,2.6-0.1,3-1.4c0.5-1.2-0.1-2.6-1.4-3c-1.8-0.7-3.5-1.1-5.2-1.4v-2
		c0-1.3-1.1-2.4-2.3-2.4s-2.3,1.1-2.3,2.4v2.1c-3.7,0.8-6.1,3.5-6.1,7.2c0,5,4.6,6.5,6.2,7.1c1.5,0.5,2.8,1,3.9,1.5l0.4,0.2
		c1.2,0.5,2.5,1.1,3,1.9c0.6,0.9,0.7,2.1,0.2,3c-0.7,1.1-2.1,1.5-2.9,1.7c-0.4,0.1-0.8,0.1-1.3,0.2c-0.9,0.1-1.8,0-2.8-0.1
		c-2.3-0.3-2.9-0.5-3.9-1.2c-1.1-0.8-2.5-0.5-3.3,0.6C45.7,36.4,46,37.8,47,38.6z"/>
</g>
</svg>
