<?xml version="1.0" encoding="utf-8"?>
<!-- Generator: Adobe Illustrator 21.1.0, SVG Export Plug-In . SVG Version: 6.00 Build 0)  -->
<svg version="1.1" id="Layer_1" xmlns="http://www.w3.org/2000/svg" xmlns:xlink="http://www.w3.org/1999/xlink" x="0px" y="0px"
	 viewBox="0 0 841.9 595.3" style="enable-background:new 0 0 841.9 595.3;" xml:space="preserve">
<style type="text/css">
	.st0{opacity:0.22;}
	.st1{fill:#93BED4;}
</style>
<title>Asset 1</title>
<g class="st0">
	<path class="st1" d="M734.5,244.8c11.3,0,20.5-11.3,20.5-11.3s-9.2-11.3-20.5-11.3c-9.4,0-17.2,7.7-19.7,10.3H690l25.7-25.7
		c3.6,0.2,14.6,0,21.2-6.6c8-8,6.5-22.5,6.5-22.5s-14.5-1.5-22.5,6.5c-6.6,6.6-6.8,17.6-6.6,21.2l-27,27h-9.1
		c-2.5-2.6-10.3-10.3-19.7-10.3c-9.4,0-17.2,7.7-19.7,10.3h-24.9l25.7-25.7c3.6,0.2,14.6,0,21.2-6.6c8-8,6.5-22.5,6.5-22.5
		s-14.4-1.5-22.4,6.5c-6.6,6.6-6.8,17.6-6.6,21.2l-27,27h-18.1v-25.7l27-27c3.6,0.2,14.6,0,21.2-6.6c6.8-6.8,6.8-18.3,6.6-21.5
		c0.7,0.1,1.4,0.1,2.1,0.1c11.3,0,20.5-11.3,20.5-11.3s-9.2-11.3-20.5-11.3c-9.3,0-17.2,7.7-19.7,10.3h-31c-0.9-0.9-1.8-1.8-2.7-2.7
		l14.9-14.9c3.6,0.2,14.6,0,21.2-6.6c8-8,6.5-22.4,6.5-22.4s-14.4-1.5-22.4,6.5c-6.6,6.6-6.8,17.6-6.6,21.2l-15,15
		c-0.8-0.6-1.6-1.3-2.6-1.9V74.3c2.7-2.4,10.3-10.3,10.3-19.7c0-11.3-11.3-20.5-11.3-20.5s-11.3,9.2-11.3,20.5
		c0,9.4,7.7,17.2,10.3,19.7v58.5c-3.4-2.1-7.2-3.3-11.2-3.4c-9.4,0-17.2,7.7-19.7,10.3H524l17.6-17.6c3.6,0.1,14.6,0,21.2-6.6
		c8-8,6.5-22.4,6.5-22.4s-14.4-1.5-22.4,6.5c-6.6,6.6-6.8,17.6-6.6,21.2l-17.6,17.6V86.3C525.3,83.8,533,76,533,66.6
		c0-11.3-11.3-20.5-11.3-20.5s-11.3,9.2-11.3,20.5c0,9.3,7.7,17.2,10.3,19.7v52.3L484,101.8c0.2-3.6,0-14.6-6.6-21.2
		c-8-8-22.4-6.5-22.4-6.5s-1.5,14.4,6.5,22.4c6.6,6.6,17.6,6.8,21.2,6.6l36.7,36.7h-24.9c-2.5-2.7-10.3-10.3-19.7-10.3
		c-7.8,0-14.5,5.3-18,8.6c-3.5-3.3-10.2-8.6-18-8.6c-3,0.1-6,0.8-8.7,2.1V86.7l27-27c3.6,0.2,14.6,0,21.2-6.6c8-8,6.5-22.4,6.5-22.4
		s-14.5-1.5-22.5,6.5c-6.6,6.6-6.8,17.6-6.6,21.2l-25.7,25.7V59.3c2.7-2.5,10.3-10.3,10.3-19.7c0-11.3-11.3-20.5-11.3-20.5
		s-11.3,9.2-11.3,20.5c0,9.4,7.7,17.2,10.3,19.7v24.9l-25.7-25.7c0.2-3.6,0-14.6-6.6-21.2c-8-8-22.4-6.5-22.4-6.5S372,45.1,380,53.1
		c6.6,6.6,17.6,6.8,21.2,6.6l27,27v45.7c-3.4,2-6.5,4.4-9.1,7.3h-36.4l17.6-17.6c3.6,0.2,14.6,0,21.2-6.6c8-8,6.5-22.4,6.5-22.4
		s-14.5-1.5-22.5,6.5c-6.6,6.6-6.8,17.6-6.6,21.2l-17.6,17.6V102c2.7-2.5,10.3-10.3,10.3-19.7c0-11.3-11.3-20.5-11.3-20.5
		s-11.2,9.2-11.2,20.5c0,9.4,7.7,17.2,10.3,19.7v38.2l-6.7,6.8l-15.5-15.5c0.8-2.2,1.3-4.5,1.3-6.8c0-11.3-11.3-20.5-11.3-20.5
		c-3.1,2.7-5.8,5.9-7.9,9.5l-4.1-4.1V71.3c2.7-2.5,10.3-10.3,10.3-19.7c0-11.3-11.3-20.5-11.3-20.5s-11.3,9.2-11.3,20.5
		c0,9.3,7.7,17.2,10.3,19.7v36.4l-17.6-17.6c0.2-3.6,0-14.6-6.6-21.2c-8-8-22.4-6.5-22.4-6.5s-1.5,14.4,6.5,22.4
		c6.6,6.6,17.6,6.8,21.2,6.6l17.6,17.6h-66.5c-2.5-2.7-10.3-10.3-19.7-10.3c-11.3,0-20.5,11.3-20.5,11.3s9.2,11.3,20.5,11.3
		c9.3,0,17.2-7.7,19.7-10.3h68.3l4.5,4.5c-1.5,2.9-2.3,6.1-2.4,9.3c0,9.4,7.7,17.2,10.3,19.7v28.9l-3.7,3.7l-8.1-8.1
		c0.9-0.6,1.7-1.3,2.4-2c8-8,6.5-22.4,6.5-22.4s-9.6-1-17.5,3c-0.9-2.1-2.2-3.9-3.8-5.6c-8-8-22.4-6.5-22.4-6.5s-1.5,14.5,6.5,22.5
		c2.5,2.4,5.6,4.1,8.9,5.1c-0.6,3.1-0.9,6.2-0.7,9.3l-7.8,7.8c-3.4-3.2-9.5-7.8-16.6-8.3c3.3-3.4,8.9-10.3,8.9-18.3
		c0-11.3-11.3-20.4-11.3-20.4s-11.3,9.2-11.3,20.5c0,8.2,6,15.3,9.2,18.6c-7.1,1.3-12.9,6.5-15.6,9.2l-9-9c0.1-3.6,0-14.6-6.6-21.2
		c-8-8-22.4-6.5-22.4-6.5s-1.5,14.5,6.5,22.5c6.6,6.6,17.6,6.8,21.2,6.6l9,9l-0.3,0.4c2.1,2.5,4.6,4.6,7.2,6.5l11.1,11.1v29.3
		l-25.6-25.6c0.2-3.6,0-14.6-6.6-21.2c-8-8-22.5-6.5-22.5-6.5S231,191,239,199c6.6,6.6,17.6,6.8,21.2,6.6l25.7,25.7h-24.9
		c-2.5-2.7-10.3-10.3-19.7-10.3c-2.8,0-5.6,0.7-8.1,1.8l-36.5-36.5V117c2.7-2.5,10.3-10.3,10.3-19.7c0-11.3-11.3-20.5-11.3-20.5
		s-11.3,9.2-11.3,20.5c0,9.4,7.7,17.2,10.3,19.7v67.4l-17.6-17.6c0.1-3.6,0-14.6-6.6-21.2c-8-8-22.4-6.5-22.4-6.5
		s-1.5,14.5,6.5,22.5c6.6,6.6,17.6,6.8,21.2,6.6l17.6,17.6h-36.4c-2.5-2.7-10.3-10.3-19.7-10.3c-11.3,0-20.5,11.3-20.5,11.3
		s9.2,11.3,20.5,11.3c9.4,0,17.2-7.7,19.7-10.3h38.2l36.1,36.1c-4,2.2-7.6,5.1-10.6,8.6c0,0,9.2,11.3,20.5,11.3
		c2.8,0,5.6-0.7,8.2-1.8l13.9,13.9l-3.3,3.3c-3.6-0.2-14.6,0-21.2,6.6c-2,2.1-3.6,4.6-4.6,7.4l-31.6-31.6c0.2-3.6,0-14.6-6.6-21.2
		c-8-8-22.5-6.5-22.5-6.5s-1.5,14.5,6.5,22.5c6.6,6.6,17.6,6.8,21.2,6.6l32.2,32.2c-0.1,0.3-0.2,0.7-0.3,1
		c-3.7-0.8-7.5-1.1-11.3-0.8c0,0-0.1,1-0.1,2.7h-57.6c-2.5-2.7-10.3-10.3-19.7-10.3c-11.3,0-20.5,11.3-20.5,11.3s9.2,11.3,20.5,11.3
		c9.4,0,17.2-7.7,19.7-10.3h57.6c0.1,4.1,1,8.1,2.6,11.9l-13.8,13.8c-3.6-0.2-14.6,0-21.2,6.6c-8,8-6.5,22.4-6.5,22.4
		s14.5,1.5,22.5-6.5c6.6-6.6,6.8-17.6,6.6-21.2l13.4-13.4c0.8,1.6,1.9,3,3.2,4.3c6.6,6.6,17.6,6.8,21.2,6.6l25.7,25.7h-24.9
		c-2.5-2.7-10.3-10.3-19.7-10.3c-11.3,0-20.5,11.3-20.5,11.3s9.2,11.3,20.5,11.3c9.3,0,17.2-7.7,19.7-10.3h24.9l-25.7,25.7
		c-3.6-0.2-14.6,0-21.2,6.6c-4,4-5.6,9.7-6.3,14.3l-2.1-2.1c0.2-3.6,0-14.6-6.6-21.2c-8-8-22.4-6.5-22.4-6.5s-1.5,14.4,6.5,22.4
		c6.6,6.6,17.6,6.8,21.2,6.6l3.1,3.1c-0.2,1.9-0.2,3.9,0,5.8c1.9,0.2,3.9,0.2,5.8,0l16.8,16.8h-24.9c-2.5-2.7-10.3-10.3-19.7-10.3
		c-11.3-0.1-20.5,11.1-20.5,11.1s9.2,11.3,20.5,11.3c9.3,0,17.2-7.7,19.7-10.3h24.9l-25.7,25.7c-3.6-0.2-14.6,0-21.2,6.6
		c-8,8-6.5,22.4-6.5,22.4s14.4,1.5,22.4-6.5c6.6-6.6,6.8-17.6,6.6-21.2l27-27h39.8c-1.1,4.2-1.5,8.5-1.2,12.8c0,0,14.4,1.5,22.4-6.5
		c1.8-1.8,3.2-3.9,4.1-6.3h17c2.5,2.7,10.3,10.3,19.7,10.3c6.3,0,12-3.5,15.7-6.6l11.7,11.7h-41.9v16.2h-38.5
		c-2.5-2.7-10.3-10.3-19.7-10.3c-11.3,0-20.5,11.3-20.5,11.3s9.2,11.3,20.5,11.3c9.3,0,17.2-7.7,19.7-10.3h38.5V462H297
		c-2.5-2.7-10.3-10.3-19.7-10.3c-11.3,0-20.5,11.3-20.5,11.3s9.2,11.3,20.5,11.3c9.3,0,17.2-7.7,19.7-10.3h36.4l-17.6,17.6
		c-3.6-0.1-14.6,0-21.2,6.6c-8,8-6.5,22.5-6.5,22.5s14.4,1.5,22.4-6.5c6.6-6.6,6.8-17.6,6.6-21.2l17.6-17.6v36.4
		c-2.7,2.5-10.3,10.3-10.3,19.7c0,11.3,11.3,20.5,11.3,20.5s11.3-9.2,11.3-20.5c0-9.4-7.7-17.2-10.3-19.7v-35.3l7.7,7.7
		c-0.2,3.6,0,14.6,6.6,21.2c8,8,22.4,6.5,22.4,6.5s1.5-14.4-6.5-22.4c-6.6-6.6-17.6-6.8-21.2-6.6l-9-9v-41.4h41.9l0.9,0.9
		c-4.3,0.8-9.2,2.4-12.8,6c-8,8-6.5,22.4-6.5,22.4s14.4,1.5,22.4-6.5c3.6-3.6,5.3-8.5,6-12.8l14.4,14.4c-3.1,3.8-6.6,9.4-6.6,15.7
		c0,11.3,11.3,20.5,11.3,20.5s11.1-9.1,11.2-20.3l9.5,9.5v103.1h1.8V472.5l14.9-14.9c8.1,7.1,21.6,5.8,21.6,5.8s1.3-13.5-5.8-21.6
		l17.2-17.2v16.5c-2.7,2.5-10.3,10.3-10.3,19.7c0,11.3,11.3,20.5,11.3,20.5s11.3-9.2,11.3-20.5c0-9.3-7.7-17.2-10.3-19.7v-18.3
		l19.5-19.5v41h29.7l-0.7,0.7l30.9,30.9l11.5-11.5l27.3,27.2c-0.2,3.6,0,14.6,6.6,21.2c8,8,22.4,6.5,22.4,6.5s1.5-14.4-6.5-22.4
		c-6.6-6.6-17.6-6.8-21.2-6.6L572,463l16.7-16.7l26.6,26.7c-0.1,3.6,0,14.6,6.6,21.2c8,8,22.4,6.5,22.4,6.5s1.5-14.4-6.5-22.4
		c-6.6-6.6-17.6-6.8-21.2-6.6L590.9,446h24.9c2.5,2.7,10.3,10.3,19.7,10.3C646.8,456.3,656,445,656,445s-9.2-11.3-20.5-11.3
		c-9.4,0-17.2,7.7-19.7,10.3h-24.9l25.7-25.7c3.6,0.1,14.6,0,21.2-6.6c8-8,6.5-22.4,6.5-22.4s-14.4-1.4-22.4,6.6
		c-6.6,6.6-6.8,17.6-6.6,21.2l-25,24.9v-10.8c2.7-2.5,10.3-10.3,10.3-19.7c0-11.3-11.3-20.5-11.3-20.5s-11.3,9.2-11.3,20.5
		c0,9.4,7.7,17.2,10.3,19.7v12.7l-29.3,29.3l-29-29h9.6c2.5,2.7,10.3,10.3,19.7,10.3c11.3,0,20.5-11.3,20.5-11.3
		s-9.2-11.3-20.5-11.3c-9.3,0-17.2,7.7-19.7,10.3h-38.6v-39.6l16.5,16.5l2.7-2.7c3.5,0.2,14.6,0.1,21.3-6.6c8-8,6.5-22.4,6.5-22.4
		s-14.4-1.5-22.4,6.5c-6.6,6.5-6.8,17.4-6.6,21.1l-1.5,1.5l-15.9-15.9l20.3-20.3h38.2c2.5,2.7,10.3,10.3,19.7,10.3
		c11.3,0,20.5-11.3,20.5-11.3s-9.2-11.3-20.5-11.3c-9.4,0-17.2,7.7-19.7,10.3H524l17.6-17.6c3.6,0.2,14.6,0,21.2-6.6
		c4.6-4.6,6-11.3,6.5-16.2h40l27,27c-0.2,3.6,0,14.6,6.6,21.2c8,8,22.4,6.5,22.4,6.5s1.5-14.4-6.5-22.4c-6.6-6.6-17.6-6.8-21.2-6.6
		l-25.7-25.7h68c2.4,2.7,10.3,10.3,19.7,10.3c11.3,0,20.5-11.3,20.5-11.3s-9.2-11.3-20.5-11.3c-9.4,0-17.2,7.7-19.7,10.3h-68
		l25.7-25.7c3.6,0.2,14.6,0,21.2-6.6c4.2-4.2,5.8-10.1,6.3-14.9c1.5,0,2.4-0.1,2.4-0.1s1.5-14.4-6.5-22.4
		c-6.6-6.6-17.6-6.8-21.2-6.6L614,234.5h24.9c2.5,2.7,10.3,10.3,19.7,10.3c9.3,0,17.2-7.7,19.7-10.3h9.1l27,27
		c-0.2,3.6,0,14.6,6.6,21.2c8,8,22.4,6.5,22.4,6.5s1.5-14.4-6.5-22.4c-6.6-6.6-17.6-6.8-21.2-6.6L690,234.5h24.9
		C717.3,237.1,725.2,244.8,734.5,244.8z M593.4,179.5c2.7-2.4,10.3-10.3,10.3-19.7c0-6.3-3.5-12-6.6-15.7c1.1-1,2-1.9,2.6-2.5h31
		c1.9,2,6.9,7,13.4,9.2c-4.8,0.1-13,1.3-18.3,6.6l0,0c-6.7,6.6-6.8,17.6-6.6,21.2l-25.7,25.7V179.5z M348.5,144.4
		c3.4-3.1,6.2-6.8,8.3-11l14.9,14.9l-23.2,23.2V144.4z M358.5,195.2l15.2,15.2c0,1.5,0,2.9,0.1,4.4c-0.4,0.3-0.8,0.6-1.1,1
		c-6.6,6.6-6.8,17.6-6.6,21.2l-9.8,9.7c-2.8,1.1-5.5,2.6-7.9,4.4V218c2.7-2.5,10.3-10.3,10.3-19.7
		C358.8,197.3,358.7,196.2,358.5,195.2z M428.2,311.3v24.9l-25.5-25.5c0.2-3.6,0-14.6-6.6-21.2c0,0-0.1-0.1-0.1-0.1l-0.1-0.1
		c-6.6-6.6-17.6-6.8-21.2-6.6l-14.8-14.9c1,0.2,2.1,0.3,3.2,0.3c9.3,0,17.1-7.5,19.6-10.3h3.5c2.5,2.7,10.3,10.3,19.7,10.3
		c7.4,0,13.8-4.8,17.4-8.1l5,5.1v6.9c-2.7,2.5-10.3,10.3-10.3,19.7C417.9,300.9,425.6,308.8,428.2,311.3z M382.7,329.5
		c-2.5-2.7-10.3-10.3-19.7-10.3c-6,0-11.3,3.1-15.1,6.1c0.3-1.3,0.4-2.6,0.5-3.9c0-11.3-11.3-20.5-11.3-20.5s-11.3,9.2-11.3,20.5
		c0,2.9,0.7,5.8,2,8.4h-39v-50.3h34.4l-4.4,4.4c-3.6-0.1-14.6,0-21.2,6.6c-8,8-6.5,22.4-6.5,22.4s14.4,1.5,22.4-6.5
		c6.6-6.6,6.8-17.6,6.6-21.2l5.7-5.7H369l4.4,4.4c-0.1,3.6,0,14.6,6.6,21.2l0.1,0.1c0,0,0.1,0.1,0.1,0.1c6.6,6.6,17.6,6.8,21.2,6.6
		l0.7,0.7l-16.9,16.9H382.7z M383.2,331.6l-7.6,7.6c-0.8,0-1.9,0-3.2,0c3.7-2,7.1-4.5,10-7.6H383.2z M403.5,313.9l15.5,15.5l0.1,0.1
		h-31.2L403.5,313.9z M405.8,245.5c-9.3,0-17.1,7.5-19.6,10.3h-3.5c-2.5-2.7-10.3-10.3-19.7-10.3c-1.1,0-2.1,0.1-3.2,0.3l7.5-7.5
		c3,0.1,10.8,0,17.2-3.6c6.4,3.5,14.1,3.6,17,3.5l7.7,7.6C408,245.6,406.9,245.5,405.8,245.5z M356.3,266.7l10.9,11h-39.5l17.8-17.8
		C348.6,262.8,352.3,265.1,356.3,266.7z M322.4,215.6c-2.8-2.7-6.3-4.6-10.1-5.5l26.3-26.3l3.3,0c-2.8,3.7-5.6,8.8-5.6,14.5
		c0,9.3,7.7,17.2,10.3,19.7v34.6c-0.3,0.3-0.6,0.6-0.9,0.8L329,236.8C329.2,233.2,329,222.2,322.4,215.6z M346.6,175.9v2.8
		c-0.3,0.3-0.7,0.6-1.1,1l-1.4-1.4L346.6,175.9z M344.2,181c-0.2,0.4-0.6,0.7-0.9,1h-3l2.5-2.5L344.2,181z M315.9,173.5
		c3,0.1,10.8,0,17.3-3.6l8.5,8.4l-3.8,3.7h-28.9l-0.7-0.7L315.9,173.5z M288.9,194.2l0.3,0c1.3,0,2.6-0.2,3.9-0.5l-4.2,4.2V194.2z
		 M288.9,200.6l8-8c4.5-2.1,8.6-5,12-8.7H336l-25.8,25.8c-3.4-0.6-6.8-0.8-10.2-0.6c-0.3,3.4,0,6.8,0.6,10.2L288.9,231V200.6z
		 M301,221.4c0.9,3.8,2.8,7.3,5.5,10.1c6.6,6.6,17.6,6.8,21.2,6.6l16.6,16.6c-0.4,0.4-0.7,0.7-0.9,1h-34.5
		c-2.5-2.7-10.3-10.3-19.7-10.3h-0.3l0-11.9L301,221.4z M288.9,267.9h0.3c9.4,0,17.2-7.7,19.7-10.3h34.3c0.3,0.3,0.6,0.6,0.9,1
		l-19.1,19.1l-36.2,0V267.9z M281.7,192.6c1.7,0.7,3.5,1.2,5.4,1.5v3.9L281.7,192.6z M287.1,234.6v10.9
		c-10.3,1.3-18.3,11.1-18.3,11.1s8,9.9,18.3,11.1v8.8l-21-21L287.1,234.6z M251.3,240.8c3.7-2,7-4.6,9.8-7.7h24.9l-21.2,21.2
		L251.3,240.8z M261.5,260.2l3.3-3.3l20.8,20.8h-27.8C261.5,271.2,261.6,263.2,261.5,260.2z M251.2,302.7c0.1-2.9,0-10.5-3.4-16.8
		c2.6-1,5-2.5,7.1-4.5c0.6-0.6,1.1-1.3,1.6-1.9h30.5v50.3h-8.8L251.2,302.7z M292.5,395.4c-2.2,2.2-3.8,4.9-4.7,7.8l-40.4-0.1
		l-17-17c4.6-0.6,10.3-2.3,14.3-6.3c6.6-6.6,6.8-17.6,6.6-21.2l27-27h50.5c2,3.5,4.5,6.7,7.5,9.4v36.4l-17.6-17.6
		c0.2-3.6,0-14.6-6.6-21.2c-8-8-22.4-6.5-22.4-6.5s-1.5,14.4,6.5,22.4c6.6,6.6,17.6,6.8,21.2,6.6l17.6,17.6h-36.4
		c-2.5-2.7-10.3-10.3-19.7-10.3c-11.3,0-20.5,11.3-20.5,11.3s9.2,11.3,20.5,11.3c9.3,0,17.2-7.7,19.7-10.3h23.4l-8.2,8.2
		C310.1,388.6,299.1,388.8,292.5,395.4z M329.5,403.1h-16.3c1.3-4.2,1.9-8.7,1.7-13.1l9.5-9.5h12.2l12.3,12.3
		C339.7,392.9,332,400.5,329.5,403.1z M387.7,422.5c-2-0.1-4.1,0-6.1,0.2l-15.3-15.3c1.1-1,2-1.9,2.6-2.5h36.4L387.7,422.5z
		 M406.6,442.7c-0.6,0.6-1.5,1.5-2.6,2.6L388.8,430c0.2-2,0.3-4.1,0.2-6.1l17.6-17.6V442.7z M428.3,469.5l-9.7-9.7
		c-1.2-8.2-7.7-14.9-10.1-17.1v-36.2l19.4,19.4l0.5,0.5V469.5z M428.3,423.7L408.5,404l13.1-13.2c1.8,3,4.1,5.6,6.7,8V423.7z
		 M428.3,359.5c-2.4,2.2-8.9,8.9-10.1,17l-9.3-9.3c0.2-3.4,0.1-14.7-6.6-21.4c-8-8-22.4-6.5-22.4-6.5s-1.5,14.4,6.5,22.5
		c6.5,6.5,17.2,6.7,21,6.6l10.7,10.6v0.3c0.1,3.5,1,6.9,2.7,10l-13.5,13.5l-4.7-4.7c0.2-3.6,0-14.6-6.6-21.2c-8-8-22.4-6.5-22.4-6.5
		s-1.5,14.5,6.5,22.5c6.6,6.6,17.6,6.8,21.2,6.6l3.8,3.8h-36.1c-2.2-2.4-8.9-8.9-17.1-10.1L338,379.2V341c2.6-2.4,4.9-5.2,6.8-8.2
		c3.1,3,9.1,7.9,16.2,8.7c-2.5,1-4.7,2.4-6.6,4.3c-8,8-6.5,22.4-6.5,22.4s14.4,1.5,22.4-6.5c6.6-6.6,6.8-17.6,6.6-21.2l8.9-8.9h23
		v-0.3h12.1l7.4,7.4V359.5z M428.3,219c-1.7-0.1-3.3-0.1-5,0c0,0-1.3,12.5,5,20.7v22.7l-3.7-3.7c1.1-1.1,1.8-1.9,1.8-1.9
		s-5.7-6.9-13.5-9.9l-10-10c0.1-3.6,0-14.6-6.6-21.2c-0.3-0.3-0.7-0.7-1.1-1c0.1-1.8,0.1-3.7,0-5.5c-3.5-0.3-7,0-10.5,0.7
		c-3.2-0.6-6.4-0.9-9.6-0.8l-17.5-17.5c-2.3-6.3-7.1-11.1-9.1-13V174l24.5-24.5l0.5,0.5c-0.1,3.9,0.1,14.5,6.6,21
		c6.5,6.5,17.1,6.8,21,6.6l25.4,25.4l0.1-0.1l1.7,1.7V219z M428.3,202.1l-25.7-25.7c0.1-3.6,0-14.6-6.6-21.2
		c-6.6-6.6-18.1-6.8-21.4-6.6l-0.3-0.3l6.7-6.7h38.2c1,1.1,2.1,2.2,3.3,3.1c-2.4,3.5-4.5,8-4.5,12.9c0,9.3,7.7,17.2,10.3,19.7V202.1
		z M522.2,141.6h38.2c2.4,2.6,10.1,10.1,19.3,10.3l-15.1,15.1c-0.9-3.6-2.7-6.9-5.3-9.5c-8-8-22.4-6.5-22.4-6.5s-1.5,14.4,6.5,22.4
		c2.7,2.5,6,4.4,9.5,5.3l-7.4,7.3c-3.6-0.2-14.6,0-21.2,6.6c-6.6,6.6-6.8,17.6-6.6,21.2l-17.6,17.6V195c2.7-2.5,10.3-10.3,10.3-19.7
		c0-6.2-3.4-11.8-6.5-15.6L522.2,141.6z M505.6,246.8l-25.7,25.7v-24.9c2-1.9,6.9-6.8,9.2-13.2h18.1
		C506,238.5,505.5,242.6,505.6,246.8z M484.9,149.1c3.6-2,6.8-4.5,9.6-7.5h24.9l-16.7,16.7c-1.1-1.2-2.3-2.4-3.5-3.4
		c-4,3.5-7.3,7.7-9.5,12.5c-3.3,0.2-6.6,0.8-9.8,1.9C485.5,162,485.1,151.4,484.9,149.1z M430.1,177.2c2.7-2.5,10.3-10.3,10.3-19.7
		c0-1.9-0.3-3.9-0.9-5.7c7.5-0.3,13.9-5.4,17.3-8.6c3.4,3.4,7.6,6,12.1,7.7c-2.4,1-4.6,2.4-6.5,4.2c-6.6,6.6-6.8,17.6-6.6,21.2
		l-25.7,25.7V177.2z M430.1,204.7l27-27c4.7,0.2,9.3-0.5,13.7-2c-5.2,6.8-5.2,16.5-5.1,19.6l-26.2,26.2c-3-1.3-6.2-2.1-9.5-2.3
		V204.7z M430.1,241.7c6.6,6.4,17.4,6.5,21,6.4l27,27v7.6c-4.8,0.5-11.2,2-15.6,6.5v0c-1.3,1.3-2.3,2.7-3.2,4.3l-18.6-18.6
		l-10.6-10.6V241.7z M430.1,311.3c2.7-2.5,10.3-10.3,10.3-19.7c0-9.4-7.7-17.2-10.3-19.7v-5l28.3,28.3c-2,4.8-2.8,10-2.6,15.2
		l-25.7,25.7V311.3z M472.4,343.2c1.7,1.6,3.6,2.9,5.7,3.9v9.8h-0.1c-2.5-2.7-10.3-10.3-19.7-10.3c-5.5,0-10.5,2.7-14.2,5.4
		l-3.3-3.3l-10.2-10.2l25.8-25.8l9.4,9.4C465.6,325.5,465.8,336.5,472.4,343.2z M430.1,470v-41.8l7.5,7.5c-0.2,3.5,0,14.1,6.1,20.7
		l0,0L430.1,470z M478.1,422l-18.5,18.5c-6.6-6.1-17.2-6.3-20.7-6.2l-8.4-8.4l26.7-26.7c3.6,0.2,14.3,0,21-6.3V422z M462.5,376.8
		c-6.6,6.6-6.8,17.6-6.6,21.2l-25.8,25.7v-24.9c2.7-2.5,10.3-10.3,10.3-19.7c0-9.4-7.7-17.2-10.3-19.7v-19l12.5,12.5
		c-1.7,1.4-3.4,3-4.8,4.7c0,0,9.2,11.3,20.5,11.3h0.3l6,6l1.3-1.3l-4.9-5c8.2-1.2,14.8-7.7,17-10.1h0.1l0.1,11.7
		C473.3,370.8,466.9,372.4,462.5,376.8z M478.1,321.8L478.1,321.8c-3.7-0.9-7.4-1.3-11.1-1.1l-8.9-8.9c4.3,0.1,13.8-0.5,20-6.4
		V321.8z M479,207.5c0,0-11.3,9.2-11.3,20.5c0,9.3,7.7,17.2,10.3,19.7v24.9l-25.7-25.7c0.1-3.6,0-14.6-6.6-21.2
		c-1.3-1.3-2.8-2.4-4.4-3.2l25.9-25.9c3.8,0.1,14.6-0.1,21.1-6.6c1.1-1.1,2-2.4,2.8-3.7c1.9,3.3,4.3,6.3,7.1,8.9v37.7h-8.7
		c0.4-1.5,0.6-3.1,0.6-4.6C490.2,216.7,479,207.5,479,207.5z M516.7,336.5L516.7,336.5l-23.2,0c-0.9-3.5-2.7-6.7-5.2-9.3
		c-2.4-2.3-5.2-4-8.4-4.9v-2h30.6c0,0.3-0.1,0.7-0.1,1C510.5,327.4,513.7,332.8,516.7,336.5z M520.8,379.3l-16.5,16.5
		c3.3-3.7,7.3-9.7,7.3-16.5c0-11.3-11.3-20.5-11.3-20.5s-11.3,9.2-11.3,20.5c0,9.4,7.7,17.2,10.3,19.7v1.7l-19.5,19.5l0-17.6v-11.6
		c6.3-8.2,5-20.7,5-20.7c-1.7-0.1-3.3-0.1-5,0v-11.6h40.9V379.3z M520.9,356.8h-41l0-9c4.8,1.6,9.9,2.3,14.9,1.9
		c0.3-3.8,0-7.6-0.8-11.3h24.3c1,1.2,2,2.1,2.6,2.7V356.8z M546.8,338.7c-6.6,6.6-6.8,17.6-6.6,21.2l-17.6,17.5V341
		c0.6-0.6,1.6-1.5,2.6-2.7h21.8L546.8,338.7z M591.5,336.6h-22.2c0.1-1.5,0.1-3-0.1-4.5l0,0.1c0,0-11.7-1.2-19.9,4.5h-22.5
		c3-3.8,6.2-9.2,6.2-15.2c0-0.3,0-0.7-0.1-1h43c2.1,2.3,8.1,8.1,15.6,9.9V336.6z M591.6,308.8c-7.5,1.6-13.5,7.5-15.6,9.7h-36.3
		l17.6-17.6c3.6,0.2,14.6,0,21.2-6.6c8-8,6.5-22.4,6.5-22.4s-14.5-1.5-22.5,6.5c-6.6,6.6-6.8,17.6-6.6,21.2l-17.6,17.6v-36.4
		c2.7-2.5,10.3-10.3,10.3-19.7c0-11.3-11.3-20.5-11.3-20.5s-11.3,9.2-11.3,20.5c0,9.3,7.7,17.2,10.3,19.7v37.7h-3.9
		c-1.6-10-11-17.7-11-17.7s-9.4,7.7-11,17.7h-29.4l17.6-17.6c3.6,0.2,14.6,0,21.2-6.6c8-8,6.5-22.5,6.5-22.5s-14.5-1.5-22.5,6.5
		c-6.6,6.6-6.8,17.6-6.6,21.2l-17.7,17.7v-14c6.3-8.2,5-20.6,5-20.6c-1.7-0.1-3.3-0.1-5,0v-7.5l27-27c3.6,0.2,14.6,0,21.2-6.6
		c2-2,3.5-4.4,4.5-7h5.2c2.5,2.7,10.3,10.3,19.7,10.3c9.3,0,17.3-7.7,19.7-10.3h14.4V308.8z M591.6,232.6l-14.4,0
		c-2.5-2.7-10.3-10.3-19.7-10.3c-9.3,0-17.2,7.6-19.7,10.3h-4.6c1.3-4.4,1.8-9,1.4-13.6c0,0-14.4-1.5-22.4,6.5c-2,2-3.5,4.4-4.5,7
		h-6.4L519,215c3.6,0.2,14.6,0,21.2-6.6c6.6-6.6,6.8-17.6,6.6-21.2l8.1-8.1c3.2,0.7,6.4,0.9,9.6,0.8l27,27V232.6z M591.6,204.4
		l-25.7-25.7c0.1-3.2-0.2-6.5-0.9-9.6l17.4-17.3c0.3,0,0.5-0.1,0.8-0.1c-1.2,2.6-1.8,5.4-1.9,8.2c0,9.4,7.7,17.2,10.3,19.7V204.4z
		 M638.5,261.5c-0.1,3.6,0,14.6,6.6,21.2c0.8,0.8,1.7,1.5,2.6,2.1c-1.8,0.9-3.4,2-4.8,3.5c-6.6,6.6-6.8,17.6-6.6,21.2l-16.8,16.8
		v-36.7c2.7-2.5,10.3-10.3,10.3-19.7c0-11.3-11.3-20.5-11.3-20.5s-11.3,9.2-11.3,20.5c0,9.3,7.7,17.2,10.3,19.7v38.5l-8.4,8.4h-15.8
		v-6c0.8,0.1,1.5,0.1,2.3,0.1c11.3,0,20.5-11.3,20.5-11.3s-9.2-11.3-20.5-11.3c-0.8,0-1.5,0.1-2.3,0.2v-73.9h18.1L638.5,261.5z"/>
</g>
</svg>
