<svg height='100px' width='100px'  fill="#f07a71" xmlns="http://www.w3.org/2000/svg" viewBox="0 0 32 32" x="0px" y="0px"><title>IT, computer, hardware, Bin</title><g data-name="Layer 55"><path d="M24,5H20a3,3,0,0,0-3-3H14a3,3,0,0,0-3,3H8A3,3,0,0,0,5,8v3a1,1,0,0,0,1,1V27a3,3,0,0,0,3,3H23a3,3,0,0,0,3-3V12a1,1,0,0,0,1-1V8A3,3,0,0,0,24,5ZM14,4h3a1,1,0,0,1,1,1H13A1,1,0,0,1,14,4ZM7,8A1,1,0,0,1,8,7H24a1,1,0,0,1,1,1v2H7ZM24,27a1,1,0,0,1-1,1H9a1,1,0,0,1-1-1V12H24ZM10,25V15a1,1,0,0,1,2,0V25a1,1,0,0,1-2,0Zm5,0V15a1,1,0,0,1,2,0V25a1,1,0,0,1-2,0Zm5,0V15a1,1,0,0,1,2,0V25a1,1,0,0,1-2,0Z"></path></g></svg>