<svg height='100px' width='100px'  fill="#7ab1cc" xmlns:x="http://ns.adobe.com/Extensibility/1.0/" xmlns:i="http://ns.adobe.com/AdobeIllustrator/10.0/" xmlns:graph="http://ns.adobe.com/Graphs/1.0/" xmlns="http://www.w3.org/2000/svg" xmlns:xlink="http://www.w3.org/1999/xlink" version="1.1" x="0px" y="0px" viewBox="0 0 100 100" style="enable-background:new 0 0 100 100;" xml:space="preserve"><g><g i:extraneous="self"><g><path d="M5273.1,2400.1v-2c0-2.8-5-4-9.7-4s-9.7,1.3-9.7,4v2c0,1.8,0.7,3.6,2,4.9l5,4.9c0.3,0.3,0.4,0.6,0.4,1v6.4     c0,0.4,0.2,0.7,0.6,0.8l2.9,0.9c0.5,0.1,1-0.2,1-0.8v-7.2c0-0.4,0.2-0.7,0.4-1l5.1-5C5272.4,2403.7,5273.1,2401.9,5273.1,2400.1z      M5263.4,2400c-4.8,0-7.4-1.3-7.5-1.8v0c0.1-0.5,2.7-1.8,7.5-1.8c4.8,0,7.3,1.3,7.5,1.8C5270.7,2398.7,5268.2,2400,5263.4,2400z"></path><path d="M5268.4,2410.3c-0.6,0-1,0.4-1,1c0,0.6,0.4,1,1,1h4.3c0.6,0,1-0.4,1-1c0-0.6-0.4-1-1-1H5268.4z"></path><path d="M5272.7,2413.7h-4.3c-0.6,0-1,0.4-1,1c0,0.6,0.4,1,1,1h4.3c0.6,0,1-0.4,1-1C5273.7,2414.1,5273.3,2413.7,5272.7,2413.7z"></path><path d="M5272.7,2417h-4.3c-0.6,0-1,0.4-1,1c0,0.6,0.4,1,1,1h4.3c0.6,0,1-0.4,1-1C5273.7,2417.5,5273.3,2417,5272.7,2417z"></path></g><g><path d="M49.5,59.8h-1.7c-0.5,0-1.1-0.2-1.4-0.6c-0.4-0.4-0.5-0.9-0.5-1.5c0.1-1,1-1.7,2-1.7h2c0.6,0,1.1,0.4,1.2,1     c0.1,0.4,0.4,0.6,0.8,0.6h2.3c0.2,0,0.5-0.1,0.6-0.3c0.2-0.2,0.2-0.4,0.2-0.6c-0.2-2.4-2.1-4.2-4.4-4.5v-1.9     c0-0.4-0.4-0.8-0.8-0.8h-2.3c-0.5,0-0.8,0.4-0.8,0.8v2c-2.9,0.6-5,3.3-4.7,6.3c0.3,2.9,2.9,5.2,6,5.2h1.5c0.5,0,1.1,0.2,1.4,0.6     c0.4,0.4,0.5,0.9,0.5,1.5c-0.1,1-1,1.7-2,1.7h-2c-0.6,0-1.1-0.4-1.2-1c-0.1-0.4-0.4-0.6-0.8-0.6H43c-0.2,0-0.5,0.1-0.6,0.3     c-0.1,0.2-0.2,0.4-0.2,0.6c0.2,2.4,2.1,4.2,4.4,4.5v1.9c0,0.4,0.4,0.8,0.8,0.8h2.3c0.5,0,0.8-0.4,0.8-0.8v-2     c2.5-0.6,4.4-2.6,4.7-5.1c0.2-1.7-0.4-3.2-1.5-4.5C52.7,60.5,51.1,59.8,49.5,59.8z"></path><path d="M85.4,50L61.1,61.7c-1,0.5-1.7,1.7-1.3,2.8c0.4,1.4,2,2.1,3.2,1.4l24.4-11.8l1.1,2.3c0.8,1.6,3,1.5,3.7-0.1l2.9-6.8     c0.5-1.1-0.1-2.4-1.3-2.8l-7.2-2c-1.7-0.5-3.1,1.3-2.4,2.8L85.4,50z"></path><path d="M96.3,61.4h-8.9c-0.7,0-1.2,0.5-1.2,1.2v31.9c0,0.7,0.5,1.2,1.2,1.2h8.9c0.7,0,1.2-0.5,1.2-1.2V62.6     C97.5,62,97,61.4,96.3,61.4z"></path><path d="M81.9,67.6H73c-0.7,0-1.2,0.5-1.2,1.2v25.7c0,0.7,0.5,1.2,1.2,1.2h8.9c0.7,0,1.2-0.5,1.2-1.2V68.8     C83.1,68.2,82.6,67.6,81.9,67.6z"></path><path d="M67.5,73.8h-8.9c-0.7,0-1.2,0.5-1.2,1.2v19.5c0,0.7,0.5,1.2,1.2,1.2h8.9c0.7,0,1.2-0.5,1.2-1.2V75     C68.7,74.4,68.1,73.8,67.5,73.8z"></path><path d="M53.1,80h-8.9c-0.7,0-1.2,0.5-1.2,1.2v13.3c0,0.7,0.5,1.2,1.2,1.2h8.9c0.7,0,1.2-0.5,1.2-1.2V81.2     C54.3,80.5,53.7,80,53.1,80z"></path><path d="M59.8,42.2l2.3-6c0.5-1.3-0.5-2.7-1.9-2.7h-28l-6.1,15.2L24.8,38h0.9c0.5,0,0.9-0.4,0.9-0.9v-2.9c0-0.5-0.4-0.9-0.9-0.9     H21c-0.5,0-0.9,0.4-0.9,0.9V37c0,0.5,0.4,0.9,0.9,0.9h0.9l-1.3,10.7l-5.9-14.8C9.1,35,4.8,39.6,4.2,45.3L2.5,61.6     C2.3,63.2,3.4,64.6,5,65c1.8,0.4,4.1,0.7,6.5,0.9L13,91.7c0.1,2.2,1.9,3.9,4.1,3.9h12.5c2.2,0,4-1.7,4.1-3.9l2.1-44.3     c0-2.2,1.8-4,4.1-4h18.1C58.8,43.4,59.5,42.9,59.8,42.2z"></path><circle cx="23.3" cy="17.5" r="13.2"></circle></g></g></g></svg>