<?xml version="1.0" encoding="utf-8"?>
<!-- Generator: Adobe Illustrator 23.0.6, SVG Export Plug-In . SVG Version: 6.00 Build 0)  -->
<svg version="1.1" id="Слой_1" xmlns="http://www.w3.org/2000/svg" xmlns:xlink="http://www.w3.org/1999/xlink" x="0px" y="0px"
	 viewBox="0 0 50 50" style="enable-background:new 0 0 50 50;" xml:space="preserve">
<style type="text/css">
	.st0{fill:#EF5555;}
	.st1{fill:#FFFFFF;}
</style>
<g>
	<g>
		<g>
			<g>
				<path class="st0" d="M21.92,33.83c0.02,0.02,0.05,0.04,0.08,0.06C21.97,33.87,21.95,33.86,21.92,33.83z"/>
			</g>
			<g>
				<path class="st0" d="M21.32,33.15c-0.25-0.39-0.47-0.79-0.68-1.2h0C20.84,32.36,21.06,32.77,21.32,33.15z"/>
			</g>
			<g>
				<g>
					<path d="M33.95,42.61c0.55,0.33-0.53,0.88-0.67,0.91c-0.05,0.01-0.07,0.05-0.07,0.1c0,0,0,0,0,0c-0.01,0.05,0.05,0.1,0.1,0.1
						c0.84,0,1.67,0,2.51,0c0.05,0,0.1-0.05,0.1-0.1c0.01-1.64-0.01-3.29,0.06-4.94c0.05-1.18,0.4-2.4,0.24-3.58
						c-0.31-2.3-3.03-2.7-4.88-3.16c-0.08-0.02-0.13,0.05-0.12,0.12c0.12,0.81,0.01,1.55-0.26,2.3c-0.18,0.48-0.36,1.4-0.73,1.74
						c-0.27,0.25-0.32,0.09-0.67-0.1c-0.35-0.19-0.68-0.42-1.03-0.62c-0.23-0.13-0.45-0.25-0.7-0.35c-0.42-0.15-0.37-0.1-0.68,0.02
						c0.12-0.04,0.07-0.23-0.05-0.19c-1.46,0.47-3.02,0.17-4.32-0.55c-0.11-0.06-0.21,0.1-0.1,0.17c-0.4-0.28-1.25,0.26-1.62,0.45
						c-0.48,0.24-1.34,0.98-1.87,1.01c-0.56,0.04-0.49-0.93-0.48-1.41c0.01-0.62,0.09-1.24,0.27-1.84c0.03-0.09-0.07-0.15-0.15-0.11
						c-1.53,0.7-3.13,1.25-4.67,1.91c-0.61,0.26-1.44,0.54-1.73,1.21c-0.3,0.69,0.02,1.62,0.11,2.31c0.27,1.86,0.27,3.74,0.26,5.62
						c0,0.05,0.05,0.1,0.1,0.1c6.74,0,13.49,0,20.23,0c0.13,0,0.13-0.2,0-0.2c-3.69,0-7.37,0-11.06,0c-1.84,0-3.68,0-5.51,0
						c-0.86,0-1.91,0.16-2.75,0c-0.71-0.13-0.68-0.13-0.81-0.77c-0.09-0.47,0-1.04-0.02-1.52c-0.04-1.57-0.38-3.09-0.46-4.65
						c-0.08-1.71,2.17-2.12,3.45-2.61c0.73-0.28,1.45-0.56,2.17-0.87c0.78-0.34,0.52-0.17,0.43,0.53c-0.11,0.82-0.2,1.88,0.28,2.61
						c0.03,0.05,0.09,0.06,0.14,0.04c1.23-0.66,2.41-1.41,3.77-1.78c0.09-0.02,0.09-0.14,0.02-0.18c0.07,0.27,0.24,0.43,0.51,0.49
						c0.11,0.05,0.23,0.1,0.34,0.14c0.36,0.14,0.72,0.24,1.1,0.29c0.51,0.07,1.03,0.04,1.55-0.02c0.14-0.02,0.27-0.04,0.41-0.06
						c0.31,0.07,0.44-0.03,0.41-0.29c-0.08,0.03-0.11,0.17,0,0.19c0.61,0.11,1.13,0.39,1.66,0.7c0.25,0.14,0.97,0.77,1.28,0.76
						c0.41-0.01,0.52-0.62,0.68-0.98c0.32-0.75,0.66-1.51,0.74-2.32c0.08-0.69-0.16-0.96,0.59-0.89c0.58,0.05,1.37,0.37,1.91,0.57
						c1.09,0.39,1.91,1.03,2.07,2.25c0.1,0.8-0.03,1.59-0.13,2.38c-0.19,1.59-0.15,3.22-0.16,4.82c0,0.42,0.14,0.94-0.32,1.18
						c-0.23,0.12-0.99-0.03-1.25,0c-0.8,0.09-0.67,0.36-0.26-0.07c0.3-0.31,0.67-0.71,0.17-1.01
						C33.94,42.37,33.84,42.54,33.95,42.61L33.95,42.61z"/>
				</g>
			</g>
		</g>
		<g>
			<g>
				<g>
					<path d="M30.73,31c-0.17-0.09-0.34-0.15-0.54-0.18c-0.04-0.01-0.09,0-0.11,0.05c-0.42,0.78-0.77,1.61-1.22,2.37
						c-0.41,0.71-0.96,1.4-1.79,1.61c-0.09,0.02-0.1,0.17,0,0.19c0.1,0.02,0.19,0.03,0.29,0.05c0.21,0.04,0.36,0.12,0.55,0.22
						c0.21,0.11,0.43,0.17,0.63,0.3c0.23,0.15,0.46,0.3,0.7,0.43c0.15,0.08,0.29,0.17,0.43,0.26c0.11,0.07,0.26,0.2,0.4,0.22
						c0.15,0.02,0.21-0.1,0.27-0.22c0.28-0.51,0.48-1.08,0.69-1.62c0.19-0.5,0.35-0.96,0.41-1.5C31.53,32.42,31.47,31.46,30.73,31
						c-0.11-0.07-0.21,0.1-0.1,0.17c0.67,0.42,0.69,1.32,0.61,2.02c-0.06,0.47-0.19,0.88-0.36,1.32c-0.2,0.53-0.4,1.06-0.65,1.56
						c-0.04,0.07-0.09,0.15-0.12,0.22c-0.01,0.02-0.02,0.04-0.04,0.05c-0.02,0.02,0.04-0.01,0.04-0.01c-0.04,0-0.11-0.05-0.14-0.07
						c-0.3-0.17-0.6-0.36-0.9-0.53c-0.22-0.13-0.42-0.28-0.64-0.4c-0.17-0.09-0.35-0.15-0.52-0.24c-0.26-0.14-0.52-0.18-0.81-0.23
						c0,0.06,0,0.13,0,0.19c0.81-0.21,1.37-0.83,1.8-1.51c0.51-0.82,0.88-1.72,1.33-2.57c-0.04,0.02-0.08,0.03-0.11,0.05
						c0.18,0.03,0.33,0.08,0.49,0.16C30.75,31.24,30.85,31.07,30.73,31z"/>
				</g>
			</g>
			<g>
				<g>
					<path d="M21.4,33.1c-0.4-0.61-0.73-1.25-1.04-1.91c-0.02-0.04-0.07-0.06-0.11-0.05c-0.55,0.22-1.05,0.57-1.34,1.1
						c-0.22,0.39-0.3,0.85-0.36,1.29c-0.07,0.52-0.1,1.06-0.06,1.58c0.03,0.39,0.09,0.82,0.34,1.13c0.03,0.04,0.09,0.03,0.12,0.02
						c1.23-0.64,2.41-1.45,3.77-1.78c0.09-0.02,0.1-0.14,0.02-0.18C22.23,33.99,21.75,33.61,21.4,33.1
						c-0.07-0.11-0.25-0.01-0.17,0.1c0.37,0.54,0.86,0.95,1.42,1.28c0.01-0.06,0.02-0.12,0.02-0.18c-1.38,0.33-2.58,1.15-3.82,1.8
						c0.04,0.01,0.08,0.01,0.12,0.02c-0.23-0.29-0.27-0.73-0.29-1.08c-0.03-0.46-0.01-0.93,0.05-1.39c0.05-0.38,0.11-0.77,0.26-1.12
						c0.25-0.56,0.75-0.95,1.31-1.17c-0.04-0.02-0.08-0.03-0.11-0.05c0.31,0.66,0.64,1.3,1.04,1.91
						C21.3,33.31,21.48,33.21,21.4,33.1z"/>
				</g>
			</g>
		</g>
		<g>
			<g>
				<path d="M33.82,23.87c-0.16,0.32-0.31,0.66-0.47,0.98c-0.12,0.23-0.27,0.79-0.47,0.33c-0.02-0.06-0.12-0.07-0.16-0.02
					c-0.42,0.5-0.94,0.78-1.42,1.16c0.05,0.05,0.09,0.09,0.14,0.14c0.97-1.04,1.27-2.88,1.34-4.25c0.03-0.56,0.04-1.18-0.08-1.72
					c-0.03-0.12-0.03-0.25-0.05-0.37c-0.09-0.44-0.27-0.17-0.07-0.13c0.37,0.06,0.89,0.58,1.21,0.79c0.06,0.04,0.12,0,0.15-0.06
					c0,0,0,0,0-0.01c0.01-0.03,0-0.07-0.03-0.1c-1.14-1.13-2.26-2.14-3.75-2.79c-0.04-0.02-0.08-0.02-0.12,0.02
					c-0.26,0.23-1.05,0.08-1.36-0.01c-0.1-0.03-0.2-0.08-0.29-0.11c-0.37-0.13-0.75-0.21-1.13-0.3c-0.93-0.23-1.7-0.54-2.49-1.08
					c-0.51-0.35-1.23-0.93-1.89-0.96c-0.43-0.02-0.12,0.08,0.11,0.12c0.15,0.02,0.32,0.02,0.47,0.04c0.11,0.01,0.12-0.13,0.05-0.19
					c-0.96-0.69-2.42-0.13-3.45,0.15c-1.18,0.32-1.9,0.61-2.48,1.77c-0.58,1.17-0.5,2.34-0.38,3.6c0.14,1.47,0.18,2.94,0.89,4.27
					c0.06-0.03,0.12-0.07,0.17-0.1c-0.68-1.16-1.27-1.67-2.52-2.18c-0.06-0.02-0.13,0.04-0.13,0.1c0.1,1.31,0.22,2.98,1.29,3.9
					c0.39,0.34,0.73,0.4,1.21,0.48c0.5,0.08,0.33-0.2,0.66,0.41c0.22,0.4,0.33,0.91,0.49,1.34c1.04,2.76,2.29,5.91,5.68,6.17
					c1.26,0.1,2.65-0.08,3.51-1.08c0.91-1.05,1.44-2.53,2.07-3.75c0.22-0.43,0.44-0.85,0.64-1.29c0.15-0.33,0.23-0.76,0.58-0.94
					c0.4-0.2,0.75-0.1,1.11-0.48c0.41-0.44,0.6-1.08,0.72-1.65c0.15-0.72,0.34-1.44,0.44-2.17c0.02-0.1-0.12-0.18-0.18-0.08
					C33.85,23.84,33.83,23.85,33.82,23.87c-0.06,0.11,0.11,0.21,0.17,0.1c-0.19,0.33-0.29,0.59-0.39,1
					c-0.07,0.29-0.12,0.59-0.17,0.89c-0.21,1.06-0.65,2.19-1.93,2.12c-0.05,0-0.08,0.03-0.1,0.07c-0.6,1.63-1.49,3.19-2.29,4.73
					c-0.3,0.57-0.63,1.16-1.12,1.59c-0.71,0.61-1.79,0.7-2.69,0.69c-4.21-0.07-5.42-4.82-6.56-8.05c-0.02-0.06-0.09-0.09-0.15-0.06
					c-0.44-0.02-0.88-0.05-1.31-0.07c-0.25-0.16-0.46-0.37-0.6-0.62c-0.2-0.29-0.34-0.6-0.46-0.93c-0.12-0.35-0.51-1.59-0.35-1.87
					c-0.07-0.19,0-0.24,0.22-0.15c0.13-0.02,0.26,0,0.37,0.07c0.28,0.1,0.54,0.28,0.74,0.48c0.37,0.37,0.63,0.84,0.89,1.28
					c0.07,0.11,0.23,0.01,0.17-0.1c-0.74-1.38-0.75-2.96-0.89-4.49c-0.13-1.4-0.1-2.83,0.88-3.96c0.69-0.8,2.22-1.1,3.25-1.27
					c0.35-0.06,0.79-0.08,1.15-0.07c1.36,0.02,0.88,0.08,0.56,0.06c-0.22-0.01-0.51-0.08-0.72-0.02c-0.08,0.02-0.11,0.15-0.02,0.18
					c0.62,0.27,1.24,0.4,1.83,0.78c0.58,0.38,1.12,0.8,1.78,1.04c0.64,0.23,1.33,0.33,1.98,0.53c0.43,0.13,1.03,0.58,1.51,0.53
					c0.2-0.02,0.2-0.13,0.39-0.18c0.46-0.13,0.81,0.13,1.2,0.36c0.64,0.38,1.21,0.86,1.75,1.36c0.14,0.14,0.28,0.27,0.42,0.41
					c0.12,0.2,0.3,0.29,0.54,0.27c-0.05-0.1-0.33-0.22-0.42-0.27c-0.3-0.2-0.6-0.39-0.9-0.59c-0.08-0.05-0.16,0.03-0.15,0.11
					c0.31,1.92,0.34,4.93-1.1,6.48c-0.09,0.1,0.04,0.22,0.14,0.14c0.36-0.28,0.72-0.34,1.04-0.67c0.26-0.27,0.23-0.43,0.49-0.14
					c0.04,0.05,0.12,0.03,0.16-0.02c0.35-0.52,0.58-1.09,0.87-1.65C34.05,23.86,33.88,23.76,33.82,23.87z"/>
			</g>
		</g>
		<g>
			<g>
				<path d="M21.56,5.44c-1.98,1.2-3.29,3.12-4.06,5.27c-0.18,0.51-0.57,1.5-0.19,1.98c0.72,0.89,1.63-0.16,2.22-0.59
					c1.12-0.81,2.35-1.74,3.72-2.05c1.6-0.36,3.57,0.09,5.13,0.47c2.78,0.67,5.7,1.87,8.15,3.37c0.06,0.03,0.13,0,0.15-0.06
					c0.94-3.49-2.15-6.19-4.97-7.58C28.8,4.8,24.6,3.75,21.56,5.44c-0.11,0.06-0.01,0.24,0.1,0.17c2.27-1.26,5.22-0.86,7.59-0.13
					c2.51,0.77,5.21,2.19,6.64,4.49c0.31,0.5,0.55,1.05,0.68,1.63c0.07,0.31,0.29,1.66-0.01,1.9c-0.23,0.18-2.01-0.91-2.43-1.1
					c-0.68-0.3-1.38-0.59-2.07-0.87c-1.94-0.81-3.95-1.4-6.04-1.64c-1.85-0.22-3.24-0.09-4.85,0.87c-0.88,0.52-1.69,1.14-2.52,1.75
					c-0.55,0.4-1.22,0.35-1.27-0.35c-0.04-0.45,0.18-0.97,0.33-1.39c0.75-2.11,2.03-3.98,3.97-5.15
					C21.77,5.54,21.67,5.37,21.56,5.44z"/>
			</g>
		</g>
		<g>
			<path d="M21.54,21.09c0.73,0,1.16-0.96,0.27-1.17C20.97,19.73,20.73,21.09,21.54,21.09z"/>
		</g>
		<g>
			<path d="M30.02,20.96c-0.14-0.42-0.71-0.57-1.06-0.29c-0.37,0.29-0.13,0.98,0.31,1.05C29.73,21.79,30.17,21.42,30.02,20.96z"/>
		</g>
		<g>
			<g>
				<path d="M38.82,16.22c-0.24-1.44-1.81-2.35-2.98-2.98c-1.48-0.81-3.08-1.46-4.65-2.06c-2.28-0.87-5.26-1.75-7.74-1.37
					c-2.01,0.31-3.73,1.93-5.32,3.06c-0.09,0.06-0.05,0.17,0.05,0.19c1.73,0.22,3.49,0.14,5.24,0.41c1.62,0.25,3.22,0.67,4.78,1.18
					c1.63,0.53,3.16,1.2,4.59,2.15c0.49,0.33,0.97,0.83,1.49,1.07c0.49,0.23,0.93,0.01,1.15,0.64c0.02,0.05,0.07,0.08,0.12,0.07
					c1.19-0.28,3.31-0.74,3.27-2.32c0-0.13-0.2-0.13-0.2,0c0.02,0.92-0.83,1.38-1.58,1.68c-0.49,0.19-1.09,0.47-1.52,0.24
					c-0.29-0.15-0.16-0.23-0.53-0.34c-0.57-0.17-0.9-0.35-1.38-0.7c-2.85-2.09-6.32-3.2-9.78-3.8c-0.79-0.14-1.59-0.23-2.39-0.3
					c-0.86-0.08-1.77-0.01-2.61-0.12c-0.45-0.06-0.4,0.01-0.06-0.26c0.27-0.21,0.55-0.41,0.83-0.61c0.67-0.48,1.35-0.96,2.08-1.36
					c1.75-0.95,3.53-0.78,5.44-0.44c1.76,0.31,3.44,0.87,5.09,1.56c1.19,0.5,2.39,0.98,3.53,1.6c1.13,0.61,2.66,1.48,2.88,2.86
					C38.64,16.4,38.84,16.34,38.82,16.22z"/>
			</g>
		</g>
		<g>
			<g>
				<path d="M32.4,19.84c0.31,1.95,0.34,4.9-1.1,6.48c-0.07,0.08,0.02,0.23,0.12,0.16c0.38-0.27,0.74-0.36,1.06-0.69
					c0.26-0.27,0.23-0.43,0.49-0.14c0.04,0.05,0.12,0.03,0.16-0.02c0.79-1.22,1.53-2.63,2.19-3.93c0.33-0.65,0.81-1.44,0.67-2.2
					c-0.08-0.43-0.33-1.35-0.72-1.59c-0.25-0.15-0.62-0.1-0.88-0.22c-0.51-0.24-0.99-0.71-1.46-1.03c-2.46-1.66-5.33-2.54-8.22-3.15
					c-1.37-0.29-2.76-0.44-4.15-0.54c-1.24-0.1-2.42,0.1-3.47-0.69c-0.07-0.05-0.14,0.02-0.15,0.09c-0.13,1.09-1.42,1.95-1.94,2.9
					c-0.61,1.11-1.03,2.32-1.59,3.46c-0.04,0.08,0.03,0.17,0.11,0.15c0.69-0.15,0.78,1.1,0.92,1.52c0.09,0.26,0.25,0.26-0.02-0.04
					c-0.09-0.09-0.17-0.2-0.25-0.29c-0.06-0.07-0.2,0-0.17,0.1c0.15,0.39,0.24,0.81,0.42,1.19c0.25,0.53,0.66,0.65,0.31,1.31
					c-0.03,0.05-0.01,0.14,0.06,0.15c1.51,0.25,2.54,1.05,3.29,2.35c0.07,0.11,0.23,0.01,0.17-0.1c-0.73-1.4-0.75-2.99-0.89-4.53
					c-0.13-1.42-0.07-3.1,1.08-4.14c0.77-0.69,2.6-1.01,3.6-1.09c0.33-0.02,0.66-0.01,0.99,0.02c0.77,0.06,0.31,0.03,0.13,0.02
					c-0.22-0.01-0.45-0.05-0.68-0.02c-0.09,0.01-0.09,0.14-0.02,0.18c0.53,0.3,1.18,0.38,1.72,0.71c0.57,0.36,1.08,0.79,1.72,1.05
					c0.75,0.3,1.56,0.39,2.33,0.64c0.38,0.13,0.89,0.52,1.32,0.48c0.52-0.05,0.57-0.29,1.16-0.06c0.77,0.3,1.49,0.95,2.09,1.51
					c0.22,0.2,0.47,0.57,0.74,0.72c0.72,0.39,0.08-0.09-0.03-0.17c-0.32-0.21-0.64-0.42-0.96-0.62c-0.11-0.07-0.21,0.1-0.1,0.17
					c0.46,0.3,0.92,0.6,1.37,0.89c0.1,0.06,0.2-0.08,0.12-0.16c-1.15-1.15-2.27-2.16-3.78-2.81c-0.04-0.02-0.08-0.02-0.12,0.02
					c-0.55,0.48-2.14-0.26-2.76-0.41c-0.97-0.24-1.76-0.57-2.58-1.13c-0.49-0.34-1.17-0.87-1.8-0.91c-0.58-0.03,0.35,0.13,0.57,0.15
					c0.11,0.01,0.12-0.13,0.05-0.19c-1.1-0.78-3.26-0.02-4.4,0.41c-1.41,0.53-2.01,2.2-2.02,3.61c0,1.03,0.14,2.1,0.25,3.13
					c0.05,0.43,0.1,0.86,0.21,1.29c0.05,0.2,0.11,0.51,0.22,0.7c-0.18-0.34,0.32,0.66,0.34,0.31c0.02-0.52-1.03-1.32-1.43-1.53
					c-0.33-0.17-0.72-0.32-1.08-0.45c-0.56-0.2-0.57-0.2-0.42-0.8c0.01-0.04-0.01-0.09-0.05-0.11c-0.64-0.3-0.62-1.1-0.89-1.65
					c-0.06-0.01-0.13-0.01-0.19-0.02c0.07,0.08,0.14,0.17,0.21,0.25c0.07,0.1,0.17,0.2,0.25,0.29c0.07,0.08,0.18-0.01,0.17-0.1
					c-0.11-0.69-0.44-1.31-0.53-2.01c-0.01-0.05-0.04-0.11-0.1-0.1c-0.48,0.06-0.32,0-0.16-0.43c0.13-0.36,0.31-0.7,0.46-1.05
					c0.35-0.8,0.68-1.66,1.19-2.37c0.37-0.52,0.88-0.91,1.23-1.43c0.09-0.13,0.21-0.54,0.32-0.64c0.19-0.18-0.41-0.09,0.07-0.06
					c0.22,0.01,0.7,0.43,0.98,0.48c0.71,0.15,1.48,0.03,2.2,0.08c1.94,0.15,3.84,0.4,5.72,0.88c1.8,0.46,3.63,1.02,5.28,1.91
					c1.14,0.61,2.15,1.73,3.39,2.05c0.62,0.15,0.66,0.5,0.83,1.09c0.28,0.97,0.17,1.27-0.27,2.2c-0.37,0.8-0.87,1.52-1.3,2.29
					c-0.18,0.33-0.34,0.66-0.51,1c-0.11,0.22-0.39,1.16-0.62,0.63c-0.02-0.06-0.12-0.07-0.16-0.02c-0.36,0.42-0.56,0.54-1.13,0.95
					c-0.11,0.08,0.01,0.12,0.18-0.07c0.4-0.44,0.54-1.3,0.67-1.85c0.35-1.49,0.38-2.88,0.14-4.4C32.58,19.66,32.38,19.71,32.4,19.84
					z"/>
			</g>
		</g>
		<g>
			<g>
				<path d="M25.29,28.63c0.42,0.06,0.99,0.22,1.38-0.04c0.5-0.33,0.41-1.22,0.41-1.72c0-0.82-0.1-1.63-0.13-2.44
					c-0.03-0.67-0.01-1.37-0.22-2.02c-0.08-0.25-0.2-0.48-0.3-0.72c-0.08-0.2-0.19-0.45-0.4-0.54c-0.4-0.18-0.48,0.39-0.59,0.64
					c-0.12,0.28-0.34,0.53-0.47,0.81c-0.16,0.33-0.28,0.68-0.37,1.03c-0.17,0.69-0.23,1.41-0.27,2.12
					c-0.02,0.42-0.03,0.83-0.06,1.25c-0.02,0.32-0.08,0.67-0.01,0.99C24.37,28.5,24.85,28.56,25.29,28.63
					c0.13,0.02,0.18-0.18,0.05-0.19c-0.36-0.05-0.81-0.07-0.89-0.49c-0.1-0.5,0.03-1.1,0.05-1.61c0.05-1.2,0.1-2.46,0.61-3.57
					c0.19-0.4,0.45-0.73,0.59-1.15c0.05-0.13,0.12-0.32,0.31-0.22c0.09,0.05,0.16,0.24,0.2,0.33c0.09,0.19,0.17,0.39,0.25,0.58
					c0.22,0.53,0.24,1.14,0.26,1.71c0.02,0.6,0.07,1.19,0.11,1.79c0.05,0.72,0.13,1.56-0.05,2.27c-0.17,0.66-0.95,0.45-1.44,0.38
					C25.22,28.42,25.17,28.61,25.29,28.63z"/>
			</g>
		</g>
		<g>
			<path class="st1" d="M25.56,29.95c0.02,0.01,0.03,0.01,0.05,0.02c0.43,0.16,1.04,0.09,1.48,0c0.17-0.04,0.34-0.08,0.5-0.16
				c0.22-0.11,0.36-0.3,0.52-0.08c0.13,0.18,0.08,0.17-0.05,0.3c-0.11,0.11-0.35,0.18-0.48,0.28c-0.19,0.14-0.33,0.29-0.57,0.34
				c-0.42,0.09-0.95-0.02-1.37-0.08c-0.53-0.09-1.04-0.29-1.57-0.41c-0.49-0.11-1.03-0.07-1.5-0.25c0.2,0.07,0.53-0.03,0.74-0.05
				c0.57-0.07,1.17-0.16,1.75-0.09C25.25,29.8,25.38,29.88,25.56,29.95z"/>
			<g>
				<path d="M25.53,30.05c0.55,0.21,1.23,0.13,1.79-0.04c0.15-0.04,0.28-0.1,0.41-0.18c0.04-0.02,0.13-0.11,0.19-0.1
					c0.27,0.02,0.13,0.16,0.07,0.22c-0.11,0.11-0.28,0.15-0.41,0.23c-0.14,0.09-0.25,0.21-0.39,0.29c-0.35,0.2-0.85,0.11-1.22,0.05
					c-0.37-0.06-0.73-0.14-1.09-0.24c-0.36-0.1-0.71-0.22-1.09-0.27c-0.4-0.05-0.81-0.06-1.2-0.2c-0.02,0.06-0.04,0.13-0.05,0.19
					c0.17,0.05,0.33,0.03,0.5,0c0.26-0.04,0.51-0.08,0.77-0.11c0.59-0.07,1.14-0.1,1.7,0.14c0.12,0.05,0.22-0.12,0.1-0.17
					c-0.5-0.21-0.96-0.24-1.49-0.2c-0.27,0.02-0.55,0.06-0.82,0.09c-0.23,0.03-0.48,0.12-0.71,0.05c-0.13-0.03-0.17,0.15-0.05,0.19
					c0.46,0.16,0.94,0.14,1.41,0.23c0.46,0.09,0.9,0.26,1.36,0.37c0.4,0.09,0.83,0.17,1.24,0.18c0.4,0.01,0.67-0.08,0.99-0.33
					c0.18-0.14,0.66-0.28,0.73-0.54c0.05-0.19-0.17-0.41-0.35-0.39c-0.15,0.01-0.26,0.13-0.39,0.19c-0.19,0.1-0.41,0.14-0.63,0.18
					c-0.43,0.08-0.9,0.11-1.32-0.05C25.46,29.81,25.41,30,25.53,30.05z"/>
			</g>
		</g>
	</g>
</g>
</svg>
