<svg height='100px' width='100px'  fill="#7ab1cc" xmlns="http://www.w3.org/2000/svg" xmlns:xlink="http://www.w3.org/1999/xlink" version="1.1" x="0px" y="0px" viewBox="0 0 100 100" enable-background="new 0 0 100 100" xml:space="preserve"><g><path d="M81.609,29.779c-1.946-2.243-5.343-2.486-7.586-0.539c-2.244,1.946-2.485,5.343-0.539,7.587   c4.895,5.642,7.589,12.868,7.589,20.346c0,17.134-13.94,31.073-31.073,31.073S18.927,74.308,18.927,57.174   c0-15.389,11.249-28.195,25.956-30.643l-6.234,6.233c-2.1,2.1-2.1,5.506,0,7.606c1.05,1.05,2.427,1.575,3.803,1.575   c1.376,0,2.753-0.525,3.804-1.575l15.096-15.096c2.101-2.1,2.101-5.505,0-7.606L46.256,2.571c-2.101-2.099-5.505-2.1-7.607,0   c-2.1,2.101-2.1,5.505,0,7.606l5.576,5.576C23.885,18.577,8.171,36.07,8.171,57.174c0,23.064,18.765,41.829,41.829,41.829   c23.064,0,41.829-18.765,41.829-41.827C91.829,47.107,88.2,37.377,81.609,29.779z"></path></g></svg>