<svg xmlns="http://www.w3.org/2000/svg" xmlns:xlink="http://www.w3.org/1999/xlink" viewBox="0 0 646.22 57.67">
  <defs>
    <style>
      .cls-1, .cls-3 {
        fill: none;
      }

      .cls-2 {
        clip-path: url(#clip-path);
      }

      .cls-3 {
        stroke: #17bdc6;
        stroke-miterlimit: 10;
        stroke-width: 0.75px;
      }
    </style>
    <clipPath id="clip-path">
      <rect class="cls-1" x="36.39" y="23.45" width="482.34" height="21.96"/>
    </clipPath>
  </defs>
  <title>Asset 1</title>
  <g id="Layer_2" data-name="Layer 2">
    <g id="Layer_1-2" data-name="Layer 1">
      <g id="Layer_1-2-2" data-name="Layer 1-2">
        <g class="cls-2">
          <g>
            <line class="cls-3" x1="0.26" y1="57.39" x2="61.07" y2="0.27"/>
            <line class="cls-3" x1="4.5" y1="57.39" x2="65.31" y2="0.27"/>
            <line class="cls-3" x1="8.73" y1="57.39" x2="69.55" y2="0.27"/>
            <line class="cls-3" x1="12.97" y1="57.39" x2="73.79" y2="0.27"/>
            <line class="cls-3" x1="17.21" y1="57.39" x2="78.03" y2="0.27"/>
            <line class="cls-3" x1="21.45" y1="57.39" x2="82.27" y2="0.27"/>
            <line class="cls-3" x1="25.69" y1="57.39" x2="86.5" y2="0.27"/>
            <line class="cls-3" x1="29.93" y1="57.39" x2="90.74" y2="0.27"/>
            <line class="cls-3" x1="34.16" y1="57.39" x2="94.98" y2="0.27"/>
            <line class="cls-3" x1="38.4" y1="57.39" x2="99.22" y2="0.27"/>
            <line class="cls-3" x1="42.64" y1="57.39" x2="103.46" y2="0.27"/>
            <line class="cls-3" x1="46.88" y1="57.39" x2="107.7" y2="0.27"/>
            <line class="cls-3" x1="51.12" y1="57.39" x2="111.93" y2="0.27"/>
            <line class="cls-3" x1="55.36" y1="57.39" x2="116.17" y2="0.27"/>
            <line class="cls-3" x1="59.59" y1="57.39" x2="120.41" y2="0.27"/>
            <line class="cls-3" x1="63.83" y1="57.39" x2="124.65" y2="0.27"/>
            <line class="cls-3" x1="68.07" y1="57.39" x2="128.89" y2="0.27"/>
            <line class="cls-3" x1="72.31" y1="57.39" x2="133.13" y2="0.27"/>
            <line class="cls-3" x1="76.55" y1="57.39" x2="137.36" y2="0.27"/>
            <line class="cls-3" x1="80.79" y1="57.39" x2="141.6" y2="0.27"/>
            <line class="cls-3" x1="85.02" y1="57.39" x2="145.84" y2="0.27"/>
            <line class="cls-3" x1="89.26" y1="57.39" x2="150.08" y2="0.27"/>
            <line class="cls-3" x1="93.5" y1="57.39" x2="154.32" y2="0.27"/>
            <line class="cls-3" x1="97.74" y1="57.39" x2="158.56" y2="0.27"/>
            <line class="cls-3" x1="101.98" y1="57.39" x2="162.79" y2="0.27"/>
            <line class="cls-3" x1="106.22" y1="57.39" x2="167.03" y2="0.27"/>
            <line class="cls-3" x1="110.45" y1="57.39" x2="171.27" y2="0.27"/>
            <line class="cls-3" x1="114.69" y1="57.39" x2="175.51" y2="0.27"/>
            <line class="cls-3" x1="118.93" y1="57.39" x2="179.75" y2="0.27"/>
            <line class="cls-3" x1="123.17" y1="57.39" x2="183.99" y2="0.27"/>
            <line class="cls-3" x1="127.41" y1="57.39" x2="188.23" y2="0.27"/>
            <line class="cls-3" x1="131.65" y1="57.39" x2="192.46" y2="0.27"/>
            <line class="cls-3" x1="135.88" y1="57.39" x2="196.7" y2="0.27"/>
            <line class="cls-3" x1="140.12" y1="57.39" x2="200.94" y2="0.27"/>
            <line class="cls-3" x1="144.36" y1="57.39" x2="205.18" y2="0.27"/>
            <line class="cls-3" x1="148.6" y1="57.39" x2="209.42" y2="0.27"/>
            <line class="cls-3" x1="152.84" y1="57.39" x2="213.66" y2="0.27"/>
            <line class="cls-3" x1="157.08" y1="57.39" x2="217.89" y2="0.27"/>
            <line class="cls-3" x1="161.32" y1="57.39" x2="222.13" y2="0.27"/>
            <line class="cls-3" x1="165.55" y1="57.39" x2="226.37" y2="0.27"/>
            <line class="cls-3" x1="169.79" y1="57.39" x2="230.61" y2="0.27"/>
            <line class="cls-3" x1="174.03" y1="57.39" x2="234.85" y2="0.27"/>
            <line class="cls-3" x1="178.27" y1="57.39" x2="239.09" y2="0.27"/>
            <line class="cls-3" x1="182.51" y1="57.39" x2="243.32" y2="0.27"/>
            <line class="cls-3" x1="186.75" y1="57.39" x2="247.56" y2="0.27"/>
            <line class="cls-3" x1="190.98" y1="57.39" x2="251.8" y2="0.27"/>
            <line class="cls-3" x1="195.22" y1="57.39" x2="256.04" y2="0.27"/>
            <line class="cls-3" x1="199.46" y1="57.39" x2="260.28" y2="0.27"/>
            <line class="cls-3" x1="203.7" y1="57.39" x2="264.52" y2="0.27"/>
            <line class="cls-3" x1="207.94" y1="57.39" x2="268.75" y2="0.27"/>
            <line class="cls-3" x1="212.18" y1="57.39" x2="272.99" y2="0.27"/>
            <line class="cls-3" x1="216.41" y1="57.39" x2="277.23" y2="0.27"/>
            <line class="cls-3" x1="220.65" y1="57.39" x2="281.47" y2="0.27"/>
            <line class="cls-3" x1="224.89" y1="57.39" x2="285.71" y2="0.27"/>
            <line class="cls-3" x1="229.13" y1="57.39" x2="289.95" y2="0.27"/>
            <line class="cls-3" x1="233.37" y1="57.39" x2="294.18" y2="0.27"/>
            <line class="cls-3" x1="237.61" y1="57.39" x2="298.42" y2="0.27"/>
            <line class="cls-3" x1="241.84" y1="57.39" x2="302.66" y2="0.27"/>
            <line class="cls-3" x1="246.08" y1="57.39" x2="306.9" y2="0.27"/>
            <line class="cls-3" x1="250.32" y1="57.39" x2="311.14" y2="0.27"/>
            <line class="cls-3" x1="254.56" y1="57.39" x2="315.38" y2="0.27"/>
            <line class="cls-3" x1="258.8" y1="57.39" x2="319.61" y2="0.27"/>
            <line class="cls-3" x1="263.04" y1="57.39" x2="323.85" y2="0.27"/>
            <line class="cls-3" x1="267.27" y1="57.39" x2="328.09" y2="0.27"/>
            <line class="cls-3" x1="271.51" y1="57.39" x2="332.33" y2="0.27"/>
            <line class="cls-3" x1="275.75" y1="57.39" x2="336.57" y2="0.27"/>
            <line class="cls-3" x1="279.99" y1="57.39" x2="340.81" y2="0.27"/>
            <line class="cls-3" x1="284.23" y1="57.39" x2="345.05" y2="0.27"/>
            <line class="cls-3" x1="288.47" y1="57.39" x2="349.28" y2="0.27"/>
            <line class="cls-3" x1="292.7" y1="57.39" x2="353.52" y2="0.27"/>
            <line class="cls-3" x1="296.94" y1="57.39" x2="357.76" y2="0.27"/>
            <line class="cls-3" x1="301.18" y1="57.39" x2="362" y2="0.27"/>
            <line class="cls-3" x1="305.42" y1="57.39" x2="366.24" y2="0.27"/>
            <line class="cls-3" x1="309.66" y1="57.39" x2="370.48" y2="0.27"/>
            <line class="cls-3" x1="313.9" y1="57.39" x2="374.71" y2="0.27"/>
            <line class="cls-3" x1="318.13" y1="57.39" x2="378.95" y2="0.27"/>
            <line class="cls-3" x1="322.37" y1="57.39" x2="383.19" y2="0.27"/>
            <line class="cls-3" x1="326.61" y1="57.39" x2="387.43" y2="0.27"/>
            <line class="cls-3" x1="330.85" y1="57.39" x2="391.67" y2="0.27"/>
            <line class="cls-3" x1="335.09" y1="57.39" x2="395.91" y2="0.27"/>
            <line class="cls-3" x1="339.33" y1="57.39" x2="400.14" y2="0.27"/>
            <line class="cls-3" x1="343.57" y1="57.39" x2="404.38" y2="0.27"/>
            <line class="cls-3" x1="347.8" y1="57.39" x2="408.62" y2="0.27"/>
            <line class="cls-3" x1="352.04" y1="57.39" x2="412.86" y2="0.27"/>
            <line class="cls-3" x1="356.28" y1="57.39" x2="417.1" y2="0.27"/>
            <line class="cls-3" x1="360.52" y1="57.39" x2="421.34" y2="0.27"/>
            <line class="cls-3" x1="364.76" y1="57.39" x2="425.57" y2="0.27"/>
            <line class="cls-3" x1="369" y1="57.39" x2="429.81" y2="0.27"/>
            <line class="cls-3" x1="373.23" y1="57.39" x2="434.05" y2="0.27"/>
            <line class="cls-3" x1="377.47" y1="57.39" x2="438.29" y2="0.27"/>
            <line class="cls-3" x1="381.71" y1="57.39" x2="442.53" y2="0.27"/>
            <line class="cls-3" x1="385.95" y1="57.39" x2="446.77" y2="0.27"/>
            <line class="cls-3" x1="390.19" y1="57.39" x2="451" y2="0.27"/>
            <line class="cls-3" x1="394.43" y1="57.39" x2="455.24" y2="0.27"/>
            <line class="cls-3" x1="398.66" y1="57.39" x2="459.48" y2="0.27"/>
            <line class="cls-3" x1="402.9" y1="57.39" x2="463.72" y2="0.27"/>
            <line class="cls-3" x1="407.14" y1="57.39" x2="467.96" y2="0.27"/>
            <line class="cls-3" x1="411.38" y1="57.39" x2="472.2" y2="0.27"/>
            <line class="cls-3" x1="415.62" y1="57.39" x2="476.43" y2="0.27"/>
            <line class="cls-3" x1="419.86" y1="57.39" x2="480.67" y2="0.27"/>
            <line class="cls-3" x1="424.09" y1="57.39" x2="484.91" y2="0.27"/>
            <line class="cls-3" x1="428.33" y1="57.39" x2="489.15" y2="0.27"/>
            <line class="cls-3" x1="432.57" y1="57.39" x2="493.39" y2="0.27"/>
            <line class="cls-3" x1="436.81" y1="57.39" x2="497.63" y2="0.27"/>
            <line class="cls-3" x1="441.05" y1="57.39" x2="501.87" y2="0.27"/>
            <line class="cls-3" x1="445.29" y1="57.39" x2="506.1" y2="0.27"/>
            <line class="cls-3" x1="449.52" y1="57.39" x2="510.34" y2="0.27"/>
            <line class="cls-3" x1="453.76" y1="57.39" x2="514.58" y2="0.27"/>
            <line class="cls-3" x1="458" y1="57.39" x2="518.82" y2="0.27"/>
            <line class="cls-3" x1="462.24" y1="57.39" x2="523.06" y2="0.27"/>
            <line class="cls-3" x1="466.48" y1="57.39" x2="527.3" y2="0.27"/>
            <line class="cls-3" x1="470.72" y1="57.39" x2="531.53" y2="0.27"/>
            <line class="cls-3" x1="474.95" y1="57.39" x2="535.77" y2="0.27"/>
            <line class="cls-3" x1="479.19" y1="57.39" x2="540.01" y2="0.27"/>
            <line class="cls-3" x1="483.43" y1="57.39" x2="544.25" y2="0.27"/>
            <line class="cls-3" x1="487.67" y1="57.39" x2="548.49" y2="0.27"/>
            <line class="cls-3" x1="491.91" y1="57.39" x2="552.73" y2="0.27"/>
            <line class="cls-3" x1="496.15" y1="57.39" x2="556.96" y2="0.27"/>
            <line class="cls-3" x1="500.39" y1="57.39" x2="561.2" y2="0.27"/>
            <line class="cls-3" x1="504.62" y1="57.39" x2="565.44" y2="0.27"/>
            <line class="cls-3" x1="508.86" y1="57.39" x2="569.68" y2="0.27"/>
            <line class="cls-3" x1="513.1" y1="57.39" x2="573.92" y2="0.27"/>
            <line class="cls-3" x1="517.34" y1="57.39" x2="578.16" y2="0.27"/>
            <line class="cls-3" x1="521.58" y1="57.39" x2="582.39" y2="0.27"/>
            <line class="cls-3" x1="525.82" y1="57.39" x2="586.63" y2="0.27"/>
            <line class="cls-3" x1="530.05" y1="57.39" x2="590.87" y2="0.27"/>
            <line class="cls-3" x1="534.29" y1="57.39" x2="595.11" y2="0.27"/>
            <line class="cls-3" x1="538.53" y1="57.39" x2="599.35" y2="0.27"/>
            <line class="cls-3" x1="542.77" y1="57.39" x2="603.59" y2="0.27"/>
            <line class="cls-3" x1="547.01" y1="57.39" x2="607.82" y2="0.27"/>
            <line class="cls-3" x1="551.25" y1="57.39" x2="612.06" y2="0.27"/>
            <line class="cls-3" x1="555.48" y1="57.39" x2="616.3" y2="0.27"/>
            <line class="cls-3" x1="559.72" y1="57.39" x2="620.54" y2="0.27"/>
            <line class="cls-3" x1="563.96" y1="57.39" x2="624.78" y2="0.27"/>
            <line class="cls-3" x1="568.2" y1="57.39" x2="629.02" y2="0.27"/>
            <line class="cls-3" x1="572.44" y1="57.39" x2="633.25" y2="0.27"/>
            <line class="cls-3" x1="576.68" y1="57.39" x2="637.49" y2="0.27"/>
            <line class="cls-3" x1="580.91" y1="57.39" x2="641.73" y2="0.27"/>
            <line class="cls-3" x1="585.15" y1="57.39" x2="645.97" y2="0.27"/>
          </g>
        </g>
      </g>
    </g>
  </g>
</svg>
