<?xml version="1.0" encoding="utf-8"?>
<!-- Generator: Adobe Illustrator 21.1.0, SVG Export Plug-In . SVG Version: 6.00 Build 0)  -->
<svg version="1.1" id="Layer_1" xmlns="http://www.w3.org/2000/svg" xmlns:xlink="http://www.w3.org/1999/xlink" x="0px" y="0px"
	 viewBox="0 0 210 130" style="enable-background:new 0 0 210 130;" xml:space="preserve">
<style type="text/css">
	.st0{clip-path:url(#SVGID_2_);}
	.st1{fill:#00BEC8;}
</style>
<g>
	<defs>
		<path id="SVGID_1_" d="M122.4,10v34H5v71.8h125v-34h75V10H122.4z M197.4,74.2h-75v34H12.6V51.6H130v-34h67.4V74.2z"/>
	</defs>
	<clipPath id="SVGID_2_">
		<use xlink:href="#SVGID_1_"  style="overflow:visible;"/>
	</clipPath>
	<g class="st0">
		
			<rect x="-177" y="44.7" transform="matrix(0.7071 -0.7071 0.7071 0.7071 -40.6328 -7.9912)" class="st1" width="294" height="0.6"/>
		
			<rect x="-173.5" y="44.7" transform="matrix(0.7071 -0.7071 0.7071 0.7071 -39.615 -5.5338)" class="st1" width="294" height="0.6"/>
		
			<rect x="-170" y="44.7" transform="matrix(0.7071 -0.7071 0.7071 0.7071 -38.5971 -3.0765)" class="st1" width="294" height="0.6"/>
		
			<rect x="-166.5" y="44.7" transform="matrix(0.7071 -0.7071 0.7071 0.7071 -37.5792 -0.6191)" class="st1" width="294" height="0.6"/>
		
			<rect x="-163.1" y="44.7" transform="matrix(0.7071 -0.7071 0.7071 0.7071 -36.5614 1.8382)" class="st1" width="294" height="0.6"/>
		
			<rect x="-159.6" y="44.7" transform="matrix(0.7071 -0.7071 0.7071 0.7071 -35.5435 4.2956)" class="st1" width="294" height="0.6"/>
		
			<rect x="-156.1" y="44.7" transform="matrix(0.7071 -0.7071 0.7071 0.7071 -34.5256 6.7529)" class="st1" width="294" height="0.6"/>
		
			<rect x="-152.6" y="44.7" transform="matrix(0.7071 -0.7071 0.7071 0.7071 -33.5077 9.2103)" class="st1" width="294" height="0.6"/>
		
			<rect x="-149.2" y="44.7" transform="matrix(0.7071 -0.7071 0.7071 0.7071 -32.4899 11.6676)" class="st1" width="294" height="0.6"/>
		
			<rect x="-145.7" y="44.7" transform="matrix(0.7071 -0.7071 0.7071 0.7071 -31.472 14.125)" class="st1" width="294" height="0.6"/>
		
			<rect x="-142.2" y="44.7" transform="matrix(0.7071 -0.7071 0.7071 0.7071 -30.4541 16.5823)" class="st1" width="294" height="0.6"/>
		
			<rect x="-138.7" y="44.7" transform="matrix(0.7071 -0.7071 0.7071 0.7071 -29.4363 19.0397)" class="st1" width="294" height="0.6"/>
		
			<rect x="-135.3" y="44.7" transform="matrix(0.7071 -0.7071 0.7071 0.7071 -28.4184 21.497)" class="st1" width="294" height="0.6"/>
		
			<rect x="-131.8" y="44.7" transform="matrix(0.7071 -0.7071 0.7071 0.7071 -27.4005 23.9544)" class="st1" width="294" height="0.6"/>
		
			<rect x="-128.3" y="44.7" transform="matrix(0.7071 -0.7071 0.7071 0.7071 -26.3827 26.4117)" class="st1" width="294" height="0.6"/>
		
			<rect x="-124.8" y="44.7" transform="matrix(0.7071 -0.7071 0.7071 0.7071 -25.3648 28.8691)" class="st1" width="294" height="0.6"/>
		
			<rect x="-121.4" y="44.7" transform="matrix(0.7071 -0.7071 0.7071 0.7071 -24.3469 31.3264)" class="st1" width="294" height="0.6"/>
		
			<rect x="-117.9" y="44.7" transform="matrix(0.7071 -0.7071 0.7071 0.7071 -23.3291 33.7838)" class="st1" width="294" height="0.6"/>
		
			<rect x="-114.4" y="44.7" transform="matrix(0.7071 -0.7071 0.7071 0.7071 -22.3112 36.2411)" class="st1" width="294" height="0.6"/>
		
			<rect x="-110.9" y="44.7" transform="matrix(0.7071 -0.7071 0.7071 0.7071 -21.2933 38.6985)" class="st1" width="294" height="0.6"/>
		
			<rect x="-107.5" y="44.7" transform="matrix(0.7071 -0.7071 0.7071 0.7071 -20.2755 41.1558)" class="st1" width="294" height="0.6"/>
		
			<rect x="-104" y="44.7" transform="matrix(0.7071 -0.7071 0.7071 0.7071 -19.2576 43.6132)" class="st1" width="294" height="0.6"/>
		
			<rect x="-100.5" y="44.7" transform="matrix(0.7071 -0.7071 0.7071 0.7071 -18.2397 46.0705)" class="st1" width="294" height="0.6"/>
		
			<rect x="-97" y="44.7" transform="matrix(0.7071 -0.7071 0.7071 0.7071 -17.2219 48.5279)" class="st1" width="294" height="0.6"/>
		
			<rect x="-93.6" y="44.7" transform="matrix(0.7071 -0.7071 0.7071 0.7071 -16.204 50.9852)" class="st1" width="294" height="0.6"/>
		
			<rect x="-90.1" y="44.7" transform="matrix(0.7071 -0.7071 0.7071 0.7071 -15.1861 53.4426)" class="st1" width="294" height="0.6"/>
		
			<rect x="-86.6" y="44.7" transform="matrix(0.7071 -0.7071 0.7071 0.7071 -14.1683 55.8999)" class="st1" width="294" height="0.6"/>
		
			<rect x="-83.1" y="44.7" transform="matrix(0.7071 -0.7071 0.7071 0.7071 -13.1504 58.3573)" class="st1" width="294" height="0.6"/>
		
			<rect x="-79.7" y="44.7" transform="matrix(0.7071 -0.7071 0.7071 0.7071 -12.1325 60.8146)" class="st1" width="294" height="0.6"/>
		
			<rect x="-76.2" y="44.7" transform="matrix(0.7071 -0.7071 0.7071 0.7071 -11.1147 63.272)" class="st1" width="294" height="0.6"/>
		
			<rect x="-72.7" y="44.7" transform="matrix(0.7071 -0.7071 0.7071 0.7071 -10.0968 65.7293)" class="st1" width="294" height="0.6"/>
		
			<rect x="-69.2" y="44.7" transform="matrix(0.7071 -0.7071 0.7071 0.7071 -9.0789 68.1867)" class="st1" width="294" height="0.6"/>
		
			<rect x="-65.8" y="44.7" transform="matrix(0.7071 -0.7071 0.7071 0.7071 -8.0611 70.644)" class="st1" width="294" height="0.6"/>
		
			<rect x="-62.3" y="44.7" transform="matrix(0.7071 -0.7071 0.7071 0.7071 -7.0432 73.1014)" class="st1" width="294" height="0.6"/>
		
			<rect x="-58.8" y="44.7" transform="matrix(0.7071 -0.7071 0.7071 0.7071 -6.0253 75.5587)" class="st1" width="294" height="0.6"/>
		
			<rect x="-55.3" y="44.7" transform="matrix(0.7071 -0.7071 0.7071 0.7071 -5.0074 78.0161)" class="st1" width="294" height="0.6"/>
		
			<rect x="-51.9" y="44.7" transform="matrix(0.7071 -0.7071 0.7071 0.7071 -3.9896 80.4734)" class="st1" width="294" height="0.6"/>
		
			<rect x="-48.4" y="44.7" transform="matrix(0.7071 -0.7071 0.7071 0.7071 -2.9717 82.9308)" class="st1" width="294" height="0.6"/>
		
			<rect x="-44.9" y="44.7" transform="matrix(0.7071 -0.7071 0.7071 0.7071 -1.9538 85.3881)" class="st1" width="294" height="0.6"/>
		
			<rect x="-41.4" y="44.7" transform="matrix(0.7071 -0.7071 0.7071 0.7071 -0.936 87.8455)" class="st1" width="294" height="0.6"/>
		
			<rect x="-38" y="44.7" transform="matrix(0.7071 -0.7071 0.7071 0.7071 8.189229e-02 90.3028)" class="st1" width="294" height="0.6"/>
		
			<rect x="-34.5" y="44.7" transform="matrix(0.7071 -0.7071 0.7071 0.7071 1.0998 92.7602)" class="st1" width="294" height="0.6"/>
		<rect x="-31" y="44.7" transform="matrix(0.7071 -0.7071 0.7071 0.7071 2.1176 95.2175)" class="st1" width="294" height="0.6"/>
		
			<rect x="-27.5" y="44.7" transform="matrix(0.7071 -0.7071 0.7071 0.7071 3.1355 97.6749)" class="st1" width="294" height="0.6"/>
		
			<rect x="-24.1" y="44.7" transform="matrix(0.7071 -0.7071 0.7071 0.7071 4.1534 100.1322)" class="st1" width="294" height="0.6"/>
		
			<rect x="-20.6" y="44.7" transform="matrix(0.7071 -0.7071 0.7071 0.7071 5.1712 102.5896)" class="st1" width="294" height="0.6"/>
		
			<rect x="-17.1" y="44.7" transform="matrix(0.7071 -0.7071 0.7071 0.7071 6.1891 105.0469)" class="st1" width="294" height="0.6"/>
		
			<rect x="-13.6" y="44.7" transform="matrix(0.7071 -0.7071 0.7071 0.7071 7.207 107.5043)" class="st1" width="294" height="0.6"/>
		
			<rect x="-10.2" y="44.7" transform="matrix(0.7071 -0.7071 0.7071 0.7071 8.2248 109.9616)" class="st1" width="294" height="0.6"/>
		<rect x="-6.7" y="44.7" transform="matrix(0.7071 -0.7071 0.7071 0.7071 9.2427 112.419)" class="st1" width="294" height="0.6"/>
		
			<rect x="-3.2" y="44.7" transform="matrix(0.7071 -0.7071 0.7071 0.7071 10.2606 114.8763)" class="st1" width="294" height="0.6"/>
		
			<rect x="0.3" y="44.7" transform="matrix(0.7071 -0.7071 0.7071 0.7071 11.2784 117.3337)" class="st1" width="294" height="0.6"/>
		<rect x="3.7" y="44.7" transform="matrix(0.7071 -0.7071 0.7071 0.7071 12.2963 119.791)" class="st1" width="294" height="0.6"/>
		
			<rect x="7.2" y="44.7" transform="matrix(0.7071 -0.7071 0.7071 0.7071 13.3142 122.2484)" class="st1" width="294" height="0.6"/>
		
			<rect x="10.7" y="44.7" transform="matrix(0.7071 -0.7071 0.7071 0.7071 14.332 124.7057)" class="st1" width="294" height="0.6"/>
		
			<rect x="14.2" y="44.7" transform="matrix(0.7071 -0.7071 0.7071 0.7071 15.3499 127.1631)" class="st1" width="294" height="0.6"/>
		
			<rect x="17.6" y="44.7" transform="matrix(0.7071 -0.7071 0.7071 0.7071 16.3678 129.6204)" class="st1" width="294" height="0.6"/>
		
			<rect x="21.1" y="44.7" transform="matrix(0.7071 -0.7071 0.7071 0.7071 17.3856 132.0778)" class="st1" width="294" height="0.6"/>
		
			<rect x="24.6" y="44.7" transform="matrix(0.7071 -0.7071 0.7071 0.7071 18.4035 134.5351)" class="st1" width="294" height="0.6"/>
		
			<rect x="28.1" y="44.7" transform="matrix(0.7071 -0.7071 0.7071 0.7071 19.4214 136.9925)" class="st1" width="294" height="0.6"/>
		
			<rect x="31.5" y="44.7" transform="matrix(0.7071 -0.7071 0.7071 0.7071 20.4393 139.4498)" class="st1" width="294" height="0.6"/>
		<rect x="35" y="44.7" transform="matrix(0.7071 -0.7071 0.7071 0.7071 21.4571 141.9072)" class="st1" width="294" height="0.6"/>
		
			<rect x="38.5" y="44.7" transform="matrix(0.7071 -0.7071 0.7071 0.7071 22.475 144.3645)" class="st1" width="294" height="0.6"/>
		<rect x="42" y="44.7" transform="matrix(0.7071 -0.7071 0.7071 0.7071 23.4929 146.8219)" class="st1" width="294" height="0.6"/>
		
			<rect x="45.4" y="44.7" transform="matrix(0.7071 -0.7071 0.7071 0.7071 24.5107 149.2793)" class="st1" width="294" height="0.6"/>
		
			<rect x="48.9" y="44.7" transform="matrix(0.7071 -0.7071 0.7071 0.7071 25.5286 151.7366)" class="st1" width="294" height="0.6"/>
		
			<rect x="52.4" y="44.7" transform="matrix(0.7071 -0.7071 0.7071 0.7071 26.5465 154.1939)" class="st1" width="294" height="0.6"/>
		
			<rect x="55.9" y="44.7" transform="matrix(0.7071 -0.7071 0.7071 0.7071 27.5643 156.6513)" class="st1" width="294" height="0.6"/>
		
			<rect x="59.3" y="44.7" transform="matrix(0.7071 -0.7071 0.7071 0.7071 28.5822 159.1086)" class="st1" width="294" height="0.6"/>
		
			<rect x="62.8" y="44.7" transform="matrix(0.7071 -0.7071 0.7071 0.7071 29.6001 161.566)" class="st1" width="294" height="0.6"/>
		
			<rect x="66.3" y="44.7" transform="matrix(0.7071 -0.7071 0.7071 0.7071 30.6179 164.0233)" class="st1" width="294" height="0.6"/>
		
			<rect x="69.8" y="44.7" transform="matrix(0.7071 -0.7071 0.7071 0.7071 31.6358 166.4807)" class="st1" width="294" height="0.6"/>
		
			<rect x="73.2" y="44.7" transform="matrix(0.7071 -0.7071 0.7071 0.7071 32.6537 168.938)" class="st1" width="294" height="0.6"/>
		
			<rect x="76.7" y="44.7" transform="matrix(0.7071 -0.7071 0.7071 0.7071 33.6715 171.3954)" class="st1" width="294" height="0.6"/>
		
			<rect x="80.2" y="44.7" transform="matrix(0.7071 -0.7071 0.7071 0.7071 34.6894 173.8528)" class="st1" width="294" height="0.6"/>
		
			<rect x="83.7" y="44.7" transform="matrix(0.7071 -0.7071 0.7071 0.7071 35.7073 176.3101)" class="st1" width="294" height="0.6"/>
		
			<rect x="87.1" y="44.7" transform="matrix(0.7071 -0.7071 0.7071 0.7071 36.7251 178.7675)" class="st1" width="294" height="0.6"/>
		
			<rect x="90.6" y="44.7" transform="matrix(0.7071 -0.7071 0.7071 0.7071 37.743 181.2248)" class="st1" width="294" height="0.6"/>
		
			<rect x="94.1" y="44.7" transform="matrix(0.7071 -0.7071 0.7071 0.7071 38.7609 183.6821)" class="st1" width="294" height="0.6"/>
		
			<rect x="97.6" y="44.7" transform="matrix(0.7071 -0.7071 0.7071 0.7071 39.7787 186.1395)" class="st1" width="294" height="0.6"/>
		
			<rect x="101" y="44.7" transform="matrix(0.7071 -0.7071 0.7071 0.7071 40.7966 188.5968)" class="st1" width="294" height="0.6"/>
		
			<rect x="104.5" y="44.7" transform="matrix(0.7071 -0.7071 0.7071 0.7071 41.8145 191.0542)" class="st1" width="294" height="0.6"/>
		
			<rect x="108" y="44.7" transform="matrix(0.7071 -0.7071 0.7071 0.7071 42.8323 193.5116)" class="st1" width="294" height="0.6"/>
		
			<rect x="111.5" y="44.7" transform="matrix(0.7071 -0.7071 0.7071 0.7071 43.8502 195.9689)" class="st1" width="294" height="0.6"/>
	</g>
</g>
<g>
	<path d="M44.3,82.4H27.5v15.3H24V62.9h21.5v3h-18v13.4h16.8V82.4z"/>
	<path d="M53.4,97.7H50v-25h3l0.2,3.3l3.2-2.4c0.9-0.7,2.2-1.1,3.8-1.1h3.3v2.9h-3.2c-1.1,0-2.1,0.3-2.9,0.9l-4.1,3.2V97.7z"/>
	<path d="M86.2,91.4c0,4.2-2.4,6.5-6.6,6.5h-5.8c-4.2,0-6.6-2.3-6.6-6.7v-12c0-4.3,2.4-6.7,6.6-6.7h5.8c4.2,0,6.6,2.3,6.6,6.7v6.7
		H70.5v5.8c0,2.2,1.1,3.4,3.3,3.4h5.7c2.2,0,3.3-1.1,3.3-3.4v-1.8h3.3V91.4z M70.5,83.2H83v-4.5c0-2.2-1.1-3.4-3.4-3.4h-5.7
		c-2.2,0-3.3,1.1-3.3,3.4V83.2z"/>
	<path d="M111.3,91.4c0,4.2-2.4,6.5-6.6,6.5h-5.8c-4.2,0-6.6-2.3-6.6-6.7v-12c0-4.3,2.4-6.7,6.6-6.7h5.8c4.2,0,6.6,2.3,6.6,6.7v6.7
		H95.6v5.8c0,2.2,1.1,3.4,3.3,3.4h5.7c2.2,0,3.3-1.1,3.3-3.4v-1.8h3.3V91.4z M95.6,83.2h12.5v-4.5c0-2.2-1.1-3.4-3.4-3.4h-5.7
		c-2.2,0-3.3,1.1-3.3,3.4V83.2z"/>
</g>
<g>
	<path d="M140,62.8V28h15.2c5,0,7.7,2.7,7.7,7.8V55c0,5-2.7,7.8-7.7,7.8H140z M143.5,59.7h11.8c2.8,0,4.2-1.4,4.2-4.2V35.3
		c0-2.8-1.4-4.2-4.2-4.2h-11.8V59.7z"/>
	<path d="M182.5,61.8c-1.2,0.8-2.6,1.2-3.9,1.2h-3.2c-3.7,0-5.9-1.8-5.9-5.3v-3.5c0-3.2,2-5,5.9-5.4l9.5-1v-4.1
		c0-2.1-1.1-3.2-3.3-3.2h-5.1c-2.2,0-3.3,1-3.3,3.2v1.6h-3.3v-1.3c0-4.1,2.4-6.3,6.6-6.3h5.5c4,0,6.3,2.2,6.3,6.1v19.1h-2.9
		l-0.2-2.7L182.5,61.8z M178.8,60.2c0.9,0,1.9-0.3,2.8-0.9l3.2-2.1v-6.7l-9.1,1.1c-2.1,0.2-3.1,0.9-3.1,2.8v3.2
		c0,1.8,0.8,2.6,2.9,2.6H178.8z"/>
</g>
<g>
	<path d="M141.1,101.7H140V92h1.1V101.7z"/>
	<path d="M148.1,100.6L148.1,100.6c-0.2,0.4-0.9,1.2-2,1.2c-1.3,0-2.7-1.1-2.7-3.1c0-2,1.4-3.1,2.7-3.1c1.1,0,1.7,0.8,1.9,1.2h0
		v-1.1h1.1v5.9h-1.1V100.6z M146.4,101c0.8,0,1.8-0.6,1.8-2.2c0-1.6-1-2.2-1.8-2.2c-0.8,0-1.8,0.6-1.8,2.2
		C144.6,100.4,145.6,101,146.4,101z"/>
	<path d="M155.1,95.7c1,0,2,0.6,2,2.2v3.8H156v-3.6c0-1-0.5-1.5-1.3-1.5c-1,0-1.7,0.8-1.7,2.3v2.8H152v-5.9h1.1v1.3h0
		C153.5,96.1,154.2,95.7,155.1,95.7z"/>
	<path d="M163.2,100.6c1.3,0.3,1.9,1.2,1.9,2c0,1.4-1.3,2.3-2.8,2.3c-1.8,0-3.1-1.3-3.1-3.3h1.1c0,1.8,1.1,2.4,2,2.4
		c1.2,0,1.8-0.7,1.8-1.5s-0.7-1.7-2-1.7H162c-1.5,0-2.7-1.2-2.7-2.6s1.2-2.6,2.7-2.6c0.4,0,0.7,0.1,1,0.2h3l-0.8,0.8h-1.2
		c0.4,0.5,0.6,1.1,0.6,1.7C164.7,99.3,164.1,100.2,163.2,100.6L163.2,100.6z M163.7,98.3c0-1-0.6-1.8-1.7-1.8c-1,0-1.7,0.8-1.7,1.8
		c0,1,0.6,1.8,1.7,1.8C163,100,163.7,99.3,163.7,98.3z"/>
	<path d="M167.5,99.6v-3.8h1.1v3.6c0,0.9,0.4,1.5,1.2,1.5c1,0,1.6-0.8,1.6-2.3v-2.8h1v5.9h-1v-1.3h0c-0.4,1-1.1,1.4-1.9,1.4
		C168.5,101.8,167.5,101.2,167.5,99.6z"/>
	<path d="M179.5,100.6L179.5,100.6c-0.2,0.4-0.9,1.2-2,1.2c-1.3,0-2.7-1.1-2.7-3.1c0-2,1.4-3.1,2.7-3.1c1.1,0,1.7,0.8,1.9,1.2h0
		v-1.1h1.1v5.9h-1.1V100.6z M177.7,101c0.8,0,1.8-0.6,1.8-2.2c0-1.6-1-2.2-1.8-2.2c-0.8,0-1.8,0.6-1.8,2.2
		C175.9,100.4,176.9,101,177.7,101z"/>
	<path d="M186.7,100.6c1.3,0.3,1.9,1.2,1.9,2c0,1.4-1.3,2.3-2.8,2.3c-1.8,0-3.1-1.3-3.1-3.3h1.1c0,1.8,1.1,2.4,2,2.4
		c1.2,0,1.8-0.7,1.8-1.5s-0.7-1.7-2-1.7h-0.2c-1.5,0-2.7-1.2-2.7-2.6s1.2-2.6,2.7-2.6c0.4,0,0.7,0.1,1,0.2h3l-0.7,0.8h-1.2
		c0.4,0.5,0.6,1.1,0.6,1.7C188.2,99.3,187.6,100.2,186.7,100.6L186.7,100.6z M187.2,98.3c0-1-0.6-1.8-1.7-1.8c-1,0-1.7,0.8-1.7,1.8
		c0,1,0.6,1.8,1.7,1.8C186.5,100,187.2,99.3,187.2,98.3z"/>
	<path d="M190.6,98.8c0-1.7,1.3-3.1,2.9-3.1c1.8,0,2.9,1.4,2.9,3.4h-4.7c0.1,1.1,0.7,2,1.9,2c0.7,0,1.2-0.3,1.6-0.9h1.1
		c-0.4,1-1.4,1.8-2.7,1.8C191.8,101.9,190.6,100.5,190.6,98.8z M191.8,98.2h3.5c-0.1-1-0.7-1.6-1.7-1.6
		C192.6,96.6,191.9,97.2,191.8,98.2z"/>
	<path d="M139.4,114.1h1c0.1,0.6,0.4,1,1.2,1c0.7,0,1-0.4,1-0.8c0-0.4-0.3-0.7-1-1l-0.7-0.3c-0.9-0.4-1.4-1-1.4-1.7
		c0-1,0.8-1.6,1.9-1.6c0.8,0,1.8,0.6,2,1.8h-1c-0.1-0.6-0.5-0.9-1-0.9c-0.6,0-0.8,0.3-0.8,0.7c0,0.5,0.4,0.7,0.8,0.9l0.7,0.3
		c0.9,0.4,1.5,0.9,1.5,1.9c0,0.9-0.8,1.6-2,1.6C140.5,116,139.5,115.4,139.4,114.1z"/>
	<path d="M147,111.1L147,111.1c0.2-0.4,0.9-1.2,2-1.2c1.3,0,2.7,1.1,2.7,3.1c0,2-1.4,3.1-2.7,3.1c-1.1,0-1.7-0.8-1.9-1.2h0v4.2H146
		v-9h1.1V111.1z M148.7,110.8c-0.8,0-1.8,0.6-1.8,2.2c0,1.6,1,2.2,1.8,2.2c0.8,0,1.8-0.6,1.8-2.2
		C150.6,111.4,149.6,110.8,148.7,110.8z"/>
	<path d="M158.3,114.8L158.3,114.8c-0.2,0.4-0.9,1.2-2,1.2c-1.3,0-2.7-1.1-2.7-3.1c0-2,1.4-3.1,2.7-3.1c1.1,0,1.7,0.8,1.9,1.2h0V110
		h1.1v5.9h-1.1V114.8z M156.5,115.1c0.8,0,1.8-0.6,1.8-2.2c0-1.6-1-2.2-1.8-2.2c-0.8,0-1.8,0.6-1.8,2.2
		C154.7,114.5,155.7,115.1,156.5,115.1z"/>
	<path d="M164.6,109.8c1.2,0,2.2,0.8,2.5,1.9H166c-0.2-0.6-0.7-1-1.4-1c-1.2,0-1.9,1-1.9,2.2c0,1.2,0.7,2.2,1.9,2.2
		c0.7,0,1.2-0.4,1.4-1h1.1c-0.3,1.1-1.4,1.9-2.5,1.9c-1.7,0-2.9-1.4-2.9-3.1C161.7,111.2,162.8,109.8,164.6,109.8z"/>
	<path d="M169,112.9c0-1.7,1.3-3.1,2.9-3.1c1.8,0,2.9,1.4,2.9,3.4h-4.7c0.1,1.1,0.7,2,1.9,2c0.7,0,1.2-0.3,1.6-0.9h1.1
		c-0.4,1-1.4,1.8-2.7,1.8C170.2,116,169,114.7,169,112.9z M170.1,112.3h3.5c-0.1-1-0.7-1.6-1.7-1.6
		C171,110.7,170.3,111.4,170.1,112.3z"/>
</g>
</svg>
