<svg xmlns="http://www.w3.org/2000/svg" xmlns:xlink="http://www.w3.org/1999/xlink" id="Layer_1" x="0" y="0" version="1.1" viewBox="0 0 210 130" xml:space="preserve">
  <defs/>
  <style>
    .st1{fill:#00bec8}
  </style>
  <defs>
    <path id="SVGID_1_" d="M122.4 10v34H5v71.8h125v-34h75V10h-82.6zm75 64.2h-75v34H12.6V51.6H130v-34h67.4v56.6z"/>
  </defs>
  <clipPath id="SVGID_2_">
    <use overflow="visible" xlink:href="#SVGID_1_"/>
  </clipPath>
  <g clip-path="url(#SVGID_2_)">
    <path d="M-177 44.7h294v.6h-294z" class="st1" transform="rotate(-45 -29.963297 45.0523976)"/>
    <path d="M-173.5 44.7h294v.6h-294z" class="st1" transform="rotate(-45 -26.488036 45.0525445)"/>
    <path d="M-170 44.7h294v.6h-294z" class="st1" transform="rotate(-45 -23.0128459 45.0525208)"/>
    <path d="M-166.5 44.7h294v.6h-294z" class="st1" transform="rotate(-45 -19.537535 45.052547)"/>
    <path d="M-163.1 44.7h294v.6h-294z" class="st1" transform="rotate(-45 -16.0623949 45.052644)"/>
    <path d="M-159.6 44.7h294v.6h-294z" class="st1" transform="rotate(-45 -12.587084 45.0526702)"/>
    <path d="M-156.1 44.7h294v.6h-294z" class="st1" transform="rotate(-45 -9.1118938 45.0526464)"/>
    <path d="M-152.6 44.7h294v.6h-294z" class="st1" transform="rotate(-45 -5.636583 45.0526727)"/>
    <path d="M-149.2 44.7h294v.6h-294z" class="st1" transform="rotate(-45 -2.1614428 45.0527696)"/>
    <path d="M-145.7 44.7h294v.6h-294z" class="st1" transform="rotate(-45 1.313868 45.0527959)"/>
    <path d="M-142.2 44.7h294v.6h-294z" class="st1" transform="rotate(-45 4.7890582 45.052772)"/>
    <path d="M-138.7 44.7h294v.6h-294z" class="st1" transform="rotate(-45 8.264319 45.052919)"/>
    <path d="M-135.3 44.7h294v.6h-294z" class="st1" transform="rotate(-45 11.7395092 45.0528953)"/>
    <path d="M-131.8 44.7h294v.6h-294z" class="st1" transform="rotate(-45 15.21482 45.0529215)"/>
    <path d="M-128.3 44.7h294v.6h-294z" class="st1" transform="rotate(-45 18.6899602 45.0530185)"/>
    <path d="M-124.8 44.7h294v.6h-294z" class="st1" transform="rotate(-45 22.1652711 45.0530447)"/>
    <path d="M-121.4 44.7h294v.6h-294z" class="st1" transform="rotate(-45 25.6404613 45.053021)"/>
    <path d="M-117.9 44.7h294v.6h-294z" class="st1" transform="rotate(-45 29.1157221 45.0531679)"/>
    <path d="M-114.4 44.7h294v.6h-294z" class="st1" transform="rotate(-45 32.5909123 45.0531441)"/>
    <path d="M-110.9 44.7h294v.6h-294z" class="st1" transform="rotate(-45 36.0662232 45.0531704)"/>
    <path d="M-107.5 44.7h294v.6h-294z" class="st1" transform="rotate(-45 39.5413633 45.0532673)"/>
    <path d="M-104 44.7h294v.6h-294z" class="st1" transform="rotate(-45 43.0166742 45.0532936)"/>
    <path d="M-100.5 44.7h294v.6h-294z" class="st1" transform="rotate(-45 46.4918643 45.0532698)"/>
    <path d="M-97 44.7h294v.6H-97z" class="st1" transform="rotate(-45 49.9671252 45.0534167)"/>
    <path d="M-93.6 44.7h294v.6h-294z" class="st1" transform="rotate(-45 53.4423154 45.053393)"/>
    <path d="M-90.1 44.7h294v.6h-294z" class="st1" transform="rotate(-45 56.9176262 45.0534192)"/>
    <path d="M-86.6 44.7h294v.6h-294z" class="st1" transform="rotate(-45 60.3927664 45.0535162)"/>
    <path d="M-83.1 44.7h294v.6h-294z" class="st1" transform="rotate(-45 63.8680773 45.0535424)"/>
    <path d="M-79.7 44.7h294v.6h-294z" class="st1" transform="rotate(-45 67.3432674 45.0535186)"/>
    <path d="M-76.2 44.7h294v.6h-294z" class="st1" transform="rotate(-45 70.8185283 45.0536656)"/>
    <path d="M-72.7 44.7h294v.6h-294z" class="st1" transform="rotate(-45 74.2937184 45.0536418)"/>
    <path d="M-69.2 44.7h294v.6h-294z" class="st1" transform="rotate(-45 77.7690293 45.053668)"/>
    <path d="M-65.8 44.7h294v.6h-294z" class="st1" transform="rotate(-45 81.2441695 45.053765)"/>
    <path d="M-62.3 44.7h294v.6h-294z" class="st1" transform="rotate(-45 84.7194803 45.0537912)"/>
    <path d="M-58.8 44.7h294v.6h-294z" class="st1" transform="rotate(-45 88.1946705 45.0537675)"/>
    <path d="M-55.3 44.7h294v.6h-294z" class="st1" transform="rotate(-45 91.6699814 45.0537937)"/>
    <path d="M-51.9 44.7h294v.6h-294z" class="st1" transform="rotate(-45 95.1451215 45.0538907)"/>
    <path d="M-48.4 44.7h294v.6h-294z" class="st1" transform="rotate(-45 98.6204324 45.053917)"/>
    <path d="M-44.9 44.7h294v.6h-294z" class="st1" transform="rotate(-45 102.0956225 45.0538931)"/>
    <path d="M-41.4 44.7h294v.6h-294z" class="st1" transform="rotate(-45 105.5708834 45.05404)"/>
    <path d="M-38 44.7h294v.6H-38z" class="st1" transform="rotate(-45 109.0460697 45.0540256)"/>
    <path d="M-34.5 44.7h294v.6h-294z" class="st1" transform="rotate(-45 112.5213844 45.0540426)"/>
    <path d="M-31 44.7h294v.6H-31z" class="st1" transform="rotate(-45 115.9965246 45.0541395)"/>
    <path d="M-27.5 44.7h294v.6h-294z" class="st1" transform="rotate(-45 119.4718355 45.0541658)"/>
    <path d="M-24.1 44.7h294v.6h-294z" class="st1" transform="rotate(-45 122.9470256 45.054142)"/>
    <path d="M-20.6 44.7h294v.6h-294z" class="st1" transform="rotate(-45 126.4222865 45.054289)"/>
    <path d="M-17.1 44.7h294v.6h-294z" class="st1" transform="rotate(-45 129.8974766 45.0542652)"/>
    <path d="M-13.6 44.7h294v.6h-294z" class="st1" transform="rotate(-45 133.3727875 45.0542914)"/>
    <path d="M-10.2 44.7h294v.6h-294z" class="st1" transform="rotate(-45 136.8479277 45.0543884)"/>
    <path d="M-6.7 44.7h294v.6h-294z" class="st1" transform="rotate(-45 140.3232385 45.0544146)"/>
    <path d="M-3.2 44.7h294v.6h-294z" class="st1" transform="rotate(-45 143.7984287 45.0543908)"/>
    <path d="M.3 44.7h294v.6H.3z" class="st1" transform="rotate(-45 147.2736896 45.0545378)"/>
    <path d="M3.7 44.7h294v.6H3.7z" class="st1" transform="rotate(-45 150.7488797 45.054514)"/>
    <path d="M7.2 44.7h294v.6H7.2z" class="st1" transform="rotate(-45 154.2241906 45.0545403)"/>
    <path d="M10.7 44.7h294v.6h-294z" class="st1" transform="rotate(-45 157.6993307 45.0546372)"/>
    <path d="M14.2 44.7h294v.6h-294z" class="st1" transform="rotate(-45 161.1746416 45.0546634)"/>
    <path d="M17.6 44.7h294v.6h-294z" class="st1" transform="rotate(-45 164.6498318 45.0546397)"/>
    <path d="M21.1 44.7h294v.6h-294z" class="st1" transform="rotate(-45 168.1250926 45.0547866)"/>
    <path d="M24.6 44.7h294v.6h-294z" class="st1" transform="rotate(-45 171.6002828 45.0547629)"/>
    <path d="M28.1 44.7h294v.6h-294z" class="st1" transform="rotate(-45 175.0755936 45.0547891)"/>
    <path d="M31.5 44.7h294v.6h-294z" class="st1" transform="rotate(-45 178.5507838 45.0547653)"/>
    <path d="M35 44.7h294v.6H35z" class="st1" transform="rotate(-45 182.0260447 45.0549123)"/>
    <path d="M38.5 44.7h294v.6h-294z" class="st1" transform="rotate(-45 185.5012348 45.0548885)"/>
    <path d="M42 44.7h294v.6H42z" class="st1" transform="rotate(-45 188.9765457 45.0549148)"/>
    <path d="M45.4 44.7h294v.6h-294z" class="st1" transform="rotate(-45 192.4518066 45.0550617)"/>
    <path d="M48.9 44.7h294v.6h-294z" class="st1" transform="rotate(-45 195.9269967 45.055038)"/>
    <path d="M52.4 44.7h294v.6h-294z" class="st1" transform="rotate(-45 199.4021869 45.0550142)"/>
    <path d="M55.9 44.7h294v.6h-294z" class="st1" transform="rotate(-45 202.8774477 45.0551611)"/>
    <path d="M59.3 44.7h294v.6h-294z" class="st1" transform="rotate(-45 206.3526379 45.0551374)"/>
    <path d="M62.8 44.7h294v.6h-294z" class="st1" transform="rotate(-45 209.8279488 45.0551636)"/>
    <path d="M66.3 44.7h294v.6h-294z" class="st1" transform="rotate(-45 213.303089 45.0552606)"/>
    <path d="M69.8 44.7h294v.6h-294z" class="st1" transform="rotate(-45 216.7783998 45.0552868)"/>
    <path d="M73.2 44.7h294v.6h-294z" class="st1" transform="rotate(-45 220.25359 45.055263)"/>
    <path d="M76.7 44.7h294v.6h-294z" class="st1" transform="rotate(-45 223.7288508 45.05541)"/>
    <path d="M80.2 44.7h294v.6h-294z" class="st1" transform="rotate(-45 227.2041617 45.0554362)"/>
    <path d="M83.7 44.7h294v.6h-294z" class="st1" transform="rotate(-45 230.6793518 45.0554125)"/>
    <path d="M87.1 44.7h294v.6h-294z" class="st1" transform="rotate(-45 234.1546127 45.0555594)"/>
    <path d="M90.6 44.7h294v.6h-294z" class="st1" transform="rotate(-45 237.6298029 45.0555357)"/>
    <path d="M94.1 44.7h294v.6h-294z" class="st1" transform="rotate(-45 241.104993 45.0555119)"/>
    <path d="M97.6 44.7h294v.6h-294z" class="st1" transform="rotate(-45 244.5802539 45.0556588)"/>
    <path d="M101 44.7h294v.6H101z" class="st1" transform="rotate(-45 248.055444 45.055635)"/>
    <path d="M104.5 44.7h294v.6h-294z" class="st1" transform="rotate(-45 251.530755 45.0556613)"/>
    <path d="M108 44.7h294v.6H108z" class="st1" transform="rotate(-45 255.0060158 45.0558083)"/>
    <path d="M111.5 44.7h294v.6h-294z" class="st1" transform="rotate(-45 258.481206 45.0557845)"/>
  </g>
  <path d="M44.3 82.4H27.5v15.3H24V62.9h21.5v3h-18v13.4h16.8v3.1zM53.4 97.7H50v-25h3l.2 3.3 3.2-2.4c.9-.7 2.2-1.1 3.8-1.1h3.3v2.9h-3.2c-1.1 0-2.1.3-2.9.9l-4.1 3.2v18.2zM86.2 91.4c0 4.2-2.4 6.5-6.6 6.5h-5.8c-4.2 0-6.6-2.3-6.6-6.7v-12c0-4.3 2.4-6.7 6.6-6.7h5.8c4.2 0 6.6 2.3 6.6 6.7v6.7H70.5v5.8c0 2.2 1.1 3.4 3.3 3.4h5.7c2.2 0 3.3-1.1 3.3-3.4v-1.8h3.3v1.5zm-15.7-8.2H83v-4.5c0-2.2-1.1-3.4-3.4-3.4h-5.7c-2.2 0-3.3 1.1-3.3 3.4v4.5zM111.3 91.4c0 4.2-2.4 6.5-6.6 6.5h-5.8c-4.2 0-6.6-2.3-6.6-6.7v-12c0-4.3 2.4-6.7 6.6-6.7h5.8c4.2 0 6.6 2.3 6.6 6.7v6.7H95.6v5.8c0 2.2 1.1 3.4 3.3 3.4h5.7c2.2 0 3.3-1.1 3.3-3.4v-1.8h3.3v1.5zm-15.7-8.2h12.5v-4.5c0-2.2-1.1-3.4-3.4-3.4H99c-2.2 0-3.3 1.1-3.3 3.4v4.5z"/>
  <g>
    <path d="M140 62.8V28h15.2c5 0 7.7 2.7 7.7 7.8V55c0 5-2.7 7.8-7.7 7.8H140zm3.5-3.1h11.8c2.8 0 4.2-1.4 4.2-4.2V35.3c0-2.8-1.4-4.2-4.2-4.2h-11.8v28.6zM182.5 61.8c-1.2.8-2.6 1.2-3.9 1.2h-3.2c-3.7 0-5.9-1.8-5.9-5.3v-3.5c0-3.2 2-5 5.9-5.4l9.5-1v-4.1c0-2.1-1.1-3.2-3.3-3.2h-5.1c-2.2 0-3.3 1-3.3 3.2v1.6h-3.3V44c0-4.1 2.4-6.3 6.6-6.3h5.5c4 0 6.3 2.2 6.3 6.1v19.1h-2.9l-.2-2.7-2.7 1.6zm-3.7-1.6c.9 0 1.9-.3 2.8-.9l3.2-2.1v-6.7l-9.1 1.1c-2.1.2-3.1.9-3.1 2.8v3.2c0 1.8.8 2.6 2.9 2.6h3.3z"/>
  </g>
  <g>
    <path d="M141.1 101.7H140V92h1.1v9.7zM148.1 100.6c-.2.4-.9 1.2-2 1.2-1.3 0-2.7-1.1-2.7-3.1s1.4-3.1 2.7-3.1c1.1 0 1.7.8 1.9 1.2v-1.1h1.1v5.9H148v-1zm-1.7.4c.8 0 1.8-.6 1.8-2.2s-1-2.2-1.8-2.2-1.8.6-1.8 2.2 1 2.2 1.8 2.2zM155.1 95.7c1 0 2 .6 2 2.2v3.8H156v-3.6c0-1-.5-1.5-1.3-1.5-1 0-1.7.8-1.7 2.3v2.8h-1v-5.9h1.1v1.3c.4-1 1.1-1.4 2-1.4zM163.2 100.6c1.3.3 1.9 1.2 1.9 2 0 1.4-1.3 2.3-2.8 2.3-1.8 0-3.1-1.3-3.1-3.3h1.1c0 1.8 1.1 2.4 2 2.4 1.2 0 1.8-.7 1.8-1.5s-.7-1.7-2-1.7h-.1c-1.5 0-2.7-1.2-2.7-2.6s1.2-2.6 2.7-2.6c.4 0 .7.1 1 .2h3l-.8.8H164c.4.5.6 1.1.6 1.7.1 1-.5 1.9-1.4 2.3zm.5-2.3c0-1-.6-1.8-1.7-1.8-1 0-1.7.8-1.7 1.8s.6 1.8 1.7 1.8c1-.1 1.7-.8 1.7-1.8zM167.5 99.6v-3.8h1.1v3.6c0 .9.4 1.5 1.2 1.5 1 0 1.6-.8 1.6-2.3v-2.8h1v5.9h-1v-1.3c-.4 1-1.1 1.4-1.9 1.4-1 0-2-.6-2-2.2zM179.5 100.6c-.2.4-.9 1.2-2 1.2-1.3 0-2.7-1.1-2.7-3.1s1.4-3.1 2.7-3.1c1.1 0 1.7.8 1.9 1.2v-1.1h1.1v5.9h-1.1v-1zm-1.8.4c.8 0 1.8-.6 1.8-2.2s-1-2.2-1.8-2.2-1.8.6-1.8 2.2 1 2.2 1.8 2.2zM186.7 100.6c1.3.3 1.9 1.2 1.9 2 0 1.4-1.3 2.3-2.8 2.3-1.8 0-3.1-1.3-3.1-3.3h1.1c0 1.8 1.1 2.4 2 2.4 1.2 0 1.8-.7 1.8-1.5s-.7-1.7-2-1.7h-.2c-1.5 0-2.7-1.2-2.7-2.6s1.2-2.6 2.7-2.6c.4 0 .7.1 1 .2h3l-.7.8h-1.2c.4.5.6 1.1.6 1.7.1 1-.5 1.9-1.4 2.3zm.5-2.3c0-1-.6-1.8-1.7-1.8-1 0-1.7.8-1.7 1.8s.6 1.8 1.7 1.8c1-.1 1.7-.8 1.7-1.8zM190.6 98.8c0-1.7 1.3-3.1 2.9-3.1 1.8 0 2.9 1.4 2.9 3.4h-4.7c.1 1.1.7 2 1.9 2 .7 0 1.2-.3 1.6-.9h1.1c-.4 1-1.4 1.8-2.7 1.8-1.8-.1-3-1.5-3-3.2zm1.2-.6h3.5c-.1-1-.7-1.6-1.7-1.6s-1.7.6-1.8 1.6zM139.4 114.1h1c.1.6.4 1 1.2 1 .7 0 1-.4 1-.8s-.3-.7-1-1l-.7-.3c-.9-.4-1.4-1-1.4-1.7 0-1 .8-1.6 1.9-1.6.8 0 1.8.6 2 1.8h-1c-.1-.6-.5-.9-1-.9-.6 0-.8.3-.8.7 0 .5.4.7.8.9l.7.3c.9.4 1.5.9 1.5 1.9 0 .9-.8 1.6-2 1.6-1.1 0-2.1-.6-2.2-1.9zM147 111.1c.2-.4.9-1.2 2-1.2 1.3 0 2.7 1.1 2.7 3.1s-1.4 3.1-2.7 3.1c-1.1 0-1.7-.8-1.9-1.2v4.2H146v-9h1.1v1zm1.7-.3c-.8 0-1.8.6-1.8 2.2s1 2.2 1.8 2.2 1.8-.6 1.8-2.2c.1-1.6-.9-2.2-1.8-2.2zM158.3 114.8c-.2.4-.9 1.2-2 1.2-1.3 0-2.7-1.1-2.7-3.1s1.4-3.1 2.7-3.1c1.1 0 1.7.8 1.9 1.2v-1h1.1v5.9h-1.1v-1.1zm-1.8.3c.8 0 1.8-.6 1.8-2.2s-1-2.2-1.8-2.2-1.8.6-1.8 2.2 1 2.2 1.8 2.2zM164.6 109.8c1.2 0 2.2.8 2.5 1.9H166c-.2-.6-.7-1-1.4-1-1.2 0-1.9 1-1.9 2.2 0 1.2.7 2.2 1.9 2.2.7 0 1.2-.4 1.4-1h1.1c-.3 1.1-1.4 1.9-2.5 1.9-1.7 0-2.9-1.4-2.9-3.1 0-1.7 1.1-3.1 2.9-3.1zM169 112.9c0-1.7 1.3-3.1 2.9-3.1 1.8 0 2.9 1.4 2.9 3.4h-4.7c.1 1.1.7 2 1.9 2 .7 0 1.2-.3 1.6-.9h1.1c-.4 1-1.4 1.8-2.7 1.8-1.8-.1-3-1.4-3-3.2zm1.1-.6h3.5c-.1-1-.7-1.6-1.7-1.6-.9 0-1.6.7-1.8 1.6z"/>
  </g>
</svg>
