<?xml version="1.0" encoding="utf-8"?>
<!-- Generator: Adobe Illustrator 21.1.0, SVG Export Plug-In . SVG Version: 6.00 Build 0)  -->
<svg version="1.1" id="Layer_1" xmlns="http://www.w3.org/2000/svg" xmlns:xlink="http://www.w3.org/1999/xlink" x="0px" y="0px"
	 viewBox="0 0 1200 900" style="enable-background:new 0 0 1200 900;" xml:space="preserve">
<style type="text/css">
	.st0{fill:#17BDC6;}
</style>
<g>
	<polygon class="st0" points="313,445.9 313.5,445.4 313,445.4 	"/>
	<polygon class="st0" points="317.8,445.4 316.7,445.4 313,448.9 313,449.9 	"/>
	<polygon class="st0" points="322,445.4 320.9,445.4 313,452.8 313,453.9 	"/>
	<polygon class="st0" points="326.3,445.4 325.2,445.4 313,456.8 313,457.8 	"/>
	<polygon class="st0" points="330.5,445.4 329.4,445.4 313,460.8 313,461.8 	"/>
	<polygon class="st0" points="334.7,445.4 333.6,445.4 313,464.8 313,465.8 	"/>
	<polygon class="st0" points="339,445.4 337.9,445.4 314.5,467.3 315.6,467.3 	"/>
	<polygon class="st0" points="343.2,445.4 342.1,445.4 318.7,467.3 319.8,467.3 	"/>
	<polygon class="st0" points="347.5,445.4 346.4,445.4 323,467.3 324.1,467.3 	"/>
	<polygon class="st0" points="351.7,445.4 350.6,445.4 327.2,467.3 328.3,467.3 	"/>
	<polygon class="st0" points="355.9,445.4 354.8,445.4 331.5,467.3 332.5,467.3 	"/>
	<polygon class="st0" points="360.2,445.4 359.1,445.4 335.7,467.3 336.8,467.3 	"/>
	<polygon class="st0" points="364.4,445.4 363.3,445.4 339.9,467.3 341,467.3 	"/>
	<polygon class="st0" points="368.6,445.4 367.6,445.4 344.2,467.3 345.3,467.3 	"/>
	<polygon class="st0" points="372.9,445.4 371.8,445.4 348.4,467.3 349.5,467.3 	"/>
	<polygon class="st0" points="377.1,445.4 376,445.4 352.6,467.3 353.7,467.3 	"/>
	<polygon class="st0" points="381.4,445.4 380.3,445.4 356.9,467.3 358,467.3 	"/>
	<polygon class="st0" points="385.6,445.4 384.5,445.4 361.1,467.3 362.2,467.3 	"/>
	<polygon class="st0" points="389.8,445.4 388.7,445.4 365.4,467.3 366.5,467.3 	"/>
	<polygon class="st0" points="394.1,445.4 393,445.4 369.6,467.3 370.7,467.3 	"/>
	<polygon class="st0" points="398.3,445.4 397.2,445.4 373.8,467.3 374.9,467.3 	"/>
	<polygon class="st0" points="402.6,445.4 401.5,445.4 378.1,467.3 379.2,467.3 	"/>
	<polygon class="st0" points="406.8,445.4 405.7,445.4 382.3,467.3 383.4,467.3 	"/>
	<polygon class="st0" points="411,445.4 409.9,445.4 386.6,467.3 387.6,467.3 	"/>
	<polygon class="st0" points="415.3,445.4 414.2,445.4 390.8,467.3 391.9,467.3 	"/>
	<polygon class="st0" points="419.5,445.4 418.4,445.4 395,467.3 396.1,467.3 	"/>
	<polygon class="st0" points="423.7,445.4 422.7,445.4 399.3,467.3 400.4,467.3 	"/>
	<polygon class="st0" points="428,445.4 426.9,445.4 403.5,467.3 404.6,467.3 	"/>
	<polygon class="st0" points="432.2,445.4 431.1,445.4 407.7,467.3 408.8,467.3 	"/>
	<polygon class="st0" points="436.5,445.4 435.4,445.4 412,467.3 413.1,467.3 	"/>
	<polygon class="st0" points="440.7,445.4 439.6,445.4 416.2,467.3 417.3,467.3 	"/>
	<polygon class="st0" points="444.9,445.4 443.8,445.4 420.5,467.3 421.6,467.3 	"/>
	<polygon class="st0" points="449.2,445.4 448.1,445.4 424.7,467.3 425.8,467.3 	"/>
	<polygon class="st0" points="453.4,445.4 452.3,445.4 428.9,467.3 430,467.3 	"/>
	<polygon class="st0" points="457.7,445.4 456.6,445.4 433.2,467.3 434.3,467.3 	"/>
	<polygon class="st0" points="461.9,445.4 460.8,445.4 437.4,467.3 438.5,467.3 	"/>
	<polygon class="st0" points="466.1,445.4 465,445.4 441.7,467.3 442.7,467.3 	"/>
	<polygon class="st0" points="470.4,445.4 469.3,445.4 445.9,467.3 447,467.3 	"/>
	<polygon class="st0" points="474.6,445.4 473.5,445.4 450.1,467.3 451.2,467.3 	"/>
	<polygon class="st0" points="478.8,445.4 477.7,445.4 454.4,467.3 455.5,467.3 	"/>
	<polygon class="st0" points="483.1,445.4 482,445.4 458.6,467.3 459.7,467.3 	"/>
	<polygon class="st0" points="487.3,445.4 486.2,445.4 462.8,467.3 463.9,467.3 	"/>
	<polygon class="st0" points="491.6,445.4 490.5,445.4 467.1,467.3 468.2,467.3 	"/>
	<polygon class="st0" points="495.8,445.4 494.7,445.4 471.3,467.3 472.4,467.3 	"/>
	<polygon class="st0" points="500,445.4 498.9,445.4 475.6,467.3 476.7,467.3 	"/>
	<polygon class="st0" points="504.3,445.4 503.2,445.4 479.8,467.3 480.9,467.3 	"/>
	<polygon class="st0" points="508.5,445.4 507.4,445.4 484,467.3 485.1,467.3 	"/>
	<polygon class="st0" points="512.8,445.4 511.7,445.4 488.3,467.3 489.4,467.3 	"/>
	<polygon class="st0" points="517,445.4 515.9,445.4 492.5,467.3 493.6,467.3 	"/>
	<polygon class="st0" points="521.2,445.4 520.1,445.4 496.8,467.3 497.8,467.3 	"/>
	<polygon class="st0" points="525.5,445.4 524.4,445.4 501,467.3 502.1,467.3 	"/>
	<polygon class="st0" points="529.7,445.4 528.6,445.4 505.2,467.3 506.3,467.3 	"/>
	<polygon class="st0" points="533.9,445.4 532.8,445.4 509.5,467.3 510.6,467.3 	"/>
	<polygon class="st0" points="538.2,445.4 537.1,445.4 513.7,467.3 514.8,467.3 	"/>
	<polygon class="st0" points="542.4,445.4 541.3,445.4 517.9,467.3 519,467.3 	"/>
	<polygon class="st0" points="546.7,445.4 545.6,445.4 522.2,467.3 523.3,467.3 	"/>
	<polygon class="st0" points="550.9,445.4 549.8,445.4 526.4,467.3 527.5,467.3 	"/>
	<polygon class="st0" points="555.1,445.4 554,445.4 530.7,467.3 531.8,467.3 	"/>
	<polygon class="st0" points="559.4,445.4 558.3,445.4 534.9,467.3 536,467.3 	"/>
	<polygon class="st0" points="563.6,445.4 562.5,445.4 539.1,467.3 540.2,467.3 	"/>
	<polygon class="st0" points="567.9,445.4 566.8,445.4 543.4,467.3 544.5,467.3 	"/>
	<polygon class="st0" points="572.1,445.4 571,445.4 547.6,467.3 548.7,467.3 	"/>
	<polygon class="st0" points="576.3,445.4 575.2,445.4 551.8,467.3 552.9,467.3 	"/>
	<polygon class="st0" points="580.6,445.4 579.5,445.4 556.1,467.3 557.2,467.3 	"/>
	<polygon class="st0" points="584.8,445.4 583.7,445.4 560.3,467.3 561.4,467.3 	"/>
	<polygon class="st0" points="589,445.4 587.9,445.4 564.6,467.3 565.7,467.3 	"/>
	<polygon class="st0" points="593.3,445.4 592.2,445.4 568.8,467.3 569.9,467.3 	"/>
	<polygon class="st0" points="597.5,445.4 596.4,445.4 573,467.3 574.1,467.3 	"/>
	<polygon class="st0" points="601.8,445.4 600.7,445.4 577.3,467.3 578.4,467.3 	"/>
	<polygon class="st0" points="606,445.4 604.9,445.4 581.5,467.3 582.6,467.3 	"/>
	<polygon class="st0" points="610.2,445.4 609.1,445.4 585.8,467.3 586.9,467.3 	"/>
	<polygon class="st0" points="614.5,445.4 613.4,445.4 590,467.3 591.1,467.3 	"/>
	<polygon class="st0" points="618.7,445.4 617.6,445.4 594.2,467.3 595.3,467.3 	"/>
	<polygon class="st0" points="622.9,445.4 621.9,445.4 598.5,467.3 599.6,467.3 	"/>
	<polygon class="st0" points="627.2,445.4 626.1,445.4 602.7,467.3 603.8,467.3 	"/>
	<polygon class="st0" points="631.4,445.4 630.3,445.4 606.9,467.3 608,467.3 	"/>
	<polygon class="st0" points="635.7,445.4 634.6,445.4 611.2,467.3 612.3,467.3 	"/>
	<polygon class="st0" points="639.9,445.4 638.8,445.4 615.4,467.3 616.5,467.3 	"/>
	<polygon class="st0" points="644.1,445.4 643,445.4 619.7,467.3 620.8,467.3 	"/>
	<polygon class="st0" points="648.4,445.4 647.3,445.4 623.9,467.3 625,467.3 	"/>
	<polygon class="st0" points="652.6,445.4 651.5,445.4 628.1,467.3 629.2,467.3 	"/>
	<polygon class="st0" points="656.9,445.4 655.8,445.4 632.4,467.3 633.5,467.3 	"/>
	<polygon class="st0" points="661.1,445.4 660,445.4 636.6,467.3 637.7,467.3 	"/>
	<polygon class="st0" points="665.3,445.4 664.2,445.4 640.9,467.3 642,467.3 	"/>
	<polygon class="st0" points="669.6,445.4 668.5,445.4 645.1,467.3 646.2,467.3 	"/>
	<polygon class="st0" points="673.8,445.4 672.7,445.4 649.3,467.3 650.4,467.3 	"/>
	<polygon class="st0" points="678,445.4 677,445.4 653.6,467.3 654.7,467.3 	"/>
	<polygon class="st0" points="682.3,445.4 681.2,445.4 657.8,467.3 658.9,467.3 	"/>
	<polygon class="st0" points="686.5,445.4 685.4,445.4 662,467.3 663.1,467.3 	"/>
	<polygon class="st0" points="690.8,445.4 689.7,445.4 666.3,467.3 667.4,467.3 	"/>
	<polygon class="st0" points="695,445.4 693.9,445.4 670.5,467.3 671.6,467.3 	"/>
	<polygon class="st0" points="699.2,445.4 698.1,445.4 674.8,467.3 675.9,467.3 	"/>
	<polygon class="st0" points="703.5,445.4 702.4,445.4 679,467.3 680.1,467.3 	"/>
	<polygon class="st0" points="707.7,445.4 706.6,445.4 683.2,467.3 684.3,467.3 	"/>
	<polygon class="st0" points="712,445.4 710.9,445.4 687.5,467.3 688.6,467.3 	"/>
	<polygon class="st0" points="716.2,445.4 715.1,445.4 691.7,467.3 692.8,467.3 	"/>
	<polygon class="st0" points="720.4,445.4 719.3,445.4 696,467.3 697,467.3 	"/>
	<polygon class="st0" points="724.7,445.4 723.6,445.4 700.2,467.3 701.3,467.3 	"/>
	<polygon class="st0" points="728.9,445.4 727.8,445.4 704.4,467.3 705.5,467.3 	"/>
	<polygon class="st0" points="733.1,445.4 732.1,445.4 708.7,467.3 709.8,467.3 	"/>
	<polygon class="st0" points="737.4,445.4 736.3,445.4 712.9,467.3 714,467.3 	"/>
	<polygon class="st0" points="741.6,445.4 740.5,445.4 717.1,467.3 718.2,467.3 	"/>
	<polygon class="st0" points="745.9,445.4 744.8,445.4 721.4,467.3 722.5,467.3 	"/>
	<polygon class="st0" points="750.1,445.4 749,445.4 725.6,467.3 726.7,467.3 	"/>
	<polygon class="st0" points="754.3,445.4 753.2,445.4 729.9,467.3 731,467.3 	"/>
	<polygon class="st0" points="758.6,445.4 757.5,445.4 734.1,467.3 735.2,467.3 	"/>
	<polygon class="st0" points="762.8,445.4 761.7,445.4 738.3,467.3 739.4,467.3 	"/>
	<polygon class="st0" points="767.1,445.4 766,445.4 742.6,467.3 743.7,467.3 	"/>
	<polygon class="st0" points="771.3,445.4 770.2,445.4 746.8,467.3 747.9,467.3 	"/>
	<polygon class="st0" points="775.5,445.4 774.4,445.4 751.1,467.3 752.1,467.3 	"/>
	<polygon class="st0" points="779.8,445.4 778.7,445.4 755.3,467.3 756.4,467.3 	"/>
	<polygon class="st0" points="784,445.4 782.9,445.4 759.5,467.3 760.6,467.3 	"/>
	<polygon class="st0" points="788.2,445.4 787.2,445.4 763.8,467.3 764.9,467.3 	"/>
	<polygon class="st0" points="792.5,445.4 791.4,445.4 768,467.3 769.1,467.3 	"/>
	<polygon class="st0" points="795.3,446.7 795.3,445.7 772.2,467.3 773.3,467.3 	"/>
	<polygon class="st0" points="795.3,450.7 795.3,449.6 776.5,467.3 777.6,467.3 	"/>
	<polygon class="st0" points="795.3,454.7 795.3,453.6 780.7,467.3 781.8,467.3 	"/>
	<polygon class="st0" points="795.3,458.6 795.3,457.6 785,467.3 786.1,467.3 	"/>
	<polygon class="st0" points="795.3,462.6 795.3,461.6 789.2,467.3 790.3,467.3 	"/>
	<polygon class="st0" points="795.3,466.6 795.3,465.6 793.4,467.3 794.5,467.3 	"/>
</g>
</svg>
